<?xml version="1.0" encoding="UTF-8" standalone="no"?>
<!-- Generator: Adobe Illustrator 12.0.0, SVG Export Plug-In . SVG Version: 6.00 Build 51448)  -->

<svg
xmlns:dc="http://purl.org/dc/elements/1.1/"
xmlns:cc="http://creativecommons.org/ns#"
xmlns:rdf="http://www.w3.org/1999/02/22-rdf-syntax-ns#"
xmlns:svg="http://www.w3.org/2000/svg"
xmlns="http://www.w3.org/2000/svg"
xmlns:sodipodi="http://sodipodi.sourceforge.net/DTD/sodipodi-0.dtd"
xmlns:inkscape="http://www.inkscape.org/namespaces/inkscape"
version="1.1"
id="Layer_1"
width="862.16998"
height="609.60718"
viewBox="0 0 862.16998 609.60718"
overflow="visible"
enable-background="new 0 0 1191 842"
xml:space="preserve"
inkscape:version="0.48.0 r9654"
sodipodi:docname="Agrale.svg"
style="overflow:visible"><metadata
id="metadata47"><rdf:RDF><cc:Work
rdf:about=""><dc:format>image/svg+xml</dc:format><dc:type
rdf:resource="http://purl.org/dc/dcmitype/StillImage" /></cc:Work></rdf:RDF></metadata><defs
id="defs45" /><sodipodi:namedview
pagecolor="#ffffff"
bordercolor="#666666"
borderopacity="1"
objecttolerance="10"
gridtolerance="10"
guidetolerance="10"
inkscape:pageopacity="0"
inkscape:pageshadow="2"
inkscape:window-width="640"
inkscape:window-height="480"
id="namedview43"
showgrid="false"
fit-margin-top="0"
fit-margin-left="0"
fit-margin-right="0"
fit-margin-bottom="0"
inkscape:zoom="0.347981"
inkscape:cx="196.205"
inkscape:cy="280.37704"
inkscape:window-x="0"
inkscape:window-y="0"
inkscape:window-maximized="0"
inkscape:current-layer="Layer_1" />
<g
id="g3"
transform="translate(-399.295,-532.62879)">
<g
id="g5">
<path
clip-rule="evenodd"
d="m 501.646,1091.581 -29.286,-0.034 28.568,-50.962 0.718,50.996 0,0 z m -56.943,48.357 10.542,-18.761 46.192,0.051 0.267,18.774 46.196,0.046 -11.033,-142.313 -47.174,-0.061 -90.398,142.213 45.408,0.051 z"
id="path7"
inkscape:connector-curvature="0"
style="fill-rule:evenodd" />
<path
clip-rule="evenodd"
d="m 695.014,1082.732 c -19.833,52.663 -54.373,59.217 -86.866,59.501 -36.165,0.319 -62.172,-25.189 -48.336,-74.777 12.68,-45.451 46.05,-73.381 91.852,-73.335 34.004,0.039 56.364,17.852 52.313,52.827 l -44.031,-0.05 c -0.089,-11.658 -6.78,-18.206 -18.767,-18.002 -14.788,0.255 -31.361,16.625 -38.563,41.663 -7.237,25.159 -7.237,38.839 18.936,38.56 9.438,-0.105 23.245,-6.488 28.355,-16.375 l -32.748,-0.015 8.598,-30.828 75.797,0.064 -6.54,20.767 z"
id="path9"
inkscape:connector-curvature="0"
style="fill-rule:evenodd" />
<path
clip-rule="evenodd"
d="m 768.314,1031.223 21.623,0.024 c 10.815,0 17.354,4.757 14.538,14.833 -2.753,9.887 -11.409,13.43 -25.764,13.415 l -18.276,-0.015 7.879,-28.257 0,0 z m -2.438,59.49 c 21.623,0.024 22.392,5.979 17.876,24.72 -0.146,0.634 -5.496,24.699 -5.496,24.699 h 45.002 c 0,0 1.998,-9.582 6.139,-28.997 6.185,-29.086 -0.065,-32.216 -13.455,-37.766 17.778,-4.526 28.906,-18.351 33.479,-34.75 7.718,-27.664 -4.229,-40.516 -51.404,-40.575 l -66.834,-0.07 -39.683,142.267 46.39,0.05 13.832,-49.594 14.154,0.016 z"
id="path11"
inkscape:connector-curvature="0"
style="fill-rule:evenodd" />
<path
clip-rule="evenodd"
d="m 931.717,1092.08 -29.286,-0.034 28.563,-50.956 0.723,50.99 0,0 z m -56.943,48.361 10.543,-18.766 46.19,0.051 0.264,18.779 46.197,0.05 -11.032,-142.317 -47.175,-0.055 -90.398,142.213 45.411,0.045 z"
id="path13"
inkscape:connector-curvature="0"
style="fill-rule:evenodd" />
<polygon
clip-rule="evenodd"
points="1040.823,1107.427 1104.515,1107.497 1095.254,1140.69 985.184,1140.581 1024.858,998.308 1071.25,998.357 "
id="polygon15"
style="fill-rule:evenodd" />
<polygon
clip-rule="evenodd"
points="1252.207,1031.767 1183.214,1031.696 1177.534,1052.049 1235.912,1052.104 1226.651,1085.308 1168.273,1085.242 1162.048,1107.572 1233.793,1107.651 1224.533,1140.846 1106.398,1140.716 1146.082,998.448 1261.465,998.572 "
id="polygon17"
style="fill-rule:evenodd" />
</g>
<path
clip-rule="evenodd"
d="m 1017.078,822.829 1.593,2.089 5.993,0.27 c 0.555,8.368 -2.407,7.825 -10.149,7.814 -95.209,-0.132 -189.636,0.163 -284.949,-0.655 0.388,-2.927 -0.445,-0.836 5.653,-4.963 l -3.817,-0.221 -5.411,0.803 c -1.871,-9.645 -0.098,-8.291 5.794,-16.981 4.968,-7.329 13.906,-23.194 21.736,-26.281 5.212,-2.055 15.775,-2.339 22.308,-2.339 l 193.164,-0.117 c 9.072,-0.001 14.753,-0.451 21.136,2.988 4.006,2.159 11.055,11.85 14.431,15.799 0.769,0.899 3.194,2.579 6.274,5.997 3.794,4.209 17.226,16.637 6.244,15.797 l 0,0 z m -287.049,-154.141 -0.558,3.438 c 29.811,-0.16 59.601,-0.169 89.418,-0.164 18.114,0.004 17.105,-4.821 24.266,-14.818 0.952,-1.33 1.677,-2.586 2.48,-3.696 l 4.723,-6.305 c 2.102,-2.092 7.073,-10.642 9.123,-13.033 1.931,-2.249 3.193,-4.872 4.496,-6.57 1.936,-6.151 11.495,-7.159 14.839,-1.563 l 6.969,8.978 2.001,3.513 35.625,44.94 c 0.948,1.264 1.563,1.846 1.472,4.274 -0.109,2.899 -0.979,2.804 -3.477,3.109 l 0.284,0.563 c 0.836,1.25 0.804,1.29 1.163,2.945 l 4.314,0.081 c 0.136,3.362 0.385,6.409 -5.164,8.481 -3.72,1.389 -36.74,0.573 -42.212,0.566 l -112.576,-0.088 c -9.434,0 -18.865,-0.029 -28.298,-0.029 -7.897,0 -19.511,-1.099 -25.104,2.25 -1.121,2.683 -2.417,2.613 -6.041,7.549 -0.16,0.219 -0.769,1.081 -0.788,1.101 -1.586,1.556 0.09,0.278 -1.821,1.138 -1.14,1.776 -1.916,2.714 -3.122,4.342 -1.331,1.799 -2.184,3.308 -3.556,5.079 -1.446,1.866 -2.662,3.079 -3.799,4.787 -2.966,4.454 -8.843,12.145 -10.372,15.001 -0.772,1.441 -6.198,7.163 -6.918,9.466 -1.01,3.655 -21.91,30.92 -26.085,36.671 -1.008,1.389 -0.876,1.457 -2.65,2.191 -1.471,2.127 -2.802,3.776 -4.374,6.295 l -14.132,19.051 c -2.483,3.751 -17.606,24.191 -18.035,25.513 -1.096,2.965 -12.688,18.308 -15.924,23.059 l -6.154,-1.469 v 3.306 c 6.498,0.115 8.201,7.047 12.02,14.972 17.008,35.298 8.925,31.797 54.422,31.797 h 418.933 c 12.705,0 25.438,0.084 38.141,0 13.62,-0.09 14.568,-6.512 20.53,-17.544 2.146,-3.97 4.497,-8.082 6.464,-11.946 1.234,-2.426 1.856,-4.477 2.989,-6.505 2.77,-4.961 9.958,-12.934 6.622,-20.409 -1.823,-4.084 -5.882,-7.222 -8.162,-10.868 -3.017,-4.826 0.248,-0.374 -3.813,-5.418 -8.345,-10.365 -24.725,-35.051 -32.436,-43.854 -3.005,-3.431 -2.571,-5.105 -8.307,-10.787 -1.474,-1.46 -2.575,-3.794 -4.005,-5.84 -1.521,-2.175 -2.877,-3.238 -4.149,-5.055 -1.085,-1.547 -0.781,-2.11 -1.604,-3.378 -0.186,-0.286 -1.888,-1.814 -2.433,-2.432 -5.314,-5.997 -23.428,-32.439 -28.305,-38.146 -1.71,-1.999 -2.31,-3.402 -4.281,-5.574 -1.538,-1.695 -2.332,-3.507 -3.892,-5.354 L 1028.537,695.2 c -1.491,-2.056 -1.937,-3.886 -3.482,-5.789 l -16.441,-21.708 c -3.033,-3.802 -3.126,-4.85 -3.951,-5.933 -0.715,-0.938 -2.026,-1.614 -4.436,-4.729 l -12.24,-16.691 c -1.631,-2.18 -2.373,-2.867 -3.916,-5.299 -2.842,-4.481 -3.764,-5.127 -5.947,-8.23 -2.27,-3.225 -1.648,-1.4 -4.262,-5.559 -0.724,-1.151 -1.255,-1.655 -2.172,-2.758 l -8.436,-10.485 c -1.117,-2.106 -2.113,-3.821 -3.639,-5.747 -1.591,-2.01 -3.248,-3.11 -4.521,-5.185 -3.145,-5.122 -0.193,-1.871 -5.475,-8.84 L 935.29,569.362 c -2.263,-4.593 -5.284,-6.917 -7.956,-11.164 -2.33,-3.703 -2.417,-2 -7.891,-11.218 -1.004,-1.691 -2.168,-4.233 -1.274,-6.385 0.782,-1.884 -0.599,-1.101 1.374,-1.133 -1.574,-2.057 -4.2,-4.755 -7.634,-4.813 l -0.763,5.317 c -10.977,0.291 -70.147,-1.45 -74.999,0.706 -6.419,2.853 -9.395,8.283 -13.847,14.427 l -32.244,44.047 c -1.602,2.198 -2.652,4.541 -3.83,6.045 -1.415,1.807 -2.812,2.435 -4.348,4.815 -5.672,8.792 -36.943,50.637 -44.808,60.517 -5.035,0.284 -2.7,-1.419 -7.041,-1.835 z"
id="path19"
inkscape:connector-curvature="0"
style="fill:#f20005;fill-rule:evenodd" />
<path
clip-rule="evenodd"
d="m 609.37,911.546 c 0.314,4.077 6.13,8.468 10.276,9.874 5.338,1.811 12.382,1.191 18.383,1.191 h 472.452 c 6.406,10e-4 11.964,0.365 17.111,-2.456 4.646,-2.547 6.366,-5.757 9.002,-10.681 4.544,-8.491 9.343,-16.813 13.758,-25.631 4.203,-8.396 12.534,-18.154 4.741,-27.751 -1.443,0.758 -2.079,0.641 -2.546,2.849 -0.319,1.514 -0.018,3.181 -0.067,4.735 -0.158,4.911 -6.379,15.345 -9.102,20.049 -19.565,33.806 -10.588,33.067 -43.355,33.067 H 755.527 c -9.14,0 -127.036,0.938 -133.138,-0.74 -4.924,-1.354 -11.432,-7.662 -13.019,-4.506 z"
id="path21"
inkscape:connector-curvature="0"
style="fill:#950000;fill-rule:evenodd" />
<path
clip-rule="evenodd"
d="m 590.043,868.641 -0.333,0.865 c -0.047,3.539 7.327,17.476 9.244,21.559 1.673,3.563 3.325,6.71 5.029,10.335 1.167,2.485 3.453,8.244 5.387,10.146 1.587,-3.156 8.095,3.152 13.02,4.507 6.102,1.678 123.998,0.74 133.138,0.74 h 344.496 c 32.768,0 23.79,0.738 43.355,-33.067 2.723,-4.704 8.943,-15.138 9.102,-20.049 0.05,-1.555 -0.252,-3.222 0.067,-4.735 0.467,-2.208 1.103,-2.091 2.546,-2.849 -2.452,-3.746 -4.918,-6.677 -7.62,-10.36 L 1007.957,657.92 c -8.841,-12.045 -20.495,-28.419 -29.327,-39.594 -6.558,-8.299 -56.137,-76.767 -59.086,-78.863 -1.973,0.032 -0.592,-0.751 -1.374,1.133 -0.894,2.151 0.271,4.693 1.274,6.385 5.474,9.218 5.561,7.515 7.891,11.218 2.672,4.247 5.693,6.571 7.956,11.164 l 14.329,18.885 c 5.281,6.969 2.33,3.718 5.475,8.84 1.272,2.074 2.93,3.175 4.521,5.185 1.525,1.926 2.521,3.641 3.639,5.747 l 8.436,10.485 c 0.917,1.103 1.448,1.606 2.172,2.758 2.613,4.158 1.992,2.334 4.262,5.559 2.184,3.104 3.105,3.749 5.947,8.23 1.543,2.432 2.285,3.119 3.916,5.299 l 12.24,16.691 c 2.409,3.114 3.721,3.791 4.436,4.729 0.825,1.083 0.918,2.131 3.951,5.933 l 16.441,21.708 c 1.546,1.903 1.991,3.733 3.482,5.789 l 20.239,27.099 c 1.56,1.848 2.354,3.659 3.892,5.354 1.972,2.172 2.571,3.575 4.281,5.574 4.877,5.707 22.99,32.149 28.305,38.146 0.545,0.617 2.247,2.146 2.433,2.432 0.823,1.268 0.52,1.831 1.604,3.378 1.272,1.816 2.628,2.88 4.149,5.055 1.43,2.046 2.531,4.38 4.005,5.84 5.735,5.682 5.302,7.356 8.307,10.787 7.711,8.804 24.091,33.489 32.436,43.854 4.062,5.044 0.797,0.592 3.813,5.418 2.28,3.646 6.339,6.784 8.162,10.868 3.336,7.476 -3.853,15.448 -6.622,20.409 -1.133,2.028 -1.755,4.079 -2.989,6.505 -1.967,3.864 -4.318,7.977 -6.464,11.946 -5.962,11.032 -6.91,17.454 -20.53,17.544 -12.702,0.084 -25.436,0 -38.141,0 H 656.484 c -45.497,0 -37.414,3.501 -54.422,-31.797 -3.818,-7.925 -5.521,-14.857 -12.019,-14.972 z"
id="path23"
inkscape:connector-curvature="0"
style="fill:#bb0000;fill-rule:evenodd" />
<path
clip-rule="evenodd"
d="m 590.186,861.809 2.321,-0.427 2.46,3.39 c 2.405,-1.027 6.105,-7.435 8.154,-10.176 2.137,-2.859 5.949,-9.509 9,-10.851 0.429,-1.321 15.552,-21.762 18.035,-25.513 l 14.132,-19.051 c 1.572,-2.519 2.903,-4.168 4.374,-6.295 1.299,-3.548 10.515,-15.245 13.832,-19.853 l 10.671,-14.561 c 0.97,-1.375 1.407,-2.542 2.678,-3.57 1.381,-1.119 -0.819,0.216 1.555,-0.879 0.72,-2.303 6.146,-8.024 6.918,-9.466 1.529,-2.856 7.406,-10.547 10.372,-15.001 1.137,-1.708 2.353,-2.921 3.799,-4.787 1.372,-1.771 2.225,-3.28 3.556,-5.079 1.206,-1.628 1.982,-2.565 3.122,-4.342 0.771,-2.386 1.897,-3.591 3.475,-5.641 1.49,-1.936 2.386,-3.202 5.176,-4.146 5.593,-3.349 17.206,-2.25 25.104,-2.25 9.433,0 18.864,0.029 28.298,0.029 l 112.576,0.088 c 5.472,0.007 38.492,0.822 42.212,-0.566 5.549,-2.072 5.3,-5.119 5.164,-8.481 l -4.314,-0.081 c -0.359,-1.655 -0.327,-1.695 -1.163,-2.945 -0.113,7.126 -4.947,5.755 -11.14,5.693 L 738.305,696.8 c -30.396,0 -28.834,-0.616 -42.942,19.291 l -39.686,54.445 c -4.386,6.164 -8.536,12.059 -13.21,18.172 -9.171,11.994 -17.143,24.24 -26.434,36.33 -2.997,3.9 -24.433,32.363 -25.847,36.771 z"
id="path25"
inkscape:connector-curvature="0"
style="fill:#f33822;fill-rule:evenodd" />
<path
clip-rule="evenodd"
d="m 731.396,827.181 c -0.728,-0.085 -1.055,-0.605 -1.1,-1.162 l 0.378,-1.109 c 1.57,-1.144 15.819,-22.445 18.438,-26.108 3.668,-5.131 5.008,-8.202 13.309,-9.421 7.425,-1.09 177.986,-0.67 199.799,-0.67 24.511,0 21.546,-1.827 36.277,14.048 l 7.816,8.812 c 1.429,1.758 8.904,9.885 10.76,11.277 10.981,0.84 -2.45,-11.589 -6.245,-15.799 -3.081,-3.417 -5.506,-5.097 -6.274,-5.997 -3.376,-3.948 -10.425,-13.64 -14.431,-15.799 -6.384,-3.438 -12.063,-2.989 -21.136,-2.987 l -193.164,0.117 c -6.532,-0.001 -17.096,0.283 -22.308,2.338 -7.83,3.087 -16.769,18.953 -21.736,26.281 -5.892,8.691 -7.665,7.338 -5.794,16.982 l 5.411,-0.803 z"
id="path27"
inkscape:connector-curvature="0"
style="fill:#950000;fill-rule:evenodd" />
<path
clip-rule="evenodd"
d="m 730.68,824.893 -0.378,1.109 c 0.045,0.557 0.373,1.077 1.1,1.161 l 3.817,0.221 c -6.099,4.127 -5.266,2.036 -5.653,4.963 95.313,0.818 189.74,0.523 284.949,0.655 7.742,0.011 10.704,0.554 10.149,-7.814 l -5.993,-0.27 c 0.503,1.318 0.396,0.5 0.15,1.361 l -279.903,0.076 c -1.367,-0.003 -3.031,0.085 -4.337,0.046 -4.677,-0.137 -3.551,-0.8 -3.901,-1.508 z"
id="path29"
inkscape:connector-curvature="0"
style="fill:#f33822;fill-rule:evenodd" />
<path
clip-rule="evenodd"
d="m 730.029,668.688 c 4.341,0.416 2.006,2.118 7.043,1.836 7.864,-9.88 39.136,-51.725 44.808,-60.517 1.536,-2.381 2.933,-3.009 4.348,-4.815 1.178,-1.504 2.229,-3.847 3.83,-6.045 L 822.302,555.1 c 4.452,-6.144 7.428,-11.574 13.847,-14.427 4.852,-2.156 64.022,-0.415 74.999,-0.706 l 0.763,-5.317 c -3.54,-3.086 -31.9,-1.72 -38.27,-1.72 -8.572,0 -32.928,-1.009 -39.56,0.717 -9.197,2.392 -13.66,10.938 -19.829,19.534 -24.008,33.449 -51.114,70.335 -75.629,103.421 -1.586,2.141 -2.676,3.552 -4.184,5.655 -1.484,2.073 -3.239,4.052 -4.41,6.431 z"
id="path31"
inkscape:connector-curvature="0"
style="fill:#f33822;fill-rule:evenodd" />
<path
clip-rule="evenodd"
d="m 863.978,627.54 c -1.303,1.698 -2.565,4.321 -4.496,6.57 -2.05,2.392 -7.021,10.941 -9.123,13.033 l -4.723,6.305 c -0.804,1.11 -1.528,2.366 -2.48,3.696 -7.16,9.997 -6.151,14.822 -24.266,14.818 -29.817,-0.005 -59.607,0.004 -89.418,0.164 1.017,8.573 9.319,6.889 17.443,6.889 l 75.053,0.094 c 18.229,-0.109 20.666,-7.533 29.474,-20.43 l 21.638,-29.014 c 10.181,11.856 25.261,32.67 36.119,45.808 l 12.208,15.318 c 2.497,-0.306 3.367,-0.21 3.477,-3.109 0.091,-2.429 -0.523,-3.011 -1.472,-4.274 l -35.625,-44.94 c -2.962,-0.719 -8.147,-8.646 -9.992,-11.496 -2.955,-4.565 -8.402,-3.463 -10.63,-1.821 -1.541,1.135 -0.704,1.273 -3.187,2.389 z"
id="path33"
inkscape:connector-curvature="0"
style="fill:#9b0000;fill-rule:evenodd" />
<path
clip-rule="evenodd"
d="m 648.662,792.887 c 1.774,-0.734 1.643,-0.803 2.65,-2.191 4.175,-5.751 25.075,-33.016 26.085,-36.671 -2.374,1.095 -0.174,-0.24 -1.555,0.879 -1.271,1.028 -1.708,2.195 -2.678,3.57 l -10.671,14.561 c -3.316,4.607 -12.532,16.304 -13.831,19.852 z"
id="path35"
inkscape:connector-curvature="0"
style="fill:#f1180d;fill-rule:evenodd" />
<path
clip-rule="evenodd"
d="m 590.186,861.809 c -1.068,1.629 -1.884,5.99 -0.475,7.697 l 0.333,-0.865 v -3.306 l 6.154,1.469 c 3.235,-4.751 14.828,-20.094 15.924,-23.059 -3.051,1.342 -6.863,7.991 -9,10.851 -2.049,2.741 -5.749,9.148 -8.154,10.176 l -2.46,-3.39 -2.322,0.427 z"
id="path37"
inkscape:connector-curvature="0"
style="fill:#f1180d;fill-rule:evenodd" />
<path
clip-rule="evenodd"
d="m 863.978,627.54 c 2.483,-1.116 1.646,-1.254 3.187,-2.39 2.228,-1.642 7.675,-2.744 10.63,1.821 1.845,2.85 7.03,10.777 9.992,11.496 l -2.001,-3.513 -6.969,-8.978 c -3.344,-5.595 -12.904,-4.587 -14.839,1.564 z"
id="path39"
inkscape:connector-curvature="0"
style="fill:#be0000;fill-rule:evenodd" />
<path
clip-rule="evenodd"
d="m 705.164,715.35 c 1.911,-0.859 0.235,0.418 1.821,-1.138 0.02,-0.02 0.628,-0.882 0.788,-1.101 3.624,-4.936 4.92,-4.866 6.041,-7.549 -2.79,0.944 -3.686,2.211 -5.176,4.146 -1.576,2.051 -2.703,3.256 -3.474,5.642 z"
id="path41"
inkscape:connector-curvature="0"
style="fill:#f31a10;fill-rule:evenodd" />
</g>
</svg>