<?xml version="1.0" encoding="UTF-8"?>
<!-- Created with Inkscape (http://www.inkscape.org/) -->
<svg width="596" height="659" version="1.0" xml:space="preserve" xmlns="http://www.w3.org/2000/svg"><rect x="4" width="589" height="400" fill="#fff" stroke-linecap="round" stroke-linejoin="round" stroke-width="30" style="paint-order:fill markers stroke"/><path d="m252.8 462c-28 0-35.5 21.06-35.5 38 0 28 19.151 38 35.5 38 13.322 0 28.5-6.643 33.666-24.25h-23.783c-1.8839 4.1481-5.1619 6-10.383 6-7.9519 0-11.398-4.3409-12.264-14.5h48.022c0.157-1.6762 0.2422-3.4227 0.2422-5.25 0-16.94-7.5-38-35.5-38zm-0.5 16.75c8.1744 0 10.992 5.0106 11.971 11h-23.941c0.9789-5.9894 3.7963-11 11.971-11z"/><path d="m402.8 582c-23.75 0-32.75 8.6902-32.75 23.5s9.0636 19.487 22.5 21.5c13.436 2.0128 20 3 20 9s-5.9862 7-10 7c-10.882 0-12.5-9.5-12.5-9.5h-23c0 21.744 25.031 25.343 35.25 25.5 24.001-0.011 34.588-11 34.588-23s-1.6163-22.746-30.838-23.75c-12.058-0.4142-13-4.8638-13-8.25 0-4.9939 4.9862-7 9-7 10.882 0 11 8.5 11 8.5h21.984c0-20-20.598-23.509-32.984-23.5-12.387 0.01 0.7501 0 0.75 0z"/><path d="m30 434-30 102h28l5.9121-22h31.373l5.7148 21h28l-31-101h-38zm19.5 22 9.7969 36h-19.473l9.6758-36z"/><path d="m145 462.5c-14.979 0-20 9.5-20 9.5l-1-8h-21v71h23v-43s0.029-11 10.5-11c9.5 0 9.5 10 9.5 10v44h21.5v-43s0.029-11 10.5-11c9.5 0 9.5 10 9.5 10v44h22.5v-47c0-17.266-7-25.5-24-25.5-15 0-21 10.5-21 10.5s-5.0207-10.5-20-10.5z"/><path d="m575 462c-14.256 0-23 10-23 10l-1-8h-21v71h23v-43s0.029-11 10.5-11c9.5 0 9.5 10 9.5 10v44h23v-47c0-13.404-5.9326-26-21-26z"/><path d="m295 535v-71h20l1 10s7-11 18-11c3.0173 0 4 1 4 1v21c-8.2462 0-20 0.1622-20 13v37z"/><path d="m321 656v-71h20l1 10s7-11 18-11c3.0173 0 4 1 4 1v21c-8.2462 0-20 0.1622-20 13v37z"/><path d="m345 464h23v71h-23z"/><path d="m345 435h23v20h-23z"/><path d="m485 462c-32 0-32 28-32 28h22s0-12.5 11-12.5c7 0 9.5 3.5 9.5 8.5s-5.5 7-12.5 7c-25 0-32 8.4723-32 23 0 10.63 6 22 25 22s21-9 21-9l2 6h22l-1-5v-42c0-9.0425-3.1443-26-35-26zm11.5 42v7c0 7.586-6.2042 10.5-11.5 10.5-5 0-11-2.5-11-7.5 0-3.5355 1-6.0356 4.25-7.6517s9.25-1.3483 18.25-2.3483z"/><path d="m7 656v-102h36l18 60 17-60h37v102h-23v-46l0.5-21-20.5 67h-21l-20.75-67 0.75 19v48z"/><path d="m195 600v-15h9v-17h23.5v17h12.5v15h-12.5v32c0 9.5598 12.5 7 12.5 7v18s-11 1-16 1c-14.179 0-21-5-21-19v-39z"/><path d="m373 0h220v400h-220z" fill="#007dba"/><path d="m4 0v400l351.32-374.74c8.9787-9.5807 2.187-25.257-10.943-25.26z" color="#000000" fill="#da291c"/><path d="m159.5 583c-28 0-35.5 21.06-35.5 38 0 28 19.151 38 35.5 38s35.5-10 35.5-38c0-16.94-7.5-38-35.5-38zm0 17.5c11.897 0 12 11.5 12 20.5 0 14.55-3 20.5-12 20.5s-12-6-12-20.5c0-9 0.1032-20.5 12-20.5z"/><path d="m277.5 583c-28 0-35.5 21.06-35.5 38 0 28 19.151 38 35.5 38s35.5-10 35.5-38c0-16.94-7.5-38-35.5-38zm0 17.5c11.897 0 12 11.5 12 20.5 0 14.55-3 20.5-12 20.5s-12-6-12-20.5c0-9 0.1032-20.5 12-20.5z"/><path d="m411.3 462c-28 0-35.5 21.06-35.5 38 0 28 19.151 38 35.5 38 15.012 0 32.374-8.4441 35.115-31.5h-23.461c-1.0353 9.3089-4.525 13.25-12.154 13.25-9.3749 0-12.5-6-12.5-20.5 0-9 0.1075-20.5 12.5-20.5 8.1776 0 11.007 5.0076 11.984 11h23.049c-2.7664-14.139-12.024-27.75-34.533-27.75z"/></svg>
