<svg width="920" height="240" viewBox="0 0 243.42 63.5" xmlns="http://www.w3.org/2000/svg"><path d="M111.955 58.105c-23.835-.546-45.219-2.26-67.672-5.426-4.354-.614-10.735-1.592-11.553-1.764l-4.28-12.904-25.805-1.532v-8.802l25.804-1.498 4.272-12.862c.084-.084 5.057-.947 9.526-1.653 36.505-5.764 72.612-7.56 109.23-5.436a512 512 0 0 1 44.521 4.587c7.013 1.038 14.931 2.38 15.085 2.556l4.152 13.187 25.539 1.119v8.802l-25.539 1.39-4.155 12.939c-.154.172-2.993.637-10.417 1.706-19.918 2.866-38.8 4.545-60.21 5.354-4.63.175-24.116.336-28.494.236zm26.288-5.09c17.914-.52 35.269-1.89 53.661-4.235 6.849-.874 14.474-2 14.627-2.16l2.697-8.424-46.475 2.529-.087-8.36-6.717 8.73-33.819 1.84-.17-8.102-6.948 7.869-13.869-.7-.298-13.56-10.812.76-.453 12.29-55.532-3.214 2.758 8.519c.122.134 12.172 1.814 18.501 2.579 27.67 3.344 54.57 4.554 82.937 3.732zm6.87-15.161v-3.562h7.623l9.083-12.055 2.368-6.132 18.282.886.127 18.149 26.633-1.413v-2.473l-20.018-.89v-4.946l20.018.877-2.636-8.938c-.228-.228-13.075-2.162-20.962-3.156-14.758-1.86-27.36-2.917-43.655-3.664-6.312-.289-27.197-.397-34.26-.177-18.778.584-34.97 1.894-52.832 4.274-8.168 1.089-17.98 2.618-18.161 2.83l-2.674 9.41 36.1-1.624v-3.006l-5.174.091-.1 2.428-8.804.385v-7.252l31.038-1.356v5.956l-2.11 2.13c9.967-.562 29.924-1.331 29.924-1.331v7.747l7.75-8.779 31.23 1.768-3.617 4.678-12.212-.068-.09 9.434zm-74.965-7.89-36.1 1.625v2.155l36.1 2.074z"/></svg>