<?xml version="1.0" encoding="UTF-8" standalone="no"?>
<!-- Created with Inkscape (http://www.inkscape.org/) -->

<svg
   xmlns:dc="http://purl.org/dc/elements/1.1/"
   xmlns:cc="http://creativecommons.org/ns#"
   xmlns:rdf="http://www.w3.org/1999/02/22-rdf-syntax-ns#"
   xmlns:svg="http://www.w3.org/2000/svg"
   xmlns="http://www.w3.org/2000/svg"
   version="1.1"
   width="314.92273"
   height="100"
   id="svg2">
  <defs
     id="defs4">
    <clipPath
       id="clipPath4874">
      <path
         d="m 0,709.575 935.82,0 0,-709.56 -935.82,0 0,709.56 z"
         id="path4876" />
    </clipPath>
    <radialGradient
       cx="0"
       cy="0"
       r="1"
       fx="0"
       fy="0"
       id="radialGradient3696"
       gradientUnits="userSpaceOnUse"
       gradientTransform="matrix(333.035,0,0,-44.493,467.966,587.864)"
       spreadMethod="pad">
      <stop
         id="stop3698"
         style="stop-color:#1d5fb4;stop-opacity:1"
         offset="0" />
      <stop
         id="stop3700"
         style="stop-color:#05162d;stop-opacity:1"
         offset="1" />
    </radialGradient>
    <radialGradient
       cx="0"
       cy="0"
       r="1"
       fx="0"
       fy="0"
       id="radialGradient3678"
       gradientUnits="userSpaceOnUse"
       gradientTransform="matrix(333.036,0,0,-193.727,467.966,342.021)"
       spreadMethod="pad">
      <stop
         id="stop3680"
         style="stop-color:#1d5fb4;stop-opacity:1"
         offset="0" />
      <stop
         id="stop3682"
         style="stop-color:#05162d;stop-opacity:1"
         offset="1" />
    </radialGradient>
    <clipPath
       id="clipPath3592">
      <path
         d="m 0.30469,580.549 935.347,0 0,-213.916 -935.347,0 0,213.916 z"
         id="path3594" />
    </clipPath>
  </defs>
  <metadata
     id="metadata7">
    <rdf:RDF>
      <cc:Work
         rdf:about="">
        <dc:format>image/svg+xml</dc:format>
        <dc:type
           rdf:resource="http://purl.org/dc/dcmitype/StillImage" />
        <dc:title></dc:title>
      </cc:Work>
    </rdf:RDF>
  </metadata>
  <g
     transform="translate(-557.31256,184.84781)"
     id="layer1">
    <g
       transform="matrix(1.5033638,0,0,1.5033638,-827.5796,-82.558502)"
       id="g10715">
      <g
         transform="matrix(1.25,0,0,-1.25,962.90438,-39.63154)"
         id="g3600">
        <path
           d="m 0,0 13.377,0 -20.695,21.474 -10.74,-11.121 8.106,0 L 0,0"
           id="path3602"
           style="fill:#1f52a6;fill-opacity:1;fill-rule:evenodd;stroke:none" />
      </g>
      <g
         transform="matrix(1.25,0,0,-1.25,940.28063,-52.57279)"
         id="g3604">
        <path
           d="m 0,0 -9.97,-10.353 19.928,0 L 0,0"
           id="path3606"
           style="fill:#1f52a6;fill-opacity:1;fill-rule:evenodd;stroke:none" />
      </g>
      <g
         transform="matrix(1.25,0,0,-1.25,953.75688,-30.20404)"
         id="g3608">
        <path
           d="m 0,0 0,1.242 c -6.899,0 -13.161,1.603 -17.684,4.184 -4.401,2.507 -7.119,5.953 -7.119,9.703 0,3.756 2.718,7.189 7.119,9.704 4.523,2.585 10.785,4.183 17.684,4.183 l 0,1.252 c -7.123,0 -13.586,-1.685 -18.285,-4.369 -4.793,-2.704 -7.764,-6.544 -7.764,-10.77 0,-4.222 2.971,-8.054 7.764,-10.777 C -13.586,1.685 -7.123,0 0,0 z m 0,30.268 c 7.108,0 13.571,-1.685 18.274,-4.369 4.782,-2.704 7.766,-6.544 7.766,-10.77 0,-4.222 -2.984,-8.054 -7.766,-10.777 C 13.571,1.685 7.108,0 0,0 l 0,1.242 c 6.899,0 13.148,1.603 17.632,4.184 4.441,2.507 7.15,5.953 7.15,9.703 0,3.756 -2.709,7.189 -7.15,9.704 C 13.148,27.418 6.899,29.016 0,29.016 l 0,1.252"
           id="path3610"
           style="fill:#1f52a6;fill-opacity:1;fill-rule:evenodd;stroke:none" />
      </g>
      <g
         transform="matrix(1.25,0,0,-1.25,1062.8344,-55.69779)"
         id="g3612">
        <path
           d="m 0,0 -7.848,9.873 -8.19,0 0,-30.268 7.234,0 0,19.831 L 0,-11.64 l 8.783,11.076 0,-19.831 7.297,0 0,30.268 -8.243,0 L 0,0"
           id="path3614"
           style="fill:#1f52a6;fill-opacity:1;fill-rule:evenodd;stroke:none" />
      </g>
      <g
         transform="matrix(1.25,0,0,-1.25,995.78063,-30.20404)"
         id="g3616">
        <path
           d="m 0,0 7.249,0 2.325,5.475 9.453,0 2.324,5.432 -9.394,0 4.69,10.858 L 26.012,0 l 7.245,0 -13.163,30.268 -7.066,0 L 0,0"
           id="path3618"
           style="fill:#1f52a6;fill-opacity:1;fill-rule:evenodd;stroke:none" />
      </g>
      <g
         transform="matrix(1.25,0,0,-1.25,1110.5681,-42.54154)"
         id="g3620">
        <path
           d="m 0,0 7.835,-9.87 8.25,0 0,30.269 -7.29,0 0,-19.794 L 0,11.64 -8.799,0.605 l 0,19.794 -7.238,0 0,-30.269 8.196,0 L 0,0"
           id="path3622"
           style="fill:#1f52a6;fill-opacity:1;fill-rule:evenodd;stroke:none" />
      </g>
      <g
         transform="matrix(1.25,0,0,-1.25,1001.1869,-7.72279)"
         id="g3624">
        <path
           d="M 0,0 1.087,0 C 1.45,0 1.733,0.056 1.933,0.18 2.132,0.3 2.273,0.497 2.346,0.769 2.417,1.026 2.386,1.211 2.254,1.327 2.123,1.441 1.874,1.498 1.509,1.498 L 0.41,1.498 0,0 z m -0.85,-3.114 1.279,0 c 0.782,0 1.25,0.277 1.406,0.832 0.071,0.265 0.026,0.462 -0.129,0.585 -0.157,0.127 -0.432,0.188 -0.837,0.188 l -1.283,0 -0.436,-1.605 z m -0.822,6.217 4.679,0 c 0.465,0 0.836,-0.06 1.121,-0.177 C 4.412,2.806 4.631,2.617 4.782,2.353 4.978,1.993 5.018,1.605 4.906,1.193 4.799,0.81 4.625,0.475 4.382,0.187 4.14,-0.102 3.843,-0.32 3.493,-0.467 3.348,-0.517 3.22,-0.56 3.106,-0.59 L 3.1,-0.614 C 3.636,-0.742 3.999,-0.969 4.183,-1.294 4.368,-1.617 4.387,-2.054 4.236,-2.6 4.174,-2.836 4.071,-3.067 3.927,-3.29 3.786,-3.519 3.617,-3.724 3.424,-3.903 3.234,-4.082 3.025,-4.235 2.792,-4.364 2.559,-4.494 2.325,-4.583 2.087,-4.637 1.83,-4.697 1.403,-4.754 0.799,-4.804 0.691,-4.814 0.587,-4.814 0.483,-4.814 l -4.317,0 2.162,7.917"
           id="path3626"
           style="fill:#1f52a6;fill-opacity:1;fill-rule:nonzero;stroke:none" />
      </g>
      <g
         transform="matrix(1.25,0,0,-1.25,1018.9406,-11.60154)"
         id="g3628">
        <path
           d="m 0,0 2.481,0 -1.29,-4.72 c -0.129,-0.47 -0.32,-0.903 -0.57,-1.301 -0.248,-0.4 -0.553,-0.744 -0.9,-1.032 -0.432,-0.355 -0.891,-0.611 -1.384,-0.771 -0.494,-0.159 -1.067,-0.239 -1.719,-0.239 -0.593,0 -1.071,0.032 -1.439,0.093 -0.367,0.063 -0.668,0.165 -0.904,0.306 -0.234,0.141 -0.442,0.344 -0.623,0.611 -0.195,0.288 -0.307,0.632 -0.34,1.032 -0.031,0.398 0.016,0.831 0.145,1.301 L -5.25,0 -2.77,0 -4.094,-4.833 c -0.115,-0.433 -0.085,-0.771 0.087,-1.017 0.179,-0.243 0.485,-0.367 0.927,-0.367 0.294,0 0.555,0.053 0.791,0.162 0.233,0.109 0.435,0.267 0.598,0.474 0.165,0.206 0.287,0.456 0.368,0.748 L 0,0"
           id="path3630"
           style="fill:#1f52a6;fill-opacity:1;fill-rule:nonzero;stroke:none" />
      </g>
      <g
         transform="matrix(1.25,0,0,-1.25,1026.5369,-11.60154)"
         id="g3632">
        <path
           d="m 0,0 2.497,0 -2.167,-7.917 -2.498,0 L 0,0"
           id="path3634"
           style="fill:#1f52a6;fill-opacity:1;fill-rule:nonzero;stroke:none" />
      </g>
      <g
         transform="matrix(1.25,0,0,-1.25,1034.1369,-11.60154)"
         id="g3636">
        <path
           d="m 0,0 2.505,0 -1.635,-5.973 3.901,0 -0.534,-1.944 -6.405,0 L 0,0"
           id="path3638"
           style="fill:#1f52a6;fill-opacity:1;fill-rule:nonzero;stroke:none" />
      </g>
      <g
         transform="matrix(1.25,0,0,-1.25,1043.0119,-11.60154)"
         id="g3640">
        <path
           d="m 0,0 7.592,0 -0.535,-1.955 -2.537,0 -1.632,-5.962 -2.508,0 1.628,5.962 -2.539,0 L 0,0"
           id="path3642"
           style="fill:#1f52a6;fill-opacity:1;fill-rule:nonzero;stroke:none" />
      </g>
      <g
         transform="matrix(1.25,0,0,-1.25,1062.4394,-11.60154)"
         id="g3644">
        <path
           d="m 0,0 7.589,0 -0.534,-1.955 -2.538,0 -1.633,-5.962 -2.506,0 1.627,5.962 -2.539,0 L 0,0"
           id="path3646"
           style="fill:#1f52a6;fill-opacity:1;fill-rule:nonzero;stroke:none" />
      </g>
      <g
         transform="matrix(1.25,0,0,-1.25,1076.9544,-6.62654)"
         id="g3648">
        <path
           d="m 0,0 c -0.412,-1.5 -0.056,-2.246 1.068,-2.246 0.569,0 1.045,0.183 1.426,0.553 C 2.873,-1.32 3.168,-0.76 3.37,-0.01 3.504,0.475 3.562,0.871 3.55,1.175 3.535,1.479 3.447,1.722 3.29,1.9 3.077,2.146 2.752,2.269 2.311,2.269 1.743,2.269 1.267,2.083 0.885,1.71 0.503,1.337 0.208,0.767 0,0 z m -2.507,0.01 c 0.175,0.64 0.427,1.22 0.755,1.737 0.33,0.516 0.724,0.949 1.187,1.303 0.459,0.35 0.976,0.617 1.542,0.797 0.571,0.18 1.188,0.268 1.849,0.268 0.662,0 1.23,-0.09 1.702,-0.272 C 5.002,3.66 5.368,3.4 5.626,3.06 5.883,2.72 6.038,2.297 6.084,1.797 6.133,1.294 6.069,0.72 5.893,0.075 5.765,-0.4 5.602,-0.83 5.413,-1.217 5.226,-1.6 5.003,-1.945 4.75,-2.252 4.496,-2.555 4.202,-2.83 3.869,-3.073 3.406,-3.42 2.906,-3.673 2.371,-3.833 1.833,-3.994 1.235,-4.074 0.566,-4.074 c -0.682,0 -1.251,0.089 -1.7,0.264 -0.447,0.173 -0.811,0.452 -1.095,0.834 -0.174,0.239 -0.305,0.512 -0.388,0.813 -0.077,0.3 -0.112,0.63 -0.095,0.986 0.019,0.36 0.088,0.756 0.205,1.187"
           id="path3650"
           style="fill:#1f52a6;fill-opacity:1;fill-rule:nonzero;stroke:none" />
      </g>
      <g
         transform="matrix(1.25,0,0,-1.25,1095.5169,-11.60154)"
         id="g3652">
        <path
           d="m 0,0 2.374,0 -0.363,-4.423 0.022,0 2.441,4.423 2.373,0 0.031,-4.423 0.023,0 L 8.96,0 l 2.348,0 -3.944,-7.917 -2.45,0 -0.034,4.981 -0.025,0 -2.773,-4.981 -2.437,0 L 0,0"
           id="path3654"
           style="fill:#1f52a6;fill-opacity:1;fill-rule:nonzero;stroke:none" />
      </g>
      <g
         transform="matrix(1.25,0,0,-1.25,1113.0994,-11.60154)"
         id="g3656">
        <path
           d="m 0,0 2.495,0 -2.166,-7.917 -2.497,0 L 0,0"
           id="path3658"
           style="fill:#1f52a6;fill-opacity:1;fill-rule:nonzero;stroke:none" />
      </g>
      <g
         transform="matrix(1.25,0,0,-1.25,1120.7131,-11.60154)"
         id="g3660">
        <path
           d="m 0,0 2.337,0 1.826,-4.38 0.022,0 1.201,4.38 2.347,0 -2.169,-7.917 -2.357,0 -1.811,4.347 -0.023,0 -1.19,-4.347 -2.35,0 L 0,0"
           id="path3662"
           style="fill:#1f52a6;fill-opacity:1;fill-rule:nonzero;stroke:none" />
      </g>
    </g>
  </g>
</svg>
