<?xml version="1.0" encoding="utf-8"?>
<!-- Generator: Adobe Illustrator 25.2.1, SVG Export Plug-In . SVG Version: 6.00 Build 0)  -->
<svg version="1.1" id="Livello_1" xmlns="http://www.w3.org/2000/svg" xmlns:xlink="http://www.w3.org/1999/xlink" x="0px" y="0px"
	 viewBox="0 0 296.3 74.4" style="enable-background:new 0 0 296.3 74.4;" xml:space="preserve">
<style type="text/css">
	.st0{fill-rule:evenodd;clip-rule:evenodd;fill:#008270;}
</style>
<path class="st0" d="M278.1,46.3c0.4,0,0.7,0.3,0.7,0.7c0,0,0,0,0,0l0.7,2.6c0,0.4,0.4,0.7,0.8,0.7h15.2c0.4,0,0.7-0.2,0.8-0.6
	c0,0,0-0.1,0-0.1l-5.2-25c-0.1-0.6-0.7-1-1.3-1h-24.6c-0.7,0-1.3,0.4-1.7,1l-14,25c0,0,0,0.1,0,0.1c-0.1,0.3,0.1,0.5,0.4,0.6
	c0,0,0.1,0,0.1,0h15.2c0.4,0,0.8-0.3,1-0.7l1.6-2.6c0.2-0.4,0.6-0.7,1-0.7H278.1z M275.7,33.4h-0.2c-0.3,0-0.5,0.2-0.6,0.5l-3,5.4
	c-0.1,0.2,0.1,0.4,0.3,0.5c0,0,0.1,0,0.1,0h4.4c0.3,0,0.5-0.2,0.6-0.5c0,0,0,0,0-0.1l-1.1-5.3C276.2,33.6,276,33.4,275.7,33.4
	C275.8,33.4,275.7,33.4,275.7,33.4L275.7,33.4z M170,44.5v0.2V45c-0.6,3.2-3.4,5.6-6.7,5.7H161h-23.1c-2,0.1-3.7-1.5-3.7-3.5
	c0-0.3,0-0.6,0.1-0.9c0-0.2,0-0.3,0-0.5l0.2-1.2c0.1-0.4,0.5-0.7,0.9-0.7H148c0.3,0,0.7,0.2,0.7,0.6c0,0.1,0,0.1,0,0.2v0.2
	c-0.1,0.7,0.5,1.2,1.3,1.2h3.8c0.8,0,1.5-0.5,1.8-1.2l0.5-2.7c0.1-0.6-0.5-1.1-1.4-1.4h-13.8c-0.3,0-0.5,0-0.8,0
	c-2.5-0.3-4.4-2.5-4.1-5c0-0.2,0.1-0.4,0.1-0.6l-0.1,0.4l1-5.8v-0.2v-0.2c0.6-3.2,3.4-5.6,6.7-5.7h2.4h23c2-0.1,3.7,1.5,3.7,3.5
	c0,0.3,0,0.6-0.1,0.9c0,0.2,0,0.3,0,0.5l-0.2,1.2c-0.1,0.4-0.5,0.7-0.9,0.7H159c-0.3,0-0.7-0.2-0.7-0.5c0-0.1,0-0.1,0-0.2v-0.2
	c0.1-0.7-0.5-1.2-1.3-1.2h-3.8c-0.8,0-1.5,0.5-1.8,1.2l-0.5,2.7c-0.1,0.6,0.5,1.1,1.4,1.4h13.8c0.3,0,0.5,0,0.8,0
	c2.5,0.3,4.3,2.6,4,5.1c0,0.2,0,0.3-0.1,0.5L170,44.5z M229.9,28.7h4.5c1.6-0.1,3,1,3.2,2.7c0,0.3,0,0.5,0,0.8
	c-0.5,2-2.3,3.4-4.4,3.4h-5.3c-0.4,0-0.7-0.3-0.7-0.6c0-0.1,0-0.1,0-0.2l0.9-5.2c0.1-0.5,0.5-0.8,1-0.8L229.9,28.7L229.9,28.7z
	 M225.8,43.2l-1.1,6.3c-0.1,0.5-0.5,0.8-1,0.8h-12.5c-0.4,0-0.7-0.3-0.7-0.7c0-0.1,0-0.1,0-0.2l4.4-25.1c0.1-0.5,0.5-0.8,1-0.8h27.6
	c0.4,0,0.7,0,1.1,0.1c3.1,0.2,5.4,2.9,5.2,6c0,0.3-0.1,0.6-0.1,0.9c-0.8,3.9-4.1,6.7-8,6.9l4.5,12c-0.1,0.5-0.5,0.8-1,0.8h-14.7
	c-0.3,0-0.5-0.1-0.6-0.4l-2-5.3l-0.7-1.6c-0.1-0.3-0.3-0.5-0.6-0.4C226.3,42.5,225.9,42.8,225.8,43.2z M182.3,50.3
	c-0.4,0-0.7-0.3-0.7-0.7c0-0.1,0-0.1,0-0.2l3.2-17.9c0.1-0.6-0.2-1.2-0.9-1.4c-0.1,0-0.2,0-0.2,0h-8c-0.4,0-0.7-0.3-0.7-0.6
	c0-0.1,0-0.1,0-0.2l0.9-5c0.1-0.4,0.5-0.8,0.9-0.8h33.9c0.4,0,0.7,0.3,0.7,0.6c0,0.1,0,0.1,0,0.2l-0.9,5c-0.1,0.4-0.5,0.8-0.9,0.8
	h-8.6c-0.8,0.1-1.4,0.6-1.6,1.4l-3.2,17.9c-0.1,0.5-0.5,0.8-1,0.8L182.3,50.3z M183.7,30.2L183.7,30.2z M207.2,30.2L207.2,30.2z
	 M113.9,46.4c0.4,0,0.7,0.3,0.7,0.6c0,0,0,0,0,0l0.7,2.6c0,0.4,0.4,0.7,0.8,0.7h15.2c0.4,0,0.7-0.2,0.8-0.6c0,0,0-0.1,0-0.1l-5.2-25
	c-0.1-0.6-0.7-1-1.3-1H101c-0.7,0-1.3,0.4-1.7,1l-14,25c0,0,0,0.1,0,0.1c-0.1,0.3,0.1,0.5,0.4,0.6c0,0,0.1,0,0.1,0h15.2
	c0.4,0,0.8-0.3,1-0.7l1.6-2.6c0.2-0.4,0.6-0.7,1-0.7H113.9z M111.5,33.4h-0.2c-0.3,0-0.5,0.2-0.6,0.5l-3,5.4
	c-0.1,0.2,0.1,0.4,0.3,0.5c0,0,0.1,0,0.1,0h4.4c0.3,0,0.5-0.2,0.6-0.5v-0.1l-1.1-5.3c0-0.2-0.2-0.4-0.4-0.5
	C111.6,33.4,111.5,33.4,111.5,33.4L111.5,33.4z"/>
<path class="st0" d="M71.1,52.8c-8.6,18.7-30.7,26.9-49.3,18.4C3,62.5-5.2,40.4,3.4,21.8S34-5.2,52.7,3.4
	c8.1,3.7,14.6,10.2,18.3,18.4h-8.6C53.9,7.8,35.7,3.5,21.7,12C7.8,20.6,3.5,38.8,12,52.8c8.6,13.9,26.8,18.3,40.7,9.7
	c4-2.4,7.3-5.8,9.7-9.7H71.1z"/>
<path class="st0" d="M50.2,50.8h20.3c2.4,0,4.7-1.2,6-3.3l2.1-3.7H46.1L50.2,50.8z"/>
<path class="st0" d="M44.4,40.7h31.9c2.4,0,4.7-1.2,6-3.3l2.1-3.7H40.3L44.4,40.7z"/>
<path class="st0" d="M31.6,23.5c-2.5,0-4.9,1.3-6.1,3.6L11.8,50.7h14.2L36.9,32c0.5-0.9,1.4-1.4,2.4-1.4h42.9c2.4,0,4.7-1.2,6-3.3
	l2.1-3.7L31.6,23.5z"/>
</svg>
