<?xml version="1.0" encoding="UTF-8" standalone="no"?>
<svg
   xmlns:svg="http://www.w3.org/2000/svg"
   xmlns="http://www.w3.org/2000/svg"
   version="1.1"
   width="1051.8309"
   height="124.375"
   id="svg3479">
  <defs
     id="defs3481" />
  <g
     transform="translate(125.6875,-453.25)"
     id="layer1">
    <path
       d="m -7.5836616,515.45005 c 0,30.91303 -25.0565584,55.98 -55.9522464,55.98 -30.902627,0 -55.952242,-25.06697 -55.952242,-55.98 0,-30.92692 25.049615,-55.99041 55.952242,-55.99041 30.895688,0 55.9522464,25.06349 55.9522464,55.99041 z m -55.9140824,55.44917 c 0,-30.92691 24.473688,-56.0598 55.3797824,-56.0598 m 0,-0.0173 c -30.9060944,0 -55.4838664,-24.89349 -55.4838664,-55.81347 m 0.08674,0 c 0,30.91998 -25.524939,55.76143 -56.424092,55.76143 m 0,0 c 30.899153,0 56.413684,25.16758 56.413684,56.09103"
       id="path130"
       style="fill:none;stroke:#006287;stroke-width:10.40842915;stroke-linecap:butt;stroke-linejoin:miter;stroke-miterlimit:4;stroke-opacity:1;stroke-dasharray:none" />
    <path
       d="m 318.92469,492.84247 0,11.53125 11.53125,0 0,-11.53125 -11.53125,0 z m 363.59375,0 0,11.53125 11.53125,0 0,-11.53125 -11.53125,0 z m -647.687502,1.09375 -16.9375,52.8125 10.875,0 3.28125,-10.875 17.09375,0 3.25,10.875 13.3125,0 -16.53125,-52.8125 -14.34375,0 z m 402.625002,0 0,52.8125 12.34375,0 0,-52.8125 -12.34375,0 z m 87.96875,0 0,17.84375 c -2.24822,-3.27866 -5.4651,-4.9375 -9.625,-4.9375 -4.7289,0 -8.3492,1.8536 -10.84375,5.53125 -2.49456,3.67417 -3.71875,8.7482 -3.71875,15.25 0,6.24159 1.22766,11.13473 3.71875,14.65625 2.49802,3.52151 5.89925,5.28125 10.21875,5.28125 4.54501,0 8.14444,-2.31963 10.78125,-6.9375 l 0,6.125 10.625,0 0,-52.8125 -11.15625,0 z m 278.34375,0 0,52.8125 33.53125,0 0,-10.4375 -21,0 0,-42.375 -12.53125,0 z m 89.24996,0 0,17.84375 c -2.2482,-3.27866 -5.4338,-4.9375 -9.5937,-4.9375 -4.7289,0 -8.3492,1.8536 -10.84376,5.53125 -2.49455,3.67417 -3.75,8.7482 -3.75,15.25 0,6.24159 1.25893,11.13472 3.75,14.65625 2.49806,3.52151 5.89926,5.28125 10.21876,5.28125 4.545,0 8.1444,-2.31963 10.7812,-6.9375 l 0,6.125 10.625,0 0,-52.8125 -11.1875,0 z m -766.65621,1.4375 -9.9375,0.75 -0.9375,11.53125 -6.84375,0 0,9 6.1875,0 0,18.1875 c 0,4.82604 1.01895,8.15424 3.03125,10 2.0123,1.84576 5.42046,2.75 10.21875,2.75 1.47106,0 3.86377,-0.27475 7.21875,-0.84375 l 0,-8.5625 c -1.38432,0.10751 -2.60153,0.15625 -3.65625,0.15625 -2.28639,0 -3.72965,-0.33389 -4.34375,-1.03125 -0.61757,-0.69737 -0.9375,-2.06414 -0.9375,-4.125 l 0,-16.53125 8.40625,0 0,-9 -8.40625,0 0,-12.28125 z m 177.71875,0 -9.96875,0.75 -0.90625,11.53125 -6.875,0 0,9 6.21875,0 0,18.1875 c 0,4.82604 0.9877,8.15424 3,10 2.01229,1.84576 5.42048,2.75 10.21875,2.75 1.47106,0 3.89501,-0.27475 7.25,-0.84375 l 0,-8.5625 c -1.38432,0.10751 -2.63277,0.15625 -3.6875,0.15625 -2.28639,0 -3.72965,-0.33389 -4.34375,-1.03125 -0.61756,-0.69737 -0.90625,-2.06414 -0.90625,-4.125 l 0,-16.53125 8.375,0 0,-9 -8.375,0 0,-12.28125 z m 336.0625,0 -9.9375,0.75 -0.9375,11.53125 -6.84375,0 0,9 6.1875,0 0,18.1875 c 0,4.82604 1.01895,8.15424 3.03125,10 2.0123,1.84576 5.42046,2.75 10.21875,2.75 1.47105,0 3.8603,-0.27475 7.21875,-0.84375 l 0,-8.5625 c -1.38779,0.10751 -2.60154,0.15625 -3.65625,0.15625 -2.28639,0 -3.72965,-0.33389 -4.34375,-1.03125 -0.61757,-0.69737 -0.9375,-2.06414 -0.9375,-4.125 l 0,-16.53125 8.40625,0 0,-9 -8.40625,0 0,-12.28125 z m 215.96875,0 -9.9375,0.75 -0.9375,11.53125 -6.84375,0 0,9 6.1875,0 0,18.1875 c 0,4.82604 1.01896,8.15424 3.03125,10 2.0123,1.84576 5.42046,2.75 10.21875,2.75 1.47106,0 3.86376,-0.27475 7.21875,-0.84375 l 0,-8.5625 c -1.38432,0.10751 -2.60154,0.15625 -3.65625,0.15625 -2.28639,0 -3.72618,-0.33389 -4.34375,-1.03125 -0.61409,-0.69737 -0.9375,-2.06414 -0.9375,-4.125 l 0,-16.53125 8.40625,0 0,-9 -8.40625,0 0,-12.28125 z m -182.09375,11.4375 c -3.99684,0 -6.81031,2.70914 -8.4375,8.125 l 0,-7.28125 -10.5625,0 0,39.09375 11.1875,0 0,-15.90625 c 0,-3.17458 0.39301,-5.69591 1.21875,-7.5625 0.82226,-1.87004 1.88298,-3.15335 3.1875,-3.875 1.30451,-0.72513 3.11991,-1.09375 5.46875,-1.09375 l 0,-11.375 c -0.82226,-0.0764 -1.4935,-0.125 -2.0625,-0.125 z m -516.90625,0.0312 c -4.02112,0 -7.34236,0.91112 -9.96875,2.6875 -2.63333,1.77984 -4.70953,4.1273 -6.21875,7.03125 -1.50575,2.90047 -2.25,6.40954 -2.25,10.5625 0,5.98831 1.65889,10.89885 5,14.71875 3.33417,3.81989 7.80996,5.71875 13.375,5.71875 5.74545,0 10.34649,-1.92319 13.8125,-5.78125 3.46601,-3.85805 5.1875,-8.69206 5.1875,-14.46875 0,-5.85647 -1.6589,-10.72877 -5,-14.625 -3.33417,-3.89621 -7.98735,-5.84375 -13.9375,-5.84375 z m 48.0625,0 c -5.50606,0 -9.16812,2.26399 -11,6.78125 l 0,-5.96875 -10.84375,0 0,39.09375 11.1875,0 0,-21.625 c 0,-3.58744 0.46952,-6.00099 1.4375,-7.25 0.96798,-1.24901 2.45295,-1.875 4.4375,-1.875 1.21084,0 2.21244,0.27129 3,0.84375 0.78411,0.56553 1.3405,1.3028 1.625,2.21875 0.28102,0.91594 0.40625,2.93996 0.40625,6.0625 l 0,21.625 11.53125,0 0,-21.625 c 0,-4.28134 0.65381,-6.87919 1.96875,-7.78125 1.31493,-0.90206 2.60864,-1.34375 3.875,-1.34375 1.34269,0 2.39298,0.29909 3.15625,0.90625 0.76329,0.60716 1.22584,1.36531 1.40625,2.28125 0.18386,0.91941 0.28125,2.89476 0.28125,5.9375 l 0,21.625 11.53125,0 0,-25.375 c 0,-4.1495 -0.38605,-7.07774 -1.1875,-8.78125 -0.80145,-1.70351 -2.14036,-3.09806 -4,-4.15625 -1.85618,-1.05472 -4.07843,-1.59375 -6.65625,-1.59375 -5.39503,0 -9.17532,2.26399 -11.34375,6.78125 -2.22046,-4.51726 -5.83034,-6.78125 -10.8125,-6.78125 z m 59.6875,0 c -4.02113,0 -7.3736,0.91112 -10,2.6875 -2.63334,1.77984 -4.67829,4.1273 -6.1875,7.03125 -1.50576,2.90048 -2.28125,6.40954 -2.28125,10.5625 0,5.98831 1.69014,10.89885 5.03125,14.71875 3.33416,3.81989 7.77871,5.71875 13.34375,5.71875 5.74545,0 10.34649,-1.92319 13.8125,-5.78125 3.466,-3.85805 5.21875,-8.69206 5.21875,-14.46875 0,-5.85648 -1.69015,-10.72877 -5.03125,-14.625 -3.33417,-3.89621 -7.9561,-5.84375 -13.90625,-5.84375 z m 126.625,0 c -5.57199,0 -10.1417,1.9301 -13.6875,5.75 -3.54927,3.81989 -5.3125,8.81395 -5.3125,15.03125 0,4.17725 0.88681,7.78709 2.65625,10.78125 1.76943,2.99069 3.99869,5.25471 6.71875,6.8125 2.72008,1.5578 6.03781,2.34375 9.9375,2.34375 8.92696,0 14.83564,-4.50368 17.75,-13.53125 l -10.4375,-0.78125 c -0.77716,4.10091 -3.09333,6.15625 -6.9375,6.15625 -2.06088,0 -3.83103,-0.70599 -5.3125,-2.125 -1.48494,-1.41901 -2.21875,-3.52651 -2.21875,-6.3125 0,-0.51349 0.007,-1.1186 0.0312,-1.8125 l 25.15625,0 c 0,-7.76816 -1.80494,-13.41947 -5.40625,-16.96875 -3.59785,-3.54927 -7.90676,-5.34375 -12.9375,-5.34375 z m 89.96875,0 c -2.01229,0 -3.8972,0.47294 -5.625,1.375 -1.73128,0.90206 -3.47015,2.91569 -5.25,6.0625 l 0,-6.625 -10.71875,0 0,39.09375 11.53125,0 0,-21.9375 c 0,-5.98485 2.01015,-8.96875 6.0625,-8.96875 1.21085,0 2.2298,0.34776 3.03125,1.03125 0.80145,0.68349 1.29531,1.48689 1.5,2.46875 0.20466,0.97839 0.3125,2.81113 0.3125,5.46875 l 0,21.9375 11.53125,0 0,-25.09375 c 0,-5.85648 -1.13374,-9.81061 -3.40625,-11.8125 -2.26904,-1.99843 -5.25294,-3 -8.96875,-3 z m 121.21875,0 c -5.21116,0 -9.23493,1.22761 -12.125,3.65625 -2.89008,2.42516 -4.34375,5.50641 -4.34375,9.21875 0,3.66724 1.23114,6.51204 3.71875,8.5625 2.48761,2.05045 7.70069,3.5598 15.59375,4.53125 2.91782,0.33308 4.375,1.40769 4.375,3.21875 0,1.15881 -0.65381,2.06651 -1.96875,2.75 -1.31493,0.69043 -2.93554,1.03125 -4.84375,1.03125 -4.98216,0 -7.88606,-1.73889 -8.6875,-5.25 l -9.6875,1.4375 c 1.93597,7.71265 7.88635,11.5625 17.84375,11.5625 5.49219,0 9.75589,-1.25547 12.8125,-3.78125 3.0566,-2.52925 4.59375,-5.81915 4.59375,-9.84375 0,-2.6819 -0.62599,-4.92159 -1.875,-6.75 -1.25248,-1.83189 -2.95309,-3.16381 -5.09375,-3.9375 -2.14067,-0.77369 -5.4445,-1.44491 -9.90625,-2.03125 -2.99415,-0.38511 -4.85472,-0.8546 -5.5625,-1.40625 -0.70777,-0.55859 -1.0625,-1.28893 -1.0625,-2.21875 0,-2.3523 1.94404,-3.53125 5.8125,-3.53125 4.10439,0 6.64314,1.74931 7.625,5.28125 l 8.375,-2.21875 c -1.31494,-3.58744 -3.18251,-6.21656 -5.65625,-7.84375 -2.47721,-1.62371 -5.80882,-2.4375 -9.9375,-2.4375 z m 117.625,0 c -5.57199,0 -10.14169,1.9301 -13.6875,5.75 -3.54928,3.81989 -5.3125,8.81395 -5.3125,15.03125 0,4.17725 0.85556,7.78709 2.625,10.78125 1.76942,2.99069 4.02994,5.25471 6.75,6.8125 2.72355,1.5578 6.01003,2.34375 9.90625,2.34375 8.93044,0 14.86689,-4.50367 17.78125,-13.53125 l -10.4375,-0.78125 c -0.7737,4.10091 -3.09333,6.15625 -6.9375,6.15625 -2.06088,0 -3.83104,-0.70599 -5.3125,-2.125 -1.48148,-1.41901 -2.25,-3.52651 -2.25,-6.3125 0,-0.51349 0.0348,-1.1186 0.0625,-1.8125 l 25.15625,0 c 0,-7.76816 -1.8084,-13.41947 -5.40625,-16.96875 -3.59785,-3.54927 -7.90676,-5.34375 -12.9375,-5.34375 z m 39.25,0 c -5.21115,0 -9.23493,1.22761 -12.125,3.65625 -2.89008,2.42516 -4.34375,5.50641 -4.34375,9.21875 0,3.66724 1.23114,6.51204 3.71875,8.5625 2.48761,2.05045 7.70069,3.5598 15.59375,4.53125 2.91782,0.33308 4.375,1.40769 4.375,3.21875 0,1.15881 -0.65383,2.06651 -1.96875,2.75 -1.3184,0.69043 -2.93901,1.03125 -4.84375,1.03125 -4.98218,0 -7.88605,-1.73889 -8.6875,-5.25 l -9.6875,1.4375 c 1.9325,7.71265 7.85858,11.5625 17.8125,11.5625 5.49565,0 9.78714,-1.25547 12.84375,-3.78125 3.05661,-2.52925 4.59375,-5.81915 4.59375,-9.84375 0,-2.6819 -0.62251,-4.92159 -1.875,-6.75 -1.24901,-1.83189 -2.95308,-3.16381 -5.09375,-3.9375 -2.14066,-0.77369 -5.44451,-1.44491 -9.90625,-2.03125 -2.99762,-0.38511 -4.85473,-0.8546 -5.5625,-1.40625 -0.70777,-0.55859 -1.0625,-1.28893 -1.0625,-2.21875 0,-2.3523 1.94403,-3.53125 5.8125,-3.53125 4.10091,0 6.64314,1.74931 7.625,5.28125 l 8.40625,-2.21875 c -1.31494,-3.58744 -3.24155,-6.21656 -5.71875,-7.84375 -2.47374,-1.62371 -5.77757,-2.4375 -9.90625,-2.4375 z m -718.875002,0.75 5.5625,18.53125 -11.21875,0 5.65625,-18.53125 z m 29.78125,0.0625 0,25.5625 c 0,3.58744 0.34776,6.32094 1.03125,8.21875 0.68696,1.89432 1.79986,3.37588 3.375,4.46875 1.57514,1.09636 3.83913,1.65625 6.78125,1.65625 5.67606,0 9.51895,-2.49005 11.53125,-7.46875 l 0,6.65625 10.687502,0 0,-39.09375 -11.531252,0 0,21.96875 c 0,2.32108 -0.17038,3.95214 -0.46875,4.90625 -0.29838,0.95757 -0.97655,1.84789 -2.0625,2.6875 -1.08248,0.83961 -2.34144,1.25 -3.8125,1.25 -2.89007,0 -4.34375,-1.73889 -4.34375,-5.25 l 0,-25.5625 -11.1875,0 z m 248.468752,0 0,39.09375 11.53125,0 0,-39.09375 -11.53125,0 z m 15.96875,0 13.4375,39.09375 8.96875,0 13.40625,-39.09375 -8.5625,0 -7.71875,24.78125 -7.53125,-24.78125 -12,0 z m 211.21875,0 0,25.5625 c 0,3.58744 0.34776,6.32094 1.03125,8.21875 0.68347,1.89433 1.79986,3.37588 3.375,4.46875 1.57515,1.09636 3.83912,1.65625 6.78125,1.65625 5.67606,0 9.51895,-2.49005 11.53125,-7.46875 l 0,6.65625 10.6875,0 0,-39.09375 -11.53125,0 0,21.96875 c 0,2.32108 -0.17037,3.95214 -0.46875,4.90625 -0.29838,0.95758 -0.98003,1.84789 -2.0625,2.6875 -1.08247,0.83961 -2.34145,1.25 -3.8125,1.25 -2.89008,0 -4.34375,-1.73889 -4.34375,-5.25 l 0,-25.5625 -11.1875,0 z m 136.40625,0 0,39.09375 11.53125,0 0,-39.09375 -11.53125,0 z m -525.09375,6.75 c 2.18577,0 3.8064,0.91812 4.875,2.75 1.0686,1.82842 1.59375,5.30268 1.59375,10.4375 0,4.82604 -0.59818,8.09857 -1.8125,9.8125 -1.20738,1.71391 -2.76544,2.5625 -4.71875,2.5625 -2.23781,0 -3.88625,-0.9877 -4.9375,-3 -1.05819,-2.01229 -1.59375,-5.3231 -1.59375,-9.9375 0,-5.03075 0.54949,-8.40065 1.65625,-10.09375 1.10676,-1.68964 2.75173,-2.53125 4.9375,-2.53125 z m 107.71875,0 c 2.18576,0 3.84111,0.91812 4.90625,2.75 1.06859,1.82842 1.59375,5.30268 1.59375,10.4375 0,4.82604 -0.60165,8.09857 -1.8125,9.8125 -1.20738,1.71391 -2.79669,2.5625 -4.75,2.5625 -2.23781,0 -3.88625,-0.9877 -4.9375,-3 -1.05819,-2.01229 -1.59375,-5.3231 -1.59375,-9.9375 0,-5.03075 0.54949,-8.40065 1.65625,-10.09375 1.10676,-1.68964 2.75172,-2.53125 4.9375,-2.53125 z m 126.75,0 c 4.05235,0 6.26417,2.66397 6.625,8.03125 l -13.875,0 c 0.51695,-5.36728 2.91663,-8.03125 7.25,-8.03125 z m 328.8125,0 c 4.05235,0 6.26416,2.66397 6.625,8.03125 l -13.90625,0 c 0.51347,-5.36728 2.94788,-8.03125 7.28125,-8.03125 z m -200.875,0.4375 c 3.72621,0 5.59375,3.04654 5.59375,9.1875 l 0,7.3125 c 0,2.58129 -0.6086,4.57749 -1.8125,5.96875 -1.20391,1.39126 -2.61237,2.09375 -4.21875,2.09375 -4.16684,0 -6.25,-3.84986 -6.25,-11.5625 0,-8.66676 2.23616,-13 6.6875,-13 z m 367.59376,0 c 3.7262,0 5.5937,3.04654 5.5937,9.1875 l 0,7.3125 c 0,2.58129 -0.5773,4.57749 -1.7812,5.96875 -1.2039,1.39126 -2.6124,2.09375 -4.2188,2.09375 -4.1668,0 -6.25,-3.84986 -6.25,-11.5625 0,-8.66676 2.2049,-13 6.6563,-13 z m 25.75,19.96875 0,11.9375 11.9687,0 0,-11.9375 -11.9687,0 z"
       id="path258"
       style="fill:#006287;fill-opacity:1;fill-rule:nonzero;stroke:none" />
  </g>
</svg>
