<?xml version="1.0" encoding="UTF-8" standalone="no"?>
<!-- Created with Inkscape (http://www.inkscape.org/) -->

<svg
   xmlns:dc="http://purl.org/dc/elements/1.1/"
   xmlns:cc="http://creativecommons.org/ns#"
   xmlns:rdf="http://www.w3.org/1999/02/22-rdf-syntax-ns#"
   xmlns:svg="http://www.w3.org/2000/svg"
   xmlns="http://www.w3.org/2000/svg"
   xmlns:sodipodi="http://sodipodi.sourceforge.net/DTD/sodipodi-0.dtd"
   xmlns:inkscape="http://www.inkscape.org/namespaces/inkscape"
   width="50mm"
   height="25.552mm"
   viewBox="0 0 50 25.552"
   version="1.1"
   id="svg4916"
   inkscape:version="0.92.5 (2060ec1f9f, 2020-04-08)"
   sodipodi:docname="AutosanLogo.svg">
  <defs
     id="defs4910">
    <clipPath
       clipPathUnits="userSpaceOnUse"
       id="clipPath160">
      <path
         d="M 233.03,16.418 H 362.247 V 82.369 H 233.03 Z"
         id="path158"
         inkscape:connector-curvature="0" />
    </clipPath>
  </defs>
  <sodipodi:namedview
     id="base"
     pagecolor="#ffffff"
     bordercolor="#666666"
     borderopacity="1.0"
     inkscape:pageopacity="0.0"
     inkscape:pageshadow="2"
     inkscape:zoom="3.959798"
     inkscape:cx="146.66628"
     inkscape:cy="45.913017"
     inkscape:document-units="mm"
     inkscape:current-layer="g154"
     showgrid="false"
     inkscape:snap-bbox="true"
     inkscape:bbox-paths="true"
     inkscape:bbox-nodes="true"
     inkscape:snap-bbox-edge-midpoints="true"
     inkscape:snap-bbox-midpoints="true"
     inkscape:object-paths="true"
     inkscape:snap-intersection-paths="true"
     inkscape:snap-smooth-nodes="true"
     inkscape:snap-midpoints="true"
     inkscape:snap-object-midpoints="true"
     inkscape:snap-center="true"
     inkscape:snap-text-baseline="true"
     inkscape:snap-page="true"
     inkscape:window-width="3840"
     inkscape:window-height="2066"
     inkscape:window-x="-11"
     inkscape:window-y="-11"
     inkscape:window-maximized="1" />
  <metadata
     id="metadata4913">
    <rdf:RDF>
      <cc:Work
         rdf:about="">
        <dc:format>image/svg+xml</dc:format>
        <dc:type
           rdf:resource="http://purl.org/dc/dcmitype/StillImage" />
        <dc:title></dc:title>
      </cc:Work>
    </rdf:RDF>
  </metadata>
  <g
     inkscape:label="Ebene 1"
     inkscape:groupmode="layer"
     id="layer1"
     transform="translate(0,-271.448)">
    <g
       transform="matrix(0.38694928,0,0,-0.38780426,-90.170791,303.39105)"
       id="g154">
      <g
         id="g156"
         clip-path="url(#clipPath160)">
        <g
           id="g162"
           transform="translate(308.3903,78.859)">
          <path
             d="m 0,0 c -0.255,0.062 -1.261,0.273 -2.147,0.333 -1.472,0.098 -1.875,-0.058 -1.748,-0.314 6.877,-13.808 -13.171,-27.117 20.004,-27.244 0.092,0 1.105,1.485 1.891,2.801 C 24.148,-14.137 12.314,-3.04 0,0 m -43.404,-25.52 c -1.287,2.382 -1.95,4.719 -1.95,7.356 0,3.264 1.178,6.365 3.284,9.146 5.596,7.387 17.748,12.528 31.779,12.528 19.313,0 35.066,-9.737 35.066,-21.674 0,-26.369 -56.851,-28.326 -68.179,-7.356 m 7.021,-2.469 c 4.16,-4.271 13.502,-9.505 26.092,-9.886 9.096,-0.275 19.041,3.743 24.582,8.697 0.689,0.554 -3.615,0.256 -4.214,0.243 -17.174,-0.388 -30.709,0.572 -46.332,0.815 -0.013,0.014 -0.073,0.072 -0.103,0.104 -0.007,0.008 -0.01,0.011 -0.014,0.014 -0.002,0.003 -0.004,0.005 -0.006,0.007 -0.009,0.009 -0.006,0.007 0.027,0.009 l 8.979,0.764 0.075,0.007 c 0.597,1.155 2.848,3.41 5.391,0.269 0.095,-0.116 2.469,0.001 2.644,-0.025 5.622,-0.028 7.859,3.431 8.064,7.833 0.196,4.208 -10.236,19.225 -17.484,16.778 -8.398,-2.835 -11.864,-10.861 -11.859,-15.385 0.005,-3.496 1.295,-7.508 4.158,-10.244"
             style="fill:#866c3f;fill-opacity:1;fill-rule:evenodd;stroke:none"
             id="path164"
             inkscape:connector-curvature="0" />
        </g>
        <g
           id="g166"
           transform="translate(238.8689,21.6234)">
          <path
             d="M 0,0 H 5.293 L 2.685,4.917 Z M -5.785,-5.048 1.325,7.52 1.343,7.552 H 1.379 4.195 4.233 L 4.25,7.52 11.457,-5.048 11.512,-5.143 H 11.403 8.12 8.082 L 8.065,-5.11 6.573,-2.399 h -7.891 l -1.444,-2.71 -0.017,-0.034 H -2.817 -5.731 -5.84 Z M 17.898,7.489 V -2.65 h 8.206 V 7.489 7.551 l 0.062,10e-4 h 2.915 0.064 V 7.489 -2.109 c 0,-0.579 -0.055,-1.067 -0.164,-1.464 -0.11,-0.402 -0.276,-0.712 -0.498,-0.927 -0.223,-0.217 -0.548,-0.378 -0.969,-0.484 -0.418,-0.106 -0.935,-0.159 -1.55,-0.159 h -7.938 c -0.612,0 -1.127,0.053 -1.542,0.159 -0.422,0.106 -0.746,0.267 -0.969,0.484 -0.225,0.215 -0.393,0.524 -0.505,0.926 -0.11,0.396 -0.164,0.886 -0.164,1.465 v 9.598 0.063 h 0.063 2.926 0.063 z M 41.428,5.178 V -5.079 -5.143 h -0.064 -2.926 -0.061 l -0.002,0.064 V 5.178 h -5.703 -0.063 v 0.063 2.248 0.063 h 0.063 14.484 0.064 V 7.489 5.241 5.178 h -0.064 z m 8.979,-0.663 c 0,0.576 0.056,1.063 0.165,1.46 0.109,0.401 0.276,0.711 0.495,0.93 h 0.002 c 0.224,0.217 0.547,0.38 0.971,0.488 0.416,0.107 0.933,0.159 1.548,0.159 h 9.244 c 0.616,0 1.132,-0.052 1.548,-0.159 0.426,-0.108 0.748,-0.271 0.972,-0.488 h 10e-4 c 0.221,-0.219 0.386,-0.529 0.497,-0.93 0.107,-0.397 0.163,-0.884 0.163,-1.46 v -6.624 c 0,-0.579 -0.056,-1.067 -0.163,-1.464 C 65.739,-3.975 65.574,-4.285 65.352,-4.5 65.128,-4.717 64.806,-4.878 64.383,-4.984 63.965,-5.09 63.448,-5.143 62.832,-5.143 h -9.244 c -0.616,0 -1.133,0.053 -1.55,0.159 -0.422,0.106 -0.745,0.267 -0.969,0.484 -0.221,0.215 -0.388,0.525 -0.497,0.927 -0.109,0.397 -0.165,0.885 -0.165,1.464 z m 3.054,-7.165 h 9.511 V 5.177 H 53.461 Z M 83.933,5.174 73.789,5.226 V 2.455 h 7.77 1.581 c 0.426,-0.054 0.73,-0.231 0.955,-0.448 0.908,-0.883 0.668,-2.971 0.668,-4.116 0,-0.575 -0.055,-1.061 -0.165,-1.456 -0.11,-0.402 -0.278,-0.711 -0.503,-0.93 -0.225,-0.217 -0.55,-0.38 -0.976,-0.488 -0.42,-0.106 -0.941,-0.16 -1.56,-0.16 H 73.8 73.157 c -1.091,0.029 -1.936,-0.062 -2.032,1.27 l -0.028,1.223 h 0.398 l 1.743,-10e-4 v 10e-4 h 8.875 l 0.002,2.926 H 74.266 C 73.59,0.305 72.306,0.24 71.767,0.735 V 0.736 C 71.546,0.954 71.38,1.265 71.27,1.666 71.162,2.063 71.106,2.549 71.106,3.127 v 1.388 c 0,0.576 0.056,1.063 0.164,1.46 0.11,0.401 0.276,0.711 0.497,0.93 v 0 c 0.224,0.217 0.548,0.38 0.97,0.488 0.419,0.107 0.935,0.159 1.55,0.159 h 7.129 c 0.593,0 1.199,-10e-4 1.665,-0.079 0.49,-0.08 0.827,-0.247 0.842,-0.586 L 83.997,5.24 83.999,5.174 Z M 93.664,0 h 5.293 L 96.349,4.917 Z M 87.879,-5.048 94.99,7.52 95.008,7.552 h 0.036 2.817 0.036 l 0.018,-0.032 7.208,-12.568 0.054,-0.095 h -0.109 -3.284 -0.036 l -0.019,0.033 -1.491,2.711 h -7.892 l -1.442,-2.71 -0.018,-0.034 h -0.038 -2.914 -0.108 z m 20.593,-0.031 V 7.489 7.552 h 0.063 1.996 0.023 l 0.017,-0.015 8.851,-7.406 c 0.152,-0.125 0.294,-0.246 0.425,-0.361 0.133,-0.116 0.257,-0.229 0.374,-0.34 0.115,-0.108 0.225,-0.22 0.332,-0.334 0.062,-0.066 0.121,-0.132 0.178,-0.197 l -0.014,0.243 c -0.032,0.48 -0.054,0.834 -0.067,1.067 -0.008,0.146 -0.014,0.276 -0.018,0.391 -0.005,0.116 -0.007,0.214 -0.007,0.29 v 6.599 0.063 h 0.064 2.626 0.062 V 7.489 -5.079 -5.143 h -0.062 -1.996 -0.024 l -0.018,0.016 -9.229,7.763 -0.001,10e-4 c -0.105,0.094 -0.21,0.189 -0.313,0.284 h -10e-4 c -0.097,0.088 -0.188,0.172 -0.272,0.253 -0.084,0.08 -0.164,0.161 -0.243,0.243 -0.032,0.034 -0.064,0.067 -0.096,0.103 0.014,-0.135 0.025,-0.26 0.034,-0.373 0.014,-0.181 0.028,-0.36 0.039,-0.537 0.01,-0.171 0.017,-0.332 0.021,-0.484 0.005,-0.152 0.007,-0.29 0.007,-0.415 v -6.79 -0.064 h -0.063 -2.625 -0.063 z"
             style="fill:#866c3f;fill-opacity:1;fill-rule:nonzero;stroke:none"
             id="path168"
             inkscape:connector-curvature="0" />
        </g>
      </g>
    </g>
  </g>
</svg>
