<?xml version="1.0" encoding="UTF-8"?>
<svg xmlns:svg="http://www.w3.org/2000/svg" xmlns="http://www.w3.org/2000/svg" viewBox="0 0 159.9 172.6" height="172.6" width="159.9" xml:space="preserve" version="1.1"><style>.s0{fill:#b9313a;}</style><g transform="matrix(1.3333333,0,0,-1.3333333,0,172.56)"><g transform="scale(0.1)"><path d="m815.6 286.8h274.7v52.6H815.6Zm41.1 195h192.2v52.6H856.6ZM390.1 729.3H155.5V676.7H359.2Zm113.4-247.6h197.4v52.6H503.4ZM856.6 416.8h192.3l-0.1 0.2v52.4H856.6Zm-353.2 0.2-0.1-0.2h197.7l-0.1 0.2v52.4H503.4ZM114 221.7h274.7v52.7H114ZM347.7 469.4H155.5v-52.4l-0.2-0.2h192.3zm0 65H155.5v-52.6h192.2zm397.5 207.4 26.6 52.6H657V771H523.6v23.3h-91l26.6-52.6zM347.7 599.4H155.5v-52.6H347.7ZM428.3 794.3H155.5v-52.6h241.9zm-80.6-137.1 4.2 7.1H155.5v-52.6h192.2zm121.7-437.1h265.6v54.3H469.3Zm-80.6 150.3-33.9 33.9H145.8L114 363.1V351.8H388.7ZM815.6 221.7h274.7v52.7H815.6ZM469.3 362.7v-10.9h265.6v10.9l-26.2 41.7H495.5ZM388.7 339.4H114v-52.6h274.7zm467.9 207.4h192.2v52.6H856.6ZM815.6 370.5v-18.7h274.7v11.3l-31.8 41.3H849.4ZM116 1001.7h374.6l22 52.6h-21.1c-5.2-1.8-9.3-4.2-12.7-7.5-7.9-7.8-12.2-20.7-17.2-41.3l-0.6-2.4h-24.3l0.1 3.2 1.9 48H116Zm597.4 0h375v52.6H747.2l1.9-48 0.1-3.2h-24.4l-0.6 2.4c-3.7 16.4-7.9 27.9-14.1 35.8h0c-4.9 6.3-11.2 10.4-19.7 13h-0.1zm-86.5 52.6h-7.4v-44.8h26.3zm-66.7 0h-15.2l-18.8-44.8h34zm-193.1 32.3h-49.6v27.9h-74.4v-27.9h-62v27.1h-65.1v-47h323.1l0.8 19.6 0.1 3h87.1l12.6 30H378.5Zm379.6-19.8h341.6v47h-65.1v-27.1h-62v27.9H886.8v-27.9h-49.6l-11.4 32.8H662.1l13.1-30h70.6l0.1-3zm-147.3 52.6h-27.3l-12.6-30h52.5zm-198.3 64.9-18.3-52.5H544.8l22 52.6H401.1Zm176.1-52.5h16.9l-8.5 20.1zm79.4 0h164.8l-18.3 52.5 0.1 0.1H633.7ZM492 676.7h220.3l26.6 52.6H465.4ZM116 976.5 146.3 936.7h316.5c4.3 9.5 8.4 18.9 11.8 26.8l1.2 2.7 9.6 23H116ZM497 936.7h63.2v43.7h-46zm122.5 0h55.4l-18.7 43.7h-36.7zm122.3 0h316.3l30.3 39.8v12.8H718.8ZM846.6 1294.2H733.4v-32.5h113.1zm-487.8-44.9 34.2-52.6h418.3l34.2 52.6zm292.5 40.3h-98.2v-27.9h98.2zm-180.4 4.7H357.8v-32.5H470.9ZM155.5 871.7h250.8v4.7l2.9 0.2c4.2 0.3 8.6 0.7 13 2.2 4.3 1.5 8.8 4.2 13.4 9.1 6.4 7 14.1 21 21.4 36.4H155.5Zm367.5 0h37.2v52.6h-68l-2.9-7.2 0 0c-1.3-3.5-2.4-7.1-3.1-10.6-0.7-3.4-1.1-6.6-1.1-9.5 0-10 5.6-15.1 12.5-17.6 7.5-2.7 16.7-2.7 22.3-2.7h3.1zm96.5 0h30.1v4.9h3.1c10 0 19.5 0.1 26.2 2.7 6 2.3 9.8 6.7 9.8 15.5 0 3.2-1.1 8-2.6 13.1-1.7 5.8-4 11.9-5.9 16.5h-60.6zm178.6 0h250.8v52.6H747.1l0.4-1c8.8-20 15-31.4 21.9-37.9 6.6-6.2 14.2-8 25.7-8.8l2.9-0.2zM503.4 546.8h197.4v52.6H503.4Zm303.5 195h241.9v52.6h-272.8zm38.2-65h203.7v52.6H814.2Zm11.5-19.5v-45.5h192.2v52.6H852.4Zm-353.2-3.1v-42.4h197.4v42.4l5.2 10.2H498.3Zm-34.1-314.7v-52.6h265.6v52.6zM155.5 806.7h394.5c12.1 3.4 11.6 10.3 10.7 22.9-0.3 4.4-0.6 9.4-0.6 15.2v14.5H155.5Zm474.5 0h418.8v52.6H619.5V840c0-3.3-0.1-6.7-0.2-9.7-0.4-13.2-0.5-20.1 10.7-23.5zm-271.2 442.5-1 1.6zm0 0-1 1.6zM155.5 924.3v0.3zm0 0v0.3-0.3M110.2 69.1 80.6 139.2 51.3 69.1ZM176.2 3.6h-65v4.9c9.4 0 17.8 0.2 17.8 9.7 0 4.1-3.3 12.5-4.8 16L113.7 58.7H46.9L35.2 28.8c-1.3-3.3-2-6.9-2-9.7 0-10.7 12-10.7 17.3-10.7V3.6H0v4.9c4.1 0.2 8.4 0.7 13 5.6 5.9 6.4 13.8 25 18.6 36.2l53 125.2h5.1L153.3 30.6C161.4 12 165 9.2 176.2 8.4V3.6M240.3 96.6l24.2 0.2c7.1 0 37.5 0.5 37.5 30.8 0 30.3-26.5 35.2-44.6 35.2-5.4 0-8.9-0.2-11.5-0.2-5.1 0-5.6-3.6-5.6-7.4zm0-73.2c0-9.4 4.6-10.5 19.4-10.5 16.8 0 47.7 2.3 47.7 36.5 0 20.9-12.5 29.3-25.8 33.4-8.7 2.6-16.8 3.8-41.3 3.8zM189.8 172.4h71.4c22.2 0 66.8-3.6 66.8-43.1 0-28.3-22.4-33.9-33.9-36.7v-0.5c22.2-4.6 42.6-16.8 42.6-43.6 0-9.7-5.1-44.9-61.7-44.9h-85.2v4.9c21.4 0.5 24.5 4.8 24.5 22.9V144.6c0 18.9-3.6 21.9-24.5 22.9v4.8M476 3.6h-74.5v4.9c23.2 1 24 6.9 24 25.7V161.7H411.7c-28 0-34.9-4.9-40.5-32.6h-6.1l1.5 43.3h143.8l1.5-43.3h-6.1c-5.3 28-12.5 32.6-40.5 32.6H451.5V31.4c0-17.3 3.1-22.2 24.5-22.9V3.6M668 88c0 58.1-28.3 78.8-54.3 78.8-26 0-54.3-20.7-54.3-78.8 0-56.1 26-78.8 54.3-78.8 28.3 0 54.3 22.7 54.3 78.8zM530.3 87.7c0 58.7 41.6 88.2 83.4 88.2 41.8 0 83.4-29.6 83.4-88.2C697.1 33.4 659.9 0 613.7 0 567.6 0 530.3 33.4 530.3 87.7M826.2 3.6h-74.5v4.9c23.2 1 24 6.9 24 25.7V161.7h-13.8c-28.1 0-34.9-4.9-40.5-32.6h-6.1l1.5 43.3h143.8l1.5-43.3h-6.1c-5.4 28-12.5 32.6-40.5 32.6H801.7V31.4c0-17.3 3.1-22.2 24.5-22.9V3.6M1018.3 88c0 58.1-28.3 78.8-54.3 78.8-26 0-54.3-20.7-54.3-78.8 0-56.1 26-78.8 54.3-78.8 28.3 0 54.3 22.7 54.3 78.8zM880.6 87.7c0 58.7 41.6 88.2 83.4 88.2 41.8 0 83.4-29.6 83.4-88.2C1047.4 33.4 1010.1 0 964 0 917.8 0 880.6 33.4 880.6 87.7M1112.7 88c4.9-0.5 10-0.8 15.3-0.8 9.4 0 43.6 0 43.6 38.8 0 36.5-37.2 37-48.4 37-7.6 0-10.5-0.2-10.5-8.7zm-47.4 84.4h67.3c35.2 0 66.8-13.5 66.8-45.9 0-19.9-11.2-30.3-15.5-34.4-11-10.5-27.3-15-54.1-15-6.1 0-11 0.2-17.1 0.8v-46.4c0-18.6 4.3-22.5 24-22.9V3.6h-71.4v4.9c21.4 1.5 21.4 7.4 21.4 25.7V144.6c0 18.1-2.8 21.2-21.4 22.9v4.8" fill="#b9313a"/></g></g></svg>