<?xml version="1.0" encoding="utf-8"?>
<!-- Generator: Adobe Illustrator 12.0.1, SVG Export Plug-In . SVG Version: 6.00 Build 51448)  -->
<!DOCTYPE svg PUBLIC "-//W3C//DTD SVG 1.1//EN" "http://www.w3.org/Graphics/SVG/1.1/DTD/svg11.dtd" [
	<!ENTITY ns_svg "http://www.w3.org/2000/svg">
	<!ENTITY ns_xlink "http://www.w3.org/1999/xlink">
]>
<svg  version="1.1" id="Ebene_1" xmlns="&ns_svg;" xmlns:xlink="&ns_xlink;" width="952.413" height="290.647"
	 viewBox="0 0 952.413 290.647" overflow="visible" enable-background="new 0 0 952.413 290.647" xml:space="preserve">
<g>
	
		<rect x="20.006" y="20.007" transform="matrix(-0.7071 -0.7071 0.7071 -0.7071 68.3074 164.9121)" fill-rule="evenodd" clip-rule="evenodd" width="96.603" height="96.605"/>
	
		<rect x="20.006" y="174.035" transform="matrix(-0.7071 -0.7071 0.7071 -0.7071 -40.6053 427.8569)" fill-rule="evenodd" clip-rule="evenodd" width="96.603" height="96.605"/>
	
		<rect x="95.582" y="96.817" transform="matrix(-0.7071 -0.7071 0.7071 -0.7071 143.0082 349.4736)" fill-rule="evenodd" clip-rule="evenodd" width="96.603" height="96.603"/>
	<path fill="#FFFFFF" d="M105.741,126.276h10.79v37.218h-10.79V126.276L105.741,126.276z M124.3,126.276h26.624v7.998h-15.811v6.499
		h13.499v7.514h-13.499v15.207H124.3V126.276L124.3,126.276z M173.571,157.349l1.713,6.145h11.267l-13.101-37.218h-11.738
		l-13.093,37.218h11.001l1.687-6.145H173.571L173.571,157.349z M171.317,149.299h-7.682l3.83-13.379L171.317,149.299z"/>
	<path d="M266.793,109.413v23.974h16.813c9.456,0,15.868-0.88,19.266-2.667c3.369-1.761,5.054-4.854,5.054-9.28
		c0-4.479-1.654-7.6-4.965-9.36c-3.339-1.787-9.78-2.666-19.354-2.666H266.793L266.793,109.413z M266.024,153.945v27.786h18.616
		c10.608,0,17.729-1.04,21.363-3.091c3.636-2.056,5.467-5.654,5.467-10.801c0-5.2-1.802-8.828-5.407-10.854
		c-3.606-2.026-10.755-3.04-21.423-3.04H266.024L266.024,153.945z M236.417,202.053V89.092h53.601
		c16.134,0,28.013,2.241,35.607,6.747c7.594,4.507,11.375,11.547,11.375,21.067c0,8.133-2.512,14.479-7.534,19.012
		c-5.024,4.561-12.205,7.095-21.542,7.547c11.73,0.986,20.211,3.627,25.441,7.919c5.259,4.321,7.889,10.801,7.889,19.494
		c0,6.106-1.625,11.492-4.845,16.214c-3.221,4.722-7.712,8.213-13.416,10.508c-4.107,1.572-8.628,2.69-13.563,3.386
		c-4.934,0.721-12.706,1.067-23.314,1.067H236.417L236.417,202.053z M387.469,163.464h31.263l-15.66-44.771L387.469,163.464
		L387.469,163.464z M373.641,202.053H341.61l45.534-112.961h31.765l45.536,112.961h-32.12l-6.322-17.734h-45.625L373.641,202.053
		L373.641,202.053z M472.394,202.053V89.092h52.891c17.495,0,30.495,2.881,39.004,8.667c8.511,5.786,12.767,14.64,12.767,26.56
		c0,8.027-2.156,14.747-6.443,20.16c-4.312,5.413-10.664,9.439-19.116,12.105l28.159,45.469h-33.506l-24.233-40H502v40H472.394
		L472.394,202.053z M502,109.866v31.414h21.453c8.481,0,14.536-1.2,18.174-3.628c3.633-2.425,5.464-6.399,5.464-11.919
		c0-5.84-1.685-9.946-5.052-12.321c-3.398-2.373-9.572-3.546-18.586-3.546H502L502,109.866z M595.758,202.053V89.092h29.609v49.92
		l48.992-49.92h35.93l-45.178,42.881l47.336,70.081h-34.365l-34.1-50.239l-18.615,17.28v32.959H595.758L595.758,202.053z
		 M758.839,163.464h31.263l-15.662-44.771L758.839,163.464L758.839,163.464z M745.011,202.053h-32.031l45.532-112.961h31.768
		l45.535,112.961h-32.122l-6.323-17.734h-45.623L745.011,202.053L745.011,202.053z M863.766,168.64
		c3.989,4.692,8.777,8.184,14.422,10.532c5.612,2.347,12.023,3.521,19.265,3.521c6.914,0,12.441-1.174,16.606-3.547
		s6.235-5.521,6.235-9.412c0-6.27-8.835-10.562-26.478-12.908c-3.986-0.559-7.092-1.013-9.277-1.332
		c-13.269-1.976-22.988-5.467-29.133-10.508c-6.147-5.013-9.221-11.973-9.221-20.827c0-11.253,4.551-20.319,13.682-27.253
		c9.128-6.933,21.125-10.399,36.018-10.399c11.555,0,21.896,1.786,31.089,5.359c9.187,3.547,16.987,8.827,23.462,15.814
		l-21.987,14.985c-4.902-4.852-9.927-8.399-15.068-10.665c-5.142-2.267-10.728-3.388-16.813-3.388
		c-5.823,0-10.462,1.094-13.919,3.28c-3.457,2.188-5.2,5.093-5.2,8.748c0,3.279,1.567,5.786,4.729,7.493
		c3.133,1.733,9.869,3.253,20.213,4.613c9.1,1.2,15.688,2.186,19.736,2.933c4.019,0.747,6.973,1.494,8.807,2.241
		c7.683,3.013,13.178,6.693,16.516,11.038c3.311,4.349,4.966,10,4.966,16.934c0,11.868-4.966,21.333-14.922,28.35
		c-9.956,7.038-23.491,10.557-40.571,10.557c-12.822,0-23.965-1.997-33.479-6.025c-9.485-3.999-16.99-9.893-22.547-17.651
		L863.766,168.64z"/>
</g>
</svg>
