<?xml version="1.0" encoding="UTF-8" standalone="no"?>
<svg
   id="Livello_1"
   data-name="Livello 1"
   width="299.99866"
   height="59.995998"
   viewBox="0 0 224.99272 45.000987"
   version="1.1"
   xmlns="http://www.w3.org/2000/svg"
   xmlns:svg="http://www.w3.org/2000/svg">
  <defs
     id="defs1">
    <style
       id="style1">
      .cls-1 {
        fill: #99163e;
      }
    </style>
  </defs>
  <g
     id="g10"
     transform="matrix(1.3997196,0,0,1.3997196,0.00374445,0)"
     style="fill:#000000">
    <polygon
       class="cls-1"
       points="130.37,17.31 136.07,32.15 148.54,32.15 160.89,0 147.97,0 142.31,14.76 136.64,0 124.1,0 119.51,11.96 125.97,28.78 "
       id="polygon1"
       transform="translate(-0.13936506)"
       style="fill:#000000" />
    <polygon
       class="cls-1"
       points="124.67,32.15 124.89,31.59 112.77,0 99.85,0 112.19,32.15 "
       id="polygon2"
       transform="translate(-0.13936506)"
       style="fill:#000000" />
    <polygon
       class="cls-1"
       points="88.24,19.09 74.94,19.09 72.63,25.12 90.55,25.12 93.25,32.15 106.17,32.15 93.82,0 67.2,0 54.85,32.15 67.77,32.15 77.8,6.03 83.22,6.03 "
       id="polygon3"
       transform="translate(-0.13936506)"
       style="fill:#000000" />
    <path
       class="cls-1"
       d="m 12.050635,19.090002 h 24.61 a 3.520032,3.520032 0 1 1 0.75,7 3.14,3.14 0 0 1 -0.75,0 h -22.6 v 6 h 28.64 a 9.55,9.55 0 0 0 5.79,-17.09 9.53,9.53 0 0 0 -7.81,-15.0000000116133 H -0.00936506 V 32.150002 H 12.050635 Z m 0,-13.09 h 22.6 a 3.52,3.52 0 0 1 0,7 h -22.6 z"
       id="path3"
       style="fill:#000000" />
  </g>
</svg>
