<svg version="1.1" id="Layer_1" xmlns="http://www.w3.org/2000/svg" xmlns:xlink="http://www.w3.org/1999/xlink" x="0px" y="0px" viewBox="0 0 1507 305" style="enable-background:new 0 0 1507 305;" xml:space="preserve">
<style type="text/css">
	.st0{fill:url(#SVGID_1_);}
	.st1{fill:url(#SVGID_2_);}
	.st2{fill:url(#SVGID_3_);}
	.st3{fill:url(#SVGID_4_);}
	.st4{fill:url(#SVGID_5_);}
	.st5{fill:url(#SVGID_6_);}
	.st6{fill:url(#SVGID_7_);}
	.st7{fill:url(#SVGID_8_);}
	.st8{opacity:0.7;fill:url(#SVGID_9_);}
	.st9{opacity:0.3;fill:url(#SVGID_10_);}
	.st10{fill:url(#SVGID_11_);}
	.st11{fill:none;stroke:#010101;stroke-width:0.4315;stroke-miterlimit:10;}
	.st12{opacity:0.4;fill:url(#SVGID_12_);}
	.st13{fill:#939598;}
	.st14{fill:url(#SVGID_13_);}
	.st15{fill:url(#SVGID_14_);}
	.st16{fill:url(#SVGID_15_);}
	.st17{fill:url(#SVGID_16_);}
	.st18{fill:url(#SVGID_17_);}
	.st19{fill:url(#SVGID_18_);}
	.st20{fill:url(#SVGID_19_);}
	.st21{fill:url(#SVGID_20_);}
	.st22{fill:url(#SVGID_21_);}
	.st23{fill:url(#SVGID_22_);}
	.st24{fill:url(#SVGID_23_);}
	.st25{fill:#003E6B;}
</style>
<g>
	<g>
		<g>
			
				<linearGradient id="SVGID_1_" gradientUnits="userSpaceOnUse" x1="253.5997" y1="109.1989" x2="150.5252" y2="307.448" gradientTransform="matrix(0.9524 0 0 1.0148 26.9762 -88.7206)">
				<stop offset="0.215" style="stop-color:#FFFFFF"></stop>
				<stop offset="0.2736" style="stop-color:#F8F9F9"></stop>
				<stop offset="0.3399" style="stop-color:#ECEDEE"></stop>
				<stop offset="0.4099" style="stop-color:#D9DBDC"></stop>
				<stop offset="0.4826" style="stop-color:#BFC1C3"></stop>
				<stop offset="0.5574" style="stop-color:#9EA0A3"></stop>
				<stop offset="0.6339" style="stop-color:#787A7C"></stop>
				<stop offset="0.7103" style="stop-color:#48484A"></stop>
				<stop offset="0.7501" style="stop-color:#000000"></stop>
			</linearGradient>
			<path class="st0" d="M204.4,291.6C94.7,291.6,6,231.1,6,154.7C6,77.8,94.7,13.8,204.4,13.8c109.7,0,198.4,62.3,198.4,138.6
				C402.8,229.3,314.1,291.6,204.4,291.6"></path>
			
				<linearGradient id="SVGID_2_" gradientUnits="userSpaceOnUse" x1="249.409" y1="117.2085" x2="137.8723" y2="331.7337" gradientTransform="matrix(0.9524 0 0 1.0148 26.9762 -88.7206)">
				<stop offset="0.419" style="stop-color:#000000"></stop>
				<stop offset="0.4371" style="stop-color:#4D4D4F"></stop>
				<stop offset="0.4582" style="stop-color:#6C6E70"></stop>
				<stop offset="0.4811" style="stop-color:#848689"></stop>
				<stop offset="0.5057" style="stop-color:#989A9D"></stop>
				<stop offset="0.5327" style="stop-color:#A8AAAC"></stop>
				<stop offset="0.5635" style="stop-color:#B3B5B7"></stop>
				<stop offset="0.6011" style="stop-color:#BABCBE"></stop>
				<stop offset="0.6655" style="stop-color:#BCBEC0"></stop>
				<stop offset="0.745" style="stop-color:#BFC1C3"></stop>
				<stop offset="0.8202" style="stop-color:#C9CACC"></stop>
				<stop offset="0.8935" style="stop-color:#D8DADB"></stop>
				<stop offset="0.9654" style="stop-color:#EFEFF0"></stop>
				<stop offset="1" style="stop-color:#FFFFFF"></stop>
			</linearGradient>
			<path class="st1" d="M204.4,281.8c-104.2,0-188.5-56.3-188.5-127.3c0-71.5,84.3-131.1,188.5-131.1
				c104.2,0,188.5,57.9,188.5,128.9C392.9,223.9,308.6,281.8,204.4,281.8"></path>
			
				<radialGradient id="SVGID_3_" cx="185.8242" cy="238.3513" r="200.1141" gradientTransform="matrix(0.9524 0 0 0.6602 26.9762 -4.2101)" gradientUnits="userSpaceOnUse">
				<stop offset="0.9173" style="stop-color:#58595B"></stop>
				<stop offset="0.9209" style="stop-color:#5F6062;stop-opacity:0.8996"></stop>
				<stop offset="0.9265" style="stop-color:#707274;stop-opacity:0.7443"></stop>
				<stop offset="0.9335" style="stop-color:#8B8D8F;stop-opacity:0.5535"></stop>
				<stop offset="0.9414" style="stop-color:#B1B3B6;stop-opacity:0.3345"></stop>
				<stop offset="0.9501" style="stop-color:#E5E6E7;stop-opacity:9.475946e-02"></stop>
				<stop offset="0.9536" style="stop-color:#FFFFFF;stop-opacity:0"></stop>
			</radialGradient>
			<path class="st2" d="M204.4,291.6C94.7,291.6,6,231.1,6,154.7C6,77.8,94.7,13.8,204.4,13.8c109.7,0,198.4,62.3,198.4,138.6
				C402.8,229.3,314.1,291.6,204.4,291.6"></path>
			
				<radialGradient id="SVGID_4_" cx="185.8242" cy="238.3513" r="210.7063" gradientTransform="matrix(0.9524 0 0 0.6696 26.9762 -6.4315)" gradientUnits="userSpaceOnUse">
				<stop offset="0.8832" style="stop-color:#FFFFFF;stop-opacity:0"></stop>
				<stop offset="0.9311" style="stop-color:#FCFCFC;stop-opacity:0.4746"></stop>
				<stop offset="0.9483" style="stop-color:#F5F5F5;stop-opacity:0.6456"></stop>
				<stop offset="0.9606" style="stop-color:#EBEBEC;stop-opacity:0.7675"></stop>
				<stop offset="0.9706" style="stop-color:#DCDEDF;stop-opacity:0.866"></stop>
				<stop offset="0.979" style="stop-color:#CACCCE;stop-opacity:0.9494"></stop>
				<stop offset="0.9841" style="stop-color:#BCBEC0"></stop>
			</radialGradient>
			<path class="st3" d="M204.4,291.6C94.7,291.6,6,231.1,6,154.7C6,77.8,94.7,13.8,204.4,13.8c109.7,0,198.4,62.3,198.4,138.6
				C402.8,229.3,314.1,291.6,204.4,291.6"></path>
		</g>
		<g>
			
				<radialGradient id="SVGID_5_" cx="311.5574" cy="434.7255" r="402.8724" gradientTransform="matrix(1.0079 0.2623 -0.1514 0.5679 -92.9246 -61.4614)" gradientUnits="userSpaceOnUse">
				<stop offset="0.6468" style="stop-color:#003E6B"></stop>
				<stop offset="0.6731" style="stop-color:#004779"></stop>
				<stop offset="0.7141" style="stop-color:#00538C"></stop>
				<stop offset="0.7574" style="stop-color:#005C9B"></stop>
				<stop offset="0.8035" style="stop-color:#0063A6"></stop>
				<stop offset="0.854" style="stop-color:#0066AE"></stop>
				<stop offset="0.9179" style="stop-color:#0067B0"></stop>
			</radialGradient>
			<path class="st4" d="M204.4,271.7c-98.7,0-178.6-51.9-178.6-117.3c0-65.9,79.9-120.8,178.6-120.8C303.1,33.6,383,87,383,152.4
				C383,218.4,303.1,271.7,204.4,271.7"></path>
			
				<radialGradient id="SVGID_6_" cx="346.1366" cy="420.9521" r="274.7459" gradientTransform="matrix(1.0421 1.969327e-02 -1.563646e-02 0.8079 -162.8062 -93.9036)" gradientUnits="userSpaceOnUse">
				<stop offset="0.8069" style="stop-color:#0067B0;stop-opacity:0"></stop>
				<stop offset="0.8227" style="stop-color:#0068B0;stop-opacity:0.4102"></stop>
				<stop offset="0.8284" style="stop-color:#006AB2;stop-opacity:0.5579"></stop>
				<stop offset="0.8324" style="stop-color:#006EB4;stop-opacity:0.6633"></stop>
				<stop offset="0.8357" style="stop-color:#0C75B8;stop-opacity:0.7484"></stop>
				<stop offset="0.8385" style="stop-color:#387EBD;stop-opacity:0.8214"></stop>
				<stop offset="0.841" style="stop-color:#568AC5;stop-opacity:0.886"></stop>
				<stop offset="0.8432" style="stop-color:#739ACE;stop-opacity:0.9431"></stop>
				<stop offset="0.8452" style="stop-color:#94B0D9;stop-opacity:0.9952"></stop>
				<stop offset="0.8453" style="stop-color:#98B2DA"></stop>
			</radialGradient>
			<path class="st5" d="M204.4,271.7c-98.7,0-178.6-51.9-178.6-117.3c0-65.9,79.9-120.8,178.6-120.8C303.1,33.6,383,87,383,152.4
				C383,218.4,303.1,271.7,204.4,271.7"></path>
			
				<radialGradient id="SVGID_7_" cx="339.7102" cy="411.3123" r="248.2363" gradientTransform="matrix(1.0409 5.331453e-02 -4.474068e-02 0.8528 -150.5773 -125.8412)" gradientUnits="userSpaceOnUse">
				<stop offset="0.8897" style="stop-color:#0067B0;stop-opacity:0"></stop>
				<stop offset="0.9203" style="stop-color:#0068B0;stop-opacity:0.3726"></stop>
				<stop offset="0.9313" style="stop-color:#006AB2;stop-opacity:0.5069"></stop>
				<stop offset="0.9392" style="stop-color:#006EB4;stop-opacity:0.6026"></stop>
				<stop offset="0.9456" style="stop-color:#0C75B8;stop-opacity:0.68"></stop>
				<stop offset="0.951" style="stop-color:#387EBD;stop-opacity:0.7463"></stop>
				<stop offset="0.9558" style="stop-color:#568AC5;stop-opacity:0.805"></stop>
				<stop offset="0.9602" style="stop-color:#749BCE;stop-opacity:0.8581"></stop>
				<stop offset="0.9642" style="stop-color:#96B1DA;stop-opacity:0.9069"></stop>
				<stop offset="0.9679" style="stop-color:#C0CFE9;stop-opacity:0.9523"></stop>
				<stop offset="0.9712" style="stop-color:#F1F4FA;stop-opacity:0.9926"></stop>
				<stop offset="0.9718" style="stop-color:#FFFFFF"></stop>
			</radialGradient>
			<path class="st6" d="M204.4,271.7c-98.7,0-178.6-51.9-178.6-117.3c0-65.9,79.9-120.8,178.6-120.8C303.1,33.6,383,87,383,152.4
				C383,218.4,303.1,271.7,204.4,271.7"></path>
			
				<linearGradient id="SVGID_8_" gradientUnits="userSpaceOnUse" x1="334.6307" y1="434.1159" x2="384.3987" y2="206.8333" gradientTransform="matrix(1.0423 0 0 1.0299 -169.4544 -180.5534)">
				<stop offset="0.4866" style="stop-color:#003E6B"></stop>
				<stop offset="0.5254" style="stop-color:#004372"></stop>
				<stop offset="0.597" style="stop-color:#005188"></stop>
				<stop offset="0.6929" style="stop-color:#0065AC"></stop>
				<stop offset="0.7026" style="stop-color:#0067B0"></stop>
				<stop offset="0.9726" style="stop-color:#0067B0;stop-opacity:0"></stop>
			</linearGradient>
			<path class="st7" d="M204.4,271.7c-98.7,0-178.6-51.9-178.6-117.3c0-65.9,79.9-120.8,178.6-120.8C303.1,33.6,383,87,383,152.4
				C383,218.4,303.1,271.7,204.4,271.7"></path>
			
				<radialGradient id="SVGID_9_" cx="315.3064" cy="440.7245" r="436.9414" gradientTransform="matrix(1.0079 0.2623 -0.143 0.5365 -95.5867 -45.7968)" gradientUnits="userSpaceOnUse">
				<stop offset="0.4197" style="stop-color:#001231"></stop>
				<stop offset="0.462" style="stop-color:#001C3C;stop-opacity:0.7681"></stop>
				<stop offset="0.543" style="stop-color:#002F55;stop-opacity:0.3236"></stop>
				<stop offset="0.602" style="stop-color:#003E6B;stop-opacity:0"></stop>
			</radialGradient>
			<path class="st8" d="M204.4,271.7c-98.7,0-178.6-51.9-178.6-117.3c0-65.9,79.9-120.8,178.6-120.8C303.1,33.6,383,87,383,152.4
				C383,218.4,303.1,271.7,204.4,271.7"></path>
			
				<radialGradient id="SVGID_10_" cx="354.2915" cy="254.4259" r="240.815" gradientTransform="matrix(1.0095 0.2565 -0.2114 0.8123 -104.0234 -216.0794)" gradientUnits="userSpaceOnUse">
				<stop offset="0.6304" style="stop-color:#0067B0;stop-opacity:0"></stop>
				<stop offset="0.6616" style="stop-color:#0069B1;stop-opacity:0.1049"></stop>
				<stop offset="0.6983" style="stop-color:#006EB4;stop-opacity:0.2286"></stop>
				<stop offset="0.7378" style="stop-color:#1D77B9;stop-opacity:0.3617"></stop>
				<stop offset="0.7794" style="stop-color:#4B85C2;stop-opacity:0.5016"></stop>
				<stop offset="0.8225" style="stop-color:#749BCE;stop-opacity:0.6467"></stop>
				<stop offset="0.8669" style="stop-color:#A4BADF;stop-opacity:0.7963"></stop>
				<stop offset="0.9115" style="stop-color:#E2E7F4;stop-opacity:0.9467"></stop>
				<stop offset="0.9274" style="stop-color:#FFFFFF"></stop>
				<stop offset="0.9345" style="stop-color:#F4F4F7;stop-opacity:0.8718"></stop>
				<stop offset="0.9415" style="stop-color:#DFE1E7;stop-opacity:0.7459"></stop>
				<stop offset="0.9485" style="stop-color:#C2C7D2;stop-opacity:0.6209"></stop>
				<stop offset="0.9555" style="stop-color:#9EA6B8;stop-opacity:0.4964"></stop>
				<stop offset="0.9624" style="stop-color:#758298;stop-opacity:0.3722"></stop>
				<stop offset="0.9693" style="stop-color:#4B5D77;stop-opacity:0.2481"></stop>
				<stop offset="0.9763" style="stop-color:#1E3955;stop-opacity:0.1242"></stop>
				<stop offset="0.983" style="stop-color:#001332;stop-opacity:3.158748e-03"></stop>
				<stop offset="0.9832" style="stop-color:#001231;stop-opacity:0"></stop>
			</radialGradient>
			<path class="st9" d="M204.4,271.7c-98.7,0-178.6-51.9-178.6-117.3c0-65.9,79.9-120.8,178.6-120.8C303.1,33.6,383,87,383,152.4
				C383,218.4,303.1,271.7,204.4,271.7"></path>
			
				<radialGradient id="SVGID_11_" cx="360.3663" cy="321.97" r="176.2908" gradientTransform="matrix(1.0423 9.835099e-04 -6.562452e-04 0.679 -169.2429 -67.936)" gradientUnits="userSpaceOnUse">
				<stop offset="0.8956" style="stop-color:#001231;stop-opacity:0"></stop>
				<stop offset="0.9476" style="stop-color:#001231;stop-opacity:0.8587"></stop>
				<stop offset="0.9562" style="stop-color:#001231"></stop>
			</radialGradient>
			<path class="st10" d="M204.4,271.7c-98.7,0-178.6-51.9-178.6-117.3c0-65.9,79.9-120.8,178.6-120.8C303.1,33.6,383,87,383,152.4
				C383,218.4,303.1,271.7,204.4,271.7"></path>
			<path class="st11" d="M204.4,271.7c-98.7,0-178.6-51.9-178.6-117.3c0-65.9,79.9-120.8,178.6-120.8C303.1,33.6,383,87,383,152.4
				C383,218.4,303.1,271.7,204.4,271.7"></path>
		</g>
		<g>
			<linearGradient id="SVGID_12_" gradientUnits="userSpaceOnUse" x1="53.5443" y1="92.8355" x2="372.8968" y2="239.7172">
				<stop offset="6.419120e-02" style="stop-color:#001231;stop-opacity:0"></stop>
				<stop offset="9.380954e-02" style="stop-color:#001231;stop-opacity:8.768171e-02"></stop>
				<stop offset="0.402" style="stop-color:#001231"></stop>
			</linearGradient>
			<path class="st12" d="M344.1,145.5c-11.4,5.1-38.8,29-48.1,21.3c-12.4-9.7,10.4-29,10.4-43.2c-0.5-14.2-31.6-18.8-65.2-20.8
				c-27.9-2-180,11.7-180,12.2c-4.1,0.5-2.6,2,0,2c0,0,54.3,2.5,82.8,4.1c35.2,2,76.1,3.6,79.7,9.1c4.1,5.6,0,10.7,0,10.7
				s-7.7,15-10.9,20.3c-3.2,5.4-10.8,11.7-20.7,11.7H28c-3.6,0-3.1,2,0,2.5c0,0,148,32.5,231.3,30.5c61-2,89-40.2,95.7-48.3
				c9.8-11.2,21.2-8.1,21.7-9.7C377.7,145.5,359.6,138.9,344.1,145.5z"></path>
			<path class="st13" d="M339.3,144.2c-10.7,4.9-36.6,27.9-45.4,20.5c-11.7-9.3,9.8-27.9,9.8-41.5c-0.5-13.7-29.8-18.1-61.5-20
				c-26.4-2-169.9,11.2-169.9,11.7c-3.9,0.5-2.4,2,0,2c0,0,51.2,2.4,78.1,3.9c33.2,2,71.8,3.4,75.2,8.8c3.9,5.4,0,10.3,0,10.3
				s-7.3,14.4-10.2,19.5c-3,5.2-10.2,11.3-19.5,11.3H41.1c-3.4,0-2.9,1.9,0,2.4c0,0,139.6,31.3,218.2,29.3c57.6-2,84-38.6,90.3-46.4
				c9.3-10.8,20-7.8,20.5-9.3C371,144.2,354,137.8,339.3,144.2z"></path>
			<linearGradient id="SVGID_13_" gradientUnits="userSpaceOnUse" x1="195.9634" y1="266.7601" x2="204.3276" y2="159.9274">
				<stop offset="0.6414" style="stop-color:#FFFFFF;stop-opacity:0"></stop>
				<stop offset="0.842" style="stop-color:#FFFFFF"></stop>
				<stop offset="0.9788" style="stop-color:#FFFFFF;stop-opacity:0.1342"></stop>
				<stop offset="1" style="stop-color:#FFFFFF;stop-opacity:0"></stop>
			</linearGradient>
			<path class="st14" d="M339.3,144.2c-10.7,4.9-36.6,27.9-45.4,20.5c-11.7-9.3,9.8-27.9,9.8-41.5c-0.5-13.7-29.8-18.1-61.5-20
				c-26.4-2-169.9,11.2-169.9,11.7c-3.9,0.5-2.4,2,0,2c0,0,51.2,2.4,78.1,3.9c33.2,2,71.8,3.4,75.2,8.8c3.9,5.4,0,10.3,0,10.3
				s-7.3,14.4-10.2,19.5c-3,5.2-10.2,11.3-19.5,11.3H41.1c-3.4,0-2.9,1.9,0,2.4c0,0,139.6,31.3,218.2,29.3c57.6-2,84-38.6,90.3-46.4
				c9.3-10.8,20-7.8,20.5-9.3C371,144.2,354,137.8,339.3,144.2z"></path>
			<linearGradient id="SVGID_14_" gradientUnits="userSpaceOnUse" x1="204.9308" y1="192.1059" x2="203.6629" y2="112.7273">
				<stop offset="0.4567" style="stop-color:#939598;stop-opacity:0"></stop>
				<stop offset="0.5114" style="stop-color:#86888B;stop-opacity:0.109"></stop>
				<stop offset="0.6425" style="stop-color:#6B6C6E;stop-opacity:0.3699"></stop>
				<stop offset="0.7648" style="stop-color:#555557;stop-opacity:0.6135"></stop>
				<stop offset="0.874" style="stop-color:#464648;stop-opacity:0.8308"></stop>
				<stop offset="0.959" style="stop-color:#414042"></stop>
				<stop offset="0.9711" style="stop-color:#434345;stop-opacity:0.7051"></stop>
				<stop offset="0.9786" style="stop-color:#4B4B4D;stop-opacity:0.5211"></stop>
				<stop offset="0.9849" style="stop-color:#58595B;stop-opacity:0.3676"></stop>
				<stop offset="0.9905" style="stop-color:#696B6D;stop-opacity:0.2308"></stop>
				<stop offset="0.9956" style="stop-color:#7D7F82;stop-opacity:0.1064"></stop>
				<stop offset="1" style="stop-color:#939598;stop-opacity:0"></stop>
			</linearGradient>
			<path class="st15" d="M339.3,144.2c-10.7,4.9-36.6,27.9-45.4,20.5c-11.7-9.3,9.8-27.9,9.8-41.5c-0.5-13.7-29.8-18.1-61.5-20
				c-26.4-2-169.9,11.2-169.9,11.7c-3.9,0.5-2.4,2,0,2c0,0,51.2,2.4,78.1,3.9c33.2,2,71.8,3.4,75.2,8.8c3.9,5.4,0,10.3,0,10.3
				s-7.3,14.4-10.2,19.5c-3,5.2-10.2,11.3-19.5,11.3H41.1c-3.4,0-2.9,1.9,0,2.4c0,0,139.6,31.3,218.2,29.3c57.6-2,84-38.6,90.3-46.4
				c9.3-10.8,20-7.8,20.5-9.3C371,144.2,354,137.8,339.3,144.2z"></path>
			<linearGradient id="SVGID_15_" gradientUnits="userSpaceOnUse" x1="202.5459" y1="192.4038" x2="207.8879" y2="96.1925">
				<stop offset="0.6993" style="stop-color:#FFFFFF;stop-opacity:0"></stop>
				<stop offset="0.9071" style="stop-color:#FFFFFF"></stop>
			</linearGradient>
			<path class="st16" d="M339.3,144.2c-10.7,4.9-36.6,27.9-45.4,20.5c-11.7-9.3,9.8-27.9,9.8-41.5c-0.5-13.7-29.8-18.1-61.5-20
				c-26.4-2-169.9,11.2-169.9,11.7c-3.9,0.5-2.4,2,0,2c0,0,51.2,2.4,78.1,3.9c33.2,2,71.8,3.4,75.2,8.8c3.9,5.4,0,10.3,0,10.3
				s-7.3,14.4-10.2,19.5c-3,5.2-10.2,11.3-19.5,11.3H41.1c-3.4,0-2.9,1.9,0,2.4c0,0,139.6,31.3,218.2,29.3c57.6-2,84-38.6,90.3-46.4
				c9.3-10.8,20-7.8,20.5-9.3C371,144.2,354,137.8,339.3,144.2z"></path>
			<linearGradient id="SVGID_16_" gradientUnits="userSpaceOnUse" x1="188.9215" y1="187.6114" x2="239.8933" y2="93.3524">
				<stop offset="0.6982" style="stop-color:#FFFFFF;stop-opacity:0"></stop>
				<stop offset="1" style="stop-color:#FFFFFF"></stop>
			</linearGradient>
			<path class="st17" d="M339.3,144.2c-10.7,4.9-36.6,27.9-45.4,20.5c-11.7-9.3,9.8-27.9,9.8-41.5c-0.5-13.7-29.8-18.1-61.5-20
				c-26.4-2-169.9,11.2-169.9,11.7c-3.9,0.5-2.4,2,0,2c0,0,51.2,2.4,78.1,3.9c33.2,2,71.8,3.4,75.2,8.8c3.9,5.4,0,10.3,0,10.3
				s-7.3,14.4-10.2,19.5c-3,5.2-10.2,11.3-19.5,11.3H41.1c-3.4,0-2.9,1.9,0,2.4c0,0,139.6,31.3,218.2,29.3c57.6-2,84-38.6,90.3-46.4
				c9.3-10.8,20-7.8,20.5-9.3C371,144.2,354,137.8,339.3,144.2z"></path>
			<linearGradient id="SVGID_17_" gradientUnits="userSpaceOnUse" x1="199.0438" y1="218.0813" x2="201.9542" y2="185.9784">
				<stop offset="0.8488" style="stop-color:#6D6E71"></stop>
				<stop offset="0.905" style="stop-color:#6F7173;stop-opacity:0.6286"></stop>
				<stop offset="0.94" style="stop-color:#76777A;stop-opacity:0.397"></stop>
				<stop offset="0.9692" style="stop-color:#808285;stop-opacity:0.2037"></stop>
				<stop offset="0.9951" style="stop-color:#909294;stop-opacity:3.247243e-02"></stop>
				<stop offset="1" style="stop-color:#939598;stop-opacity:0"></stop>
			</linearGradient>
			<path class="st18" d="M339.3,144.2c-10.7,4.9-36.6,27.9-45.4,20.5c-11.7-9.3,9.8-27.9,9.8-41.5c-0.5-13.7-29.8-18.1-61.5-20
				c-26.4-2-169.9,11.2-169.9,11.7c-3.9,0.5-2.4,2,0,2c0,0,51.2,2.4,78.1,3.9c33.2,2,71.8,3.4,75.2,8.8c3.9,5.4,0,10.3,0,10.3
				s-7.3,14.4-10.2,19.5c-3,5.2-10.2,11.3-19.5,11.3H41.1c-3.4,0-2.9,1.9,0,2.4c0,0,139.6,31.3,218.2,29.3c57.6-2,84-38.6,90.3-46.4
				c9.3-10.8,20-7.8,20.5-9.3C371,144.2,354,137.8,339.3,144.2z"></path>
			<linearGradient id="SVGID_18_" gradientUnits="userSpaceOnUse" x1="210.4987" y1="216.8763" x2="207.1228" y2="184.8181">
				<stop offset="0" style="stop-color:#D1D3D4"></stop>
				<stop offset="0.443" style="stop-color:#B4B6B8;stop-opacity:0.557"></stop>
				<stop offset="1" style="stop-color:#939598;stop-opacity:0"></stop>
			</linearGradient>
			<path class="st19" d="M339.3,144.2c-10.7,4.9-36.6,27.9-45.4,20.5c-11.7-9.3,9.8-27.9,9.8-41.5c-0.5-13.7-29.8-18.1-61.5-20
				c-26.4-2-169.9,11.2-169.9,11.7c-3.9,0.5-2.4,2,0,2c0,0,51.2,2.4,78.1,3.9c33.2,2,71.8,3.4,75.2,8.8c3.9,5.4,0,10.3,0,10.3
				s-7.3,14.4-10.2,19.5c-3,5.2-10.2,11.3-19.5,11.3H41.1c-3.4,0-2.9,1.9,0,2.4c0,0,139.6,31.3,218.2,29.3c57.6-2,84-38.6,90.3-46.4
				c9.3-10.8,20-7.8,20.5-9.3C371,144.2,354,137.8,339.3,144.2z"></path>
			<radialGradient id="SVGID_19_" cx="363.5326" cy="198.4568" r="54.4029" gradientUnits="userSpaceOnUse">
				<stop offset="0.7313" style="stop-color:#808285"></stop>
				<stop offset="0.8422" style="stop-color:#828486;stop-opacity:0.5871"></stop>
				<stop offset="0.8822" style="stop-color:#87898B;stop-opacity:0.4384"></stop>
				<stop offset="0.9107" style="stop-color:#8F9294;stop-opacity:0.3324"></stop>
				<stop offset="0.9337" style="stop-color:#9C9EA1;stop-opacity:0.2466"></stop>
				<stop offset="0.9535" style="stop-color:#AEB0B2;stop-opacity:0.1732"></stop>
				<stop offset="0.9709" style="stop-color:#C4C6C8;stop-opacity:0.1082"></stop>
				<stop offset="0.9863" style="stop-color:#DEE0E1;stop-opacity:5.083829e-02"></stop>
				<stop offset="1" style="stop-color:#FFFFFF;stop-opacity:0"></stop>
			</radialGradient>
			<path class="st20" d="M339.3,144.2c-10.7,4.9-36.6,27.9-45.4,20.5c-11.7-9.3,9.8-27.9,9.8-41.5c-0.5-13.7-29.8-18.1-61.5-20
				c-26.4-2-169.9,11.2-169.9,11.7c-3.9,0.5-2.4,2,0,2c0,0,51.2,2.4,78.1,3.9c33.2,2,71.8,3.4,75.2,8.8c3.9,5.4,0,10.3,0,10.3
				s-7.3,14.4-10.2,19.5c-3,5.2-10.2,11.3-19.5,11.3H41.1c-3.4,0-2.9,1.9,0,2.4c0,0,139.6,31.3,218.2,29.3c57.6-2,84-38.6,90.3-46.4
				c9.3-10.8,20-7.8,20.5-9.3C371,144.2,354,137.8,339.3,144.2z"></path>
			<linearGradient id="SVGID_20_" gradientUnits="userSpaceOnUse" x1="229.798" y1="228.2693" x2="217.9821" y2="196.0279">
				<stop offset="0" style="stop-color:#939598"></stop>
				<stop offset="0.6742" style="stop-color:#87898C;stop-opacity:0.3222"></stop>
				<stop offset="0.9947" style="stop-color:#808285;stop-opacity:0"></stop>
			</linearGradient>
			<path class="st21" d="M339.3,144.2c-10.7,4.9-36.6,27.9-45.4,20.5c-11.7-9.3,9.8-27.9,9.8-41.5c-0.5-13.7-29.8-18.1-61.5-20
				c-26.4-2-169.9,11.2-169.9,11.7c-3.9,0.5-2.4,2,0,2c0,0,51.2,2.4,78.1,3.9c33.2,2,71.8,3.4,75.2,8.8c3.9,5.4,0,10.3,0,10.3
				s-7.3,14.4-10.2,19.5c-3,5.2-10.2,11.3-19.5,11.3H41.1c-3.4,0-2.9,1.9,0,2.4c0,0,139.6,31.3,218.2,29.3c57.6-2,84-38.6,90.3-46.4
				c9.3-10.8,20-7.8,20.5-9.3C371,144.2,354,137.8,339.3,144.2z"></path>
			
				<radialGradient id="SVGID_21_" cx="302.3281" cy="168.2848" r="32.527" gradientTransform="matrix(0.8745 -0.4851 0.3127 0.5638 -14.6754 220.0708)" gradientUnits="userSpaceOnUse">
				<stop offset="0.2515" style="stop-color:#FFFFFF"></stop>
				<stop offset="1" style="stop-color:#FFFFFF;stop-opacity:0"></stop>
			</radialGradient>
			<path class="st22" d="M339.3,144.2c-10.7,4.9-36.6,27.9-45.4,20.5c-11.7-9.3,9.8-27.9,9.8-41.5c-0.5-13.7-29.8-18.1-61.5-20
				c-26.4-2-169.9,11.2-169.9,11.7c-3.9,0.5-2.4,2,0,2c0,0,51.2,2.4,78.1,3.9c33.2,2,71.8,3.4,75.2,8.8c3.9,5.4,0,10.3,0,10.3
				s-7.3,14.4-10.2,19.5c-3,5.2-10.2,11.3-19.5,11.3H41.1c-3.4,0-2.9,1.9,0,2.4c0,0,139.6,31.3,218.2,29.3c57.6-2,84-38.6,90.3-46.4
				c9.3-10.8,20-7.8,20.5-9.3C371,144.2,354,137.8,339.3,144.2z"></path>
			<linearGradient id="SVGID_22_" gradientUnits="userSpaceOnUse" x1="58.0411" y1="179.3257" x2="376.4393" y2="120.8663">
				<stop offset="0" style="stop-color:#BCBEC0"></stop>
				<stop offset="0.1568" style="stop-color:#CED0D1"></stop>
				<stop offset="0.4784" style="stop-color:#EFF0F0"></stop>
				<stop offset="0.6457" style="stop-color:#FFFFFF"></stop>
			</linearGradient>
			<path class="st23" d="M252,200.9c-72.6,0-189.8-24.9-208.1-28.8h152c9.6,0,17.4-6,20.8-12c2.8-4.9,9.4-18,10.2-19.5
				c1.6-2.1,3.5-7.1-0.1-12c-3.1-4.9-26.3-6.6-64.2-8.7c-4.1-0.2-8.1-0.5-12.1-0.7c-21-1.1-57.2-2.9-71.8-3.6
				c25.3-2.6,122.6-11.2,156.4-11.2c2.9,0,5.2,0.1,6.9,0.2c25.6,1.6,59.6,5.2,60.1,18.6c0,5.1-3.4,11.2-6.7,17.1
				c-5.2,9.4-10.6,19.2-2.6,25.5c1.4,1.2,3.2,1.8,5.4,1.8c0,0,0,0,0,0c7.8,0,19.1-7.6,29.1-14.4c4.8-3.2,9.4-6.3,12.4-7.7
				c4-1.7,8.5-2.6,13.3-2.6c6.4,0,11.6,1.6,14,2.8c-3.9,0.3-11.8,1.1-18.8,9.2c-0.3,0.4-0.7,0.8-1,1.3c-4,5.1-12.4,15.6-26.6,25.3
				c-17.7,12-38.4,18.5-61.5,19.3C256.9,200.9,254.5,200.9,252,200.9z"></path>
			
				<radialGradient id="SVGID_23_" cx="159.0914" cy="247.573" r="190.3695" gradientTransform="matrix(0.9897 0.1433 -9.315309e-02 0.6435 24.7035 65.4715)" gradientUnits="userSpaceOnUse">
				<stop offset="0.3141" style="stop-color:#E6E7E8"></stop>
				<stop offset="0.6118" style="stop-color:#E8E9EA"></stop>
				<stop offset="0.7445" style="stop-color:#EEEFEF"></stop>
				<stop offset="0.8442" style="stop-color:#FAFAFA"></stop>
				<stop offset="0.8639" style="stop-color:#FFFFFF"></stop>
			</radialGradient>
			<path class="st24" d="M252,200.9c-72.6,0-189.8-24.9-208.1-28.8h152c9.6,0,17.4-6,20.8-12c2.8-4.9,9.4-18,10.2-19.5
				c1.6-2.1,3.5-7.1-0.1-12c-3.1-4.9-26.3-6.6-64.2-8.7c-4.1-0.2-8.1-0.5-12.1-0.7c-21-1.1-57.2-2.9-71.8-3.6
				c25.3-2.6,122.6-11.2,156.4-11.2c2.9,0,5.2,0.1,6.9,0.2c25.6,1.6,59.6,5.2,60.1,18.6c0,5.1-3.4,11.2-6.7,17.1
				c-5.2,9.4-10.6,19.2-2.6,25.5c1.4,1.2,3.2,1.8,5.4,1.8c0,0,0,0,0,0c7.8,0,19.1-7.6,29.1-14.4c4.8-3.2,9.4-6.3,12.4-7.7
				c4-1.7,8.5-2.6,13.3-2.6c6.4,0,11.6,1.6,14,2.8c-3.9,0.3-11.8,1.1-18.8,9.2c-0.3,0.4-0.7,0.8-1,1.3c-4,5.1-12.4,15.6-26.6,25.3
				c-17.7,12-38.4,18.5-61.5,19.3C256.9,200.9,254.5,200.9,252,200.9z"></path>
		</g>
	</g>
</g>
<g>
	<g>
		<path class="st25" d="M458.6,191.6l15.7-1.1v-75.7l-15.7-1.1V103h68.7c29.8,0,45.3,7.1,45.3,23.7c0,16.4-13.1,20.4-29.5,23v2.8
			c17.1,1.7,32.8,6,32.8,23.7c0,18.6-17,26.1-46.4,26.1h-70.9V191.6z M519,145.5c14.6,0,27.1-3.4,27.1-16.3
			c0-12.9-14-14.5-26.7-14.5h-19.2v30.8H519z M520.7,190.3c14.7,0,27.8-2,27.8-16.3c0-14.2-14.2-16.7-28.6-16.7h-19.7v33H520.7z"></path>
		<path class="st25" d="M590.5,191.6l15.7-1.1v-75.7l-15.7-1.1V103h57.3v10.6l-15.7,1.1v75.7h42.4l2-21.1H694v32.9H590.5V191.6z"></path>
		<path class="st25" d="M710.3,114.8l-15.7-1.1V103H752v10.6l-15.5,1.1v54.1c0,20.1,10.9,23,28.9,23c18.2,0,30-3.4,30-23v-54.1
			l-15.7-1.1V103h51.6v10.6l-15.7,1.1v51.7c0,23.2-9.4,37.3-52.5,37.3c-44.4,0-52.9-14.7-52.9-36.6V114.8z"></path>
		<path class="st25" d="M840.4,191.6l15.7-1.1v-75.7l-15.7-1.1V103h108.2v30.9h-17l-1.7-19.1H882V146h33.7v11.6H882v32.9h47.7
			l1.8-19.8h17v31.6H840.4V191.6z"></path>
		<path class="st25" d="M1004.3,191.6l15.7-1.1v-75.7l-15.7-1.1V103h68.7c29.8,0,45.3,7.1,45.3,23.7c0,16.4-13.1,20.4-29.5,23v2.8
			c17.1,1.7,32.8,6,32.8,23.7c0,18.6-17,26.1-46.4,26.1h-70.9V191.6z M1064.7,145.5c14.6,0,27.1-3.4,27.1-16.3
			c0-12.9-14-14.5-26.7-14.5h-19.2v30.8H1064.7z M1066.4,190.3c14.7,0,27.8-2,27.8-16.3c0-14.2-14.2-16.7-28.6-16.7h-19.7v33H1066.4
			z"></path>
		<path class="st25" d="M1131.6,191.6l15.7-1.1v-75.7l-15.7-1.1V103h57.3v10.6l-15.7,1.1v75.7l15.7,1.1v10.6h-57.3V191.6z"></path>
		<path class="st25" d="M1205,191.6l15.7-1.1v-75.7l-15.7-1.1V103h69.5c28.7,0,46.6,6.4,46.6,28.8c0,16.2-13.1,23.1-30.4,26.8
			l26.9,31.9l14,1.1v10.6h-34.3l-31.3-40.5h-19.3v28.8l14.7,1.1v10.6H1205V191.6z M1266.3,149.8c16.4,0,28-2.8,28-17.6
			s-10.9-17.4-26.5-17.4h-21.2v35H1266.3z"></path>
		<path class="st25" d="M1339.5,191.6l15.7-1.1v-75.7l-15.7-1.1V103h66c38.3,0,63.9,10.6,63.9,49.9c0,35-21.6,49.3-64.1,49.3h-65.8
			V191.6z M1401.2,190.3c26.3,0,41.3-6.1,41.3-37.7c0-29.5-15.8-37.7-42.4-37.7h-18.8v75.4H1401.2z"></path>
	</g>
</g>
<g>
	<path class="st25" d="M1485.3,203.8c8.8,0,15.7,7.1,15.7,16c0,9-7,16.1-15.8,16.1c-8.7,0-15.8-7-15.8-16.1
		C1469.3,210.9,1476.5,203.8,1485.3,203.8L1485.3,203.8z M1485.2,206.3c-7,0-12.8,6.1-12.8,13.5c0,7.6,5.8,13.6,12.9,13.6
		c7.1,0.1,12.8-6,12.8-13.5C1498.1,212.3,1492.4,206.3,1485.2,206.3L1485.2,206.3z M1482.2,229.1h-2.8v-17.9c1.5-0.2,2.9-0.4,5-0.4
		c2.7,0,4.5,0.6,5.5,1.3c1.1,0.8,1.6,2,1.6,3.7c0,2.3-1.6,3.8-3.5,4.3v0.1c1.6,0.3,2.6,1.7,3,4.3c0.4,2.8,0.9,3.8,1.1,4.4h-3
		c-0.4-0.6-0.9-2.2-1.2-4.6c-0.4-2.3-1.6-3.1-3.8-3.1h-2V229.1z M1482.2,219.2h2.1c2.3,0,4.3-0.9,4.3-3.1c0-1.6-1.1-3.1-4.3-3.1
		c-0.9,0-1.6,0.1-2.1,0.1V219.2z"></path>
</g>
</svg>