<?xml version="1.0" encoding="utf-8"?>
<!DOCTYPE svg PUBLIC "-//W3C//DTD SVG 1.1//EN" "http://www.w3.org/Graphics/SVG/1.1/DTD/svg11.dtd">
<svg version="1.1" id="Layer_1" xmlns="http://www.w3.org/2000/svg" xmlns:xlink="http://www.w3.org/1999/xlink" x="0px" y="0px"
	 viewBox="0 0 282.5 100.1" enable-background="new 0 0 282.5 100.1" xml:space="preserve">
<path fill="#010202" d="M269.9,84.7h-13.2c-0.5,0-0.9,0.4-0.9,0.9v13.2c0,0.5,0.4,0.9,0.9,0.9h13.2c0.5,0,0.9-0.4,0.9-0.9V85.5
	C270.8,85.1,270.4,84.7,269.9,84.7 M269.9,98.8h-13.2V85.5h13.2V98.8z"/>
<polygon fill="#010202" points="261.8,87 261.8,90.6 258.2,90.6 258.2,93.7 261.8,93.7 261.8,97.3 264.9,97.3 264.9,93.7 
	268.5,93.7 268.5,90.6 264.9,90.6 264.9,87 "/>
<path fill="#010202" d="M71.1,21.3c2.8,0,3.4,0.4,4.3,1.3c1.2,1.3,1.8,2.3,1.8,3.1c0,0.9-2,2.4-3.7,3.7l-0.5,0.4
	c-1.9,1.4-2.9,1.7-6.6,1.7H27.7c-0.5,0-1-0.2-1.3-0.6c-0.3-0.4-0.4-0.9-0.2-1.4l1.4-5.7c0.3-1.3,1.6-2.4,2.9-2.4H71.1z M65.6,44.4
	c2.8,0,3.4,0.4,4.3,1.3c1.2,1.3,1.8,2.3,1.8,3.1c0,1-2,2.4-3.8,3.7l-0.5,0.3c-1.9,1.4-2.9,1.7-6.6,1.7H22.1c-0.5,0-1-0.2-1.2-0.6
	c-0.3-0.4-0.3-0.9-0.2-1.5l1.4-5.7c0.3-1.3,1.6-2.4,2.9-2.4H65.6z M83.9,36.8l7.2-5.7c3-2.4,3.8-7.4,1.6-10.9L84.7,8.7
	c-0.9-1.3-3-2.5-4.5-2.5H34.7c-1.6,0-2.5-1.3-2.1-2.9V2.9C33,1.3,32,0,30.4,0L18.9,0c-1.6,0-3,0.9-3.4,2.5L0.1,66.6
	c-0.4,1.6,0.6,2.9,2.1,2.9h63.1c1.6,0,3.9-0.8,5.1-1.8l14.8-11.7c3.3-2.7,3.7-8.7,1.5-12c0,0-3.2-4.6-3.2-4.7
	C83.1,38.8,83.2,37.4,83.9,36.8 M222.1,6.2c-1.6,0-3.9,0.8-5.1,1.8l-13.6,10.9c-1.3,1-2.6,3.1-3,4.8l-6.7,27.8c-0.4,1.6,0,4,1,5.4
	l7,10.2c0.9,1.3,3,2.4,4.5,2.4H265c1.5,0,3.2-1.3,3.6-2.9l2.3-9.2c0.4-1.6-0.6-2.9-2.1-2.9h-52.5c-1.5,0-2-0.7-2.5-1.4l-1.5-2.2
	c-0.8-1.4-0.7-2-0.3-3.6l5.5-22.9c0.4-1.6,2-2.9,3.5-2.9h55.7c1.6,0,3.1-1.3,3.5-2.9l2.2-9.2c0.4-1.6-0.6-2.9-2.1-2.9H222.1z
	 M115.7,3.8c0.9,1.3,2.9,2.5,4.5,2.5h56.5c1.6,0,3.6,1.1,4.5,2.4l8.2,11.9c0.9,1.3,1.4,3.8,1,5.4l-9.8,40.7c-0.4,1.6-2,2.9-3.5,2.9
	h-11.5c-1.6,0-2.5-1.3-2.1-2.9l10.2-42.3c0.4-1.6-0.6-2.9-2.1-2.9h-12.8c-1.6,0-3.2,1.3-3.5,2.9l-10.2,42.3c-0.4,1.6-2,2.9-3.5,2.9
	h-11.5c-1.6,0-2.5-1.3-2.1-2.9L138,24.3c0.4-1.6-0.5-2.9-2.1-2.9H123c-1.6,0-3.2,1.3-3.5,2.9l-10.2,42.4c-0.4,1.6-2,2.9-3.5,2.9
	H94.2c-1.6,0-2.5-1.3-2.1-2.9l11-45.7c0.4-1.6,0-4-1-5.4l-1.1-1.5c-0.9-1.3-0.7-3.3,0.6-4.3l9.5-7.5c1.2-1,3-0.7,4,0.7L115.7,3.8z"
	/>
<path fill="#010202" d="M11.8,89.1C11.5,86.9,9.9,86,7.6,86c-1.9,0-3.7,0.6-3.7,2.6c0,1.9,2.6,2.1,5.3,2.7c2.6,0.5,5.3,1.4,5.3,4.3
	c0,3.2-3.5,4.5-6.5,4.5c-3.7,0-6.8-1.6-6.8-5.3h2.1c0,2.5,2.3,3.6,4.8,3.6c2,0,4.2-0.6,4.2-2.7c0-2.1-2.6-2.4-5.3-3
	c-2.6-0.5-5.3-1.2-5.3-4c0-3.1,3-4.4,6-4.4c3.4,0,6,1.5,6.1,4.8H11.8z"/>
<polygon fill="#010202" points="38.7,99.7 36.4,99.7 32.6,87 32.6,87 28.8,99.7 26.5,99.7 22.2,84.6 24.5,84.6 27.7,97.2 27.8,97.2 
	31.5,84.6 33.9,84.6 37.5,97.2 37.6,97.2 41,84.6 43.2,84.6 "/>
<rect x="52.8" y="84.6" fill="#010202" width="2.2" height="15.1"/>
<polygon fill="#010202" points="69.5,86.3 64,86.3 64,84.6 77.3,84.6 77.3,86.3 71.7,86.3 71.7,99.7 69.5,99.7 "/>
<polygon fill="#010202" points="85.6,98 95.9,86.3 86.4,86.3 86.4,84.6 98.5,84.6 98.5,86.3 88.2,98 98.8,98 98.8,99.7 85.6,99.7 
	"/>
<polygon fill="#010202" points="108.8,84.6 120.3,84.6 120.3,86.3 111,86.3 111,91.1 119.7,91.1 119.7,92.8 111,92.8 111,98 
	120.4,98 120.4,99.7 108.8,99.7 "/>
<path fill="#010202" d="M138.3,91.6c2.1,0,3.8-0.5,3.8-2.7c0-1.5-0.9-2.6-3-2.6h-5.5v5.3H138.3z M131.5,84.6h7.8c3.1,0,5,1.5,5,3.9
	c0,1.8-0.9,3.3-2.9,3.8v0c1.9,0.3,2.3,1.6,2.5,3.1c0.1,1.5,0,3.1,1,4.2h-2.5c-0.6-0.6-0.3-2.2-0.6-3.7c-0.2-1.5-0.6-2.7-2.8-2.7
	h-5.4v6.4h-2.2V84.6z"/>
<polygon fill="#010202" points="154.9,84.6 157.1,84.6 157.1,98 165.8,98 165.8,99.7 154.9,99.7 "/>
<path fill="#010202" d="M178.1,93.5h5.6l-2.8-7h0L178.1,93.5z M179.7,84.6h2.4l6.5,15.1h-2.4l-1.8-4.5h-7l-1.9,4.5h-2.3L179.7,84.6z
	"/>
<polygon fill="#010202" points="197.5,84.6 199.8,84.6 208.5,96.9 208.6,96.9 208.6,84.6 210.7,84.6 210.7,99.7 208.3,99.7 
	199.6,87.6 199.6,87.6 199.6,99.7 197.5,99.7 "/>
<path fill="#010202" d="M223.5,98h3.7c1.5,0,5.6-0.4,5.6-5.9c0-3.6-1.5-5.8-5.5-5.8h-3.7V98z M221.3,84.6h5.7c5.1,0,8,2.3,8,7.2
	c0,5-2.4,7.9-8,7.9h-5.7V84.6z"/>
</svg>
