<?xml version="1.0" encoding="UTF-8" standalone="no"?>
<!-- Created with Inkscape (http://www.inkscape.org/) -->
<svg
   xmlns:svg="http://www.w3.org/2000/svg"
   xmlns="http://www.w3.org/2000/svg"
   version="1.0"
   width="491.79999"
   height="103.73"
   id="svg2">
  <defs
     id="defs4">
    <clipPath
       id="clipPath2628">
      <path
         d="M 654.803,634.961 L 1251.496,634.961 L 1251.496,66.615 L 654.803,66.615 L 654.803,634.961 z"
         id="path2630" />
    </clipPath>
    <clipPath
       id="clipPath2484">
      <path
         d="M 1815.591,850.394 L 0,850.394 L 0,0 L 1815.591,0 L 1815.591,850.394 z"
         id="path2486" />
    </clipPath>
    <clipPath
       id="clipPath2466">
      <path
         d="M 1815.591,850.394 L 0,850.394 L 0,0 L 1815.591,0 L 1815.591,850.394 z"
         id="path2468" />
    </clipPath>
    <clipPath
       id="clipPath2452">
      <path
         d="M 1815.591,850.394 L 0,850.394 L 0,0 L 1815.591,0 L 1815.591,850.394 z"
         id="path2454" />
    </clipPath>
    <clipPath
       id="clipPath2434">
      <path
         d="M 1815.591,850.394 L 0,850.394 L 0,0 L 1815.591,0 L 1815.591,850.394 z"
         id="path2436" />
    </clipPath>
  </defs>
  <g
     transform="translate(-6.4904068e-2,0.2839791)"
     id="layer1">
    <g
       transform="matrix(4.4384601,0,0,4.4384601,-101.18608,-217.28521)"
       id="g3132">
      <path
         d="M 33.859908,69.644592 L 25.064908,69.644592 L 25.064908,51.482092 L 34.119908,51.482092 C 34.716158,51.482092 36.117408,51.534592 36.739908,51.638342 C 38.919907,51.975842 40.864907,53.013342 40.864907,55.815842 C 40.864907,57.735842 39.671157,59.162092 38.114908,59.473342 L 37.984908,59.499592 L 37.984908,59.784592 L 38.114908,59.810842 C 40.242407,60.278342 41.409907,61.887092 41.409907,64.195842 C 41.409907,67.750842 39.178657,69.048342 36.662408,69.488342 C 35.987408,69.592092 34.534908,69.644592 33.859908,69.644592 z M 31.058658,55.400842 L 31.058658,58.720842 L 32.511158,58.720842 C 32.744908,58.720842 33.003658,58.720842 33.263658,58.695842 C 34.223658,58.617092 34.976158,58.358342 34.976158,57.087092 C 34.976158,55.763342 34.197408,55.504592 33.211158,55.425842 C 32.952408,55.400842 32.692408,55.400842 32.458658,55.400842 L 31.058658,55.400842 z M 51.969907,70.008342 C 46.547407,70.008342 43.589907,67.568342 43.589907,62.690842 L 43.589907,51.715842 L 49.583657,51.715842 L 49.583657,62.613342 C 49.583657,64.118342 50.257407,65.285842 51.943657,65.285842 C 53.734907,65.285842 54.253657,64.092092 54.253657,62.613342 L 54.253657,51.715842 L 60.221158,51.715842 L 60.221158,62.690842 C 60.221158,67.568342 57.548657,70.008342 51.969907,70.008342 z M 76.307408,56.360842 C 76.307408,56.360842 74.932408,55.867092 73.167408,55.867092 C 70.366158,55.867092 68.574908,57.398342 68.574908,60.485842 C 68.574908,63.522092 70.494908,65.078342 73.193658,65.078342 C 74.128658,65.078342 75.581158,64.974592 76.384908,64.610842 L 76.384908,69.514592 C 76.384908,69.514592 75.658658,69.982092 72.077408,69.982092 C 66.292408,69.982092 62.399908,66.842092 62.399908,60.770842 C 62.399908,54.077092 66.784908,51.144592 72.544908,51.144592 C 74.906158,51.144592 76.333658,51.534592 76.333658,51.534592 L 76.307408,56.360842 z M 89.591158,69.644592 L 89.591158,62.690842 L 84.973658,62.690842 L 84.973658,69.644592 L 78.979908,69.644592 L 78.979908,51.482092 L 84.973658,51.482092 L 84.973658,58.047092 L 89.591158,58.047092 L 89.591158,51.482092 L 95.584908,51.482092 L 95.584908,69.644592 L 89.591158,69.644592 z M 98.723658,69.644592 L 98.723658,51.482092 L 111.33366,51.482092 L 111.33366,56.048342 L 104.71741,56.048342 L 104.71741,58.384592 L 111.10116,58.384592 L 111.10116,62.535842 L 104.71741,62.535842 L 104.71741,65.078342 L 111.69741,65.078342 L 111.69741,69.644592 L 98.723658,69.644592 z M 124.77366,69.644592 L 122.59366,64.584592 C 122.10116,63.443342 121.94616,63.392092 120.98491,63.392092 L 120.38866,63.392092 L 120.38866,69.644592 L 114.36991,69.644592 L 114.36991,51.482092 L 121.84116,51.482092 C 123.16491,51.482092 124.98116,51.482092 126.38241,51.923342 C 128.37991,52.572092 130.01491,53.895842 130.01491,57.008342 C 130.01491,59.603342 128.40616,60.797092 127.42116,61.212092 C 127.23866,61.289592 126.87616,61.393342 126.87616,61.393342 L 126.87616,61.600842 C 127.31616,61.730842 127.80991,62.015842 128.32741,62.847092 C 129.05491,64.014592 131.36366,69.644592 131.36366,69.644592 L 124.77366,69.644592 z M 31.058658,62.094592 L 31.058658,65.623342 L 32.666158,65.623342 C 32.899908,65.623342 33.133658,65.623342 33.392408,65.597092 C 34.352408,65.519592 35.312408,65.285842 35.312408,63.754592 C 35.312408,62.432092 34.301158,62.198342 33.314908,62.120842 C 33.056158,62.094592 32.848658,62.094592 32.614908,62.094592 L 31.058658,62.094592 z M 120.38866,55.789592 L 120.38866,59.525842 L 121.65991,59.525842 C 121.86866,59.525842 122.10116,59.525842 122.33491,59.499592 C 123.21741,59.422092 124.30616,59.214592 124.30616,57.553342 C 124.30616,56.048342 123.16491,55.893342 122.25741,55.815842 C 122.02366,55.789592 121.84116,55.789592 121.60741,55.789592 L 120.38866,55.789592"
         id="path2620"
         style="fill:#ee3224;fill-opacity:1;fill-rule:nonzero;stroke:none" />
    </g>
  </g>
</svg>
