<?xml version="1.0" encoding="utf-8"?>
<!-- Generator: Adobe Illustrator 19.1.1, SVG Export Plug-In . SVG Version: 6.00 Build 0)  -->
<svg version="1.1" id="Layer_1" xmlns="http://www.w3.org/2000/svg" xmlns:xlink="http://www.w3.org/1999/xlink" x="0px" y="0px"
	 viewBox="-605 10.7 708.7 269.3" style="enable-background:new -605 10.7 708.7 269.3;" xml:space="preserve">
<style type="text/css">
	.st0{fill:#0082CA;}
	.st1{fill:#0082C2;}
</style>
<g>
	<path class="st0" d="M-328.7,187.7c-0.1,12.8-11.2,32.3-17.9,32.4c-6.7,0.2-21.7-10.9-24.1-11.8c-2.4-0.8-3.6-0.5-5,0.8
		c-4.2,4-11.7,10.2-18.4,15c-1.5,1.1-1,3.4,0.5,4.5c12.3,9.2,28.2,16.3,42.8,19.8c1.9,0.4,4.8,0,6.1-1.1c10.5-8.4,25.5-34.4,30-47.5
		c3.2-9,2.6-17,1.6-20.2c-8.6-27.1-29.3-59.1-59.2-87.9c-0.5-0.5-1-0.8-2.2-0.7c-0.7,0-5.8,1.1-7,1.7c-0.5,0.2-1.3,1.1-0.4,2
		C-351.8,127.4-328.6,168.7-328.7,187.7"/>
	<path class="st0" d="M-471.7,212.2c-8-0.3-34.2-26.8-34.8-32.3c-1.1-9.8,10.1-28.5,15-37.3c1.4-2.4,1-3.6,0.1-4.7
		c-4.5-5.6-10.7-14.4-13.8-18.8c-0.9-1.3-3.1-1.7-4.4-0.4c-12.2,12-26.8,41.3-29.6,55.1c-0.7,3.7,0,8.4,1,10.7
		c7.9,17.4,38.7,50.8,54.3,60.2c4.3,2.6,14.6,3.5,19.5,1.4c50.2-21.1,99-68,111.5-88.9c0.6-1,0.7-1.6,0.3-2.7
		c-0.6-1.6-4.5-8.3-5.5-9.5c-0.8-1-1.9-1.1-2.7-0.1C-390.5,181.2-451.1,212.9-471.7,212.2"/>
	<path class="st0" d="M-485.3,68.5c0.7-6.1,21.3-16,25.5-15.9c8.3,0.1,22.1,5.2,27,7c2,0.7,3.7-0.1,4.3-0.3
		c3.1-1.4,8.6-3.8,12.4-4.9c0.9-0.3,1.1-1.7,0.4-2.1c-8.2-4.1-25.3-9.2-41-10.1c-3.4-0.2-4.4-0.1-6.8,0.4
		c-13,2.3-39.8,14.9-46.6,24.4c-1.5,2.1-2,6.1-0.8,9.1c9.6,23.8,42.2,67,63.2,84.3c0.7,0.6,1.6,0.6,2.5,0.2c1.8-0.8,6.8-3.8,7.9-4.9
		c0.5-0.4,0.8-1.3,0.1-2.1C-460.3,127.4-486.4,78.4-485.3,68.5"/>
	<path class="st0" d="M-374.3,68.8c6.1,1.4,23.2,14.8,25.8,18.7c1.2,1.8,1.2,8.4,0.9,14.5c-0.1,2.6,0.1,3.5,1.2,4.7
		c2.4,2.9,11.5,14.3,13.7,17.6c0.6,1,1.8,1,2.4,0.1c0.7-1.1,2.2-19-2.6-28.7c-5.1-10.2-29.9-30.7-43.2-37.3
		c-6.8-3.4-12.3-2.5-16.3-2.2c-17.2,1.6-44.2,12.9-63.7,29.5c-0.9,0.7-0.8,1.3-0.6,1.8c0.5,1.6,2.5,5,3.5,6.3
		c0.3,0.4,0.9,0.9,1.8,0.4C-416.6,73.8-390.4,65.1-374.3,68.8"/>
</g>
<g>
	<path class="st1" d="M-237.9,80.4c3.1,0,5.9,0.4,8.3,1.3c2.4,0.8,4.4,1.9,6,3.2c1.6,1.3,2.8,2.7,3.6,4.2c0.8,1.5,1.3,3,1.4,4.3
		c0,0.6-0.1,1-0.5,1.4c-0.4,0.4-0.9,0.5-1.4,0.5h-4.9c-0.8,0-1.4-0.2-1.8-0.5c-0.4-0.3-0.8-0.7-1.1-1.2c-0.7-1.2-1.8-2.2-3.2-3.1
		c-1.4-0.9-3.6-1.3-6.4-1.3c-1.2,0-2.4,0.1-3.5,0.4c-1.1,0.3-2.1,0.6-2.9,1.1s-1.5,1.1-1.9,1.8s-0.7,1.5-0.7,2.4
		c0,1.1,0.2,2,0.7,2.6c0.4,0.7,1.2,1.3,2.3,1.8s2.5,0.9,4.2,1.4c1.7,0.4,3.9,0.9,6.5,1.5c2.8,0.6,5.2,1.3,7.3,2.1c2,0.8,3.7,1.8,5,3
		c1.3,1.1,2.3,2.5,2.9,4s1,3.2,1,5.1c0,2.1-0.5,4.1-1.4,5.9s-2.3,3.4-4,4.6c-1.7,1.3-3.9,2.3-6.4,3.1s-5.4,1.1-8.5,1.1
		c-2.6,0-5.1-0.3-7.5-0.9s-4.5-1.5-6.4-2.7s-3.3-2.6-4.5-4.3c-1.1-1.7-1.8-3.6-1.9-5.6c0-0.6,0.1-1,0.5-1.4s0.9-0.5,1.4-0.5h4.9
		c0.8,0,1.4,0.1,1.8,0.4s0.8,0.7,1.1,1.3c0.3,0.6,0.7,1.2,1.2,1.8c0.5,0.6,1.1,1.1,1.9,1.6s1.8,0.9,3,1.2c1.2,0.3,2.7,0.5,4.5,0.5
		c1.4,0,2.8-0.1,4.1-0.3c1.3-0.2,2.5-0.6,3.4-1.1c1-0.5,1.8-1.1,2.4-1.8c0.6-0.7,0.9-1.6,0.9-2.7c0-1-0.3-1.9-1-2.5
		c-0.7-0.7-1.7-1.2-3-1.7s-3-0.9-5-1.3s-4.2-1-6.8-1.6c-2.3-0.6-4.4-1.2-6.2-2c-1.8-0.8-3.2-1.7-4.4-2.8c-1.1-1.1-2-2.5-2.6-4
		s-0.8-3.3-0.8-5.5c0-2.1,0.5-4.1,1.4-5.8c0.9-1.8,2.2-3.3,3.9-4.6c1.6-1.3,3.6-2.3,5.9-3C-242.9,80.8-240.5,80.4-237.9,80.4z"/>
	<path class="st1" d="M-209.8,102.8c0.2-1,0.6-2,1.3-3.2c0.7-1.1,1.6-2.2,2.9-3.2c1.2-1,2.8-1.8,4.6-2.4c1.8-0.6,3.9-0.9,6.3-0.9
		s4.5,0.3,6.5,0.9c1.9,0.6,3.6,1.6,5,2.8s2.5,2.8,3.2,4.6c0.7,1.9,1.1,4,1.1,6.4v20.7c0,0.5-0.2,1-0.6,1.3c-0.4,0.4-0.8,0.6-1.3,0.6
		h-5.3c-0.5,0-1-0.2-1.3-0.6c-0.4-0.4-0.6-0.8-0.6-1.3v-2.3c-1,1.4-2.4,2.5-4.3,3.5s-4.2,1.4-7.1,1.4c-2,0-3.8-0.3-5.4-0.8
		s-2.9-1.3-4-2.3c-1.1-1-1.9-2.1-2.5-3.5c-0.6-1.3-0.9-2.8-0.9-4.4c0-3.2,1.1-5.8,3.4-7.6c2.3-1.8,5.4-3.1,9.2-3.7l11.5-2
		c0-1.9-0.6-3.3-1.9-4.1c-1.3-0.8-2.8-1.2-4.7-1.2c-1.2,0-2.1,0.2-2.7,0.5c-0.7,0.3-1.3,0.8-1.9,1.3c-0.4,0.4-0.8,0.6-1.2,0.8
		c-0.4,0.1-0.7,0.2-1.2,0.2h-6.5c-0.5,0-0.9-0.1-1.2-0.4C-209.8,103.6-209.9,103.3-209.8,102.8z M-198,122.6c1.6,0,3-0.2,4.3-0.7
		c1.2-0.4,2.3-1,3.1-1.8c0.8-0.8,1.5-1.6,1.9-2.5s0.6-1.9,0.6-2.9V114l-9.6,1.7c-1.9,0.3-3.3,0.8-4.2,1.4c-0.8,0.6-1.3,1.5-1.3,2.6
		c0,1,0.5,1.7,1.5,2.2C-200.6,122.4-199.4,122.6-198,122.6z"/>
	<path class="st1" d="M-160.5,128.5c0,0.5-0.2,1-0.6,1.3c-0.4,0.4-0.8,0.6-1.3,0.6h-5.3c-0.5,0-1-0.2-1.3-0.6
		c-0.4-0.4-0.6-0.8-0.6-1.3V82.3c0-0.5,0.2-1,0.6-1.3c0.4-0.4,0.8-0.6,1.3-0.6h5.3c0.5,0,1,0.2,1.3,0.6c0.4,0.4,0.6,0.8,0.6,1.3
		V128.5z"/>
	<path class="st1" d="M-138.8,129.8c-0.3-0.4-0.6-0.8-0.8-1.2l-14.1-32.4c0-0.1-0.1-0.3-0.1-0.5c0-0.5,0.2-1,0.6-1.3
		c0.4-0.4,0.8-0.6,1.3-0.6h5.3c0.7,0,1.2,0.2,1.5,0.6c0.3,0.4,0.6,0.8,0.8,1.1l9.4,21.8l9.4-21.8c0.2-0.4,0.4-0.7,0.8-1.1
		c0.3-0.4,0.8-0.6,1.5-0.6h5.3c0.5,0,1,0.2,1.3,0.6c0.4,0.4,0.6,0.8,0.6,1.3c0,0.2,0,0.4-0.1,0.5l-14.1,32.4
		c-0.2,0.4-0.4,0.8-0.8,1.2c-0.3,0.4-0.8,0.6-1.5,0.6h-4.6C-138,130.4-138.5,130.2-138.8,129.8z"/>
	<path class="st1" d="M-111,102.8c0.2-1,0.6-2,1.3-3.2c0.7-1.1,1.6-2.2,2.9-3.2c1.2-1,2.8-1.8,4.6-2.4c1.8-0.6,3.9-0.9,6.3-0.9
		s4.5,0.3,6.5,0.9c1.9,0.6,3.6,1.6,5,2.8s2.5,2.8,3.2,4.6c0.7,1.9,1.1,4,1.1,6.4v20.7c0,0.5-0.2,1-0.6,1.3c-0.4,0.4-0.8,0.6-1.3,0.6
		h-5.3c-0.5,0-1-0.2-1.3-0.6c-0.4-0.4-0.6-0.8-0.6-1.3v-2.3c-1,1.4-2.4,2.5-4.3,3.5c-1.9,1-4.2,1.4-7.1,1.4c-2,0-3.8-0.3-5.4-0.8
		s-2.9-1.3-4-2.3c-1.1-1-1.9-2.1-2.5-3.5c-0.6-1.3-0.9-2.8-0.9-4.4c0-3.2,1.1-5.8,3.4-7.6c2.3-1.8,5.4-3.1,9.2-3.7l11.5-2
		c0-1.9-0.6-3.3-1.9-4.1c-1.3-0.8-2.8-1.2-4.7-1.2c-1.2,0-2.1,0.2-2.7,0.5c-0.7,0.3-1.3,0.8-1.9,1.3c-0.4,0.4-0.8,0.6-1.2,0.8
		c-0.4,0.1-0.7,0.2-1.2,0.2h-6.5c-0.5,0-0.9-0.1-1.2-0.4C-111,103.6-111.1,103.3-111,102.8z M-99.3,122.6c1.6,0,3-0.2,4.3-0.7
		c1.2-0.4,2.3-1,3.1-1.8s1.5-1.6,1.9-2.5s0.6-1.9,0.6-2.9V114l-9.6,1.7c-1.9,0.3-3.3,0.8-4.2,1.4c-0.8,0.6-1.3,1.5-1.3,2.6
		c0,1,0.5,1.7,1.5,2.2C-101.8,122.4-100.6,122.6-99.3,122.6z"/>
	<path class="st1" d="M-56.8,93.1c1.5,0,2.8,0.1,3.9,0.4c1.1,0.3,2.2,0.6,3,1.1c0.9,0.4,1.6,0.9,2.2,1.4c0.6,0.5,1.1,0.9,1.5,1.4
		v-15c0-0.5,0.2-1,0.6-1.3c0.4-0.4,0.8-0.6,1.3-0.6h5.3c0.5,0,1,0.2,1.3,0.6c0.4,0.4,0.6,0.8,0.6,1.3v46.2c0,0.5-0.2,1-0.6,1.3
		c-0.4,0.4-0.8,0.6-1.3,0.6h-5.3c-0.5,0-1-0.2-1.3-0.6c-0.4-0.4-0.6-0.8-0.6-1.3V127c-0.4,0.4-0.9,0.9-1.5,1.4s-1.3,0.9-2.2,1.4
		c-0.9,0.4-1.9,0.8-3,1.1c-1.2,0.3-2.5,0.4-3.9,0.4c-2.3,0-4.5-0.5-6.4-1.4s-3.5-2.1-4.9-3.7c-1.3-1.5-2.4-3.3-3.2-5.3
		s-1.2-4.1-1.3-6.2c0-0.7-0.1-1.5-0.1-2.5c0-0.9,0-1.8,0.1-2.5c0.1-2.2,0.5-4.2,1.3-6.2s1.8-3.8,3.2-5.3c1.3-1.5,3-2.7,4.9-3.7
		C-61.2,93.5-59.1,93.1-56.8,93.1z M-63.3,110.1c-0.1,1.3-0.1,2.6,0,3.9c0.3,3,1.2,5.2,2.8,6.6s3.5,2,5.8,2s4.2-0.7,5.8-2
		c1.6-1.4,2.5-3.3,2.7-5.8c0.1-0.7,0.1-1.6,0.1-2.7s0-2-0.1-2.7c-0.2-2.4-1.1-4.4-2.7-5.8c-1.6-1.4-3.5-2.1-5.8-2.1s-4.2,0.7-5.8,2
		S-63,107.1-63.3,110.1z"/>
	<path class="st1" d="M-11.2,93.1c2.6,0,4.9,0.4,7,1.2c2.1,0.8,3.9,1.9,5.4,3.3s2.7,3,3.7,4.9c0.9,1.9,1.4,3.9,1.6,6.1
		c0,0.4,0.1,1,0.1,1.6c0,0.7,0,1.3,0,2s0,1.3,0,1.9s0,1.2-0.1,1.6c-0.2,2.2-0.7,4.2-1.6,6.1c-0.9,1.9-2.1,3.5-3.6,4.9
		c-1.5,1.4-3.3,2.5-5.4,3.3c-2.1,0.8-4.4,1.2-7,1.2s-4.9-0.4-7-1.2s-3.9-1.9-5.4-3.3c-1.5-1.4-2.7-3-3.6-4.9
		c-0.9-1.9-1.4-3.9-1.6-6.1c0-0.4-0.1-0.9-0.1-1.6s0-1.3,0-1.9c0-0.7,0-1.3,0-2s0.1-1.2,0.1-1.6c0.1-2.2,0.7-4.2,1.6-6.1
		c0.9-1.9,2.1-3.5,3.7-4.9c1.5-1.4,3.3-2.5,5.4-3.3C-16.1,93.5-13.7,93.1-11.2,93.1z M-2.6,108.9c-0.1-1.5-0.5-2.7-1-3.6
		c-0.5-1-1.2-1.7-2-2.3c-0.8-0.6-1.7-1-2.6-1.2c-0.9-0.2-1.9-0.3-2.9-0.3s-1.9,0.1-2.9,0.3s-1.8,0.6-2.6,1.2s-1.5,1.3-2,2.3
		s-0.9,2.2-1,3.6c0,0.4-0.1,0.8-0.1,1.4s0,1.2,0,1.8c0,0.6,0,1.2,0,1.8c0,0.6,0.1,1,0.1,1.4c0.1,1.5,0.5,2.7,1,3.6
		c0.5,1,1.2,1.7,2,2.3c0.8,0.6,1.7,1,2.6,1.2s1.9,0.3,2.9,0.3s1.9-0.1,2.9-0.3c0.9-0.2,1.8-0.6,2.6-1.2s1.5-1.3,2-2.3s0.9-2.2,1-3.6
		c0-0.3,0.1-0.8,0.1-1.4s0-1.2,0-1.8c0-0.6,0-1.2,0-1.8C-2.6,109.8-2.6,109.3-2.6,108.9z"/>
	<path class="st1" d="M31.7,102.2c-2.8,0-4.8,0.6-6.1,1.9c-1.2,1.2-1.9,3.3-1.9,6.1v18.3c0,0.5-0.2,1-0.6,1.3
		c-0.4,0.4-0.8,0.6-1.3,0.6h-5.3c-0.5,0-1-0.2-1.3-0.6c-0.4-0.4-0.6-0.8-0.6-1.3V95.7c0-0.5,0.2-1,0.6-1.3c0.4-0.4,0.8-0.6,1.3-0.6
		h5.3c0.5,0,1,0.2,1.3,0.6c0.4,0.4,0.6,0.8,0.6,1.3v1.6c1.2-1.1,2.5-2,3.9-2.6s3.2-0.9,5.5-0.9h3.2c0.5,0,1,0.2,1.3,0.6
		c0.4,0.4,0.6,0.8,0.6,1.3v4.6c0,0.5-0.2,1-0.6,1.3c-0.4,0.4-0.8,0.6-1.3,0.6H31.7z"/>
	<path class="st1" d="M-224.5,184.9c0.1-0.6,0.3-1.1,0.7-1.4c0.4-0.3,0.8-0.5,1.3-0.5h5.7c0.5,0,1,0.2,1.4,0.5
		c0.4,0.4,0.6,0.8,0.5,1.4c-0.1,1.9-0.6,3.8-1.4,5.8c-0.8,1.9-2.1,3.7-3.8,5.2c-1.7,1.5-3.8,2.8-6.4,3.8s-5.7,1.5-9.4,1.5
		c-3.2,0-6.1-0.5-8.6-1.4c-2.5-1-4.6-2.3-6.3-4c-1.7-1.7-3.1-3.8-4-6.2c-1-2.4-1.5-5-1.7-7.8c-0.1-1.8-0.1-3.8-0.1-5.9
		c0-2.2,0-4.1,0.1-5.9c0.2-2.8,0.8-5.4,1.7-7.8c1-2.4,2.3-4.4,4-6.2c1.7-1.7,3.8-3,6.3-4s5.3-1.4,8.6-1.4c3.7,0,6.8,0.5,9.4,1.5
		s4.7,2.3,6.4,3.8c1.7,1.5,2.9,3.3,3.8,5.2c0.8,1.9,1.3,3.9,1.4,5.7c0,0.6-0.1,1-0.5,1.4s-0.9,0.5-1.4,0.5h-5.7
		c-0.5,0-0.9-0.2-1.3-0.5s-0.7-0.8-0.8-1.4c-0.1-0.9-0.5-1.9-1-2.7c-0.5-0.9-1.2-1.7-2.1-2.4c-0.9-0.7-2-1.3-3.4-1.7s-3-0.7-4.8-0.7
		s-3.4,0.3-4.8,0.8c-1.4,0.6-2.5,1.3-3.4,2.3c-0.9,0.9-1.6,2.1-2.1,3.4s-0.8,2.7-0.9,4.2c-0.1,1.8-0.1,3.8-0.1,5.9
		c0,2.2,0,4.1,0.1,5.9c0.1,1.5,0.4,2.9,0.9,4.2s1.2,2.4,2.1,3.3c0.9,0.9,2.1,1.7,3.4,2.3c1.4,0.6,3,0.8,4.8,0.8s3.4-0.2,4.8-0.7
		c1.4-0.4,2.5-1,3.4-1.7s1.6-1.5,2.1-2.4C-225,186.8-224.6,185.8-224.5,184.9z"/>
	<path class="st1" d="M-207.3,172.9c0.2-1,0.6-2,1.3-3.2c0.7-1.1,1.6-2.2,2.9-3.2c1.2-1,2.8-1.8,4.6-2.4c1.8-0.6,3.9-0.9,6.3-0.9
		s4.5,0.3,6.5,0.9c1.9,0.6,3.6,1.6,5,2.8s2.5,2.8,3.2,4.6c0.7,1.9,1.1,4,1.1,6.4v20.7c0,0.5-0.2,1-0.6,1.3c-0.4,0.4-0.8,0.6-1.3,0.6
		h-5.3c-0.5,0-1-0.2-1.3-0.6c-0.4-0.4-0.6-0.8-0.6-1.3v-2.3c-1,1.4-2.4,2.5-4.3,3.5s-4.2,1.4-7.1,1.4c-2,0-3.8-0.3-5.4-0.8
		s-2.9-1.3-4-2.3s-1.9-2.1-2.5-3.5c-0.6-1.3-0.9-2.8-0.9-4.4c0-3.2,1.1-5.8,3.4-7.6s5.4-3.1,9.2-3.7l11.5-2c0-1.9-0.6-3.3-1.9-4.1
		s-2.8-1.2-4.7-1.2c-1.2,0-2.1,0.2-2.7,0.5c-0.7,0.3-1.3,0.8-1.9,1.3c-0.4,0.4-0.8,0.6-1.2,0.8c-0.4,0.1-0.7,0.2-1.2,0.2h-6.5
		c-0.5,0-0.9-0.1-1.2-0.4C-207.2,173.8-207.4,173.4-207.3,172.9z M-195.5,192.8c1.6,0,3-0.2,4.3-0.7c1.2-0.4,2.3-1,3.1-1.8
		c0.8-0.8,1.5-1.6,1.9-2.5s0.6-1.9,0.6-2.9v-0.7l-9.6,1.7c-1.9,0.3-3.3,0.8-4.2,1.4c-0.8,0.6-1.3,1.5-1.3,2.6c0,1,0.5,1.7,1.5,2.2
		C-198.1,192.5-196.9,192.8-195.5,192.8z"/>
	<path class="st1" d="M-168.9,182.2c0-2.6,0.4-5.1,1.2-7.4c0.8-2.3,1.9-4.3,3.4-6.1c1.5-1.7,3.3-3.1,5.5-4c2.1-1,4.5-1.5,7.1-1.5
		s5,0.5,7.1,1.4c2.1,1,4,2.3,5.5,3.9c1.5,1.6,2.7,3.5,3.5,5.7s1.2,4.5,1.2,6.9v3.2c0,0.5-0.2,1-0.6,1.3c-0.4,0.4-0.8,0.6-1.3,0.6
		h-23.5c0,1.1,0.2,2,0.7,2.8c0.4,0.8,1,1.5,1.8,2.1s1.6,1,2.6,1.3s2,0.4,3,0.4c1.5,0,2.7-0.2,3.7-0.5c0.9-0.3,1.7-0.7,2.3-1.2
		c0.5-0.4,0.9-0.6,1.3-0.8s0.8-0.2,1.3-0.2h5.6c0.5,0,1,0.2,1.4,0.6c0.4,0.4,0.6,0.8,0.5,1.3c0,0.7-0.4,1.5-1.1,2.5s-1.7,2-3.1,3
		s-3,1.8-5,2.5s-4.3,1.1-6.9,1.1s-5-0.5-7.1-1.4s-4-2.2-5.5-3.9s-2.7-3.7-3.4-6C-168.5,187.6-168.9,185-168.9,182.2z M-151.7,171.7
		c-1.4,0-2.5,0.2-3.5,0.6c-1,0.4-1.8,0.9-2.4,1.5c-0.7,0.6-1.2,1.3-1.5,2.1c-0.4,0.8-0.6,1.5-0.7,2.2h15.9c-0.1-0.7-0.3-1.4-0.5-2.2
		c-0.3-0.8-0.7-1.5-1.3-2.1c-0.6-0.6-1.4-1.1-2.3-1.5C-148.9,171.9-150.2,171.7-151.7,171.7z"/>
	<path class="st1" d="M-114.4,187.3c0,1.5,0.4,2.6,1.2,3.5c0.8,0.9,2.2,1.3,4.3,1.3h4.3c0.5,0,1,0.2,1.3,0.6
		c0.4,0.4,0.6,0.8,0.6,1.3v4.6c0,0.5-0.2,1-0.6,1.3c-0.4,0.4-0.8,0.6-1.3,0.6h-5.2c-4.4,0-7.8-1.1-10.2-3.2
		c-2.4-2.1-3.6-5.4-3.6-9.8v-15.1h-4.6c-0.5,0-1-0.2-1.3-0.6c-0.4-0.4-0.6-0.8-0.6-1.3v-4.6c0-0.5,0.2-1,0.6-1.3
		c0.4-0.4,0.8-0.6,1.3-0.6h4.6v-11.5c0-0.5,0.2-1,0.6-1.3c0.4-0.4,0.8-0.6,1.3-0.6h5.3c0.5,0,1,0.2,1.3,0.6c0.4,0.4,0.6,0.8,0.6,1.3
		V164h9.1c0.5,0,1,0.2,1.3,0.6c0.4,0.4,0.6,0.8,0.6,1.3v4.6c0,0.5-0.2,1-0.6,1.3c-0.4,0.4-0.8,0.6-1.3,0.6h-9.1v14.9H-114.4z"/>
	<path class="st1" d="M-95.8,172.9c0.2-1,0.6-2,1.3-3.2c0.7-1.1,1.6-2.2,2.9-3.2c1.2-1,2.8-1.8,4.6-2.4c1.8-0.6,3.9-0.9,6.3-0.9
		c2.4,0,4.5,0.3,6.5,0.9c1.9,0.6,3.6,1.6,5,2.8s2.5,2.8,3.2,4.6c0.7,1.9,1.1,4,1.1,6.4v20.7c0,0.5-0.2,1-0.6,1.3
		c-0.4,0.4-0.8,0.6-1.3,0.6h-5.3c-0.5,0-1-0.2-1.3-0.6c-0.4-0.4-0.6-0.8-0.6-1.3v-2.3c-1,1.4-2.4,2.5-4.3,3.5
		c-1.9,1-4.2,1.4-7.1,1.4c-2,0-3.8-0.3-5.4-0.8s-2.9-1.3-4-2.3s-1.9-2.1-2.5-3.5c-0.6-1.3-0.9-2.8-0.9-4.4c0-3.2,1.1-5.8,3.4-7.6
		s5.4-3.1,9.2-3.7l11.5-2c0-1.9-0.6-3.3-1.9-4.1c-1.3-0.8-2.8-1.2-4.7-1.2c-1.2,0-2.1,0.2-2.7,0.5c-0.7,0.3-1.3,0.8-1.9,1.3
		c-0.4,0.4-0.8,0.6-1.2,0.8c-0.4,0.1-0.7,0.2-1.2,0.2h-6.5c-0.5,0-0.9-0.1-1.2-0.4C-95.8,173.8-95.9,173.4-95.8,172.9z M-84.1,192.8
		c1.6,0,3-0.2,4.3-0.7c1.2-0.4,2.3-1,3.1-1.8s1.5-1.6,1.9-2.5s0.6-1.9,0.6-2.9v-0.7l-9.6,1.7c-1.9,0.3-3.3,0.8-4.2,1.4
		c-0.8,0.6-1.3,1.5-1.3,2.6c0,1,0.5,1.7,1.5,2.2C-86.6,192.5-85.4,192.8-84.1,192.8z"/>
	<path class="st1" d="M-21.3,198.6c0,0.5-0.2,1-0.6,1.3c-0.4,0.4-0.8,0.6-1.3,0.6h-5.3c-0.5,0-1-0.2-1.3-0.6
		c-0.4-0.4-0.6-0.8-0.6-1.3v-17.9c0-2.8-0.7-5.1-2-6.8s-3.3-2.5-6.1-2.5c-2.5,0-4.4,0.8-5.9,2.5c-1.4,1.7-2.1,3.9-2.1,6.8v17.9
		c0,0.5-0.2,1-0.6,1.3c-0.4,0.4-0.8,0.6-1.3,0.6h-5.3c-0.5,0-1-0.2-1.3-0.6c-0.4-0.4-0.6-0.8-0.6-1.3v-32.8c0-0.5,0.2-1,0.6-1.3
		c0.4-0.4,0.8-0.6,1.3-0.6h5.3c0.5,0,1,0.2,1.3,0.6c0.4,0.4,0.6,0.8,0.6,1.3v1.6c1.2-1.2,2.7-2.2,4.3-3s3.6-1.2,5.8-1.2
		c2.9,0,5.3,0.4,7.2,1.3c1.9,0.9,3.5,2.1,4.6,3.6c1.2,1.5,2,3.2,2.5,5.2s0.7,4.1,0.7,6.3L-21.3,198.6L-21.3,198.6z"/>
	<path class="st1" d="M4.2,163.2c2.6,0,4.9,0.4,7,1.2s3.9,1.9,5.4,3.3c1.5,1.4,2.7,3,3.7,4.9c0.9,1.9,1.4,3.9,1.6,6.1
		c0,0.4,0.1,1,0.1,1.6c0,0.7,0,1.3,0,2s0,1.3,0,1.9s0,1.2-0.1,1.6c-0.2,2.2-0.7,4.2-1.6,6.1c-0.9,1.9-2.1,3.5-3.6,4.9
		s-3.3,2.5-5.4,3.3c-2.1,0.8-4.4,1.2-7,1.2s-4.9-0.4-7-1.2s-3.9-1.9-5.4-3.3c-1.5-1.4-2.7-3-3.6-4.9c-0.9-1.9-1.4-3.9-1.6-6.1
		c0-0.4-0.1-0.9-0.1-1.6s0-1.3,0-1.9c0-0.7,0-1.3,0-2s0.1-1.2,0.1-1.6c0.1-2.2,0.7-4.2,1.6-6.1c0.9-1.9,2.1-3.5,3.7-4.9
		c1.5-1.4,3.3-2.5,5.4-3.3C-0.7,163.6,1.6,163.2,4.2,163.2z M12.7,179.1c-0.1-1.5-0.5-2.7-1-3.6c-0.5-1-1.2-1.7-2-2.3
		s-1.7-1-2.6-1.2c-0.9-0.2-1.9-0.3-2.9-0.3s-1.9,0.1-2.9,0.3s-1.8,0.6-2.6,1.2c-0.8,0.6-1.5,1.3-2,2.3s-0.9,2.2-1,3.6
		c0,0.4-0.1,0.8-0.1,1.4c0,0.6,0,1.2,0,1.8s0,1.2,0,1.8s0.1,1,0.1,1.4c0.1,1.5,0.5,2.7,1,3.6c0.5,1,1.2,1.7,2,2.3s1.7,1,2.6,1.2
		s1.9,0.3,2.9,0.3s1.9-0.1,2.9-0.3c0.9-0.2,1.8-0.6,2.6-1.2c0.8-0.6,1.5-1.3,2-2.3s0.9-2.2,1-3.6c0-0.3,0.1-0.8,0.1-1.4
		c0-0.6,0-1.2,0-1.8s0-1.2,0-1.8C12.8,179.9,12.7,179.4,12.7,179.1z"/>
</g>
</svg>
