<?xml version="1.0" encoding="utf-8"?>
<!-- Generator: Adobe Illustrator 17.1.0, SVG Export Plug-In . SVG Version: 6.00 Build 0)  -->
<!DOCTYPE svg PUBLIC "-//W3C//DTD SVG 1.1//EN" "http://www.w3.org/Graphics/SVG/1.1/DTD/svg11.dtd">
<svg version="1.1" id="Capa_2" xmlns="http://www.w3.org/2000/svg" xmlns:xlink="http://www.w3.org/1999/xlink" x="0px" y="0px"
	 viewBox="0 0 566.9 198.4" enable-background="new 0 0 566.9 198.4" xml:space="preserve">
<g>
	<path fill="#0D2E52" d="M77.4,112.7c-4.5,1.7-12,3.1-22.1,3.1c-22.1,0-37-11.6-37-30.7c0-16.2,8.4-28.9,21.1-36.2
		c8.7-5.3,19-7.7,30.8-7.7c9.1,0,15.9,1.8,18.2,3.1l-4.8,12.6c-2.5-1.1-7.9-2.4-15.1-2.4c-7.2,0-14,1.9-19.1,5.6
		C42.3,65,37.8,73.3,37.8,83.4c0,11.5,7.4,19.2,22.2,19.2c5.8,0,11.7-0.9,15.9-2.4L77.4,112.7z"/>
	<path fill="#0D2E52" d="M124.6,114.7c0.1-3.1,0.5-6.7,0.9-10.4h-0.4c-5.6,8.7-13.3,11.6-20.4,11.6c-10.9,0-18.4-7.3-18.4-18.3
		c0-17.7,13.5-36.7,43.4-36.7c7.2,0,15,1.2,20.1,2.6L143.5,91c-1.5,6.8-2.6,17.1-2.4,23.6H124.6z M129.8,73.1
		c-1.4-0.2-3.1-0.4-4.8-0.4c-11.5,0-20,12.3-20,22c0,5.2,2.4,8.7,7.3,8.7c5.3,0,11.9-5.3,14.6-18.2L129.8,73.1z"/>
	<path fill="#0D2E52" d="M239.7,47.4l-3.2,14.7h12.9l-2.6,11.7h-12.9l-4.1,17.8c-0.5,2.1-1,4.8-1,6.7c0,2.6,1.2,4.4,5.1,4.4
		c1.6,0,3.4,0,5-0.2l-2.1,12.1c-2.2,0.8-6.7,1.2-10.5,1.2c-10.7,0-15.8-4.7-15.8-11.3c0-2.9,0.4-5.8,1.2-9.8l4.7-21h-7.7l2.5-11.7
		h7.8l2.5-11.1L239.7,47.4z"/>
	<path fill="#0D2E52" d="M248.5,115.8l6.8-31.3c1.7-8,2.5-16.8,3.1-21.3h15.5c-0.4,3.5-0.7,7.1-1.1,10.7h0.4
		c4.2-7,11-11.9,19.4-11.9c1.1,0,2.2,0,3.4,0.1l-3.5,15c-0.9-0.1-1.9-0.1-2.9-0.1c-11.4,0-16.8,8.8-19,19.1l-4.2,19.6H248.5z"/>
	<path fill="#0D2E52" d="M354.5,82.5c0,19.2-15.1,33.3-36.2,33.3c-15.4,0-25.7-8.7-25.7-21.7c0-18.3,14.6-33.2,36.2-33.2
		C345,60.9,354.5,70.6,354.5,82.5z M311,93.8c0,6.1,3.5,10.2,9.7,10.2c9.8,0,15.3-12.4,15.3-21.4c0-4.8-2.4-10-9.6-10
		C316.1,72.6,310.9,85.6,311,93.8z"/>
	<path fill="#0D2E52" d="M356.8,100.9c4.5,1.5,13,3.7,20.6,3.7c6.6,0,10-2.1,10-4.7s-2.6-4.4-9.8-6.8c-9.2-3-16.7-7.4-16.7-14
		c0-10.9,14.3-18.1,34.5-18.1c9.2,0,16.4,1.2,20.2,2.7l-5.5,11c-3.4-1.1-8.8-2.4-15.7-2.4c-6.1,0-10.3,1.8-10.3,4.6
		c0,2.1,3.2,4,9.6,6c8.5,2.9,17.5,7.1,17.5,14.4c0,12-15.3,18.5-36,18.5c-10,0-19.4-1.7-24.1-4.1L356.8,100.9z"/>
	<path fill="#0D2E52" d="M481.3,62.1l-7.8,35.5c-1.5,6.7-2.4,12.4-3.2,17.1h-15.8l1.1-8.6h-0.2c-6.2,6.9-13.7,9.8-21,9.8
		c-9.7,0-15.5-4.7-15.5-14.7c0-2.9,0.4-6,1.2-9.7l6.3-29.3h17.9l-6.1,28.2c-0.5,2.4-0.9,4.9-0.9,6.9c0,3.4,1.5,6.1,6.1,6.1
		c6.1,0,12.3-6.3,14.6-16.9l5.3-24.3H481.3z"/>
	<path fill="#0D2E52" d="M523.3,114.7c0.1-3.1,0.5-6.7,0.9-10.4h-0.4c-5.6,8.7-13.3,11.6-20.4,11.6c-10.9,0-18.4-7.3-18.4-18.3
		c0-17.7,13.5-36.7,43.4-36.7c7.2,0,15,1.2,20.1,2.6L542.1,91c-1.5,6.8-2.6,17.1-2.4,23.6H523.3z M528.5,73.1
		c-1.4-0.2-3.1-0.4-4.8-0.4c-11.5,0-20,12.3-20,22c0,5.2,2.4,8.7,7.3,8.7c5.3,0,11.9-5.3,14.6-18.2L528.5,73.1z"/>
	<path fill="#0D2E52" d="M149.8,100.9c4.5,1.5,13,3.7,20.6,3.7c6.6,0,10-2.1,10-4.7s-2.6-4.4-9.8-6.8c-9.2-3-16.7-7.4-16.7-14
		c0-10.9,14.3-18.1,34.5-18.1c9.2,0,16.4,1.2,20.2,2.7l-5.5,11c-3.4-1.1-8.8-2.4-15.7-2.4c-6.1,0-10.3,1.8-10.3,4.6
		c0,2.1,3.2,4,9.6,6c8.5,2.9,17.5,7.1,17.5,14.4c0,12-15.3,18.5-36,18.5c-10,0-19.4-1.7-24.1-4.1L149.8,100.9z"/>
</g>
<g>
	<path d="M119.9,151.1l-8.4-21h4.5l3.9,10.6c1,2.6,1.9,5.2,2.4,7.3h0.1c0.5-2.1,1.6-4.6,2.7-7.3l4.4-10.6h4.5l4,10.7
		c0.9,2.5,1.8,5,2.3,7.2h0.1c0.7-2.3,1.6-4.6,2.6-7.3l4.4-10.6h4.4l-9.4,21H138l-4.2-11c-1-2.7-1.7-4.7-2.2-6.9h-0.1
		c-0.6,2.1-1.3,4.2-2.5,6.9l-4.7,11H119.9z"/>
	<path d="M156.6,144.1c0.1,3.7,3.8,5.2,8.1,5.2c3.1,0,4.9-0.3,6.6-0.8l0.7,2c-1.5,0.4-4.1,0.9-7.9,0.9c-7.3,0-11.7-3.1-11.7-7.6
		s4.2-8.1,11.1-8.1c7.7,0,9.8,4.3,9.8,7.1c0,0.6-0.1,1-0.1,1.3H156.6z M169.2,142.1c0-1.7-1.1-4.5-6-4.5c-4.4,0-6.3,2.6-6.6,4.5
		H169.2z"/>
	<path d="M209.5,129v18.2c0,1.3,0,2.9,0.2,3.9h-3.9l-0.2-2.6h-0.1c-1.3,1.7-4.2,3-8.1,3c-5.7,0-10.1-3.1-10.1-7.7
		c0-5,4.8-8.1,10.6-8.1c3.6,0,6.1,1.1,7.1,2.3h0.1v-9H209.5z M205.2,142.2c0-0.3,0-0.8-0.2-1.2c-0.6-1.7-3-3.2-6.2-3.2
		c-4.5,0-7.1,2.5-7.1,5.8c0,3.1,2.4,5.6,7,5.6c2.9,0,5.5-1.2,6.3-3.3c0.1-0.4,0.2-0.7,0.2-1.2V142.2z"/>
	<path d="M219.1,144.1c0.1,3.7,3.8,5.2,8.1,5.2c3.1,0,4.9-0.3,6.6-0.8l0.7,2c-1.5,0.4-4.1,0.9-7.9,0.9c-7.3,0-11.7-3.1-11.7-7.6
		s4.2-8.1,11.1-8.1c7.7,0,9.8,4.3,9.8,7.1c0,0.6-0.1,1-0.1,1.3H219.1z M231.7,142.1c0-1.7-1.1-4.5-6-4.5c-4.4,0-6.3,2.6-6.6,4.5
		H231.7z"/>
	<path d="M242.9,136l4.7,8.5c0.8,1.4,1.4,2.6,1.9,3.9h0.1c0.5-1.2,1.2-2.5,2-3.9l4.6-8.5h4.5l-9.3,15.1h-4.1l-9-15.1H242.9z"/>
	<path d="M266.7,144.1c0.1,3.7,3.8,5.2,8.1,5.2c3.1,0,4.9-0.3,6.6-0.8l0.7,2c-1.5,0.4-4.1,0.9-7.9,0.9c-7.3,0-11.7-3.1-11.7-7.6
		s4.2-8.1,11.1-8.1c7.7,0,9.8,4.3,9.8,7.1c0,0.6-0.1,1-0.1,1.3H266.7z M279.3,142.1c0-1.7-1.1-4.5-6-4.5c-4.4,0-6.3,2.6-6.6,4.5
		H279.3z"/>
	<path d="M288.8,129h4.3v22.1h-4.3V129z"/>
	<path d="M321.8,143.4c0,5.6-6.1,8-11.8,8c-6.4,0-11.4-3-11.4-7.8c0-5.1,5.2-8,11.8-8C317.2,135.7,321.8,138.8,321.8,143.4z
		 M303,143.6c0,3.3,3,5.8,7.2,5.8c4.1,0,7.2-2.5,7.2-5.9c0-2.6-2-5.8-7.1-5.8C305.2,137.7,303,140.7,303,143.6z"/>
	<path d="M327.2,140.9c0-1.9-0.1-3.5-0.2-4.9h3.9l0.2,2.6h0.1c1.8-1.8,4.6-2.9,8.4-2.9c5.7,0,10,3.1,10,7.7c0,5.4-5.2,8.1-10.8,8.1
		c-3.1,0-5.9-0.9-7.3-2.4h-0.1v8.2h-4.3V140.9z M331.5,145c0,0.4,0.1,0.8,0.2,1.1c0.8,1.9,3.4,3.2,6.5,3.2c4.6,0,7.2-2.4,7.2-5.8
		c0-3-2.5-5.6-7.1-5.6c-2.9,0-5.7,1.3-6.5,3.4c-0.1,0.3-0.3,0.7-0.3,1.1V145z"/>
	<path d="M370.7,131.7v4.3h6.2v2.1h-6.2v8.1c0,1.9,0.8,2.9,3.2,2.9c1.1,0,2-0.1,2.5-0.2l0.2,2.1c-0.8,0.2-2.2,0.4-3.8,0.4
		c-2,0-3.6-0.4-4.7-1.2c-1.2-0.8-1.7-2.2-1.7-3.9v-8.2h-3.7V136h3.7v-3.6L370.7,131.7z"/>
	<path d="M381.7,140.7c0-1.8,0-3.3-0.2-4.7h3.8l0.1,3h0.2c1.1-2,3.7-3.3,6.6-3.3c0.5,0,0.8,0,1.2,0.1v2.6c-0.4-0.1-0.9-0.1-1.5-0.1
		c-3,0-5.2,1.5-5.8,3.5c-0.1,0.4-0.2,0.8-0.2,1.3v8h-4.3V140.7z"/>
	<path d="M417.5,147c0,1.6,0,2.9,0.2,4.1h-3.8l-0.2-2.5h-0.1c-1.1,1.2-3.6,2.8-7.8,2.8c-3.7,0-8.2-1.3-8.2-6.6V136h4.3v8.4
		c0,2.9,1.4,4.8,5.3,4.8c2.9,0,4.9-1.3,5.7-2.5c0.2-0.4,0.4-0.9,0.4-1.4V136h4.3V147z"/>
	<path d="M424.1,148.3c1.3,0.5,3.5,1.1,5.7,1.1c3.1,0,4.6-1,4.6-2.2c0-1.3-1.2-2-4.4-2.8c-4.3-1-6.3-2.5-6.3-4.3
		c0-2.4,3.1-4.4,8.2-4.4c2.4,0,4.5,0.4,5.8,0.9l-1.1,2c-0.9-0.4-2.6-0.9-4.8-0.9c-2.5,0-4,0.9-4,2.1c0,1.2,1.4,1.8,4.5,2.6
		c4.1,1,6.2,2.3,6.2,4.6c0,2.7-3.2,4.5-8.9,4.5c-2.6,0-5-0.4-6.7-1L424.1,148.3z"/>
	<path d="M449.3,131.7v4.3h6.2v2.1h-6.2v8.1c0,1.9,0.8,2.9,3.2,2.9c1.1,0,2-0.1,2.5-0.2l0.2,2.1c-0.8,0.2-2.2,0.4-3.8,0.4
		c-2,0-3.6-0.4-4.7-1.2c-1.2-0.8-1.7-2.2-1.7-3.9v-8.2h-3.7V136h3.7v-3.6L449.3,131.7z"/>
</g>
</svg>
