<svg xmlns="http://www.w3.org/2000/svg" id="Layer_1" x="0" y="0" version="1.1" viewBox="0 0 690 239" xml:space="preserve"><style>.st0{fill:#273691}</style><path d="M466.7 204.73h-50.77c-4.32 0-8.83-.03-12.51 1.24-1.87.64-3.45 1.57-4.87 2.92-1.46 1.39-2.55 2.99-3.82 5-2 3.14-3.88 6.28-5.66 9.42-1.18 2.09-2.2 4.01-2.69 5.85-.47 1.8-.35 3.3.52 4.45.88 1.15 2.46 1.86 4.77 2.25 2.37.4 5.18.41 8.8.41h42.59c4.52 0 7.79-.02 10.34-1.2 2.54-1.17 3.87-3.29 5.22-5.58 1.97-3.35 3.84-6.71 5.61-10.08.2-.39.37-.71.46-1.03.08-.31.07-.57-.05-.77-.12-.2-.34-.33-.66-.4s-.69-.08-1.12-.08h-12.08c-2.91 0-4.74.03-6.98.58-2.12.52-4.3 1.47-6.3 2.34-.49.21-.98.42-1.46.63-.44.19-.79.35-1.05.55-.25.19-.37.38-.33.55.04.17.22.3.53.38.32.08.7.08 1.18.08h8.78c.45 0 .83 0 1.17.08.32.07.55.2.66.41.12.2.11.46.01.78-.11.32-.3.65-.54 1.04-.42.69-.84 1.37-1.27 2.06-.5.8-.87 1.37-1.48 1.71-.61.35-1.28.37-2.23.37h-32.13c-1.24 0-2.25-.01-3.17-.15-.9-.14-1.58-.39-2.03-.77-.45-.38-.62-.87-.56-1.44.06-.59.36-1.18.72-1.87 1.43-2.69 2.95-5.33 4.55-7.93.53-.86.99-1.55 1.73-2.23.72-.65 1.6-1.19 2.66-1.6 1.05-.41 2.2-.67 3.38-.82 1.22-.15 2.3-.15 3.49-.15h33.54c.86 0 1.47-.01 2.14-.14s1.24-.38 2.02-.72c3.11-1.35 6.21-2.7 9.32-4.04.59-.25 1.05-.46 1.4-.73.34-.25.49-.51.44-.74-.05-.23-.29-.4-.7-.5-.42-.13-.93-.13-1.57-.13m-245 29.21c-.24.39-.43.71-.54 1.04-.1.31-.11.58.01.78s.34.34.67.42c.33.08.71.08 1.17.08h10.37c.94 0 1.62-.02 2.24-.36s.98-.92 1.47-1.72c5.52-9.04 11.03-18.09 16.55-27.13.24-.39.43-.71.54-1.04.1-.31.11-.58-.01-.78s-.34-.34-.67-.42c-.33-.08-.71-.08-1.17-.08h-10.37c-.94 0-1.62.02-2.24.36-.61.35-.98.92-1.47 1.72-5.52 9.04-11.03 18.09-16.55 27.13zm-20.03-26.89c-.18.29-.35.58-.53.87-.63 1.03-1.33 2.08-2.83 3.11-1.45 1-3.15 1.64-4.77 2.23l-37.02 13.56c-.49.18-.87.32-1.16.52-.28.19-.42.39-.38.56.03.18.23.32.55.4.35.08.76.09 1.27.09h32.81c.46 0 .83 0 1.17.08.32.07.55.21.67.42s.11.47.01.78c-.11.32-.3.65-.54 1.04-.17.29-.35.57-.52.86-.42.69-.82 1.34-1.42 1.98a7.14 7.14 0 0 1-2.21 1.63c-.92.44-2 .74-3.36.9-1.42.17-2.94.18-5.14.18h-64.08c-.46 0-.83 0-1.16-.08-.32-.07-.54-.2-.65-.41-.11-.2-.11-.47 0-.78.11-.32.29-.66.52-1.05.62-1.02 1.34-2.1 2.82-3.14 1.47-1.03 3.12-1.63 4.78-2.2 14.8-5.11 29.61-10.22 44.41-15.34.5-.17.9-.32 1.2-.51.29-.19.43-.39.4-.56s-.23-.32-.56-.4c-.36-.09-.77-.09-1.31-.09h-31.58c-1.36 0-2.42-.01-3.32-.16-.88-.15-1.5-.44-1.84-.88-.34-.44-.39-1.01-.2-1.68.2-.69.61-1.38 1.08-2.16.49-.8.86-1.38 1.47-1.72.61-.35 1.29-.36 2.24-.36h67.89c.46 0 .83 0 1.17.08.32.07.55.21.67.42s.11.47.01.79c-.13.3-.33.63-.56 1.02m-161.11 4.86c15.84-.12 31.69-.19 47.53-.19.49 0 .83-.01 1.13-.22.28-.2.46-.53.64-.97 2.32-5.8-5.44-5.8-12.34-5.8H36.39c-4.32 0-8.83-.03-12.51 1.24-1.87.64-3.45 1.57-4.87 2.92-1.46 1.39-2.55 2.99-3.82 5-2 3.14-3.88 6.28-5.66 9.42-1.18 2.09-2.2 4.01-2.69 5.85-.47 1.8-.35 3.3.52 4.45.88 1.15 2.46 1.86 4.77 2.25 2.37.4 5.18.41 8.8.41h39.7c4.32 0 8.83.03 12.51-1.24 1.87-.64 3.45-1.57 4.87-2.92 1.46-1.39 2.55-2.99 3.82-5 .15-.23.29-.46.43-.69.24-.39.44-.71.56-1.04.11-.31.12-.58 0-.79-.11-.21-.34-.34-.67-.42-.34-.08-.72-.08-1.18-.08h-7.31c-1.21 0-1.5.06-2.6.55-1.66.74-3.32 1.48-4.99 2.22-1.48.66-2.72 1.18-4.46 1.5-1.7.31-3.31.32-5.24.32h-26.6c-1.24 0-2.25-.01-3.17-.15-.9-.14-1.58-.39-2.03-.77-.45-.38-.62-.87-.56-1.44.06-.59.36-1.18.72-1.87 1.43-2.69 2.95-5.33 4.55-7.93.53-.86.98-1.55 1.66-2.21.66-.63 1.45-1.13 2.41-1.51.96-.38 2.03-.61 3.22-.74 1.24-.13 2.47-.14 3.99-.15m478.81 3.5c.9-1.47 1.57-2.46 3.03-3.07 1.45-.6 3.27-.63 5.74-.63h44.17c.45 0 .77-.01 1.09-.13.32-.13.56-.34.89-.65 1.52-1.41 3.03-2.82 4.55-4.23.33-.31.59-.56.77-.83.17-.26.23-.49.16-.68-.07-.19-.27-.32-.58-.39-.32-.08-.68-.08-1.13-.08h-52.42c-4.32 0-8.83-.03-12.51 1.24-1.87.64-3.45 1.57-4.87 2.92-1.46 1.39-2.55 2.99-3.82 5-2 3.14-3.88 6.28-5.66 9.42-1.18 2.09-2.2 4.01-2.69 5.85-.47 1.8-.35 3.3.52 4.45.88 1.15 2.46 1.86 4.77 2.25 2.37.4 5.18.41 8.8.41h51.51c.94 0 1.62-.02 2.24-.36s.98-.92 1.47-1.72c.65-1.06 1.29-2.12 1.94-3.18.24-.39.43-.71.54-1.04.1-.31.11-.58-.01-.78-.12-.21-.34-.34-.67-.42-.33-.08-.71-.08-1.17-.08h-48.26c-1.09 0-1.97-.01-2.74-.13-.75-.12-1.27-.35-1.57-.7-.29-.35-.34-.79-.2-1.31.15-.54.47-1.08.85-1.71.37-.61.64-1.03 1.13-1.29.48-.26 1-.27 1.7-.27h41.81c.89 0 1.54-.01 2.18-.26.65-.25 1.12-.68 1.78-1.29.88-.82 1.77-1.64 2.65-2.46.33-.31.59-.56.77-.83.17-.26.23-.49.16-.68-.07-.19-.27-.32-.58-.39-.32-.08-.68-.08-1.13-.08h-44.29c-.36 0-.67 0-.92-.06s-.41-.16-.49-.33c-.15-.37.11-.85.49-1.48m151.32.56c-.26.41-.55.77-1.01 1.12-.45.34-1.02.6-1.69.81-1.4.43-2.78.46-4.12.46h-35.29c-.36 0-.67 0-.93-.06s-.44-.17-.53-.33-.09-.38-.01-.63c.09-.26.24-.52.43-.83.78-1.28 1.56-2.56 2.34-3.83.37-.6.64-1.03 1.11-1.29.46-.26.97-.27 1.68-.27h34.67c.88 0 1.58 0 2.23.1.64.1 1.16.28 1.54.6.38.31.59.73.62 1.23.03.51-.12 1.04-.32 1.55-.2.47-.44.93-.72 1.37m-68.65 17.97c-.24.39-.43.71-.54 1.04-.1.31-.11.58.01.78.12.21.34.34.67.42.33.08.71.08 1.17.08h10.49c.94 0 1.62-.02 2.24-.36.61-.35.98-.92 1.47-1.72 1.6-2.62 3.19-5.23 4.79-7.85.37-.6.64-1.03 1.11-1.29.46-.26.97-.27 1.68-.27h23.16c.69 0 1.19.01 1.66.24.47.23.78.62 1.21 1.16 2.12 2.74 4.25 5.48 6.37 8.22.56.73.98 1.24 1.61 1.55.63.31 1.29.32 2.21.32h10.62c.51 0 .93 0 1.29-.09.35-.08.59-.23.69-.45.1-.22.06-.5-.1-.82-.17-.33-.44-.66-.76-1.04l-6.45-7.65c-.36-.47-.6-.82-.46-1.11.06-.13.2-.22.41-.27.21-.05.45-.06.75-.07 3.31-.08 5.97-.52 8.32-1.75 2.23-1.17 3.88-2.96 5.11-4.89.77-1.21 1.36-2.48 1.78-3.82.37-1.18.63-2.49.48-3.83-.15-1.32-.69-2.52-1.68-3.46-1-.94-2.37-1.56-4.11-1.9-1.79-.35-3.69-.36-6-.36h-48.92c-.94 0-1.62.02-2.24.36-.61.35-.98.92-1.47 1.72-5.54 9.02-11.05 18.07-16.57 27.11m-258.99 2.32h-9.68c-1.09 0-1.87-.01-2.7-.26-.83-.25-1.49-.67-2.4-1.26-8.84-5.79-17.68-11.57-26.52-17.36-.71-.47-1.24-.78-1.79-.67-.54.11-.89.62-1.33 1.35-3.28 5.37-6.56 10.75-9.83 16.12-.49.8-.86 1.38-1.47 1.72-.61.35-1.29.36-2.24.36h-10.42c-.46 0-.83 0-1.17-.08-.32-.07-.55-.21-.67-.42s-.11-.47-.01-.78c.11-.32.3-.65.54-1.04 5.52-9.04 11.03-18.09 16.55-27.13.49-.8.86-1.38 1.47-1.72.61-.35 1.29-.36 2.24-.36h10.36c1.09 0 1.87.01 2.7.26.83.25 1.49.67 2.4 1.26 8.74 5.71 17.49 11.42 26.23 17.13.71.46 1.24.77 1.78.65.55-.12.89-.63 1.33-1.35 3.23-5.29 6.45-10.58 9.68-15.86.49-.8.86-1.38 1.47-1.72.61-.35 1.29-.36 2.24-.36H362c.46 0 .83 0 1.17.08.32.07.55.21.67.42s.11.47.01.78c-.11.32-.3.65-.54 1.04-5.52 9.04-11.03 18.09-16.55 27.13-.49.8-.86 1.38-1.47 1.72-.62.33-1.3.35-2.24.35M644.58 3.13H195.43c-16.91 0-31.44.09-45.85 2.5-14.04 2.35-26.08 6.7-36.35 13.63-10.19 6.88-18.13 16-23.73 26.78-5.58 10.74-8.69 22.88-9.26 35.13-.57 12.25 1.41 24.44 5.93 35.25 4.53 10.85 11.5 20.1 20.91 27.1 9.48 7.06 21 11.57 34.92 14.08 14.3 2.58 29.24 2.82 47.37 2.96 63.02.5 126.05.5 189.07 0 22.64-.18 44.91-.47 63.95-5.53 19.51-5.19 32.19-14.17 50.14-27.59 33.39-24.98 67.16-50.89 101.33-77.75.95-.75 1.68-1.34 2.17-2.02.46-.65.6-1.26.4-1.77-.2-.51-.72-.89-1.47-1.1-.79-.22-1.65-.24-2.67-.24h-44.4c-9.47 0-16.8.16-25.48 2.32-8.76 2.18-14.78 5.36-22.4 9.71-36.56 20.88-73.12 41.75-109.68 62.63-7.98 4.56-14.92 8.46-22.74 11.69-7.59 3.14-14.59 5.02-22.02 6.12-7.29 1.08-14.72 1.35-22.48 1.48-3.88.06-7.85.09-11.9.13-4.05.04-8.17.09-12.3.14-13.51.15-27.01.15-40.52 0-13.88-.15-25.61-.5-36.79-2.52-10.94-1.97-20.07-5.39-27.6-10.6-14.98-10.36-22.24-27.24-21.21-45 1.03-17.83 10.23-34.18 25.98-43.95 7.89-4.9 16.99-7.96 27.27-9.61 10.54-1.7 20.89-1.76 32.36-1.76h355.55-1.52c4.51 0 7.83-.15 11.76-1.5 3.83-1.32 6.28-3.15 8.8-5.16 4.44-3.55 8.89-7.12 13.34-10.7 1.8-1.45 2.99-2.6 2.62-3.65-.38-1.05-2.03-1.2-4.35-1.2z" class="st0"/></svg>