<?xml version="1.0" encoding="UTF-8" standalone="no"?>
<svg
   xmlns:dc="http://purl.org/dc/elements/1.1/"
   xmlns:cc="http://creativecommons.org/ns#"
   xmlns:rdf="http://www.w3.org/1999/02/22-rdf-syntax-ns#"
   xmlns:svg="http://www.w3.org/2000/svg"
   xmlns="http://www.w3.org/2000/svg"
   xmlns:sodipodi="http://sodipodi.sourceforge.net/DTD/sodipodi-0.dtd"
   xmlns:inkscape="http://www.inkscape.org/namespaces/inkscape"
   width="88.316284mm"
   height="24.391319mm"
   viewBox="0 0 88.316284 24.391319"
   version="1.1"
   id="svg19382"
   inkscape:version="1.0.1 (3bc2e813f5, 2020-09-07)"
   sodipodi:docname="Deepal logo 3.svg">
  <defs
     id="defs19376" />
  <sodipodi:namedview
     id="base"
     pagecolor="#ffffff"
     bordercolor="#666666"
     borderopacity="1.0"
     inkscape:pageopacity="0.0"
     inkscape:pageshadow="2"
     inkscape:zoom="0.35"
     inkscape:cx="301.18263"
     inkscape:cy="483.23669"
     inkscape:document-units="mm"
     inkscape:current-layer="layer1"
     inkscape:document-rotation="0"
     showgrid="false"
     inkscape:window-width="1431"
     inkscape:window-height="1030"
     inkscape:window-x="224"
     inkscape:window-y="0"
     inkscape:window-maximized="0" />
  <metadata
     id="metadata19379">
    <rdf:RDF>
      <cc:Work
         rdf:about="">
        <dc:format>image/svg+xml</dc:format>
        <dc:type
           rdf:resource="http://purl.org/dc/dcmitype/StillImage" />
        <dc:title></dc:title>
      </cc:Work>
    </rdf:RDF>
  </metadata>
  <g
     inkscape:label="Layer 1"
     inkscape:groupmode="layer"
     id="layer1"
     transform="translate(-26.145429,-20.310292)">
    <g
       id="g19955"
       transform="matrix(0.35277777,0,0,-0.35277777,-619.58416,347.88553)">
      <path
         d="m 1860.95,862.092 c -0.76,-1.642 -1.27,-2.673 -2.37,-2.673 -1.09,0 -1.6,1.031 -2.36,2.673 -3.63,7.861 -23.03,55.684 -25.26,61.939 -1.16,3.266 -0.6,4.196 2.95,4.36 4.95,0.225 44.4,0.225 49.35,0 3.54,-0.164 4.1,-1.094 2.94,-4.36 -2.23,-6.255 -21.63,-54.078 -25.25,-61.939 m 20.76,63.47 c -2.64,-1.151 -5.28,-2.324 -7.91,-3.492 -3,-1.33 -9,-4.003 -12.06,-5.199 -2.54,-0.993 -3.78,-0.993 -6.32,0 -3.05,1.196 -9.05,3.869 -12.05,5.199 -2.64,1.168 -5.27,2.341 -7.91,3.492 -0.78,0.336 -1.53,0.656 -2.25,0.958 -0.27,0.112 -0.72,0.291 -0.91,-0.086 -0.18,-0.357 0.24,-0.607 0.47,-0.755 0.61,-0.386 1.22,-0.751 1.84,-1.112 2.38,-1.39 4.86,-2.762 7.27,-4.096 3.01,-1.669 9.08,-4.942 11.93,-6.861 1.85,-1.238 2.26,-2.23 2.42,-4.408 0.34,-4.412 0.57,-13.26 0.72,-17.682 0.19,-5.895 0.38,-11.791 0.59,-17.687 0.07,-2.084 0.14,-4.168 0.21,-6.252 0.05,-1.334 0.11,-2.839 0.21,-4.173 0.03,-0.434 0.02,-1.423 0.62,-1.423 0.61,0 0.6,0.989 0.63,1.423 0.1,1.334 0.15,2.839 0.2,4.173 0.08,2.084 0.15,4.168 0.22,6.252 0.2,5.896 0.4,11.792 0.59,17.687 0.14,4.422 0.38,13.27 0.71,17.682 0.17,2.178 0.58,3.17 2.42,4.408 2.86,1.919 8.92,5.192 11.93,6.861 2.41,1.334 4.9,2.706 7.27,4.096 0.63,0.361 1.24,0.726 1.84,1.112 0.23,0.148 0.65,0.398 0.48,0.755 -0.19,0.377 -0.65,0.198 -0.92,0.086 -0.72,-0.302 -1.47,-0.622 -2.24,-0.958"
         style="fill:#66747e;fill-opacity:1;fill-rule:nonzero;stroke:none"
         id="path10197" />
      <path
         d="m 1931.67,894.063 -0.02,2.093 -0.1,1.909 -0.21,1.687 -0.26,1.503 -0.37,1.281 -0.69,1.503 -0.97,1.239 -1.26,0.955 -1.53,0.671 -1.3,0.345 -1.5,0.264 -1.71,0.183 -1.93,0.102 -2.11,0.02 h -8.09 v -2.926 h 7.89 l 2.17,-0.04 1.87,-0.122 1.52,-0.224 1.22,-0.304 0.9,-0.387 0.91,-0.752 0.73,-1.097 0.51,-1.442 0.28,-1.747 0.09,-0.935 0.04,-1.077 0.04,-1.28 v -1.422 l -0.04,-2.316 -0.13,-1.971 -0.2,-1.646 -0.28,-1.279 -0.39,-0.955 -0.71,-0.935 -0.98,-0.731 -1.28,-0.529 -1.54,-0.325 -0.93,-0.102 -1.1,-0.061 -1.26,-0.04 h -1.44 -9.78 v 24.645 h -3.75 v -27.611 h 13.93 l 2.1,0.02 1.88,0.102 1.69,0.203 1.5,0.284 1.33,0.366 1.11,0.467 1.12,0.731 0.91,0.935 0.76,1.158 0.52,1.382 0.33,1.28 0.22,1.442 0.18,1.646 0.09,1.829 z m 29.13,1.951 h -15.95 v -2.723 h 15.95 z m 0.98,-12.963 h -18.23 l -0.24,0.041 -0.2,0.101 -0.11,0.163 -0.04,0.264 v 21.394 h 18.41 v 2.804 h -22.16 v -25.295 l 0.14,-1.016 0.42,-0.711 0.72,-0.447 0.99,-0.142 h 20.3 z m 29.13,12.963 h -15.97 v -2.723 h 15.97 z m 0.96,-12.963 h -18.21 l -0.26,0.041 -0.18,0.101 -0.13,0.163 -0.04,0.264 v 21.394 h 18.41 v 2.804 h -22.16 v -25.295 l 0.14,-1.016 0.42,-0.711 0.71,-0.447 1,-0.142 h 20.3 z m 31.04,15.644 -0.02,1.809 -0.16,1.584 -0.27,1.341 -0.38,1.118 -0.69,1.077 -1.02,0.853 -1.34,0.609 -1.66,0.366 -1.24,0.163 -1.4,0.122 -1.59,0.061 -1.75,0.02 h -6.36 v -2.926 h 6.61 1.24 l 1.09,-0.04 0.96,-0.061 0.83,-0.082 1.24,-0.304 0.95,-0.569 0.63,-0.793 0.33,-1.056 0.12,-0.671 0.06,-0.792 0.06,-0.874 v -0.995 -0.894 l -0.04,-0.813 -0.06,-0.711 -0.1,-0.63 -0.3,-1.117 -0.63,-0.854 -0.96,-0.589 -1.26,-0.304 -0.83,-0.102 -0.98,-0.061 -1.09,-0.041 h -1.26 -8.5 v 15.279 h -3.75 v -27.611 h 3.75 v 9.407 h 8.25 l 2.01,0.02 1.81,0.101 1.57,0.163 1.34,0.244 1.11,0.305 1.25,0.589 0.95,0.833 0.69,1.097 0.45,1.321 0.14,0.934 0.12,1.057 0.06,1.158 z m 32.27,-18.488 -11.26,24.564 -0.51,1.097 -0.55,0.853 -0.69,0.61 -0.85,0.365 -1,0.122 h -2.94 l -12.58,-27.611 h 3.5 l 3.19,7.09 1.3,2.845 h -0.02 l 6.48,14.283 0.12,0.244 0.14,0.102 h 0.35 l 0.12,-0.102 0.12,-0.244 6.48,-14.283 h -11.74 l -1.28,-2.845 h 14.34 l 3.19,-7.09 z m 25.58,2.966 h -17.29 l -0.33,0.04 -0.24,0.143 -0.15,0.223 -0.04,0.305 v 23.934 h -3.77 v -24.929 l 0.18,-1.159 0.51,-0.833 0.81,-0.507 1.14,-0.183 h 19.18 z"
         style="fill:#66747e;fill-opacity:1;fill-rule:evenodd;stroke:none"
         id="path10199" />
    </g>
  </g>
</svg>
