<svg height="383.363483" viewBox="0 0 708.66144 1042.4381" width="260.849049" xmlns="http://www.w3.org/2000/svg"><path d="m708.66145 354.3115c0-195.36839-158.94313-354.31152372-354.32432-354.31152372-195.39398 0-354.33711157 158.94313372-354.33711157 354.31152372 0 58.36743 14.52148857 115.87764 41.86282857 166.90116-27.34134 51.02352-41.86282857 108.53374-41.86282857 166.91396 0 195.3556 158.94313157 354.31148 354.33711157 354.31148 195.38119 0 354.32432-158.95588 354.32432-354.31148 0-58.36743-14.55987-115.86485-41.87562-166.91396 27.31575-51.03631 41.87562-108.55932 41.87562-166.90116" fill="#050301"/><path d="m356.25627 994.33171 266.31259-453.97883-.30707-.56295-44.69036-.0384-11.70675.0384-.81883.16633c-.43501.4478-.43501 2.78915-.40942 4.35005l.0256 1.27942.0256 72.35156v1.16428c.0384 3.7871.064 7.36949-3.24974 9.91555-7.3567 5.68066-16.93961 12.24411-27.04707 18.46212-2.71239 1.67605-4.33726 2.674-6.12846 1.67605-1.80399-1.03633-1.80399-2.95547-1.74002-7.1392.0512-1.72722.0768-3.87666.0384-6.57625-.10236-4.27328-.0384-154.08131 0-210.47842l.0128-22.44114-.0128-2.2262c-.0384-3.53121-.10236-5.64227 1.81678-6.74257 2.0215-1.15149 3.91505.0384 8.95599 3.17297l1.59928.97237c.97236.62692 18.62845 11.66837 38.36999 28.36488l-220.71386-377.993708-2.26458-.06397-2.34135.06397-220.72663 377.942528c22.92732-19.57522 42.3746-30.89814 51.42015-36.16938l.44779-.26868c.72928-.435 2.95548-1.81678 5.00256-.62692 1.36899.78045 2.0215 2.25179 1.98311 4.45241-.0512 3.85107-.0256 9.33981 0 14.62384.0128 5.41197.0384 10.50409 0 13.26765-.0512 1.65046-.0256 2.85312 0 3.82548.0128 2.85312.0384 4.40123-2.32855 5.96213-34.1223 21.73745-64.61103 51.75279-88.178064 86.80907-.78045 1.18987-1.803991 3.62078.204708 6.97288 3.096216 5.15609 24.014836 35.18422 52.098236 59.21185v-42.18269c0-1.22825-.2175-1.74002-.33265-1.85517-.29427-.28147-1.76561-.28147-2.77635-.24309h-21.4048c-1.804 0-3.24975-.53736-4.31167-1.59928-1.74002-1.7912-1.70164-4.42682-1.67605-6.34596v-.70368l.0256-3.44166c.0128-5.37359.0512-14.36795 0-18.32138-.0512-2.20061.11515-4.65711 1.63766-6.20522 1.53532-1.49693 3.55681-1.48413 5.73183-1.43296l1.27943.0256h52.6356c2.2262 0 3.97901.62692 5.22006 1.89355 2.21341 2.29018 2.14943 5.91095 2.05987 10.06909l-.0512 2.78915.0256 20.54758c.0512 33.57215.10235 96.04654.0256 103.86383l-.0256 3.45445c.0256 4.913.0256 7.3695-2.14944 8.61054-2.05988 1.21546-4.41402-.0128-8.022-2.16223-18.09109-10.65762-34.90275-22.87614-50.52455-36.37409l222.10841 379.83608c.99795.0256 1.95752.0896 2.94268.0896l1.93193-.0512" fill="#e11d25"/><path d="m121.37919 600.9721c18.39815 17.34902 38.67706 32.72772 60.83672 45.80346 1.36899.80604 2.27738 1.25384 2.95548 1.5609.0768-.97236.0768-2.46929.0768-3.96622l.0128-3.51842c.0768-7.77892 0-70.22771-.0256-103.77427l-.0256-20.56038c0-.98516.0256-1.94473.0384-2.85312.064-2.87871.12795-5.84698-.69089-6.6914l-1.82958-.48618h-52.64839l-1.35619-.0128-2.30297.0896c-.0768.15353-.30706.75486-.26868 2.71238.0768 4.0302.0512 13.06295.0384 18.43654l-.0384 3.42886-.0128.79324.34544 2.94269.9084.16632h20.44523.90839c2.20061-.0256 4.47799-.064 6.15404 1.59928 1.17707 1.18987 1.72723 2.86592 1.72723 5.23286v52.27736l-3.85108-3.1346c-30.56549-24.92322-53.723107-58.2139-57.011233-63.70263-3.492834-5.84698-1.228249-10.38895-.07677-12.06499 23.925273-35.55526 54.874603-66.05678 89.534253-88.17806l.10236-.064.0384-1.81678c-.0256-.95957-.0384-2.26459.0128-4.00461.0512-2.69959.0256-7.75332 0-13.11412-.0384-5.15608-.064-10.41453-.0128-14.30398l-.29427.15353c-10.33776 6.0261-34.40377 20.11258-61.60437 45.44522l-47.9657 82.15196-.294268.49898.294268.42221 45.88023 78.53119" fill="#e11d25"/><path d="m584.94093 439.07349c-23.34953-21.6223-47.36436-36.62997-48.49026-37.33366l-1.62487-.99795c-1.31781-.84442-2.58444-1.59928-3.53122-2.14943v1.62487l.0256 2.29017-.0256 22.45393c-.0384 56.38432-.11514 206.15396 0 210.38886.0384 2.78915 0 4.97697 0 6.74258l-.0384 1.74002.72927-.42221c9.88997-6.11566 19.31934-12.57676 26.56089-18.15506 1.3434-1.01075 1.44576-2.41812 1.40737-6.11566v-1.20266l-.0384-72.35156v-1.24104c-.0512-3.01945-.0896-5.87257 1.76561-7.71494 1.01075-1.03634 2.4565-1.5737 4.18372-1.5737l11.68116-.0128 46.14891.0128h1.36899l.29427.56295 7.72773-13.1525.26868-.46059-.26868-.48619-48.14481-82.44623" fill="#e11d25"/><path d="m225.03831 371.81405c-9.50614 3.87667-19.3961 8.49539-28.07061 12.935-.92119.4606-1.76561 1.26664-1.76561 2.30297v267.55363c0 1.03633.8956 2.52047 1.84237 3.03224 8.99437 4.75946 18.37256 8.87922 27.81473 12.89662 3.7999 1.61207 3.69754-.56295 3.65916-3.28813v-5.3608c0-3.5568.0384-285.69589 0-287.49988-.0896-2.66121-1.68884-3.31371-3.48004-2.57165" fill="#fff"/><path d="m326.03622 694.84361c25.30705 2.12384 51.77838 1.48413 76.84235-2.34135 1.36898-.21751 2.17502-1.68885 2.17502-3.04504v-27.31575c0-2.08547.40942-3.50563-3.16018-2.94268-13.57472 2.14944-23.25997 3.46724-42.55372 3.65916-1.52252.0384-2.78915-1.10031-2.78915-2.63562v-119.9718c0-1.03634.62692-2.0215 1.53531-2.4565 1.02354-.52457 1.93193-.29427 2.95548-.29427h33.62332c1.07472 0 2.04708-.46059 2.58444-1.44575.52457-.95957.34545-1.93194.34545-2.87871v-24.48822l-.33266-2.99386c-.46059-.92119-1.40736-1.49693-2.4437-1.49693h-34.21186c-1.08751 0-2.07267.14074-3.07062-.70368-1.30502-1.10031-.98516-3.19857-.98516-4.50358v-117.50251c0-1.5609 1.16428-1.98311 2.68679-1.98311 15.26356.14073 28.97901 1.38178 42.78402 3.58239 1.76561.28147 3.21136-.92119 3.21136-2.674v-28.00664c0-1.38178-1.39457-2.41812-2.78915-2.58444-25.72926-3.64637-50.31984-4.29888-76.50969-2.2518-2.75077.20471-2.73797 1.54811-2.73797 2.95548l.0384 341.01829c0 1.40736 1.35619 3.17297 2.80194 3.30092" fill="#fff"/><path d="m238.8817 675.8953c4.28608 1.48414 6.46111 2.18782 9.53173 3.24974 8.022 2.78915 31.90889 10.19703 61.11819 13.85619 6.7042.87001 5.97492 1.54811 5.97492-6.0261v-21.89098c0-5.01535.34545-4.58035-3.40327-5.06653-15.96724-1.98311-33.38023-6.16683-38.51073-7.81729-2.66121-.83163-4.08137-1.40737-4.08137-4.58035v-283.09866c0-7.90685.74207-7.67655-6.38434-5.75741-8.09877 2.2262-15.98003 4.87461-23.96365 7.5614-3.59519 1.30502-3.03224 3.32651-3.05783 8.4954-.0512 4.82343.0768 291.65801.064 293.71789-.0256 3.87666.15353 6.42272 2.71238 7.3567" fill="#fff"/><path d="m475.57557 501.41994c0 1.29222-.4478 2.77635-2.17503 2.69959l-26.26662.0768c-1.52252 0-2.78915-1.29222-2.78915-2.77635v-103.31368c0-1.18986-.70368-5.32241 3.63357-3.99181 8.58495 2.61003 19.37052 6.60184 25.63971 9.42938 1.02354.49897 1.95752 2.84032 1.95752 3.94063v93.93548zm35.03069 27.26457-.0384-141.13351c.0896-4.08137-2.87871-4.79785-7.68935-7.20317-4.59314-2.21341-25.74206-12.44882-52.6356-20.20214-10.22262-2.96827-21.34083-5.69345-33.13714-7.91965-4.52917-.87001-4.31167 2.53326-4.31167 5.66786l.11515 329.3755c0 4.64432 2.07267 3.28813 5.20726 2.73797 5.48874-.93398 17.59211-3.73592 25.30706-5.82139 3.09621-.83162 2.57164-5.25844 2.57164-7.36949v-139.3935h7.19038c1.85517 0 2.35414 1.13869 3.83828 5.71904 3.5696 10.68321 34.5573 117.13148 35.65761 119.62636 1.65046 3.58239 2.39253 2.80194 4.84902 1.72722 5.10491-2.2134 16.82446-8.21391 20.13817-10.09467 2.6868-1.54811 4.54197-2.27738 5.28403-3.24974 1.08752-1.38178.19192-3.76152-.60133-6.40993l-29.50357-99.15554-2.41811-8.12435 15.77532-.0384c4.77226 0 4.40123-5.89815 4.40123-8.73848" fill="#fff"/><path d="m597.76078 503.97879c-9.07113 0-21.37921-.0896-32.89405 0-1.53531 0-2.4437-.90839-2.4437-2.43091v-36.3613c0-3.16018 1.22824-3.65915 3.73592-1.43295 11.51484 10.50409 22.81217 23.33673 32.42066 35.82393 1.36899 1.81679 2.53327 4.40123-.81883 4.40123m-243.42365 495.16357c-171.51989 0-311.079708-139.53424-311.079708-311.01574 0-47.59466 10.491295-93.29577 31.166824-135.86228l1.765609-3.5696 2.302967 3.22415c27.699578 38.67706 62.615128 70.59875 103.735888 94.85667 1.36898.79324 2.25179 1.26663 2.94268 1.5609.0896-.98516.0896-2.46929.0896-3.95343l.0128-3.51842c.0768-7.77891 0-70.2405-.0384-103.78706l-.0256-20.56038c0-.98516.0256-1.95752.0512-2.86592.0512-2.85312.12794-5.82139-.71648-6.6786l-1.82958-.48618h-52.6356l-1.36899-.0128-2.29017.10236c-.0896.14073-.29427.74206-.25588 2.69958.064 4.0302.0384 13.05015.0256 18.43654l-.0256 3.42886-.0256.79324.35824 2.94269.90839.17911h20.43244l.90839-.0128c2.18782-.0256 4.47799-.064 6.15404 1.61208 1.18987 1.17707 1.71443 2.86591 1.71443 5.23285v52.26457l-3.85107-3.14739c-30.53991-24.91043-53.723112-58.20111-57.011237-63.70264-3.48004-5.84698-1.215455-10.37615-.06397-12.05219 23.925267-35.55526 54.887387-66.05678 89.547047-88.17806l.0896-.064.0384-1.81678c-.0128-.95957-.0384-2.26459 0-3.99181.0512-2.69959.0256-7.76612 0-13.13971-.0128-5.1305-.0512-10.40174 0-14.30399l-.30706.17912c-15.87768 9.23746-64.17602 37.38484-106.563416 96.5839l-2.302967 3.22415-1.765609-3.58239c-20.675621-42.5409-31.166916-88.24201-31.166916-135.83666 0-171.51989 139.559818-311.054126 311.079708-311.054126 171.5071 0 311.05412 139.534236 311.05412 311.054126 0 47.53068-10.49129 93.23179-31.16682 135.7983l-1.76561 3.5824-2.30297-3.22416c-13.02456-18.19344-25.88279-32.01124-35.59364-42.01636-25.8572-26.54809-56.81932-45.9314-58.11154-46.71185l-1.63766-1.01075c-1.31781-.83163-2.58445-1.59928-3.53122-2.14943v1.62487l.0384 2.29017-.0384 22.46673c-.0256 56.37152-.11515 206.14116 0 210.37606.064 2.78915 0 4.97697 0 6.74258l-.0256 1.75281.72927-.4478c9.88997-6.09007 19.31934-12.57676 26.5481-18.12947 1.3434-1.02354 1.45855-2.41811 1.40737-6.11565v-1.21546l-.0256-72.35156v-1.24104c-.064-3.00665-.0896-5.87257 1.76561-7.71494 1.01075-1.04913 2.4437-1.5737 4.18372-1.5737l11.69396-.0128 46.14891.0128h1.35619l.67809 1.24105c2.07267 3.77431 4.27329 8.07318 5.91095 11.18218l.69089 1.3434.0896-.15353 1.7912 3.62078c20.67553 42.56651 31.16682 88.26762 31.16682 135.83669 0 171.4815-139.54702 311.01574-311.05412 311.01574m296.13601-476.77821-.6525-1.1259.6525-1.17707c28.23694-50.30704 43.15505-107.61255 43.15505-165.73688 0-187.09051-152.22614-339.303859-339.29106-339.303859-187.11609 0-339.316647 152.213349-339.316647 339.303859 0 58.13713 14.905317 115.45543 43.167844 165.73688l.652507 1.17707-.652507 1.1259c-28.262547 50.30704-43.167864 107.63813-43.167864 165.76247 0 187.07771 152.200557 339.30388 339.316647 339.30388 187.06492 0 339.29106-152.22617 339.29106-339.30388 0-58.12434-14.91811-115.44264-43.15505-165.76247" fill="#fff"/><g fill="#050301"><path d="m597.76078 501.61185-9.32702-.0128-23.60541.0128-.16633-.0128.16633.16632-.0256-.23029v-36.34851l.10235-1.1131-1.42016.66531 1.07472.78045c13.24206 12.06499 24.79528 25.94676 32.15198 35.50408l.87001 1.5609.65251-.99796-.47339.0256m2.674-3.48004c-7.44626-9.68526-19.1786-23.82292-32.71493-36.1182-.72927-.69089-3.03224-2.75077-5.38638-1.71443-2.27738 1.02354-2.27738 3.92783-2.27738 4.8874v36.34851c0 2.82753 1.9959 4.82343 4.81064 4.82343l23.54144-.0256 9.35261.0256c2.57165 0 3.69754-1.16427 4.18372-2.13664.81884-1.63766.33265-3.69754-1.50972-6.09007"/><path d="m192.84794 654.60565c0 1.88076 1.36899 4.18372 3.04504 5.10491 8.64892 4.58035 17.46417 8.52098 28.04502 13.01176 1.40737.60134 3.45445 1.27943 5.16889.11515 1.82958-1.24104 1.80399-3.49283 1.7656-5.47594v-13.66427c.0256-126.6888.0384-277.99375 0-279.36274-.0768-2.61003-1.21545-3.88945-2.16223-4.51637-1.29222-.81883-2.91709-.90839-4.56755-.2175-9.04554 3.68474-18.80756 8.20112-28.26253 13.05014-1.89355.93399-3.03224 2.59724-3.03224 4.40123zm4.73388-267.55363-.0256.17912.4478-.34544c9.3782-4.81065 19.01228-9.25026 27.92988-12.89662l.39662-.11515-.33265-.17912.14074.78045c.0256 1.48413.0256 100.62688 0 279.222v13.54912l-.0768 2.09826.8956-.62692-1.16428-.34544c-10.4785-4.478-19.1786-8.35466-27.66119-12.81986l-.55016-.97236v.0256-267.55363"/><path d="m233.73841 374.79512c-.0256 2.91709.0128 107.15195.0384 190.91599.0384 54.72106.0384 101.97028.0384 102.8147-.0256 3.5696-.064 8.04759 4.26049 9.59569l5.74463 1.97032 3.81269 1.29222c4.73388 1.62487 29.97696 9.97953 61.60438 13.99692l1.65046.19192c2.58444.38383 4.29887.60133 5.66785-.61413 1.39458-1.20266 1.38178-2.90429 1.33061-6.0133v-1.97032-23.00408c.0384-4.17093-.34545-5.69345-4.77226-6.23081l-.70369-.0768c-16.14636-2.0215-33.55935-6.2564-38.10131-7.70215-2.43091-.76765-2.43091-.83163-2.43091-2.34135v-283.09866l.0128-2.02149c.0256-3.39048.0384-5.25844-1.53531-6.48669-1.62487-1.25384-3.45445-.72927-6.80655.20471l-1.06192.26868c-7.27994 1.98311-14.48311 4.40122-21.48157 6.72978l-2.58444.87001c-4.77226 1.71443-4.74667 5.02814-4.70829 8.90481l.0256 1.80399m6.15404-6.23081 2.61003-.87001c7.24155-2.39253 14.08648-4.69549 21.23848-6.61463l1.04913-.30707c1.42016-.38382 2.82753-.78045 3.26253-.76765l-.98516-.75486c.12795.39662.10236 1.82958.064 3.18577l-.0128 2.08546v283.09866c0 5.02815 3.19857 6.0261 5.74463 6.87052 5.36079 1.68884 22.81217 5.87257 38.97132 7.86847l.71648.11515 1.26663.17912-.70368-.76766.0384 2.07267v25.01279c.0128 1.27943.0384 2.57165-.064 2.92989l.8828-.74207c-.33265.0384-1.44575-.12794-2.41811-.26868l-1.71443-.2303c-31.17962-3.90225-55.9877-12.14175-60.64481-13.75383l-3.86387-1.31781-5.66786-1.93193c-.80604-.29427-1.15148-1.07472-1.1131-5.09212 0-.83163-.0256-45.85464-.0384-102.85308-.0384-83.76404-.0768-187.98611-.0384-190.86482l-.0128-1.89355c-.0384-3.85107.0128-3.86386 1.43296-4.38843"/><path d="m503.90207 378.22398c-16.64534-8.08598-35.47849-15.32753-53.00663-20.35567-11.01587-3.19857-22.22364-5.85978-33.36744-7.97083-2.11106-.40942-3.86387-.10235-5.09212.94678-2.02149 1.65046-2.02149 4.41402-2.02149 6.66581v.38383l.11515 329.3755c0 1.65046.17911 3.67196 1.70163 4.88741 1.54811 1.21546 3.3521.83163 4.97697.47339l1.29222-.29427c5.47595-.92119 17.3874-3.65916 25.53735-5.87257 4.51637-1.21545 4.42682-6.40992 4.33726-8.89201v-140.14836l-2.36694 2.36694h7.31832l-.17912-.0768c.38382.37103 1.13868 2.674 1.62487 4.19651 1.82958 5.45036 10.77277 35.78556 19.43448 65.14839 10.9391 37.06498 15.78812 53.44164 16.29989 54.66989.88281 1.88075 1.74002 3.26254 3.23695 3.79989 1.54811.58854 2.92989-.0384 4.14534-.60133l.58854-.29426c5.15609-2.20062 16.99078-8.21392 20.39405-10.18424l2.17503-1.20266c1.71443-.93398 2.95547-1.58649 3.7871-2.63562 1.72723-2.2134.87001-5.04094.0384-7.7917l-.24309-.74207-29.50357-99.18113-2.41811-8.11156-2.27738 3.05783 15.78812-.0512c1.76561 0 3.32651-.61412 4.43961-1.75281 2.35414-2.37973 2.34135-6.23081 2.30296-8.78966v-.56295l-.0384-141.13351c.10236-4.97697-3.37768-6.64023-7.11361-8.39304l-1.90634-.93398m4.27328 9.32702.0512 141.13351v.60133c.0128 1.5609.0512 4.4652-.93398 5.42477l-1.08752.34544-15.77532.064h-3.17298l.90839 3.03224 2.39253 8.11156 29.52916 99.15554.24309.81883c.31986 1.1131.92119 2.99386.71648 3.50563l.0256-.0512-2.2262 1.36899-2.35415 1.26663c-3.28812 1.90634-15.00767 7.89406-19.89508 9.96673l-.72927.30706-.97236.43501.79324.2175c-.064-.0384-.31986-.28147-.84442-1.45855-.62692-1.62487-8.4826-28.27532-16.08239-54.05576-8.67451-29.40121-17.64329-59.80038-19.49846-65.3275-1.48413-4.58035-2.41811-7.35671-6.05168-7.35671h-9.55732v142.63045c.0256 1.27943.0768 3.95343-.84442 4.20931-7.90685 2.12385-19.8439 4.87462-25.08955 5.78301l-1.5609.33265-1.42016.24309.70368.46059c-.0256 0-.17912-.33265-.17912-1.44575l-.0896-329.3755v-.38383l.28148-3.04504-.0384.0512 1.24105.0384c10.97747 2.07267 22.04451 4.72109 32.91964 7.85568 17.27225 4.98976 35.83673 12.11617 52.25177 20.08699l1.97031.93398c3.94064 1.86797 4.42682 2.32856 4.37564 4.11976"/><path d="m473.22142 501.41994-.10235.60133.42221-.25589h-.0128l-26.39457.064-.435-.40941v-103.91501l.0768-1.57369-.38383.29427.84443.15353c8.13715 2.4565 18.82036 6.37154 25.43499 9.33981l-.25588-.16633.80603 1.94473v93.92269zm4.73388-93.93548c0-1.5609-1.12589-5.01535-3.27533-6.06448-6.85772-3.07063-17.78403-7.08802-26.02353-9.55732-2.0087-.63971-3.72313-.4478-4.95138.49898-1.91914 1.52252-1.80399 4.11975-1.74002 5.39918l.0128.34544v103.31368c0 2.82753 2.30297 5.15609 5.15609 5.15609l26.26662-.0896c1.45855.0512 2.49488-.57575 3.09622-1.13869.94677-.9084 1.45854-2.26459 1.45854-3.92784v-93.93548"/><path d="m370.21481 501.82935h-10.05629l-1.1131-.14073-.14074-1.93194.0384-.76765v-117.55369l-.40942.49898.70368-.0512c14.54708.11515 28.03224 1.25384 42.42578 3.54401 1.53531.24309 3.07062-.17912 4.19652-1.13869 1.12589-.94678 1.75281-2.35414 1.75281-3.87666v-28.00664c0-2.48209-2.12384-4.59314-4.9002-4.95138-25.60132-3.62078-50.08954-4.33726-76.95749-2.239-4.93859.34545-4.93859 3.92784-4.93859 5.27124l.064 341.05667c0 2.46929 2.11106 5.39917 4.93859 5.64227 26.07471 2.20061 52.8531 1.40736 77.40529-2.34135 2.43091-.39663 4.17093-2.67401 4.17093-5.38639v-27.32854l.0256-.53736c0-1.17708.0512-2.77636-1.24104-3.92784-1.3434-1.13869-3.19857-1.02354-4.64432-.80604-13.65148 2.14943-23.25997 3.45445-42.22107 3.62078l-.33265-.0896-.0384-.16633v-119.9718l.19191-.31986 1.06192-.0896.84443.0512h33.62332c2.02149 0 3.69754-.99796 4.64432-2.64842.74206-1.42016.70368-2.6612.6653-3.58239l-.0256-.48618v-24.78249c.0256-1.03633.0256-2.55885-.58854-3.7871-.85721-1.70164-2.58444-2.77636-4.54196-2.77636h-24.60337zm24.60337 4.74668.30706.17912v-.0128l.10236 1.5609v25.51176l-.0768 1.13869-.48618.19191h-33.62332l-.57575-.0256c-.8828-.064-2.12384-.14074-3.48004.57574-1.67604.81883-2.80194 2.62282-2.80194 4.55476v119.9718c0 1.3434.52457 2.58444 1.47134 3.54401.98516.94678 2.27738 1.48414 3.69754 1.44575 19.29375-.16632 29.08136-1.48413 42.91196-3.65916l1.18987-.0896-.78045-.80604.0128.84443v27.95546l-.25588.74207.0512-.0256c-24.15556 3.68475-50.55013 4.4652-76.2538 2.29017l.0512.0256-.6653-.94677-.0384-341.01829.0384-.81883-.28147.35824.80604-.14074c26.50971-2.05988 50.66528-1.36899 75.97233 2.239l.76766.35823v-.11514 28.00664l-.11515.28147-.37104.0512c-14.62384-2.31576-28.3137-3.48004-43.14225-3.59519-3.72313 0-5.06653 2.239-5.06653 4.33726v117.50251l-.0128.58853c-.064 1.49693-.14074 4.04299 1.79119 5.70624 1.58649 1.33061 3.19857 1.29223 4.27329 1.29223h34.58289"/><path d="m658.99412 57.049595v-15.417087h7.06244c7.91964 0 10.79835 2.878709 10.79835 7.727735 0 4.887408-3.48004 7.689352-9.71084 7.689352zm27.27737-7.996414c0-10.95189-10.32497-13.408388-19.85669-13.408388h-16.56858v44.025059h9.1479v-16.709307h6.09007l12.06499 16.709307h11.93705l-14.85414-17.784026c6.83214-1.087512 12.0394-4.964174 12.0394-12.832645"/><path d="m667.22083 91.581311c-18.7308 0-33.96876-15.225173-33.96876-33.955974 0-18.692418 15.23796-33.955974 33.96876-33.955974 18.71801 0 33.95598 15.263556 33.95598 33.955974 0 18.730801-15.23797 33.955974-33.95598 33.955974m0-72.428323c-21.23847 0-38.49793 17.259461-38.49793 38.472349 0 21.238476 17.25946 38.510731 38.49793 38.510731 21.22569 0 38.49794-17.272255 38.49794-38.510731 0-21.212888-17.27225-38.472349-38.49794-38.472349"/></g></svg>