<?xml version="1.0" encoding="UTF-8" standalone="no"?>
<!-- Created with Inkscape (http://www.inkscape.org/) -->
<svg
   xmlns:dc="http://purl.org/dc/elements/1.1/"
   xmlns:cc="http://creativecommons.org/ns#"
   xmlns:rdf="http://www.w3.org/1999/02/22-rdf-syntax-ns#"
   xmlns:svg="http://www.w3.org/2000/svg"
   xmlns="http://www.w3.org/2000/svg"
   xmlns:sodipodi="http://sodipodi.sourceforge.net/DTD/sodipodi-0.dtd"
   xmlns:inkscape="http://www.inkscape.org/namespaces/inkscape"
   width="500"
   height="92.410004"
   id="svg2"
   sodipodi:version="0.32"
   inkscape:version="0.46"
   version="1.0"
   sodipodi:docname="Logo Carrosserie Hess.svg"
   inkscape:output_extension="org.inkscape.output.svg.inkscape">
  <defs
     id="defs4">
    <inkscape:perspective
       sodipodi:type="inkscape:persp3d"
       inkscape:vp_x="0 : 526.18109 : 1"
       inkscape:vp_y="0 : 1000 : 0"
       inkscape:vp_z="744.09448 : 526.18109 : 1"
       inkscape:persp3d-origin="372.04724 : 350.78739 : 1"
       id="perspective10" />
    <inkscape:perspective
       sodipodi:type="inkscape:persp3d"
       inkscape:vp_x="0 : 526.18109 : 1"
       inkscape:vp_y="0 : 1000 : 0"
       inkscape:vp_z="744.09448 : 526.18109 : 1"
       inkscape:persp3d-origin="372.04724 : 350.78739 : 1"
       id="perspective2410" />
    <inkscape:perspective
       id="perspective2455"
       inkscape:persp3d-origin="372.04724 : 350.78739 : 1"
       inkscape:vp_z="744.09448 : 526.18109 : 1"
       inkscape:vp_y="0 : 1000 : 0"
       inkscape:vp_x="0 : 526.18109 : 1"
       sodipodi:type="inkscape:persp3d" />
  </defs>
  <sodipodi:namedview
     id="base"
     pagecolor="#ffffff"
     bordercolor="#666666"
     borderopacity="1.0"
     inkscape:pageopacity="0.0"
     inkscape:pageshadow="2"
     inkscape:zoom="0.49497475"
     inkscape:cx="163.11308"
     inkscape:cy="318.88407"
     inkscape:document-units="px"
     inkscape:current-layer="layer1"
     showgrid="false"
     inkscape:window-width="1280"
     inkscape:window-height="750"
     inkscape:window-x="-8"
     inkscape:window-y="-8" />
  <metadata
     id="metadata7">
    <rdf:RDF>
      <cc:Work
         rdf:about="">
        <dc:format>image/svg+xml</dc:format>
        <dc:type
           rdf:resource="http://purl.org/dc/dcmitype/StillImage" />
      </cc:Work>
    </rdf:RDF>
  </metadata>
  <g
     inkscape:label="Ebene 1"
     inkscape:groupmode="layer"
     id="layer1"
     transform="translate(-36.820861,-204.03631)">
    <g
       id="g2494"
       transform="matrix(1.011194,0,0,1.011194,-80.300664,-109.54069)">
      <g
         id="g2486">
        <path
           d="M 125.71429,370.85454 L 317.51186,370.85454 L 317.51186,391.60309 L 125.71429,391.60309 L 125.71429,370.85454 z"
           style="fill:#3365ff;fill-opacity:1;fill-rule:nonzero;stroke:none"
           id="path2426" />
        <path
           d="M 125.71429,370.85454 L 317.51186,370.85454 L 317.51186,391.60309 L 125.71429,391.60309 L 125.71429,370.85454 z"
           style="fill:#3365ff;fill-opacity:1;fill-rule:nonzero;stroke:none"
           id="path2428" />
        <path
           d="M 125.71429,346.81659 L 317.51186,346.81659 L 317.51186,364.78179 L 125.71429,364.78179 L 125.71429,346.81659 z"
           style="fill:#3365ff;fill-opacity:1;fill-rule:nonzero;stroke:none"
           id="path2430" />
        <path
           d="M 125.71429,346.81659 L 317.51186,346.81659 L 317.51186,364.78179 L 125.71429,364.78179 L 125.71429,346.81659 z"
           style="fill:#3365ff;fill-opacity:1;fill-rule:nonzero;stroke:none"
           id="path2432" />
        <path
           d="M 125.71429,319.99529 L 317.51186,319.99529 L 317.51186,340.99687 L 125.71429,340.99687 L 125.71429,319.99529 z"
           style="fill:#3365ff;fill-opacity:1;fill-rule:nonzero;stroke:none"
           id="path2434" />
        <path
           d="M 125.71429,319.99529 L 317.51186,319.99529 L 317.51186,340.99687 L 125.71429,340.99687 L 125.71429,319.99529 z"
           style="fill:#3365ff;fill-opacity:1;fill-rule:nonzero;stroke:none"
           id="path2436" />
      </g>
      <path
         id="path2438"
         style="fill:#3365ff;fill-opacity:1;fill-rule:evenodd;stroke:none"
         d="M 531.07011,340.74384 L 531.07011,364.52876 L 581.4233,364.52876 L 581.4233,370.60151 L 531.07011,370.60151 L 531.07011,391.35006 L 600.40063,391.35006 L 600.40063,346.81659 L 550.04744,346.81659 L 550.04744,340.74384 L 600.40063,340.74384 L 600.40063,319.99529 L 455.66684,319.99529 L 455.66684,364.52876 L 506.02003,364.52876 L 506.02003,370.60151 L 398.98787,370.60151 L 398.98787,364.52876 L 449.34106,364.52876 L 449.34106,346.81659 L 398.98787,346.81659 L 398.98787,340.74384 L 449.34106,340.74384 L 449.34106,319.99529 L 380.26357,319.99529 L 380.26357,346.81659 L 342.56194,346.81659 L 342.56194,319.99529 L 323.58461,319.99529 L 323.58461,391.35006 L 342.56194,391.35006 L 342.56194,364.52876 L 380.26357,364.52876 L 380.26357,391.35006 L 524.74433,391.35006 L 524.74433,346.81659 L 474.64417,346.81659 L 474.64417,340.74384 L 531.07011,340.74384" />
    </g>
  </g>
</svg>
