<?xml version="1.0" encoding="UTF-8" standalone="no"?>
<!DOCTYPE svg PUBLIC "-//W3C//DTD SVG 1.1//EN" "http://www.w3.org/Graphics/SVG/1.1/DTD/svg11.dtd">
<svg xmlns="http://www.w3.org/2000/svg" version="1.1" viewBox="0 0 1294 182">
<path fill="#1654fd" d="
  M 21.06 0.00
  L 24.81 0.00
  C 39.02 0.82 47.93 -0.87 47.97 17.30
  Q 48.03 44.13 47.99 70.83
  A 2.16 2.16 0.0 0 0 50.15 72.99
  L 124.65 73.00
  A 2.17 2.17 0.0 0 0 126.73 71.45
  Q 127.11 70.17 127.09 67.75
  Q 126.82 40.25 127.31 12.75
  C 127.49 2.82 132.04 0.16 141.25 0.46
  Q 153.36 0.86 165.47 1.01
  C 170.25 1.06 174.00 3.29 174.00 8.25
  Q 174.00 91.25 174.00 174.25
  C 174.00 183.15 141.58 181.29 137.22 180.78
  Q 127.67 179.65 127.43 169.30
  Q 126.75 140.57 127.08 110.29
  A 1.28 1.28 0.0 0 0 125.80 109.00
  L 48.54 109.00
  A 0.50 0.50 0.0 0 0 48.04 109.50
  Q 47.97 137.13 48.01 164.69
  Q 48.02 172.25 46.92 174.72
  C 43.16 183.22 22.23 181.12 13.49 180.90
  C 4.74 180.69 1.00 178.42 1.00 169.22
  Q 1.00 92.47 0.99 15.73
  C 0.99 8.12 -0.26 3.76 7.87 1.92
  Q 15.38 0.23 21.06 0.00
  Z"
/>
<path fill="#1654fd" d="
  M 282.31 0.00
  L 291.81 0.00
  Q 328.78 1.26 365.80 0.98
  Q 371.17 0.94 373.54 2.09
  C 381.66 6.00 380.35 22.32 379.00 29.76
  Q 377.69 36.96 370.50 36.92
  Q 321.97 36.60 271.67 38.07
  A 1.42 1.42 0.0 0 0 270.29 39.53
  L 271.35 73.21
  A 0.43 0.43 0.0 0 0 271.77 73.63
  Q 308.56 74.27 345.34 73.95
  Q 349.06 73.91 350.97 74.97
  C 357.56 78.63 356.23 94.45 355.00 100.77
  C 353.58 107.96 349.10 108.97 342.18 108.98
  Q 309.09 109.03 276.00 109.02
  Q 273.55 109.02 271.12 109.33
  A 0.61 0.60 88.3 0 0 270.59 109.90
  Q 270.39 112.78 270.46 114.25
  Q 271.13 128.84 271.00 143.47
  A 0.53 0.52 0.5 0 0 271.53 144.00
  Q 319.65 143.98 367.75 144.05
  C 374.84 144.06 377.90 148.11 379.06 154.87
  C 380.69 164.43 381.81 180.96 367.19 180.97
  Q 267.70 181.06 241.25 180.99
  C 236.62 180.98 227.51 181.21 224.96 175.88
  Q 223.99 173.84 223.99 167.98
  Q 224.01 89.24 224.00 10.51
  C 224.00 3.80 228.60 0.99 234.89 1.00
  Q 258.63 1.06 282.31 0.00
  Z"
/>
<path fill="#1654fd" d="
  M 566.56 0.00
  L 586.06 0.00
  C 592.48 0.84 597.95 1.71 597.96 9.94
  C 598.01 47.81 597.17 85.96 598.17 123.80
  C 598.82 148.38 591.68 171.55 564.29 177.06
  C 537.63 182.41 515.34 181.04 484.50 180.94
  C 456.66 180.85 427.36 174.74 422.57 142.37
  C 421.87 137.62 421.05 130.15 421.04 124.69
  Q 420.90 44.57 421.04 10.81
  C 421.07 3.86 425.38 1.01 431.94 1.00
  Q 445.73 0.97 459.49 1.04
  C 467.47 1.07 468.02 7.76 468.01 14.00
  C 467.93 61.28 467.20 94.52 468.99 125.54
  Q 469.27 130.49 470.75 133.18
  C 479.32 148.79 512.24 145.59 527.75 144.26
  C 550.39 142.34 551.97 130.35 552.02 110.81
  Q 552.19 45.90 551.91 11.25
  C 551.83 1.51 558.91 0.91 566.56 0.00
  Z"
/>
<path fill="#1654fd" d="
  M 663.56 0.00
  L 680.81 0.00
  C 690.29 1.18 693.57 4.99 693.45 14.00
  Q 693.11 39.47 693.05 64.94
  C 692.98 90.77 693.89 116.64 694.07 142.48
  A 0.50 0.50 0.0 0 0 694.57 142.98
  Q 742.40 143.01 790.26 143.08
  C 805.09 143.10 803.44 161.88 801.72 171.74
  C 800.17 180.70 791.90 179.95 783.50 179.97
  Q 722.12 180.18 660.74 179.80
  C 649.72 179.73 645.99 177.37 645.99 166.28
  Q 646.01 99.02 646.00 31.76
  C 646.00 25.57 645.63 17.47 646.25 10.91
  C 647.33 -0.49 654.86 0.95 663.56 0.00
  Z"
/>
<path fill="#1654fd" d="
  M 846.06 0.00
  L 868.06 0.00
  C 874.66 1.38 880.01 2.04 880.00 10.33
  Q 879.99 89.52 880.01 168.70
  C 880.01 175.01 877.46 179.62 870.79 179.90
  Q 864.76 180.15 845.67 180.00
  C 837.33 179.93 832.99 176.34 832.99 167.93
  Q 833.00 89.47 833.00 11.00
  C 833.00 2.20 839.13 1.21 846.06 0.00
  Z"
/>
<path fill="#1654fd" d="
  M 1004.56 0.00
  L 1020.81 0.00
  Q 1051.62 1.24 1071.75 1.02
  C 1078.07 0.95 1083.17 1.40 1084.46 8.74
  C 1085.76 16.14 1088.22 37.03 1075.94 36.98
  Q 1026.10 36.81 976.81 38.18
  A 1.06 1.06 0.0 0 0 975.78 39.28
  L 977.09 72.18
  A 0.86 0.86 0.0 0 0 977.93 73.01
  Q 1015.69 74.19 1053.40 73.98
  C 1057.92 73.96 1059.65 76.22 1060.75 80.25
  C 1062.89 88.10 1063.98 103.50 1055.25 107.73
  Q 1052.64 108.99 1046.44 108.99
  Q 1014.92 109.01 983.41 109.00
  C 981.51 109.00 979.21 109.44 977.38 109.27
  A 1.36 1.35 1.7 0 0 975.89 110.67
  Q 976.34 122.14 976.34 133.50
  Q 976.34 138.61 977.11 143.64
  A 0.42 0.41 86.0 0 0 977.52 144.00
  Q 1024.53 144.00 1071.50 144.06
  C 1077.54 144.07 1083.60 144.87 1084.64 152.22
  Q 1085.91 161.21 1084.97 170.17
  C 1083.96 179.79 1077.34 180.98 1068.90 180.98
  Q 1005.83 181.03 942.75 181.04
  C 935.74 181.04 930.01 178.88 930.01 171.04
  Q 929.99 89.89 930.13 8.75
  C 930.14 2.11 936.31 0.94 941.51 0.98
  Q 973.05 1.23 1004.56 0.00
  Z"
/>
<path fill="#1654fd" d="
  M 1294.00 159.06
  L 1294.00 162.56
  C 1292.93 173.33 1292.92 180.98 1279.74 180.99
  Q 1207.25 181.03 1134.76 180.98
  C 1120.96 180.97 1121.57 169.18 1121.85 159.28
  C 1122.08 150.90 1124.37 147.95 1130.35 141.85
  Q 1173.64 97.64 1216.87 53.37
  Q 1225.36 44.69 1230.65 38.42
  Q 1230.97 38.04 1230.47 38.04
  Q 1182.07 37.96 1133.73 38.01
  Q 1129.64 38.02 1127.58 36.71
  C 1120.04 31.91 1121.66 14.06 1123.58 7.54
  C 1125.33 1.61 1130.57 1.01 1136.50 1.01
  Q 1208.74 0.98 1281.00 1.06
  C 1291.06 1.07 1291.39 9.17 1291.76 17.01
  C 1292.14 25.13 1292.80 29.41 1287.52 34.91
  Q 1236.47 88.18 1185.18 141.75
  Q 1184.00 142.98 1185.70 142.98
  Q 1232.21 143.00 1279.55 143.01
  C 1290.07 143.01 1293.54 149.20 1294.00 159.06
  Z"
/>
</svg>
