<svg xmlns="http://www.w3.org/2000/svg" viewBox="0 0 154.11 22.34">
  <defs>
    <style>
      .cls-1 {
        fill: #2c397f;
        fill-rule: evenodd;
      }
    </style>
  </defs>
  <g id="Layer_2" data-name="Layer 2">
    <g id="Layer_1-2" data-name="Layer 1">
      <g>
        <polygon class="cls-1" points="0 20.97 10.09 20.97 10.09 0.98 0 0.98 0 20.97 0 20.97 0 20.97"/>
        <path class="cls-1" d="M149.69,9.55a38.83,38.83,0,0,0-8.56-1.91c-3.37-.42-6-1.65-5.68-2.63.27-.76,1.11-1.33,3.27-1.33,2.7,0,4.22,1,5.2,3.12h9.51A6.39,6.39,0,0,0,150.14,2c-2.29-1.3-6.49-2-10.56-2s-8.2.2-10.68,1.37a5.49,5.49,0,0,0-3.19,5.43c0,2.38,2,4.17,5.08,5.35,1.42.54,4.59.94,8.89,1.67,3.09.54,4.78,1.06,4.78,1.84a1.83,1.83,0,0,1-1.2,1.53,12.8,12.8,0,0,1-3.51.32,5.41,5.41,0,0,1-4.37-3.34h0l-10.51,0h0a1.5,1.5,0,0,0,0-.37h0V1h-8.33v11h0c0,1.77-2.45,3.81-4.22,3.81h-.81c-1.77,0-4.44-1.79-4.44-3.59h0V1H98.16v2.7h0A7,7,0,0,0,93,1H70.32V5.45H88.19c.84,0,2,.66,2,1.5s-1.13,1.54-2,1.54H70.32V17L62.58,1H49l-8.11,16.6L33.66,7.71,41,1H29.9l-9,7.49V1H12.45V21h8.47V19.3l6.23-5.7L33,21H49.57l1.5-3.32h9.82L62.56,21H79.77V13.43H84L88.85,21H99.66l-5.5-7.88h0a7.89,7.89,0,0,0,4-2.88h0v4.67h0c0,5.2,8.57,7.34,13.77,7.34h1c4.52,0,10.88-3,11.86-7.34.62,6.41,9.21,7.46,14.44,7.46a30.27,30.27,0,0,0,10.46-1.62c3-1.08,4.32-3,4.44-5.5v-.05h0v-.54h0c-.07-2.08-1.32-4-4.42-5.08Zm-93.78,4h-3l2.85-6.26.15.27,3,6Z"/>
      </g>
    </g>
  </g>
</svg>
