<?xml version="1.0" encoding="UTF-8" standalone="no"?>
<svg
   width="3245.9507"
   height="2019.4075"
   viewBox="0 0 3245.9507 2019.4075"
   fill="none"
   version="1.1"
   id="svg1"
   xmlns="http://www.w3.org/2000/svg"
   xmlns:svg="http://www.w3.org/2000/svg">
  <defs
     id="defs1" />
  <path
     fill-rule="evenodd"
     clip-rule="evenodd"
     d="m 126.2939,1427.9827 c -167.3866,189.8531 -166.3156,336.0055 -9.0582,486.7779 159.4314,148.4678 305.3966,141.3052 485.4828,-36.5381 C 787.57938,1695.6835 1647.0383,786.28848 1818.8334,591.42584 1986.214,401.57273 1985.1428,255.42359 1827.8894,104.65336 1668.4505,-43.822025 1522.4928,-36.661525 1342.3991,141.19037 1157.5447,323.72505 298.0868,1233.1201 126.2939,1427.9827 Z M 650.39111,325.19977 C 650.39111,107.32257 543.0738,0.0052962 325.1956,0.0052962 107.3173,0.0052962 0,107.32257 0,325.19977 c 0,217.8837 107.3173,325.19339 325.1956,325.19339 217.8782,0 325.19551,-107.30969 325.19551,-325.19339 z M 2595.5681,1694.0389 c 0,217.8761 107.3097,325.1858 325.1859,325.1858 217.8869,0 325.1966,-107.3097 325.1966,-325.1858 0,-217.8869 -107.3097,-325.1966 -325.1966,-325.1966 -217.8762,0 -325.1859,107.3097 -325.1859,325.1966 z m -1177.6476,220.7217 c -157.2642,-150.7724 -158.3353,-296.9248 9.0561,-486.7779 171.7951,-194.8626 1031.2464,-1104.25765 1216.1116,-1286.79233 180.083,-177.851895 326.0514,-185.012395 485.4796,-36.53701 157.2642,150.77023 158.3245,296.91937 -9.0561,486.77248 -171.7951,194.86264 -1031.2464,1104.25766 -1216.1116,1286.79666 -180.083,177.8433 -326.0514,185.0059 -485.4796,36.5381 z"
     fill="#232934"
     id="path1"
     style="stroke-width:1" />
</svg>
