<?xml version="1.0" encoding="UTF-8" standalone="no"?>
<!-- Created with Inkscape (http://www.inkscape.org/) -->

<svg
   xmlns:svg="http://www.w3.org/2000/svg"
   xmlns="http://www.w3.org/2000/svg"
   version="1.1"
   width="187.08701"
   height="22.316999"
   viewBox="0 0 187.087 22.316999"
   id="Ebene_1"
   xml:space="preserve"><defs
   id="defs25" />
<g
   transform="translate(-202.83401,-410.11)"
   id="g3">
	
	<polygon
   points="225.475,410.11 225.475,410.11 217.967,410.11 214.105,415.77 221.613,415.77 "
   id="polygon7"
   style="fill-rule:evenodd" />
	<polygon
   points="214.963,429.111 212.51,429.111 220.352,417.618 220.352,417.618 212.844,417.618 202.834,432.259 212.834,432.259 "
   id="polygon9"
   style="fill-rule:evenodd" />
	<polygon
   points="223.107,432.287 230.909,420.852 236.052,420.852 232.983,425.357 240.492,425.357 240.492,425.357 245.764,417.618 225.607,417.618 215.599,432.287 "
   id="polygon11"
   style="fill-rule:evenodd" />
	<polygon
   points="380.208,420.852 377.14,425.357 384.65,425.357 389.921,417.618 369.765,417.618 369.765,417.618 359.755,432.287 367.265,432.287 375.066,420.852 "
   id="polygon13"
   style="fill-rule:evenodd" />
	<polygon
   points="246.036,432.287 253.838,420.852 258.92,420.852 251.118,432.287 258.627,432.287 266.49,420.852 271.474,420.852 263.651,432.302 273.676,432.302 275.805,429.111 273.383,429.111 273.383,429.111 281.193,417.618 248.536,417.618 238.527,432.287 "
   id="polygon15"
   style="fill-rule:evenodd" />
	<polygon
   points="285.039,417.618 279.433,425.742 292.029,425.742 289.676,429.203 284.548,429.203 285.73,427.494 278.224,427.494 274.82,432.427 294.977,432.427 301.199,423.296 288.645,423.289 288.645,423.289 290.34,420.843 303.005,420.843 305.195,417.618 "
   id="polygon17"
   style="fill-rule:evenodd" />
	<polygon
   points="307.191,429.203 312.984,420.843 318.007,420.843 320.197,417.618 307.681,417.618 297.463,432.427 320.404,432.427 328.55,420.585 333.568,420.585 325.583,432.277 333.095,432.277 343.103,417.618 330.656,417.524 330.656,417.524 335.468,410.529 328.037,410.529 315.105,429.203 "
   id="polygon19"
   style="fill-rule:evenodd" />
	<path
   d="m 352.693,427.417 -1.215,1.785 h -5.129 l 2.588,-3.48 h 12.412 l 5.648,-8.104 h -20.156 l -10.221,14.809 h 20.158 l 3.414,-5.01 h -7.499 l 0,0 z m -0.551,-6.574 h 4.648 l -1.77,2.449 -4.574,-0.004 1.696,-2.445 0,0 z"
   id="path21"
   style="fill-rule:evenodd" />
</g>
</svg>