<?xml version="1.0" encoding="UTF-8"?>
<svg id="Livello_1" data-name="Livello 1" xmlns="http://www.w3.org/2000/svg" width="232" height="60" viewBox="0 0 232 60">
  <path d="M0,42.014v15.213c0,.308,.25,.557,.557,.557H1.762c.309,0,.558-.25,.558-.557v-15.213c0-.308-.25-.557-.558-.557H.557c-.308,0-.557,.25-.557,.557" fill="#084c60"/>
  <path d="M66.282,55.639v-13.705c0-.264-.214-.478-.478-.478h-1.364c-.264,0-.478,.214-.478,.478v15.373c0,.264,.214,.478,.478,.478h14.039c.264,0,.478-.214,.478-.478v-1.031c0-.264-.214-.477-.478-.477h-12.037c-.088,0-.16-.072-.16-.16" fill="#084c60"/>
  <path d="M107.843,47.129c-.025-.754-.106-1.441-.244-2.042-.139-.61-.364-1.149-.669-1.602-.309-.457-.752-.842-1.318-1.145-.558-.299-1.273-.524-2.123-.669-.843-.143-1.891-.215-3.117-.215h-11.678c-.264,0-.478,.214-.478,.477v15.373c0,.264,.214,.478,.478,.478h11.678c1.226,0,2.274-.073,3.117-.216,.85-.144,1.564-.369,2.123-.668,.566-.303,1.009-.688,1.318-1.146,.305-.452,.53-.991,.669-1.602,.137-.601,.219-1.287,.244-2.042,.025-.745,.037-1.583,.037-2.491s-.012-1.746-.037-2.491m-2.283,2.491c0,.942-.008,1.766-.025,2.45-.017,.671-.076,1.243-.174,1.701-.095,.444-.245,.804-.445,1.068-.196,.259-.481,.461-.846,.599-.381,.143-.874,.24-1.468,.287-.602,.047-1.352,.072-2.228,.072h-9.677c-.088,0-.16-.071-.16-.16v-12.037c0-.088,.071-.16,.16-.16h9.677c.88,0,1.631,.025,2.234,.073,.589,.047,1.082,.144,1.463,.287,.366,.138,.651,.34,.846,.598,.201,.265,.35,.624,.445,1.068,.098,.458,.157,1.03,.174,1.702,.017,.683,.025,1.508,.025,2.45" fill="#084c60"/>
  <path d="M145.075,54.107c.034,.382,.113,.696,.233,.938,.165,.328,.433,.569,.818,.735,.398,.172,.933,.282,1.589,.326,.668,.045,1.511,.068,2.506,.068h2.668c1.156,0,2.126-.056,2.885-.166,.75-.108,1.353-.282,1.793-.518,.426-.227,.728-.525,.9-.888,.177-.372,.266-.835,.266-1.375,0-.546-.062-1.006-.184-1.365-.117-.345-.344-.611-.692-.817-.359-.213-.877-.366-1.54-.457-.678-.093-1.578-.141-2.678-.141h-2.752c-1.224,0-2.288-.046-3.159-.136-.877-.091-1.625-.224-2.221-.396-.606-.175-1.099-.397-1.467-.66-.372-.266-.659-.576-.854-.922-.193-.342-.32-.728-.378-1.146-.056-.403-.085-.848-.085-1.319,0-.495,.045-.962,.133-1.387,.091-.436,.263-.836,.51-1.19,.247-.352,.588-.67,1.014-.944,.421-.271,.967-.5,1.623-.681,.648-.178,1.437-.316,2.346-.407,.905-.09,1.984-.136,3.205-.136h2.001c1,0,1.889,.037,2.642,.11,.757,.073,1.419,.191,1.968,.349,.555,.16,1.024,.363,1.392,.603,.376,.244,.678,.539,.901,.88,.223,.339,.379,.728,.467,1.155,.054,.268,.092,.557,.111,.863l.005,.204c.007,.268-.21,.489-.478,.489h-1.368c-.257,0-.469-.204-.477-.462l-.007-.198c-.035-.365-.113-.665-.231-.897-.165-.322-.431-.559-.817-.724-.399-.169-.935-.277-1.595-.321-.674-.044-1.519-.067-2.512-.067h-2.001c-1.323,0-2.425,.047-3.276,.14-.841,.091-1.512,.246-1.995,.461-.464,.207-.789,.484-.966,.824-.182,.351-.274,.8-.274,1.334,0,.336,.024,.639,.07,.899,.044,.246,.135,.464,.269,.648,.133,.183,.327,.341,.575,.468,.257,.132,.605,.243,1.033,.329,.435,.089,.976,.153,1.609,.191,.634,.038,1.404,.056,2.288,.056h2.752c1.098,0,2.055,.047,2.843,.137,.792,.092,1.471,.229,2.017,.41,.555,.183,1.005,.417,1.339,.693,.336,.278,.597,.6,.781,.956,.181,.354,.3,.753,.354,1.188,.053,.422,.079,.887,.079,1.381s-.045,.963-.133,1.397c-.09,.443-.253,.853-.485,1.22-.232,.368-.552,.701-.949,.989-.394,.285-.899,.53-1.503,.728-.597,.196-1.325,.346-2.162,.448-.834,.101-1.821,.151-2.932,.151h-2.668c-1.001,0-1.891-.038-2.643-.115-.756-.077-1.418-.196-1.967-.354-.556-.16-1.023-.367-1.39-.615-.37-.25-.671-.549-.893-.889-.223-.338-.379-.728-.467-1.161-.06-.298-.099-.62-.117-.962l-.002-.112c-.005-.267,.21-.486,.477-.486h1.37c.259,0,.47,.205,.478,.462l.006,.18Z" fill="#084c60"/>
  <path d="M170.313,41.934v15.373c0,.264,.214,.478,.478,.478h1.364c.264,0,.478-.214,.478-.478v-15.373c0-.264-.214-.478-.478-.478h-1.364c-.264,0-.478,.214-.478,.478" fill="#084c60"/>
  <path d="M202.219,46.036c-.019-.396-.056-.769-.114-1.111-.086-.516-.241-.985-.46-1.394-.221-.412-.521-.776-.895-1.08-.37-.302-.84-.554-1.397-.751-.551-.194-1.214-.34-1.972-.435-.755-.094-1.644-.142-2.647-.142h-5.358c-1.226,0-2.275,.077-3.118,.227-.85,.152-1.563,.385-2.118,.696-.563,.313-1.004,.715-1.313,1.194-.304,.471-.529,1.033-.668,1.667-.137,.625-.217,1.34-.238,2.125-.02,.772-.031,1.643-.031,2.589s.011,1.817,.031,2.59c.021,.785,.101,1.499,.238,2.125,.139,.634,.364,1.195,.668,1.667,.309,.479,.75,.881,1.313,1.194,.556,.31,1.269,.544,2.118,.696,.843,.151,1.892,.227,3.118,.227h5.368c1.002,0,1.892-.048,2.646-.142,.759-.095,1.423-.245,1.974-.446,.557-.204,1.026-.467,1.394-.785,.369-.318,.667-.701,.887-1.138,.219-.434,.373-.933,.458-1.485,.084-.543,.127-1.16,.127-1.833v-2.35c0-.264-.214-.478-.478-.478h-9.389c-.264,0-.478,.214-.478,.478v1.031c0,.264,.214,.477,.478,.477h7.388c.088,0,.16,.072,.16,.16v.682c0,.547-.024,1.03-.072,1.436-.047,.395-.135,.737-.263,1.016-.124,.271-.3,.498-.522,.677-.226,.18-.53,.325-.903,.43-.384,.107-.858,.183-1.407,.223-.557,.041-1.229,.062-2,.062h-5.368c-.879,0-1.63-.026-2.232-.078-.59-.051-1.082-.154-1.461-.307-.365-.147-.648-.36-.841-.633-.198-.278-.345-.657-.437-1.126-.096-.483-.152-1.086-.169-1.792-.017-.708-.026-1.575-.026-2.576s.007-1.867,.021-2.576c.013-.706,.069-1.31,.164-1.792,.092-.467,.241-.846,.442-1.125,.196-.273,.481-.485,.847-.633,.38-.153,.871-.256,1.461-.307,.602-.052,1.353-.078,2.232-.078h5.358c.989,0,1.832,.035,2.506,.104,.655,.066,1.187,.22,1.581,.458,.383,.229,.662,.574,.829,1.023,.135,.365,.219,.84,.249,1.417l.003,.199c.005,.26,.218,.469,.478,.469h1.364c.267,0,.482-.219,.478-.487l-.005-.255Z" fill="#084c60"/>
  <path d="M222.871,48.753l6.539,6.242c.101,.097,.269,.025,.269-.115v-12.945c0-.264,.214-.478,.478-.478h1.364c.264,0,.478,.214,.478,.478v15.373c0,.264-.214,.478-.478,.478h-2.225c-.12,0-.237-.046-.324-.128l-6.914-6.389-7.98-7.374c-.101-.094-.268-.022-.268,.117v13.296c0,.264-.214,.478-.477,.478h-1.364c-.264,0-.478-.214-.478-.478v-15.373c0-.264,.214-.478,.478-.478h3.067c.123,0,.241,.047,.33,.133l7.505,7.164Z" fill="#084c60"/>
  <path d="M19.798,46.523v10.784c0,.264,.214,.478,.478,.478h1.364c.264,0,.478-.214,.478-.478v-10.784c0-.264-.214-.478-.478-.478h-1.364c-.264,0-.478,.214-.478,.478" fill="#084c60"/>
  <path d="M22.118,43.443h7.527c.264,0,.478-.214,.478-.478v-1.03c0-.264-.214-.478-.478-.478H12.271c-.264,0-.478,.214-.478,.478v1.03c0,.264,.214,.478,.478,.478h9.847Z" fill="#084c60"/>
  <path d="M119.61,48.461v-4.859c0-.088,.071-.159,.16-.159h13.371c.264,0,.478-.214,.478-.478v-1.03c0-.264-.214-.478-.478-.478h-15.373c-.264,0-.477,.214-.477,.478v15.373c0,.264,.214,.477,.477,.477h15.373c.264,0,.478-.214,.478-.477v-1.031c0-.264-.214-.478-.478-.478h-13.371c-.088,0-.16-.071-.16-.159v-7.179Z" fill="#084c60"/>
  <path d="M132.741,49.969v-1.03c0-.264-.214-.478-.478-.478h-9.714c-.264,0-.478,.214-.478,.478v1.03c0,.264,.214,.478,.478,.478h9.714c.264,0,.478-.214,.478-.478" fill="#084c60"/>
  <path d="M39.773,52.13l4.911-8.625c.061-.108,.216-.107,.277,0l4.758,8.387c.061,.106-.016,.238-.138,.238h-6.507c-.172,0-.33,.092-.415,.241l-.588,1.03c-.182,.318,.048,.715,.415,.715h8.401c.057,0,.11,.03,.139,.08l1.898,3.347c.084,.15,.243,.242,.415,.242h1.367c.367,0,.597-.396,.416-.715l-8.742-15.373c-.085-.149-.244-.241-.416-.241h-2.502c-.172,0-.331,.092-.415,.241l-8.771,15.372c-.182,.319,.048,.715,.415,.715h1.583c.172,0,.331-.092,.416-.241l1.951-3.428,1.131-1.986Z" fill="#084c60"/>
  <path d="M231.756,10.114c-.2-1.115-.957-4.786-4.643-6.615-3.685-1.828-6.833-1.652-8.1-1.652h-61.099l-8.839-.006h-31.232c-.303,0-.549,.246-.549,.549V31.57c0,.303,.246,.549,.549,.549h31.243l8.828-.003h61.099c1.267,0,4.415,.176,8.1-1.652,3.686-1.828,4.443-5.5,4.643-6.615,.047-.262,.085-.686,.116-1.2,.099-.962,.127-3.478,.127-5.251v-.84c0-1.802-.044-5.337-.243-6.444Zm-2.94,7.298c0,1.944-.057,4.641-.257,5.78-.2,1.143-.742,2.972-2.829,4.572-2.085,1.6-5.517,1.633-7.232,1.633h-60.585l-8.824,.002c-.163,0-.295-.132-.295-.295V4.856c0-.163,.132-.295,.295-.295l8.824,.005h60.585c1.715,0,5.146,.033,7.232,1.633,2.086,1.6,2.629,3.428,2.829,4.572,.201,1.143,.257,3.837,.257,5.779v.862Z" fill="#084c60"/>
  <path d="M6.971,1.84h-1.562c-.273,0-.495,.254-.495,.566V31.552c0,.312,.222,.566,.495,.566h1.562c.273,0,.494-.254,.494-.566V2.407c0-.313-.222-.566-.494-.566" fill="#084c60"/>
  <path d="M94.625,1.84h-11.729c-.237,0-.431,.221-.431,.494V31.625c0,.272,.193,.493,.431,.493h11.729c.237,0,.43-.221,.43-.493V2.334c0-.273-.193-.494-.43-.494" fill="#084c60"/>
  <path d="M114.249,1.84h-16.145c-.25,0-.454,.233-.454,.52V31.599c0,.286,.204,.519,.454,.519h16.145c.25,0,.454-.232,.454-.519V2.36c0-.286-.204-.52-.454-.52" fill="#084c60"/>
  <path d="M79.441,1.84h-9.654c-.237,0-.431,.221-.431,.494V31.625c0,.272,.194,.493,.431,.493h9.654c.237,0,.431-.221,.431-.493V2.334c0-.273-.194-.494-.431-.494" fill="#084c60"/>
  <path d="M66.355,1.84h-7.454c-.225,0-.408,.21-.408,.467V31.651c0,.258,.183,.467,.408,.467h7.454c.225,0,.408-.209,.408-.467V2.307c0-.257-.183-.467-.408-.467" fill="#084c60"/>
  <path d="M55.46,1.84h-5.619c-.241,0-.438,.225-.438,.502V31.617c0,.276,.196,.501,.438,.501h5.619c.241,0,.439-.225,.439-.501V2.342c0-.277-.197-.502-.439-.502" fill="#084c60"/>
  <path d="M46.362,1.84h-4.674c-.246,0-.447,.229-.447,.512V31.607c0,.282,.201,.511,.447,.511h4.674c.246,0,.447-.229,.447-.511V2.352c0-.282-.201-.512-.447-.512" fill="#084c60"/>
  <path d="M38.186,1.84h-4.08c-.255,0-.462,.237-.462,.528V31.591c0,.291,.207,.527,.462,.527h4.08c.255,0,.462-.237,.462-.527V2.368c0-.291-.207-.528-.462-.528" fill="#084c60"/>
  <path d="M1.825,1.84H.495C.222,1.84,0,2.094,0,2.407V31.552c0,.312,.222,.566,.494,.566H1.825c.273,0,.494-.254,.494-.566V2.407c0-.313-.222-.566-.494-.566" fill="#084c60"/>
  <path d="M12.349,1.84h-1.795c-.273,0-.494,.254-.494,.566V31.552c0,.312,.222,.566,.494,.566h1.795c.273,0,.494-.254,.494-.566V2.407c0-.313-.222-.566-.494-.566" fill="#084c60"/>
  <path d="M17.959,1.84h-2.026c-.273,0-.495,.254-.495,.566V31.552c0,.312,.222,.566,.495,.566h2.026c.273,0,.494-.254,.494-.566V2.407c0-.313-.222-.566-.494-.566" fill="#084c60"/>
  <path d="M23.926,1.84h-2.382c-.273,0-.494,.254-.494,.566V31.552c0,.312,.222,.566,.494,.566h2.382c.273,0,.494-.254,.494-.566V2.407c0-.313-.222-.566-.494-.566" fill="#084c60"/>
  <path d="M30.566,1.84h-3.067c-.267,0-.485,.249-.485,.555V31.563c0,.306,.218,.555,.485,.555h3.067c.268,0,.485-.249,.485-.555V2.395c0-.306-.218-.555-.485-.555" fill="#084c60"/>
</svg>