<?xml version="1.0" encoding="UTF-8" standalone="no"?>
<svg
   xmlns:dc="http://purl.org/dc/elements/1.1/"
   xmlns:cc="http://creativecommons.org/ns#"
   xmlns:rdf="http://www.w3.org/1999/02/22-rdf-syntax-ns#"
   xmlns:svg="http://www.w3.org/2000/svg"
   xmlns="http://www.w3.org/2000/svg"
   xmlns:sodipodi="http://sodipodi.sourceforge.net/DTD/sodipodi-0.dtd"
   xmlns:inkscape="http://www.inkscape.org/namespaces/inkscape"
   width="2300.002"
   height="481.87701"
   viewBox="0 0 177.33567 37.153874"
   version="1.1"
   id="svg8"
   sodipodi:docname="jelcz.svg"
   inkscape:version="0.92.5 (2060ec1f9f, 2020-04-08)">
  <metadata
     id="metadata14">
    <rdf:RDF>
      <cc:Work
         rdf:about="">
        <dc:format>image/svg+xml</dc:format>
        <dc:type
           rdf:resource="http://purl.org/dc/dcmitype/StillImage" />
        <dc:title></dc:title>
      </cc:Work>
    </rdf:RDF>
  </metadata>
  <defs
     id="defs12" />
  <sodipodi:namedview
     pagecolor="#ffffff"
     bordercolor="#666666"
     borderopacity="1"
     objecttolerance="10"
     gridtolerance="10"
     guidetolerance="10"
     inkscape:pageopacity="0"
     inkscape:pageshadow="2"
     inkscape:window-width="3840"
     inkscape:window-height="2066"
     id="namedview10"
     showgrid="false"
     inkscape:snap-page="true"
     inkscape:snap-bbox="true"
     inkscape:bbox-paths="true"
     inkscape:bbox-nodes="true"
     inkscape:snap-bbox-edge-midpoints="true"
     inkscape:snap-bbox-midpoints="true"
     inkscape:object-paths="true"
     inkscape:snap-intersection-paths="true"
     inkscape:snap-smooth-nodes="true"
     inkscape:snap-midpoints="true"
     inkscape:snap-object-midpoints="true"
     inkscape:snap-center="true"
     inkscape:snap-text-baseline="true"
     inkscape:zoom="1.0680141"
     inkscape:cx="1046.1238"
     inkscape:cy="276.97073"
     inkscape:window-x="-11"
     inkscape:window-y="-11"
     inkscape:window-maximized="1"
     inkscape:current-layer="g6" />
  <g
     id="g6"
     style="clip-rule:evenodd;fill-rule:evenodd"
     transform="translate(0,-155.60213)">
    <path
       inkscape:connector-curvature="0"
       style="fill:#164c82;stroke-width:1.00942349"
       d="m 23.380321,155.60215 c 5.08144,0 10.178023,1.30922 14.510471,4.02054 0.186744,0.10901 0.249328,0.34219 0.140311,0.56123 -2.461987,3.91152 -4.504052,8.83752 -6.498673,13.94823 -3.678342,9.72579 -10.270891,10.80185 -18.905505,11.08247 -0.452221,0.0162 -0.528938,0.59354 -0.186743,0.76514 9.429031,4.87753 25.856398,4.86138 30.609778,-5.90917 2.228807,-5.03299 0.31292,-10.61308 -4.410176,-14.74365 -0.125168,-0.12517 -0.15646,-0.28062 -0.09388,-0.48352 0.522075,-0.99562 1.07826,-1.97299 1.667569,-2.93035 0.129509,-0.21312 0.419874,-0.25799 0.607672,-0.0939 3.693484,3.2887 5.938442,7.62116 5.938442,12.35939 0,10.2406 -10.505076,18.57744 -23.379271,18.57744 -6.498673,0 -13.7624898,-2.43069 -18.4532838,-7.18407 -0.171602,-0.18775 -0.171602,-0.5148 0.124159,-0.6541 2.462995,-1.02963 12.6400098,-5.6114 15.8045538,-13.52831 1.542402,-3.70964 3.194828,-7.52829 5.033998,-11.28435 0.125169,-0.32806 -0.09388,-0.5461 -0.31191,-0.59253 -9.569342,-1.46568 -18.9055068,2.08748 -21.8671568,8.77391 -1.8856045,4.25473 -0.8105677,8.90009 2.415552,12.71874 0.186743,0.24832 0.07874,0.54408 -0.171602,0.65411 -0.981161,0.35733 -1.978472,0.70155 -2.976792,1.02961 -0.2028944,0.0454 -0.3432042,0 -0.4835142,-0.17362 C 0.9044768,180.00798 3.2927519e-5,177.17049 3.2927519e-5,174.17755 0.00205293,163.93997 10.50713,155.60213 23.380317,155.60213 Z m 143.686469,25.62423 c -0.60565,0 -0.87921,-0.66017 -0.49462,-1.09826 l 10.54344,-12.9065 c 0.11003,-0.10901 0.16555,-0.27355 0.21905,-0.4936 v -4.22848 c -0.0535,-0.33008 -0.32907,-0.65915 -0.71367,-0.65915 H 158.3908 c -0.38459,0.0545 -0.66017,0.32907 -0.66017,0.71467 v 4.11845 c 0.0555,0.27456 0.27558,0.49461 0.60566,0.54912 h 9.71974 c 0.71367,0 0.87921,0.76918 0.54812,1.15377 l -10.70695,12.96101 c -0.11004,0.16353 -0.16556,0.27356 -0.16556,0.4926 v 4.01045 c 0,0.32907 0.27558,0.65814 0.66017,0.65814 H 176.622 c 0.38459,0 0.71367,-0.32907 0.71367,-0.65814 v -3.95493 c 0,-0.32907 -0.32908,-0.65815 -0.71367,-0.65815 z m -47.22792,-0.32908 h -1.09826 c -2.91218,-0.0555 -4.01044,-1.31931 -4.06495,-4.01044 v -14.27729 c 0,-0.38459 -0.32907,-0.76918 -0.71366,-0.76918 h -4.33749 c -0.38459,0 -0.71568,0.32907 -0.76918,0.71467 v 16.25476 c 0,3.23924 2.36003,7.41321 7.08413,7.68878 h 11.64169 c 0.38459,0 0.71367,-0.32907 0.71367,-0.65814 v -4.44955 c -0.0555,-0.21904 -0.27356,-0.43809 -0.54812,-0.4926 z m -50.084595,0 c 2.85566,-0.0555 3.899404,-1.37382 3.953913,-4.01044 v -14.27729 c 0,-0.38459 0.329071,-0.76918 0.713662,-0.76918 h 4.338505 c 0.384591,0 0.713661,0.32907 0.768172,0.71467 v 16.25476 c 0.110027,3.95492 -3.184732,7.52324 -7.084139,7.68878 h -6.15042 c -4.777604,-0.27557 -7.193157,-4.44954 -7.084138,-7.68878 v -3.62384 c 0,-0.4401 0.329072,-0.71366 0.658143,-0.71366 h 4.503041 c 0.330083,0 0.603636,0.21905 0.659156,0.54812 v 2.41757 c 0.164535,2.30653 1.318306,3.40478 4.009432,3.4603 z m 25.699936,-13.34559 h -1.09825 c -2.470062,0 -3.623837,0.93371 -3.952907,2.85566 -0.110027,0.4391 0.219043,0.8782 0.658146,0.8782 h 12.08179 c 0.44011,0 0.76918,0.32907 0.76918,0.76918 v 4.33951 c 0,0.38258 -0.32907,0.71367 -0.76918,0.71367 H 91.116716 c -0.440107,0 -0.769185,0.38459 -0.713662,0.87719 0.273555,1.92194 1.482845,2.85666 3.952907,2.91218 h 9.006079 c 0.27557,0.0555 0.49461,0.27356 0.55013,0.4926 v 4.44955 c 0,0.32907 -0.27355,0.65814 -0.71366,0.65814 H 91.556823 c -4.724104,-0.27557 -7.139652,-4.44954 -7.030637,-7.68878 v -9.22513 c -0.109015,-3.24025 2.306533,-7.41422 7.030637,-7.74329 h 11.641687 c 0.44011,0 0.71366,0.32907 0.71366,0.71467 v 4.39402 c -0.0555,0.27355 -0.27355,0.54812 -0.55013,0.60363 z m 48.821809,13.34559 h -1.04274 c -2.91218,-0.0555 -4.06293,-1.31931 -4.06293,-4.01044 v -5.38123 c 0,-2.63561 1.15176,-3.95392 4.06293,-3.95392 h 8.95057 c 0.30574,-0.0588 0.54483,-0.2979 0.60364,-0.60364 v -0.0555 0 l -0.0535,-4.3385 c -0.005,-0.38456 -0.27557,-0.71467 -0.66018,-0.71467 h -11.64168 c -4.7766,0.32907 -7.19417,4.50304 -7.08414,7.7433 v 9.22512 c -0.11003,3.23924 2.30653,7.41321 7.08414,7.68879 h 11.64168 c 0.36201,-0.004 0.65474,-0.29615 0.66018,-0.65815 l 0.0535,-4.33952 v 0 -0.11003 c -0.0535,-0.21904 -0.27356,-0.43809 -0.60364,-0.4926 z"
       id="path4"
       sodipodi:nodetypes="cccccccccccssccccccccccccccccccscsccsccsssssscccccssscscsscccccssscccccssscccccscssssssccccssccccsscccccsssccccssccccccccccc" />
  </g>
</svg>
