<svg xmlns="http://www.w3.org/2000/svg" width="200" height="45" viewBox="0 0 234.08 45"><defs><clipPath id="a"><path stroke-width="0" fill="none" d="M0 0h234.08v45H0z"/></clipPath></defs><g clip-path="url(#a)"><path class="cls-3" d="M71.84 13.7a22.609 22.609 0 00-7.42-7.14c-.54-.34-1.21-.4-1.8-.15-.19-.14-.97-.74-1.78-1.24-1.39-.9-2.85-1.69-4.37-2.35-.79-.46-1.68-.68-2.59-.66 0 0-1.42.15-1.03.66l-.32-.15A31.163 31.163 0 0042.97.05a3.95 3.95 0 00-1.9.16c-.09.03-.13.13-.1.21.02.05.06.08.1.1 3.08.96 8.09 2.97 11.59 6.62 2.08 2.02 3.52 4.61 4.14 7.44.47 2.32.19 4.73-.82 6.88-1.32 2.8-3.45 5.14-6.13 6.7-2.7 1.56-5.61 2.72-8.63 3.45-1.13.31-2.01.65-2.34 1.57s.11 1.71.62 2.67c.7 1.01.83 2.31.35 3.44a3.513 3.513 0 01-3.2 1.43c-1.25.13-2.47-.42-3.2-1.43-.48-1.13-.35-2.43.35-3.44.5-.96.95-1.74.62-2.67s-1.21-1.26-2.34-1.57a32.27 32.27 0 01-8.63-3.45 15.34 15.34 0 01-6.13-6.7c-1.01-2.14-1.3-4.55-.82-6.88.62-2.83 2.06-5.42 4.14-7.44 3.49-3.65 8.51-5.66 11.59-6.62.09-.03.14-.12.11-.21-.02-.05-.05-.09-.1-.1a3.95 3.95 0 00-1.9-.16c-3.3.36-6.53 1.24-9.55 2.62l-.32.15c.4-.5-1.03-.66-1.03-.66-.91-.02-1.81.2-2.59.66-1.52.66-2.98 1.45-4.37 2.35-.8.5-1.59 1.09-1.78 1.24-.59-.24-1.26-.19-1.8.15a22.609 22.609 0 00-7.42 7.14A9.711 9.711 0 000 19.11c.06 1.9.62 3.75 1.62 5.37 2.21 3.57 6.01 5.62 9.99 7.09a94.54 94.54 0 0012.17 3.04c1.26.24 2.69.51 4 .74.58.1 1.03.22 1.26.61.32.54-.04 1.1-.52 1.64l-.92 1.03c-.44.5-.73.96-.48 1.54s.81.76 1.47.92c1.8.43 3.49 1.25 4.94 2.41.79.82 1.83 1.35 2.96 1.5h.32c1.13-.15 2.17-.68 2.96-1.5 1.46-1.15 3.14-1.97 4.95-2.41.66-.16 1.22-.33 1.47-.92s-.04-1.05-.48-1.54l-.92-1.03c-.48-.54-.84-1.1-.52-1.64.23-.39.68-.51 1.26-.61 1.31-.23 2.74-.5 4-.74 4.12-.75 8.19-1.76 12.17-3.04 3.97-1.48 7.77-3.53 9.99-7.09 1-1.61 1.56-3.47 1.62-5.37.06-1.91-.45-3.79-1.45-5.41M6.22 26.32c-2.81-2.33-4.39-5.33-4.25-8.49.17-3.91 2.97-7.16 8-10.57-4.12 3.15-6.68 6.62-6.83 10.23-.25 5.84 5 10.66 14.79 14.18-5.15-1.46-9.11-3.21-11.71-5.36m6.69.39c-3.85-2.82-5.37-6.08-5.37-9.41 0-5.43 3.72-10.41 11.58-13.76-2.43 1.07-9.87 5.3-9.87 13.38 0 6.28 6.67 12.49 17.67 15.67-5.02-.97-9.79-2.97-14-5.88m33.48 5.88c11-3.19 17.67-9.39 17.67-15.67 0-8.08-7.44-12.31-9.87-13.38 7.86 3.36 11.58 8.33 11.58 13.76 0 3.33-1.52 6.59-5.37 9.41a36.972 36.972 0 01-14 5.89m20.68-6.27c-2.6 2.15-6.56 3.9-11.71 5.36 9.79-3.52 15.04-8.35 14.79-14.18-.15-3.61-2.72-7.09-6.83-10.23 5.03 3.4 7.83 6.66 8 10.56.14 3.16-1.44 6.16-4.25 8.49m68.62-2.24c0 4.56 4.05 7.07 7.71 7.07h32.41c4.03 0 7.07-1.56 7.07-7.07v-3.7c0-1.7-.65-2.37-2.9-2.37h-24.39s-.08.04-.08.08c0 .03.01.05.04.07l3.08 2.04 2.63 1.83c.12.08.26.13.4.13l9.44.08c.34.04.59.34.56.69v1.87c0 1.83-1.16 2.42-2.88 2.42h-18.95a2.94 2.94 0 01-2.93-2.79v-9.27a2.693 2.693 0 012.59-2.79h19.04c1.89 0 2.79.76 2.79 2.16v.16c0 .14.12.26.26.26h11.29v-1.11c0-3.07-3.55-5.4-7.12-5.4h-32.44c-3.66 0-7.64 2.26-7.64 7.07v8.57z"/><path class="cls-3" d="M136.72 31.14h-12.78c-.4 0-.8-.11-1.14-.32l-12.63-7.63c-.74-.45-1.59-.69-2.46-.69h-5.34v8.63H91.15V8.45h11.22v8.64h5.28c.87 0 1.72-.24 2.46-.68l12.69-7.64c.34-.21.74-.31 1.14-.31h12.79l-16.28 10.63-4.23-1.31 20.51 13.37zm64.34-22.7h-14.28v22.7h11.71V14.55l8.74 8.48h7.42l7.73-8.48v16.6h11.71V8.44h-14.28l-8.37 7.92 3.05 3.95-13.42-11.87z"/></g></svg>