<?xml version="1.0" encoding="UTF-8" standalone="no"?>
<!-- Created with Inkscape (http://www.inkscape.org/) -->

<svg
   xmlns:dc="http://purl.org/dc/elements/1.1/"
   xmlns:cc="http://creativecommons.org/ns#"
   xmlns:rdf="http://www.w3.org/1999/02/22-rdf-syntax-ns#"
   xmlns:svg="http://www.w3.org/2000/svg"
   xmlns="http://www.w3.org/2000/svg"
   xmlns:sodipodi="http://sodipodi.sourceforge.net/DTD/sodipodi-0.dtd"
   xmlns:inkscape="http://www.inkscape.org/namespaces/inkscape"
   width="252"
   height="118.72459"
   viewBox="0 0 66.675001 31.412545"
   version="1.1"
   id="svg101"
   inkscape:version="0.92.0 r15299"
   sodipodi:docname="levc.svg">
  <defs
     id="defs95" />
  <sodipodi:namedview
     id="base"
     pagecolor="#ffffff"
     bordercolor="#666666"
     borderopacity="1.0"
     inkscape:pageopacity="0.0"
     inkscape:pageshadow="2"
     inkscape:zoom="3.588"
     inkscape:cx="125"
     inkscape:cy="58.362291"
     inkscape:document-units="mm"
     inkscape:current-layer="layer1"
     showgrid="false"
     fit-margin-top="0"
     fit-margin-left="0"
     fit-margin-right="0"
     fit-margin-bottom="0"
     units="px"
     inkscape:window-width="1280"
     inkscape:window-height="744"
     inkscape:window-x="-4"
     inkscape:window-y="-4"
     inkscape:window-maximized="1" />
  <metadata
     id="metadata98">
    <rdf:RDF>
      <cc:Work
         rdf:about="">
        <dc:format>image/svg+xml</dc:format>
        <dc:type
           rdf:resource="http://purl.org/dc/dcmitype/StillImage" />
        <dc:title></dc:title>
      </cc:Work>
    </rdf:RDF>
  </metadata>
  <g
     inkscape:label="Layer 1"
     inkscape:groupmode="layer"
     id="layer1"
     transform="translate(77.166519,-159.24263)">
    <g
       id="g179"
       transform="matrix(0.37689996,0,0,0.37689996,-47.817878,118.53266)"
       style="stroke-width:2.65322399">
      <path
         style="stroke-width:0.70199883"
         id="path60"
         d="m 24.420516,149.67741 c 0,0 -2.005542,8.48387 -1.217083,18.37796 0.817033,10.25789 4.787106,16.22213 4.787106,16.22213 6.802966,-5.35887 11.197166,-13.79458 11.197166,-23.2664 0,-10.96116 -5.807604,-20.82271 -15.204016,-25.91673 0,0 -0.465138,2.2688 -1.586177,4.29472 l 2.023268,10.28806 z m -42.210831,11.33396 c 0,9.53823 4.456906,18.02421 11.3411,23.37699 0,0 3.8465124,-6.74423 4.6196249,-16.33273 0.8088313,-10.01051 -1.216025,-18.37743 -1.216025,-18.37743 l 2.022475,-10.28805 c -1.089025,-1.95871 -1.5848541,-4.2844 -1.5848541,-4.2844 -9.3810668,5.09481 -15.1825848,14.95478 -15.1825848,25.90535 z m 4.932363,21.89162 -4.824413,2.71463 c 2.753519,0.1905 8.2883375,1.51606 13.0042708,3.80735 -3.556,-1.9558 -6.5386478,-4.64344 -8.1798578,-6.52198 z m -2.123017,-0.77205 0.983456,-0.55404 c -0.966787,-1.21788 -1.760802,-2.29394 -2.547144,-3.63458 l -8.511645,2.29023 c 1.933575,1.42081 5.912114,3.65654 10.075333,1.89839 z m -5.204354,-4.9919 2.764896,-0.74612 c -0.694002,-1.34144 -1.296459,-2.608 -1.805517,-4.04098 l -13.038667,1.59358 c 1.675607,1.77615 5.650177,4.84452 12.079023,3.19352 z M -50.73676,139.89629 c 0.836612,2.25955 3.570023,7.38876 11.122289,7.38876 h 15.949877 c -0.398198,-3.18982 -0.0087,-5.93355 0.289454,-7.38876 z m 13.865225,16.49069 h 15.96681 c 0.04868,-0.30321 0.124354,-0.74665 0.178594,-1.05992 -1.337998,-1.80631 -2.29579,-4.56936 -2.651919,-6.32936 h -24.614981 c 0.837935,2.25954 3.571875,7.38901 11.121231,7.38901 z m 4.877593,8.04333 10.911417,-0.32358 c -0.166688,-1.78118 -0.216959,-3.98886 -0.01138,-6.0071 h -23.014781 c 1.246981,2.16085 4.705085,6.54579 12.114477,6.33068 z m 5.480579,7.08528 6.723856,-0.81968 c -0.479689,-1.61131 -0.855662,-3.19246 -1.092729,-4.88421 -1.582208,0.0476 -17.78582,0.52917 -17.78582,0.52917 1.427162,2.0611 5.127625,6.00154 12.154429,5.17472 z m -20.094045,-24.23028 c -3.864504,-2.1889 -5.42925,-5.87639 -5.927461,-7.38875 h -22.59277 c 1.068387,2.3114 4.210579,7.38849 11.198225,7.38849 h 17.32227 z m -0.113771,9.10167 h 2.858029 c -3.862917,-2.1889 -5.429779,-5.87693 -5.92746,-7.38928 h -21.594498 c 1.445683,2.36881 5.259387,7.38928 11.602508,7.38928 z m 7.319169,8.26241 c -4.023784,-1.94654 -5.984875,-5.24563 -6.630988,-6.54976 h -19.537098 c 1.583796,2.29314 5.617105,6.95907 12.205759,6.95907 0.07726,0 13.962856,-0.40931 13.962856,-0.40931 z m -1.41314,8.61245 7.188729,-0.87789 c -4.099719,-1.59808 -6.291262,-4.75271 -7.018073,-5.98355 l -17.237604,0.51197 c 2.364317,2.45057 8.321146,7.40039 17.066948,6.35 z m 10.582804,6.59236 3.357562,-0.90805 c -4.099189,-0.99113 -6.573837,-3.68776 -7.417593,-4.75456 l -12.581467,1.53722 c 2.869936,2.12329 9.451975,6.07404 16.641498,4.12539 z m 11.001375,4.6011 c -3.823758,-0.37306 -6.850063,-2.75801 -7.880085,-3.66898 l -2.674144,0.72099 c -7.94e-4,0.001 -4.704292,1.27186 -4.704292,1.27186 3.179234,1.51976 9.808633,4.02166 15.258521,1.67613 z m 53.258508,-1.55231 c -1.641475,1.87854 -4.624123,4.56618 -8.180388,6.52145 4.716198,-2.2905 10.250488,-3.61685 13.004271,-3.80682 z m 12.198614,-2.67044 -8.511646,-2.29023 c -0.7874,1.34091 -1.58115,2.4175 -2.547937,3.63484 l 0.98425,0.55404 c 4.162954,1.75789 8.1407,-0.47757 10.075333,-1.89865 z m 7.208044,-6.28703 -13.038667,-1.59358 c -0.508794,1.43298 -1.111779,2.69875 -1.805516,4.04018 l 2.764366,0.74692 c 6.429904,1.651 10.403417,-1.41737 12.079552,-3.19352 z M 71.90608,139.89629 H 44.544724 c 0.298185,1.45521 0.687917,4.19894 0.289454,7.38876 h 15.949083 c 7.552796,0 10.285677,-5.12921 11.123083,-7.38876 z m -2.743994,9.10141 H 44.547899 c -0.357188,1.75948 -1.314979,4.52331 -2.652183,6.32883 0.0545,0.3138 0.130175,0.75724 0.178858,1.06018 h 15.967604 c 7.548562,0 10.282237,-5.12947 11.119908,-7.38901 z m -3.883289,9.10246 H 42.263486 c 0.151871,1.30757 0.177271,4.55136 -0.01138,6.0071 l 10.911417,0.32279 c 7.409921,0.2151 10.86776,-4.16984 12.115271,-6.33016 z m -5.441157,8.24124 c 0,0 -16.204406,-0.48154 -17.78582,-0.52917 -0.237331,1.69148 -0.61304,3.2729 -1.092729,4.88421 l 6.723062,0.81941 c 7.027333,0.82656 10.72806,-3.11414 12.155487,-5.17445 z m 7.939617,-19.05609 h 17.321741 c 6.987646,0 10.129573,-5.07735 11.197167,-7.38875 H 73.703394 c -0.497416,1.51209 -2.061104,5.19959 -5.925872,7.38849 z m -2.744787,9.10167 h 15.91892 c 6.343385,0 10.156825,-5.02047 11.602508,-7.38928 H 70.960194 c -0.497945,1.51235 -2.06375,5.20038 -5.927724,7.38928 z m -4.461669,8.26241 c 0,0 13.885862,0.40931 13.963914,0.40931 6.588125,0 10.620904,-4.66593 12.205229,-6.95907 H 67.202053 c -0.645584,1.30439 -2.607204,4.60322 -6.631252,6.54976 z m -5.775061,7.7343 7.18873,0.87788 c 8.747124,1.05119 14.702366,-3.8989 17.067212,-6.35052 l -17.237604,-0.51144 c -0.727604,1.2319 -2.918883,4.38679 -7.018338,5.98434 z m -6.751108,6.56246 3.357563,0.90858 c 7.189523,1.94812 13.770768,-2.00184 16.640968,-4.12592 l -12.58226,-1.53722 c -0.843227,1.06759 -3.317875,3.76343 -7.416271,4.75456 z m -7.643812,5.50915 c 5.449623,2.34553 12.078229,-0.15663 15.257991,-1.67693 l -7.379229,-1.99231 c -1.029229,0.91149 -4.054475,3.29618 -7.878762,3.66924 z M 22.014924,151.06753 c -2.120371,1.0168 -5.666846,3.7592 -6.789208,10.92888 -1.100667,7.02998 -0.170392,13.0638 0.910167,16.2851 -0.07937,-2.8866 0.100541,-7.48188 0.98425,-11.50408 1.535112,-6.97071 3.751262,-12.8905 4.894791,-15.7099 z"
         inkscape:connector-curvature="0" />
      <path
         style="stroke-width:0.70199883"
         id="path62"
         d="m 18.717422,189.12255 c 2.797175,-0.84349 5.417344,-2.1201 7.787481,-3.751 0,0 -4.290483,-7.03633 -5.008033,-17.17992 -0.289719,-4.09258 -0.207698,-7.85918 0.05636,-10.93047 -0.933185,2.77866 -1.944687,6.17802 -2.760398,9.88431 -1.911085,8.69553 -0.351102,15.95702 -0.33602,16.02951 l 0.260614,5.94784 z M 6.1452161,161.99588 c -1.1223625,-7.16968 -4.6698958,-9.91182 -6.79000202,-10.92861 1.14379374,2.81834 3.36020832,8.73813 4.89479162,15.70884 0.8837083,4.02246 1.063625,8.61748 0.98425,11.50461 1.0805583,-3.21998 2.0108333,-9.25407 0.9109604,-16.2851 z M 0.09869324,148.83365 c 3.72268746,0.0185 11.19981276,-0.14393 14.88016676,-1.61316 2.868877,-1.14565 3.766079,-2.11217 3.427941,-5.57213 -0.357187,-3.64939 -3.540125,-7.14427 -4.371975,-8.00179 -0.726016,-0.0762 -2.580216,-0.26194 -3.351741,-0.26194 -0.530754,0 -1.5729481,0.0879 -2.4071794,0.16775 0.3394605,1.16813 0.3857625,3.16124 -1.0572749,6.28571 -1.7057688,3.69226 -5.0620083,7.1157 -7.11993746,8.99583 z"
         inkscape:connector-curvature="0" />
      <path
         style="stroke-width:0.70199883"
         id="path64"
         d="m -0.84322341,130.84543 c -0.0291042,0.0574 -0.0740833,0.17198 -0.12805834,0.39423 -0.87312495,3.57187 1.75286457,7.85018 1.75286457,7.85018 l -1.62718748,8.2767 c 1.96849996,-1.82827 4.99797906,-4.97417 6.50980826,-8.24706 1.5187083,-3.28877 1.095375,-4.89056 0.8249708,-5.44777 -1.1895666,-0.0651 -4.383352,-0.45244 -6.9611874,-2.62097 -0.15610417,-0.13123 -0.31406041,-0.30347 -0.37121041,-0.20558 z M 2.577839,167.14494 c -0.8141229,-3.69888 -1.8229791,-7.09163 -2.75510617,-9.86737 0.26273124,3.06863 0.33337499,6.82889 0.0555625,10.91459 -0.65246249,9.58585 -4.91331243,17.22834 -4.91331243,17.22834 2.3373291,1.59676 4.91489993,2.84956 7.6649791,3.68618 l 0.2831041,-5.93196 c 0.015875,-0.0722 1.5758583,-7.33319 -0.3352271,-16.02978 z"
         inkscape:connector-curvature="0" />
      <path
         id="path167"
         d="m 16.769295,184.37778 c -0.03519,-0.16801 -0.115887,-0.57415 -0.207962,-1.17819 -0.852488,-1.23137 -4.994011,-8.89979 -3.027363,-21.46829 1.475581,-9.42631 6.905625,-12.04436 9.011708,-12.71323 l -1.952095,-9.92876 c 0,0 2.602441,-4.1222 1.754187,-7.84807 -0.05159,-0.22489 -0.09975,-0.33866 -0.129646,-0.39687 -0.06165,-0.10848 -0.214841,0.0751 -0.372269,0.20717 -1.881981,1.58406 -4.095749,2.21588 -5.615516,2.46697 1.403879,1.65815 3.560762,4.68842 3.881437,7.96237 0.440002,4.50057 -1.169458,5.99943 -4.496858,7.32896 -3.459162,1.38113 -9.7102082,1.69175 -13.8086039,1.73567 2.3349478,1.6801 5.0524832,4.93315 6.0317061,11.18473 1.9671771,12.56956 -2.1754041,20.23718 -3.0278916,21.46935 -0.092604,0.60325 -0.1725083,1.01018 -0.2079625,1.1774 l -0.1164167,4.10368 c 3.3729083,2.96228 9.2096166,2.83475 12.4018146,0.003 l -0.118004,-4.10554 z"
         style="stroke-width:0.70199883"
         inkscape:connector-curvature="0" />
      <path
         id="path165"
         d="m -67.951345,138.18074 h 46.805849 c 0,0 -2.67044,7.15433 0.932656,14.71824 2.008981,-7.67557 6.424083,-13.98588 12.7939271,-18.52983 -0.1468438,-0.56833 -0.5704417,-1.62057 -1.7772062,-2.51936 -1.3996459,-1.04193 -3.7877749,-1.05728 -3.8115879,-1.05728 h -64.158811 c 1.002241,2.29553 3.824023,7.35886 9.214643,7.38823 z"
         style="stroke-width:0.70199883"
         inkscape:connector-curvature="0" />
      <path
         id="path163"
         d="M 98.333192,130.79251 H 34.17438 c -0.02381,0 -2.411941,0.0154 -3.811587,1.05728 -1.2065,0.89879 -1.629304,1.9513 -1.776148,2.51936 6.369579,4.54395 10.784416,10.854 12.793398,18.52983 3.610504,-7.38532 0.932921,-14.71824 0.932921,-14.71824 h 46.805584 c 5.390357,-0.0291 8.212667,-5.0927 9.214644,-7.38823 z"
         style="stroke-width:0.70199883"
         inkscape:connector-curvature="0" />
      <path
         id="path161"
         d="m -7.6459254,118.00255 h -5.6689626 v -9.2247 h -2.161646 v 11.11938 h 7.8306086"
         style="stroke-width:0.70199883"
         inkscape:connector-curvature="0" />
      <path
         id="path159"
         d="M 6.0885952,118.00255 H 0.52917032 v -2.89718 H 5.2117661 v -1.75419 H 0.52917032 v -2.67811 H 5.9478369 v -1.89522 h -7.5803124 v 11.11938 h 7.7210707"
         style="stroke-width:0.70199883"
         inkscape:connector-curvature="0" />
      <path
         id="path157"
         d="m 17.536851,119.89697 4.338373,-11.11912 H 19.60457 l -2.976562,8.40979 -3.006725,-8.40979 h -2.270919 l 4.369329,11.11938"
         style="stroke-width:0.70199883"
         inkscape:connector-curvature="0" />
      <path
         id="path155"
         d="m 28.194268,118.18247 c 0.475192,0.5379 1.041929,0.97367 1.699419,1.30757 0.657754,0.33443 1.38377,0.50112 2.17752,0.50112 0.448469,0 0.90805,-0.0574 1.377686,-0.17198 0.4699,-0.11509 0.91096,-0.28204 1.323446,-0.50165 0.41275,-0.21907 0.783166,-0.48763 1.111779,-0.80645 0.328877,-0.31829 0.581554,-0.68633 0.759354,-1.1041 l -1.769533,-1.01812 c -0.125148,0.30295 -0.2921,0.56092 -0.501386,0.77523 -0.208491,0.21431 -0.435504,0.38894 -0.681037,0.5244 -0.245534,0.13573 -0.503767,0.23495 -0.775229,0.29766 -0.271463,0.0624 -0.532607,0.0934 -0.783167,0.0934 -0.480219,0 -0.921279,-0.10425 -1.322917,-0.31353 -0.402696,-0.2085 -0.746918,-0.48525 -1.033727,-0.82974 -0.287337,-0.34475 -0.509323,-0.74401 -0.665956,-1.19856 -0.157427,-0.45376 -0.235479,-0.92604 -0.235479,-1.41684 0,-0.43868 0.06773,-0.87948 0.203729,-1.32345 0.13626,-0.44371 0.33655,-0.84032 0.60325,-1.19063 0.265906,-0.34925 0.600075,-0.63367 1.001712,-0.85301 0.402167,-0.21908 0.874978,-0.32888 1.417373,-0.32888 0.250561,0 0.506413,0.0291 0.767292,0.0863 0.260615,0.0574 0.511704,0.14869 0.751417,0.2741 0.239977,0.12515 0.464873,0.29475 0.673629,0.5088 0.208491,0.21431 0.386291,0.47757 0.532606,0.7911 l 1.659467,-1.14353 c -0.365654,-0.72019 -0.921279,-1.30439 -1.668198,-1.75366 -0.745596,-0.44899 -1.631156,-0.67336 -2.653771,-0.67336 -0.866775,0 -1.639358,0.16192 -2.318544,0.48525 -0.678127,0.32411 -1.252537,0.74691 -1.722437,1.26894 -0.469636,0.52228 -0.827617,1.11442 -1.072886,1.77747 -0.246062,0.66304 -0.368564,1.33403 -0.368564,2.01242 0,0.7104 0.133085,1.40705 0.399521,2.09074 0.267229,0.68447 0.637645,1.2954 1.112573,1.83303 z"
         style="stroke-width:0.70199883"
         inkscape:connector-curvature="0" />
    </g>
  </g>
</svg>
