<svg height="120" viewBox="0 0 66.268479 9.540159" width="833.333333" xmlns="http://www.w3.org/2000/svg" xmlns:xlink="http://www.w3.org/1999/xlink"><clipPath id="a"><path d="m31.179688 34.367188h34.820312v26.292968h-34.820312zm0 0"/></clipPath><clipPath id="b"><path d="m71 41h22v19.660156h-22zm0 0"/></clipPath><clipPath id="c"><path d="m94 41h20v19.660156h-20zm0 0"/></clipPath><clipPath id="d"><path d="m114 41h23v19.660156h-23zm0 0"/></clipPath><clipPath id="e"><path d="m139 41h23v19.660156h-23zm0 0"/></clipPath><clipPath id="f"><path d="m163 41h20v19.660156h-20zm0 0"/></clipPath><clipPath id="g"><path d="m184 41h17v19.660156h-17zm0 0"/></clipPath><clipPath id="h"><path d="m201 41h17.27734v19.660156h-17.27734zm0 0"/></clipPath><symbol id="i" overflow="visible"/><g transform="matrix(.35277779 0 0 .35277779 -10.86721 -11.991689)"><g clip-path="url(#a)"><path d="m37.976563 35.980469c-.519532-.171875-1.074219-.261719-1.648438-.261719-2.894531 0-5.242187 2.347656-5.242187 5.242188 0 2.886718 2.347656 5.238281 5.242187 5.238281.421875 0 .832031-.05469 1.230469-.144531l-2.121094 6.464843 2.59375.859375 1.921875-5.804687c2.269531 1.222656 1.75 1 4.179688 1.929687v10.710938h5.535156v-6.367188l-.117188-2.5625c.242188.06641.480469.136719.71875.199219l2.476563 8.730469h4.28125l2.011719-7.109375c.367187.03906.730468.07422 1.097656.109375l-.03516 1.257812v5.742188h5.535156v-18.789063c-10.035156 0-16.546875-1.800781-24.253906-7.058593l-2.453125 7.488281c-.375 1.078125-1.398438 1.859375-2.601563 1.859375-1.519531 0-2.757812-1.234375-2.757812-2.753906 0-1.523438 1.238281-2.761719 2.757812-2.761719.289063 0 .574219.04687.839844.132812zm0 0" fill="#a6a3a6"/></g><g clip-path="url(#b)"><path d="m71.015625 41.445313h8.230469l2.679687 11.039062h.05469l2.679687-11.039062h8.226563v18.769531h-5.464846v-12.039063h-.05469l-3.257813 12.039063h-4.3125l-3.257809-12.039063h-.05469v12.039063h-5.46875zm0 0" fill="#eb1923"/></g><g clip-path="url(#c)"><path d="m94.148438 60.214844h5.808593l.843749-2.683594h5.96875l.78516 2.683594h5.99609l-6.83594-18.769531h-5.65234zm7.914062-6.703125 1.8125-5.785156h.0508l1.6836 5.785156zm0 0" fill="#eb1923"/></g><g clip-path="url(#d)"><path d="m114.8125 41.445313h8.22656l2.6836 11.039062h.0469l2.68359-11.039062h8.22657v18.769531h-5.46875v-12.039063h-.0508l-3.25782 12.039063h-4.3125l-3.26171-12.039063h-.0508v12.039063h-5.46484zm0 0" fill="#eb1923"/></g><g clip-path="url(#e)"><path d="m139.625 41.445313h8.23047l2.67969 11.039062h.0508l2.68359-11.039062h8.22656v18.769531h-5.46875v-12.039063h-.0547l-3.25782 12.039063h-4.30859l-3.26172-12.039063h-.0508v12.039063h-5.46873zm0 0" fill="#eb1923"/></g><g clip-path="url(#f)"><path d="m163.38672 50.828125c0 5.730469 3.8125 9.832031 9.51562 9.832031 5.70703 0 9.51953-4.101562 9.51953-9.832031s-3.8125-9.828125-9.51953-9.828125c-5.70312 0-9.51562 4.097656-9.51562 9.828125m5.78515 0c0-4.179687 2.25782-5.148437 3.73047-5.148437 1.47266 0 3.73438.96875 3.73438 5.148437 0 4.179688-2.26172 5.152344-3.73438 5.152344-1.47265 0-3.73047-.972656-3.73047-5.152344" fill="#eb1923"/></g><g clip-path="url(#g)"><path d="m184.33984 41.445313h15.53516v4.8125h-9.75391v2.339843h8.85938v4.464844h-8.85938v2.339844h10.04297v4.8125h-15.82422zm0 0" fill="#eb1923"/></g><g clip-path="url(#h)"><path d="m207.23437 46.257813h-5.25781v-4.8125h16.30078v4.8125h-5.26172v13.957031h-5.78125zm0 0" fill="#eb1923"/></g><g fill="#211e1e"><use height="100%" width="100%" x="480.36359" xlink:href="#i" y="767.21448"/><use height="100%" width="100%" x="380.86139" xlink:href="#i" y="775.21552"/></g></g></svg>