<?xml version="1.0" encoding="utf-8"?>
<!-- Generator: Adobe Illustrator 14.0.0, SVG Export Plug-In . SVG Version: 6.00 Build 43363)  -->
<!DOCTYPE svg PUBLIC "-//W3C//DTD SVG 1.1//EN" "http://www.w3.org/Graphics/SVG/1.1/DTD/svg11.dtd">
<svg version="1.1" id="Layer_1" xmlns="http://www.w3.org/2000/svg" xmlns:xlink="http://www.w3.org/1999/xlink" x="0px" y="0px"
	 width="250px" height="68px" viewBox="0 0 250 68" enable-background="new 0 0 250 68" xml:space="preserve">
<g>
	<g>
		<path fill="#455560" d="M63.555,32.007c0.788-0.277,3.415-1.02,7.353-1.02c3.415,0,4.991,0.928,4.991,2.41
			c0,0.371-0.263,0.742-0.263,1.113h-1.313c-6.564,0-14.705,1.946-14.705,8.623c0,4.081,2.887,6.491,8.403,6.491
			c6.039,0,9.714-0.742,10.502-0.927c0-1.856,0.788-4.265,1.313-6.677c1.051-3.615,2.364-7.046,2.364-9.086
			c0-4.173-2.889-7.047-9.716-7.047c-3.152,0-6.827,0.742-7.615,0.835 M72.221,39.424h1.839c-0.263,0.558-1.051,4.08-1.313,4.451
			c-0.263,0-1.576,0.371-3.152,0.371c-2.099,0-2.625-1.113-2.625-1.947C66.97,40.631,68.021,39.424,72.221,39.424"/>
		<path fill="#455560" d="M106.358,37.848c0.26-1.205,1.048-3.523,1.048-5.007c0-3.708-3.15-6.954-10.239-6.954
			c-3.677,0-8.14,1.021-9.454,1.298c0,0.928-0.263,3.523-1.313,7.418c-0.263,1.297-4.463,14.555-4.463,14.555h7.09
			c0,0,4.988-16.039,5.251-16.873c0.525-0.187,1.05-0.556,2.626-0.556c2.362,0,3.149,1.205,3.149,2.503
			c0,1.019-0.262,2.131-0.788,3.523c-0.523,1.483-3.413,11.402-3.413,11.402h7.09"/>
		<polyline fill="#455560" points="113.973,26.444 107.406,49.158 114.496,49.158 121.325,26.444 		"/>
		<path fill="#455560" d="M139.179,26.444h-4.465l1.576-5.099h-7.09l-1.573,5.099h-3.678l-1.576,5.563h3.677
			c-0.525,1.762-5.251,17.151-5.251,17.151h7.09c0,0,4.726-16.132,5.248-17.151h4.466"/>
		<polyline fill="#455560" points="199.573,26.444 193.532,26.444 185.394,41.092 185.394,26.444 178.302,26.444 170.427,41.373 
			170.164,26.444 163.074,26.444 164.123,49.158 171.478,49.158 179.353,35.159 179.09,49.158 186.444,49.158 201.149,26.444 		"/>
		<path fill="#455560" d="M212.177,25.887c-8.139,0-14.18,7.232-14.18,14.371c0,5.749,3.94,9.366,9.979,9.366
			c8.402,0,14.179-7.325,14.179-14.465C222.155,29.875,218.48,25.887,212.177,25.887 M211.651,31.729
			c2.101,0,3.151,1.39,3.151,3.801c0,3.431-2.363,8.253-6.304,8.253c-1.836,0-3.149-1.3-3.149-3.71
			C205.35,36.364,207.977,31.729,211.651,31.729"/>
		<path fill="#455560" d="M150.731,25.887c-8.138,0-13.916,7.232-13.916,14.371c0,5.749,3.939,9.366,9.979,9.366
			c8.141,0,13.917-7.325,13.917-14.465C160.711,29.875,157.298,25.887,150.731,25.887 M150.206,31.729
			c2.102,0,3.152,1.39,3.152,3.801c0,3.431-2.627,8.253-6.302,8.253c-2.102,0-3.149-1.3-3.149-3.71
			C143.907,36.364,146.531,31.729,150.206,31.729"/>
		<path fill="#455560" d="M245,27.186c-0.525-0.185-2.89-1.298-6.564-1.298c-8.14,0-14.182,5.842-14.182,13.908
			c0,5.656,3.94,9.829,10.244,9.829c2.361,0,4.198-0.742,4.461-0.834l1.313-5.936c-0.263,0.095-1.837,0.929-3.676,0.929
			c-3.675,0-4.988-2.41-4.988-4.636c0-3.803,2.627-7.418,6.827-7.418c2.362,0,3.675,0.926,4.2,1.111"/>
		<path fill="#ED1C2E" d="M49.901,49.158l6.827-23.827h-0.263L43.075,49.158h-8.666l0.525-23.827h-0.263l-7.09,23.827h-9.191
			l8.928-30.41h14.967l-0.263,17.989l9.454-17.989h7.352C53.839,10.496,44.65,4.934,34.146,4.934C18.128,4.934,5,17.914,5,33.954
			c0,16.041,13.128,29.111,29.146,29.111c10.504,0,19.693-5.562,24.683-13.907"/>
	</g>
</g>
</svg>
