<?xml version="1.0" encoding="UTF-8" standalone="no"?>
<!-- Created with Inkscape (http://www.inkscape.org/) -->

<svg
   xmlns:osb="http://www.openswatchbook.org/uri/2009/osb"
   xmlns:dc="http://purl.org/dc/elements/1.1/"
   xmlns:cc="http://creativecommons.org/ns#"
   xmlns:rdf="http://www.w3.org/1999/02/22-rdf-syntax-ns#"
   xmlns:svg="http://www.w3.org/2000/svg"
   xmlns="http://www.w3.org/2000/svg"
   xmlns:sodipodi="http://sodipodi.sourceforge.net/DTD/sodipodi-0.dtd"
   xmlns:inkscape="http://www.inkscape.org/namespaces/inkscape"
   width="355"
   height="110"
   viewBox="0 0 355 109.99999"
   id="svg3395"
   version="1.1"
   inkscape:version="0.91 r"
   sodipodi:docname="melex-logo-isp.svg">
  <defs
     id="defs3397">
    <linearGradient
       id="linearGradient5728"
       osb:paint="solid">
      <stop
         style="stop-color:#000000;stop-opacity:0;"
         offset="0"
         id="stop5730" />
    </linearGradient>
    <linearGradient
       id="linearGradient5722"
       osb:paint="solid">
      <stop
         style="stop-color:#ffffda;stop-opacity:1;"
         offset="0"
         id="stop5724" />
    </linearGradient>
    <linearGradient
       id="linearGradient5672"
       osb:paint="solid">
      <stop
         style="stop-color:#000000;stop-opacity:1;"
         offset="0"
         id="stop5674" />
    </linearGradient>
  </defs>
  <sodipodi:namedview
     id="base"
     pagecolor="#ffffff"
     bordercolor="#666666"
     borderopacity="1.0"
     inkscape:pageopacity="0.0"
     inkscape:pageshadow="2"
     inkscape:zoom="2"
     inkscape:cx="147.70758"
     inkscape:cy="139.49472"
     inkscape:document-units="px"
     inkscape:current-layer="layer1"
     showgrid="false"
     inkscape:window-width="1535"
     inkscape:window-height="876"
     inkscape:window-x="65"
     inkscape:window-y="24"
     inkscape:window-maximized="1"
     units="px" />
  <metadata
     id="metadata3400">
    <rdf:RDF>
      <cc:Work
         rdf:about="">
        <dc:format>image/svg+xml</dc:format>
        <dc:type
           rdf:resource="http://purl.org/dc/dcmitype/StillImage" />
        <dc:title></dc:title>
      </cc:Work>
    </rdf:RDF>
  </metadata>
  <g
     inkscape:label="melex-logo"
     inkscape:groupmode="layer"
     id="layer1"
     transform="translate(0,-942.36253)">
    <path
       style="fill:#000000;fill-rule:evenodd;stroke:#000000;stroke-width:1px;stroke-linecap:butt;stroke-linejoin:miter;stroke-opacity:1"
       d="m 8.7536808,1036.9178 17.4687502,0 0,-41 10.90625,0 c 0,0 1.6875,-0.125 1.6875,1.6875 0,1.8125 0,39.2812 0,39.2812 l 17.96875,0 0,-40.9687 10.5625,0 c 0,0 1.79687,-0.21875 1.79687,1.79687 0,2.01563 0,39.23433 0,39.23433 l 17.51563,0 0,-51.90709 c 0,0 0.26516,-7.67894 -7.67894,-7.67894 -7.9441,0 -24.49482,0 -24.49482,0 l -34.80291,0 -11.1369402,0 0,59.56263 z"
       id="path3414"
       inkscape:connector-curvature="0" />
    <path
       style="fill:#000000;fill-opacity:1;fill-rule:evenodd;stroke:#000000;stroke-width:1px;stroke-linecap:butt;stroke-linejoin:miter;stroke-opacity:1"
       d="m 100.78883,977.45403 c -1.33758,-0.0459 -6.687494,0.19707 -6.687494,7.00781 l 0,13.26367 0,33.14649 c 0,0 -0.1086,6.1387 5.339844,6.1387 l 61.56249,0 0,-14.75 -48.6875,0 c 0,0 -3.02344,0.062 -3.02344,-3.0235 l 0,-3.8672 26.66602,0 24.99023,0 0,-30.9023 c 0,0 0.4214,-6.99414 -6.99219,-6.99414 l -16.87109,0 -35.99609,0 c 0,0 -0.1097,-0.013 -0.30078,-0.0195 z m 11.70312,14.88086 30.80274,0 c 0,0 3.26953,-0.17762 3.26953,3.26953 l 0,4.19922 -37.31055,0 0.0117,-0.35352 0,-3.89062 c 0,0 -0.44156,-3.22461 3.22656,-3.22461 z"
       id="path3416"
       inkscape:connector-curvature="0" />
    <path
       style="fill:#000000;fill-rule:evenodd;stroke:#000000;stroke-width:1px;stroke-linecap:butt;stroke-linejoin:miter;stroke-opacity:1"
       d="m 168.31617,956.19905 19.1875,0 0,64.68745 c 0,0 -0.1875,1.125 1.125,1.125 1.3125,0 7.3125,0 7.3125,0 l -6.4375,15.3125 -17.5625,0 c 0,0 -3.78125,0.125 -3.78125,-3.7812 0,-3.9063 0.15625,-77.34375 0.15625,-77.34375 z"
       id="path5734"
       inkscape:connector-curvature="0" />
    <path
       style="fill:#000000;fill-opacity:1;fill-rule:evenodd;stroke:#000000;stroke-width:1px;stroke-linecap:butt;stroke-linejoin:miter;stroke-opacity:1"
       d="m 207.8064,977.52629 c -1.33758,-0.0458 -6.6875,0.19708 -6.6875,7.00782 l 0,13.26367 0,33.14452 c 0,0 -0.10859,6.1406 5.33985,6.1406 l 61.5625,0 0,-14.75 -48.6875,0 c 0,0 -3.02344,0.062 -3.02344,-3.0234 l 0,-3.8672 26.66602,0 24.99218,0 0,-30.90234 c 0,0 0.41944,-6.99414 -6.99414,-6.99414 l -16.87109,0 -35.99609,0 c 0,0 -0.1097,-0.013 -0.30079,-0.0195 z m 11.70313,14.87891 30.80273,0 c 0,0 3.27149,-0.17567 3.27149,3.27148 l 0,4.19727 -37.31055,0 0.01,-0.35352 0,-3.88867 c 0,0 -0.44156,-3.22656 3.22656,-3.22656 z"
       id="path3416-5"
       inkscape:connector-curvature="0" />
    <path
       style="fill:#000000;fill-rule:evenodd;stroke:#000000;stroke-width:1px;stroke-linecap:butt;stroke-linejoin:miter;stroke-opacity:1"
       d="m 272.20875,1036.9701 22.14129,0 15.02602,-16.838 14.62827,16.9705 22.31805,0 -25.50003,-29.9194 25.85359,-29.91946 -22.36225,0 -14.93763,17.19153 -15.07022,-17.32412 -22.45064,0 26.29553,30.14045 -26.03036,29.4775 z"
       id="path5761"
       inkscape:connector-curvature="0" />
  </g>
</svg>
