<?xml version="1.0" encoding="UTF-8" standalone="no"?>
<!-- Created with Inkscape (http://www.inkscape.org/) -->

<svg
   xmlns:dc="http://purl.org/dc/elements/1.1/"
   xmlns:cc="http://creativecommons.org/ns#"
   xmlns:rdf="http://www.w3.org/1999/02/22-rdf-syntax-ns#"
   xmlns:svg="http://www.w3.org/2000/svg"
   xmlns="http://www.w3.org/2000/svg"
   xmlns:sodipodi="http://sodipodi.sourceforge.net/DTD/sodipodi-0.dtd"
   xmlns:inkscape="http://www.inkscape.org/namespaces/inkscape"
   width="288"
   height="346"
   id="svg3295"
   version="1.1"
   inkscape:version="0.48.4 r9939"
   sodipodi:docname="Mladost_Luani.svg">
  <defs
     id="defs3297">
    <clipPath
       id="clipPath5208"
       clipPathUnits="userSpaceOnUse">
      <path
         id="path5210"
         d="m 259.02,672 93.96,0 0,90 -93.96,0 0,-90 z"
         inkscape:connector-curvature="0" />
    </clipPath>
    <clipPath
       id="clipPath5168"
       clipPathUnits="userSpaceOnUse">
      <path
         id="path5170"
         d="m 303.707,751.075 c -0.385,-0.477 -0.979,-0.703 -1.773,-0.457 l 0,0 c -0.83,0.256 -1.84,0.797 -2.425,1.19 l 0,0 c 0.492,-2.044 1.17,-4.564 1.716,-6.735 l 0,0 c 0.134,-0.535 0.356,-1.196 -0.179,-1.328 l 0,0 c -0.64,-0.161 -1.18,0.409 -1.479,0.687 l 0,0 c -1.062,0.992 -2.134,2.125 -3.193,2.887 l 0,0 c -0.066,-0.399 -0.298,-0.868 -0.532,-1.239 l 0,0 c -0.19,-0.299 -0.545,-0.668 -1.006,-0.731 l 0,0 c -0.611,-0.086 -1.63,0.116 -2.484,0.227 l 0,0 c -0.847,0.113 -1.661,0.272 -2.307,0.322 l 0,0 c 0.368,-0.86 0.833,-2.091 1.243,-3.115 l 0,0 c 0.156,-0.395 0.391,-0.77 0.355,-1.054 l 0,0 c -0.116,-0.876 -1.544,-1.096 -2.425,-1.239 l 0,0 c 0.121,-0.073 0.244,-0.146 0.366,-0.218 l 0,0 c 4.347,1.13 9.975,2.091 16.548,2.092 l 0,0 c 6.575,-10e-4 12.203,-0.962 16.549,-2.092 l 0,0 c 0.123,0.072 0.245,0.145 0.368,0.218 l 0,0 c -0.883,0.143 -2.312,0.363 -2.427,1.239 l 0,0 c -0.037,0.284 0.199,0.659 0.355,1.054 l 0,0 c 0.409,1.024 0.875,2.255 1.243,3.115 l 0,0 c -0.645,-0.05 -1.46,-0.209 -2.307,-0.322 l 0,0 c -0.853,-0.111 -1.874,-0.313 -2.485,-0.227 l 0,0 c -0.461,0.063 -0.815,0.432 -1.003,0.731 l 0,0 c -0.236,0.371 -0.467,0.84 -0.535,1.239 l 0,0 c -1.058,-0.762 -2.13,-1.895 -3.192,-2.887 l 0,0 c -0.299,-0.278 -0.839,-0.848 -1.48,-0.687 l 0,0 c -0.534,0.132 -0.312,0.793 -0.177,1.328 l 0,0 c 0.545,2.171 1.222,4.691 1.714,6.735 l 0,0 c -0.584,-0.393 -1.594,-0.934 -2.424,-1.19 l 0,0 c -0.795,-0.246 -1.389,-0.02 -1.773,0.457 l 0,0 c -0.22,0.274 -1.912,3.664 -2.426,4.491 l 0,0 c -0.515,-0.827 -2.204,-4.217 -2.425,-4.491"
         inkscape:connector-curvature="0" />
    </clipPath>
    <clipPath
       id="clipPath5156"
       clipPathUnits="userSpaceOnUse">
      <path
         id="path5158"
         d="m 283.242,759.362 0,-21.128 c 4.31,1.679 12.394,4.129 22.89,4.13 l 0,0 c 10.406,-10e-4 18.44,-2.407 22.776,-4.086 l 0,0 0,21.084 -45.666,0 z"
         inkscape:connector-curvature="0" />
    </clipPath>
    <clipPath
       id="clipPath5144"
       clipPathUnits="userSpaceOnUse">
      <path
         id="path5146"
         d="m 259.02,672 93.96,0 0,90 -93.96,0 0,-90 z"
         inkscape:connector-curvature="0" />
    </clipPath>
    <clipPath
       id="clipPath4074"
       clipPathUnits="userSpaceOnUse">
      <path
         id="path4076"
         d="M 0,0 792,0 792,612 0,612 0,0 z"
         inkscape:connector-curvature="0" />
    </clipPath>
    <clipPath
       id="clipPath4070"
       clipPathUnits="userSpaceOnUse">
      <path
         id="path4072"
         d="M 0,0 792,0 792,612 0,612 0,0 z"
         inkscape:connector-curvature="0" />
    </clipPath>
    <clipPath
       id="clipPath4066"
       clipPathUnits="userSpaceOnUse">
      <path
         id="path4068"
         d="m 332.598,243.597 c -2.835,-5.629 -1.151,-9.057 -1.151,-9.057 l 0,0 c 6.56,-9.318 17.462,-1.405 17.462,-1.405 l 0,0 83.893,0 c 0,0 10.903,-7.913 17.462,1.405 l 0,0 c 0,0 1.684,3.428 -1.15,9.057 l 0,0 -58.275,101.993 -58.241,-101.993 z"
         inkscape:connector-curvature="0" />
    </clipPath>
    <clipPath
       id="clipPath4062"
       clipPathUnits="userSpaceOnUse">
      <path
         id="path4064"
         d="M 0,0 792,0 792,612 0,612 0,0 z"
         inkscape:connector-curvature="0" />
    </clipPath>
    <clipPath
       id="clipPath4058"
       clipPathUnits="userSpaceOnUse">
      <path
         id="path4060"
         d="M 0,0 792,0 792,612 0,612 0,0 z"
         inkscape:connector-curvature="0" />
    </clipPath>
    <clipPath
       id="clipPath4054"
       clipPathUnits="userSpaceOnUse">
      <path
         id="path4056"
         d="m 453.785,320.137 -124.878,0 c -0.76,0 -1.615,-0.151 -2.566,-0.454 l 0,0 c -0.949,-0.306 -1.73,-0.683 -2.335,-1.142 l 0,0 -6.155,-5.362 c -0.607,-0.381 -1.122,-1.008 -1.536,-1.883 l 0,0 c -0.42,-0.873 -0.629,-1.691 -0.629,-2.448 l 0,0 0,-7.189 c 0,-0.765 0.209,-1.562 0.629,-2.396 l 0,0 c 0.414,-0.837 0.929,-1.484 1.536,-1.94 l 0,0 6.155,-5.359 c 0.605,-0.382 1.386,-0.743 2.335,-1.083 l 0,0 c 0.951,-0.347 1.806,-0.518 2.566,-0.518 l 0,0 7.975,0 9.996,0 113.197,12.587 c 0,0 12.042,4.874 5.136,14.271 l 0,0 c 0,0 -2.74,2.916 -11.39,2.916 l 0,0 c -0.012,0 -0.023,0 -0.036,0"
         inkscape:connector-curvature="0" />
    </clipPath>
    <clipPath
       id="clipPath4050"
       clipPathUnits="userSpaceOnUse">
      <path
         id="path4052"
         d="M 0,0 792,0 792,612 0,612 0,0 z"
         inkscape:connector-curvature="0" />
    </clipPath>
    <clipPath
       id="clipPath4046"
       clipPathUnits="userSpaceOnUse">
      <path
         id="path4048"
         d="m 444.482,289.331 -11.643,0 -111.55,-12.586 c 0,0 -12.046,-4.875 -5.136,-14.272 l 0,0 c 0,0 2.747,-2.929 11.424,-2.919 l 0,0 124.879,0 c 0.758,0 1.611,0.152 2.561,0.458 l 0,0 c 0.953,0.306 1.733,0.683 2.34,1.141 l 0,0 6.151,5.361 c 0.611,0.384 1.122,1.007 1.539,1.881 l 0,0 c 0.421,0.878 0.629,1.694 0.629,2.455 l 0,0 0,7.185 c 0,0.765 -0.208,1.561 -0.629,2.399 l 0,0 c -0.417,0.837 -0.928,1.481 -1.539,1.938 l 0,0 -6.151,5.362 c -0.607,0.381 -1.387,0.739 -2.34,1.082 l 0,0 c -0.95,0.342 -1.803,0.515 -2.561,0.515 l 0,0 -7.974,0 z"
         inkscape:connector-curvature="0" />
    </clipPath>
    <clipPath
       id="clipPath4042"
       clipPathUnits="userSpaceOnUse">
      <path
         id="path4044"
         d="M 0,0 792,0 792,612 0,612 0,0 z"
         inkscape:connector-curvature="0" />
    </clipPath>
    <clipPath
       id="clipPath4038"
       clipPathUnits="userSpaceOnUse">
      <path
         id="path4040"
         d="M 0,0 792,0 792,612 0,612 0,0 z"
         inkscape:connector-curvature="0" />
    </clipPath>
    <clipPath
       id="clipPath4034"
       clipPathUnits="userSpaceOnUse">
      <path
         id="path4036"
         d="m 253.717,286.27 c 0,-75.678 61.345,-137.026 137.024,-137.026 l 0,0 c 75.675,0 137.023,61.348 137.023,137.026 l 0,0 c 0,75.675 -61.348,137.021 -137.023,137.021 l 0,0 c -75.679,0 -137.024,-61.346 -137.024,-137.021"
         inkscape:connector-curvature="0" />
    </clipPath>
    <clipPath
       clipPathUnits="userSpaceOnUse"
       id="clipPath2999">
      <path
         inkscape:connector-curvature="0"
         d="m 461.9,268.95 150.1,0 0,523.05 -150.1,0 0,-523.05 z"
         id="path3001" />
    </clipPath>
    <clipPath
       clipPathUnits="userSpaceOnUse"
       id="clipPath3013">
      <path
         inkscape:connector-curvature="0"
         d="m 539.04,45.84 39.96,0 0,47.924 -39.96,0 0,-47.924 z"
         id="path3015" />
    </clipPath>
    <clipPath
       clipPathUnits="userSpaceOnUse"
       id="clipPath3027">
      <path
         inkscape:connector-curvature="0"
         d="m 539.041,45.84 39.959,0 0,47.924 -39.959,0 0,-47.924 z"
         id="path3029" />
    </clipPath>
  </defs>
  <sodipodi:namedview
     id="base"
     pagecolor="#ffffff"
     bordercolor="#666666"
     borderopacity="1.0"
     inkscape:pageopacity="0.0"
     inkscape:pageshadow="2"
     inkscape:zoom="1.4"
     inkscape:cx="387.29938"
     inkscape:cy="48.486778"
     inkscape:document-units="px"
     inkscape:current-layer="g3613"
     showgrid="false"
     inkscape:window-width="1513"
     inkscape:window-height="1069"
     inkscape:window-x="28"
     inkscape:window-y="46"
     inkscape:window-maximized="0" />
  <metadata
     id="metadata3300">
    <rdf:RDF>
      <cc:Work
         rdf:about="">
        <dc:format>image/svg+xml</dc:format>
        <dc:type
           rdf:resource="http://purl.org/dc/dcmitype/StillImage" />
        <dc:title></dc:title>
      </cc:Work>
    </rdf:RDF>
  </metadata>
  <g
     inkscape:label="Layer 1"
     inkscape:groupmode="layer"
     id="layer1"
     transform="translate(0,-706.36218)">
    <g
       id="g3613"
       transform="matrix(0.97277831,0,0,0.97277831,5.682844,741.90593)">
      <g
         id="g3211"
         transform="matrix(0.75816933,0,0,0.75816933,-9.9754711,-40.531505)">
	<polygon
   id="polygon3213"
   points="372.57,473.329 389.735,409.263 358.188,409.263 341.021,473.329 372.57,473.329 "
   clip-rule="evenodd"
   style="fill:#00498f;fill-rule:evenodd" />

	<path
   id="path3215"
   d="m 190.38,446.03 h -16.684 l 12.706,-16.286 3.978,16.286 0,0 0,0 z m 18.799,-36.767 H 173.64 l -56.275,64.805 h 34.289 l 8.909,-11.496 h 34.066 l 2.619,11.496 h 33.33 l -21.399,-64.805 0,0 z"
   clip-rule="evenodd"
   inkscape:connector-curvature="0"
   style="fill:#00498f;fill-rule:evenodd" />

	<path
   id="path3217"
   d="m 277.493,448.542 h 19.644 c 6.416,0 8.136,1.59 8.511,2.08 0.231,0.311 0.478,0.799 0.208,1.813 -1.093,4.075 -7.257,4.929 -12.234,4.929 H 275.13 l 2.363,-8.822 0,0 0,0 z m 6.094,-22.749 h 14.291 c 7.608,0 9.363,1.23 9.768,1.745 0.085,0.109 0.272,0.361 0.062,1.158 -0.888,3.331 -7.479,4.021 -12.841,4.021 h -13.131 l 1.851,-6.924 0,0 z m 54.328,1.213 c 0.82,-3.077 0.46,-6.065 -1.061,-8.649 -2.004,-3.434 -5.886,-5.968 -11.218,-7.333 -4.752,-1.171 -13.119,-1.761 -24.885,-1.761 h -43.046 l -17.37,64.802 h 50.224 c 26.291,0 42.645,-6.981 46.037,-19.663 0.94,-3.499 0.375,-6.789 -1.632,-9.519 -1.901,-2.587 -5.063,-4.564 -9.22,-5.834 6.414,-2.608 10.768,-6.823 12.171,-12.043 l 0,0 z"
   clip-rule="evenodd"
   inkscape:connector-curvature="0"
   style="fill:#00498f;fill-rule:evenodd" />

	<polygon
   id="polygon3219"
   points="10.418,473.481 40.596,473.481 40.596,473.481 51.214,433.849 67.429,473.481 108.165,473.481 125.378,409.263 95.199,409.263 84.753,448.245 67.796,409.263 27.627,409.263 "
   clip-rule="evenodd"
   style="fill:#00498f;fill-rule:evenodd" />

	<polygon
   id="polygon3221"
   points="259.842,116.766 248.322,127.377 237.705,138.288 226.61,150.888 216.931,163.128 206.393,177.888 197.005,192.648 188.312,207.768 179.506,225.048 171.876,241.967 165.012,259.248 158.573,277.966 153.169,296.329 148.188,316.488 144.154,337.009 141.238,356.447 139.131,375.889 138.523,384.226 139.243,384.53 310.435,384.889 310.965,385.257 389.442,385.248 390.163,385.226 390.163,385.226 390.62,384.889 390.69,150.888 390.389,135.048 389.727,124.248 388.546,110.567 386.372,95.808 383.853,84.648 380.973,75.288 377.357,66.288 374.756,61.247 371.782,61.607 359.202,64.161 347.182,67.368 334.273,71.688 321.166,77.088 309.251,82.848 298.206,88.968 285.644,96.888 272.803,106.125 "
   clip-rule="evenodd"
   style="fill:#007161;fill-rule:evenodd" />

	<polygon
   id="polygon3223"
   points="247.209,90.408 262.722,83.937 279.576,77.808 295.927,72.768 310.965,68.863 326.765,65.567 342.283,63.09 358.484,61.348 373.965,60.517 374.176,60.167 374.035,59.808 370.004,53.37 365.035,46.848 359.275,40.729 352.112,34.608 344.762,29.567 336.345,24.888 327.474,20.928 317.448,17.328 305.929,14.088 294.166,11.568 277.484,8.95 259.854,7.247 238.25,6.167 185.323,5.986 9.644,5.986 9.462,6.888 10.412,379.488 10.723,379.849 13.052,368.688 13.052,368.688 17.051,352.849 22.195,335.928 28.282,319.009 35.325,302.089 42.993,285.888 51.369,270.048 59.684,255.842 70.009,239.808 81.255,223.966 93.523,208.311 107.563,192.082 121.78,177.167 136.363,163.245 150.964,150.528 165.871,138.648 182.083,126.944 197.721,116.688 213.764,107.184 230.683,98.188 "
   clip-rule="evenodd"
   style="fill:#00498f;fill-rule:evenodd" />

</g>
    </g>
  </g>
</svg>
