<?xml version="1.0" encoding="UTF-8" standalone="no"?>
<svg
   xmlns:dc="http://purl.org/dc/elements/1.1/"
   xmlns:cc="http://creativecommons.org/ns#"
   xmlns:rdf="http://www.w3.org/1999/02/22-rdf-syntax-ns#"
   xmlns:svg="http://www.w3.org/2000/svg"
   xmlns="http://www.w3.org/2000/svg"
   xmlns:sodipodi="http://sodipodi.sourceforge.net/DTD/sodipodi-0.dtd"
   xmlns:inkscape="http://www.inkscape.org/namespaces/inkscape"
   width="238.5052"
   height="79.505142"
   viewBox="0 0 63.104499 21.035736"
   version="1.1"
   id="svg246997"
   inkscape:version="1.0.1 (c497b03c, 2020-09-10)"
   sodipodi:docname="oshkosh.svg">
  <defs
     id="defs246991">
    <clipPath
       id="clip3-2">
      <path
         d="m 541,57 h 6 v 6.3125 h -6 z m 0,0"
         id="path247192" />
    </clipPath>
    <clipPath
       id="clip4-9">
      <path
         d="m 547,57 h 6 v 6.3125 h -6 z m 0,0"
         id="path247195" />
    </clipPath>
    <clipPath
       id="clip5-4">
      <path
         d="m 552,57 h 5 v 6.3125 h -5 z m 0,0"
         id="path247198" />
    </clipPath>
    <clipPath
       id="clip6-8">
      <path
         d="m 556,55 h 6 v 8.3125 h -6 z m 0,0"
         id="path247201" />
    </clipPath>
    <clipPath
       id="clip7-1">
      <path
         d="m 562,55 h 2 v 8.3125 h -2 z m 0,0"
         id="path247204" />
    </clipPath>
    <clipPath
       id="clip8-0">
      <path
         d="m 568,55 h 6 v 8.3125 h -6 z m 0,0"
         id="path247207" />
    </clipPath>
    <clipPath
       id="clip9-0">
      <path
         d="m 564,57 h 5 v 6.3125 h -5 z m 0,0"
         id="path247210" />
    </clipPath>
    <clipPath
       id="clip10-0">
      <path
         d="M 517.76562,57 H 523 v 6.3125 h -5.23438 z m 0,0"
         id="path247213" />
    </clipPath>
    <clipPath
       id="clip11-6">
      <path
         d="m 523,57 h 6 v 6.3125 h -6 z m 0,0"
         id="path247216" />
    </clipPath>
    <clipPath
       id="clip12-67">
      <path
         d="m 533,57 h 6 v 6.3125 h -6 z m 0,0"
         id="path247219" />
    </clipPath>
    <clipPath
       id="clip13-6">
      <path
         d="m 528,57 h 6 v 6.3125 h -6 z m 0,0"
         id="path247222" />
    </clipPath>
    <clipPath
       id="clip15-9">
      <path
         d="m 531,21.292969 h 10 V 31 h -10 z m 0,0"
         id="path247228" />
    </clipPath>
    <clipPath
       id="clip1-5">
      <path
         d="M 375.69531,49.3125 H 403 V 95 h -27.30469 z m 0,0"
         id="path248293" />
    </clipPath>
    <clipPath
       id="clip2-27">
      <path
         d="m 391,62 h 27 v 46.48828 h -27 z m 0,0"
         id="path248296" />
    </clipPath>
  </defs>
  <sodipodi:namedview
     id="base"
     pagecolor="#00ffff"
     bordercolor="#666666"
     borderopacity="1.0"
     inkscape:pageopacity="0"
     inkscape:pageshadow="2"
     inkscape:zoom="0.35"
     inkscape:cx="442.53979"
     inkscape:cy="79.694164"
     inkscape:document-units="px"
     inkscape:current-layer="layer1"
     inkscape:document-rotation="0"
     showgrid="false"
     units="px"
     lock-margins="true"
     fit-margin-top="0.5"
     fit-margin-left="0.5"
     fit-margin-right="0.5"
     fit-margin-bottom="0.5"
     inkscape:window-width="1440"
     inkscape:window-height="874"
     inkscape:window-x="0"
     inkscape:window-y="26"
     inkscape:window-maximized="0" />
  <metadata
     id="metadata246994">
    <rdf:RDF>
      <cc:Work
         rdf:about="">
        <dc:format>image/svg+xml</dc:format>
        <dc:type
           rdf:resource="http://purl.org/dc/dcmitype/StillImage" />
        <dc:title></dc:title>
      </cc:Work>
    </rdf:RDF>
  </metadata>
  <g
     inkscape:label="Layer 1"
     inkscape:groupmode="layer"
     id="layer1"
     transform="translate(11.255319,-127.08092)">
    <g
       id="g248762"
       transform="translate(-119.744,94.372688)">
      <path
         style="fill:#211e1e;fill-opacity:1;fill-rule:nonzero;stroke:none;stroke-width:0.352778"
         d="m 132.22263,42.458063 v 4.16581 c 0,0.23151 -0.113,0.344509 -0.34451,0.344509 h -1.57371 c -0.22738,0 -0.34314,-0.119889 -0.34314,-0.354156 v -4.156163 c 0,-0.234266 0.10887,-0.343131 0.34314,-0.343131 h 1.57371 c 0.23427,0 0.34451,0.108865 0.34451,0.343131 m -0.11713,-1.599902 h -2.02709 c -1.01149,0 -1.56821,0.558105 -1.56821,1.569586 v 4.226443 c 0,1.012858 0.55672,1.569585 1.56821,1.569585 h 2.02709 c 1.01148,0 1.56821,-0.556727 1.56821,-1.569585 v -4.226443 c 0,-1.011481 -0.55673,-1.569586 -1.56821,-1.569586"
         id="path248310" />
      <path
         style="fill:#211e1e;fill-opacity:1;fill-rule:nonzero;stroke:none;stroke-width:0.352778"
         d="m 138.92679,44.151672 -2.34542,-0.606336 c -0.2012,-0.05237 -0.24529,-0.113 -0.24529,-0.336242 V 42.39743 c 0,-0.206706 0.11024,-0.303169 0.34451,-0.303169 h 1.44005 c 0.23426,0 0.34313,0.09646 0.34313,0.303169 v 0.766189 h 1.4304 v -0.78686 c 0,-0.964627 -0.55948,-1.518598 -1.53789,-1.518598 h -1.88102 c -1.01286,0 -1.56959,0.538813 -1.56959,1.518598 V 43.4158 c 0,0.950846 0.60634,1.248502 0.96877,1.340831 l 2.39778,0.627007 c 0.1943,0.04685 0.25356,0.118512 0.25356,0.304547 v 0.997699 c 0,0.209462 -0.10611,0.303169 -0.34451,0.303169 h -1.5627 c -0.23426,0 -0.34313,-0.09646 -0.34313,-0.303169 v -0.705555 h -1.43178 v 0.726226 c 0,0.978407 0.54708,1.51722 1.53789,1.51722 h 2.01607 c 1.01148,0 1.56959,-0.538813 1.56959,-1.51722 v -1.285709 c 0,-0.640788 -0.36931,-1.091407 -1.04042,-1.269174"
         id="path248312" />
      <path
         style="fill:#211e1e;fill-opacity:1;fill-rule:nonzero;stroke:none;stroke-width:0.352778"
         d="m 153.10267,40.858161 h -1.6564 l -1.97473,3.045464 h -0.25632 v -3.045464 h -1.46347 v 7.365614 h 1.46347 v -3.044086 h 0.27423 l 1.95819,3.012391 0.0179,0.02618 h 1.6564 l -2.5039,-3.690386 z m 0,0"
         id="path248314" />
      <path
         style="fill:#211e1e;fill-opacity:1;fill-rule:nonzero;stroke:none;stroke-width:0.352778"
         d="m 157.38148,42.458063 v 4.16581 c 0,0.23151 -0.11162,0.344509 -0.34313,0.344509 h -1.57372 c -0.22876,0 -0.34314,-0.119889 -0.34314,-0.354156 v -4.156163 c 0,-0.234266 0.10887,-0.343131 0.34314,-0.343131 h 1.57372 c 0.23426,0 0.34313,0.108865 0.34313,0.343131 m -0.11714,-1.599902 h -2.02571 c -1.01286,0 -1.56959,0.558105 -1.56959,1.569586 v 4.226443 c 0,1.012858 0.55673,1.569585 1.56959,1.569585 h 2.02571 c 1.01148,0 1.56959,-0.556727 1.56959,-1.569585 v -4.226443 c 0,-1.011481 -0.55811,-1.569586 -1.56959,-1.569586"
         id="path248316" />
      <path
         style="fill:#211e1e;fill-opacity:1;fill-rule:nonzero;stroke:none;stroke-width:0.352778"
         d="m 164.08563,44.151672 -2.34404,-0.606336 c -0.2012,-0.05237 -0.24529,-0.113 -0.24529,-0.336242 V 42.39743 c 0,-0.206706 0.10886,-0.303169 0.34451,-0.303169 h 1.43867 c 0.23564,0 0.34451,0.09646 0.34451,0.303169 v 0.766189 h 1.4304 v -0.78686 c 0,-0.964627 -0.56086,-1.518598 -1.53789,-1.518598 h -1.8824 c -1.01148,0 -1.5682,0.538813 -1.5682,1.518598 V 43.4158 c 0,0.950846 0.60633,1.248502 0.96738,1.340831 l 2.39778,0.627007 c 0.19569,0.04685 0.25494,0.118512 0.25494,0.304547 v 0.997699 c 0,0.209462 -0.10611,0.303169 -0.34451,0.303169 h -1.56269 c -0.23427,0 -0.34451,-0.09646 -0.34451,-0.303169 v -0.705555 h -1.4304 v 0.726226 c 0,0.978407 0.5457,1.51722 1.53788,1.51722 h 2.01607 c 1.01148,0 1.56959,-0.538813 1.56959,-1.51722 v -1.285709 c 0,-0.640788 -0.36931,-1.091407 -1.0418,-1.269174"
         id="path248318" />
      <path
         style="fill:#211e1e;fill-opacity:1;fill-rule:nonzero;stroke:none;stroke-width:0.352778"
         d="m 144.8496,43.903625 h -2.26136 v -3.045464 h -1.45108 v 7.365614 h 1.45108 v -3.044086 h 2.26136 v 3.044086 h 1.45245 v -7.365614 h -1.45245 z m 0,0"
         id="path248320" />
      <path
         style="fill:#211e1e;fill-opacity:1;fill-rule:nonzero;stroke:none;stroke-width:0.352778"
         d="m 170.00982,43.903625 h -2.26136 v -3.045464 h -1.45108 v 7.365614 h 1.45108 v -3.044086 h 2.26136 v 3.044086 h 1.45107 v -7.365614 h -1.45107 z m 0,0"
         id="path248322" />
      <g
         clip-path="url(#clip1-5)"
         clip-rule="nonzero"
         id="g248326"
         transform="matrix(0.35277778,0,0,0.35277778,-23.915985,15.392015)">
        <path
           style="fill:#211e1e;fill-opacity:1;fill-rule:nonzero;stroke:none"
           d="m 391.81641,49.957031 -13.15235,11.152344 c -1.88281,1.597656 -2.96875,3.941406 -2.96875,6.40625 v 19.128906 c 0,0.824219 0.48047,1.570313 1.23438,1.910157 l 14.10937,6.390624 V 73.210938 c 0,-0.617188 0.26953,-1.203126 0.74219,-1.601563 l 10.30469,-8.757813 V 53.34375 l -8.03516,-3.691406 c -0.74219,-0.339844 -1.61328,-0.222656 -2.23437,0.304687"
           id="path248324" />
      </g>
      <g
         clip-path="url(#clip2-27)"
         clip-rule="nonzero"
         id="g248330"
         transform="matrix(0.35277778,0,0,0.35277778,-23.915985,15.392015)">
        <path
           style="fill:#211e1e;fill-opacity:1;fill-rule:nonzero;stroke:none"
           d="m 417.43359,90.28125 v -19.125 c 0,-0.824219 -0.48437,-1.574219 -1.23437,-1.914062 l -14.11328,-6.386719 v 21.734375 c 0,0.617187 -0.26953,1.203125 -0.73828,1.601562 l -10.30469,8.753906 v 9.507818 l 8.03515,3.69531 c 0.73829,0.33984 1.60938,0.21875 2.23438,-0.3086 l 13.15234,-11.148434 c 1.88282,-1.597656 2.96875,-3.941406 2.96875,-6.410156"
           id="path248328" />
      </g>
    </g>
  </g>
</svg>
