<?xml version="1.0" encoding="UTF-8" standalone="no"?>
<!-- Created with Inkscape (http://www.inkscape.org/) -->

<svg
   xmlns:dc="http://purl.org/dc/elements/1.1/"
   xmlns:cc="http://creativecommons.org/ns#"
   xmlns:rdf="http://www.w3.org/1999/02/22-rdf-syntax-ns#"
   xmlns:svg="http://www.w3.org/2000/svg"
   xmlns="http://www.w3.org/2000/svg"
   xmlns:sodipodi="http://sodipodi.sourceforge.net/DTD/sodipodi-0.dtd"
   xmlns:inkscape="http://www.inkscape.org/namespaces/inkscape"
   width="108.89125"
   height="34.911251"
   viewBox="0 0 108.89125 34.911253"
   id="svg13536"
   version="1.1"
   inkscape:version="0.91 r13725"
   sodipodi:docname="otokar.svg">
  <defs
     id="defs13538" />
  <sodipodi:namedview
     id="base"
     pagecolor="#ffffff"
     bordercolor="#666666"
     borderopacity="1.0"
     inkscape:pageopacity="0.0"
     inkscape:pageshadow="2"
     inkscape:zoom="8.388076"
     inkscape:cx="53.945625"
     inkscape:cy="16.955625"
     inkscape:document-units="px"
     inkscape:current-layer="layer1"
     showgrid="false"
     fit-margin-top="0"
     fit-margin-left="0"
     fit-margin-right="0"
     fit-margin-bottom="0"
     units="px"
     inkscape:window-width="1280"
     inkscape:window-height="744"
     inkscape:window-x="-4"
     inkscape:window-y="-4"
     inkscape:window-maximized="1" />
  <metadata
     id="metadata13541">
    <rdf:RDF>
      <cc:Work
         rdf:about="">
        <dc:format>image/svg+xml</dc:format>
        <dc:type
           rdf:resource="http://purl.org/dc/dcmitype/StillImage" />
        <dc:title></dc:title>
      </cc:Work>
    </rdf:RDF>
  </metadata>
  <g
     inkscape:label="Layer 1"
     inkscape:groupmode="layer"
     id="layer1"
     transform="translate(-323.19723,-700.12087)">
    <g
       id="g12862"
       transform="matrix(1.25,0,0,-1.25,419.68973,707.74337)">
      <path
         d="m 0,0 5.4,0 0,-3.687 0.067,0 c 0.18,0.452 0.351,0.856 0.515,1.226 0.16,0.369 0.309,0.692 0.448,0.969 0.257,0.493 0.639,0.933 1.148,1.323 0.51,0.39 1.158,0.585 1.941,0.585 l 0,-6.857 -1.477,0 c -0.659,0 -1.216,-0.184 -1.684,-0.554 -0.469,-0.369 -0.699,-1.01 -0.699,-1.928 l 0,-12.047 L 0,-20.97 0,0 Z m -8.037,-16.18 0,5.703 -0.854,-0.558 c -0.288,-0.186 -0.571,-0.396 -0.844,-0.636 -0.278,-0.242 -0.49,-0.499 -0.649,-0.77 -0.154,-0.273 -0.231,-0.579 -0.231,-0.919 l 0,-3.046 c 0,-0.487 0.113,-0.857 0.345,-1.102 0.231,-0.247 0.525,-0.37 0.88,-0.37 0.416,0 0.751,0.165 0.993,0.488 0.243,0.328 0.36,0.727 0.36,1.21 m -8.041,9.58 0,1.969 c 0,0.6 0.144,1.216 0.433,1.851 0.293,0.637 0.71,1.174 1.256,1.626 0.545,0.446 1.256,0.821 2.121,1.123 0.87,0.298 1.827,0.447 2.882,0.447 1.566,0 2.807,-0.19 3.728,-0.57 0.922,-0.379 1.638,-0.954 2.142,-1.723 0.633,-1 0.947,-2.282 0.947,-3.841 l 0,-15.252 -5.195,0 0,1.601 -0.082,0 c -0.407,-0.595 -0.978,-1.087 -1.719,-1.478 -0.742,-0.389 -1.581,-0.584 -2.523,-0.584 -0.602,0 -1.184,0.108 -1.756,0.328 -0.566,0.22 -1.045,0.555 -1.435,1.01 -0.392,0.451 -0.685,1.082 -0.881,1.882 -0.083,0.415 -0.154,0.893 -0.216,1.427 -0.057,0.533 -0.088,1.086 -0.088,1.665 0,1.206 0.196,2.217 0.587,3.036 0.392,0.816 0.885,1.468 1.477,1.954 0.598,0.484 1.236,0.878 1.926,1.175 l 1.735,0.754 c 0.942,0.385 1.632,0.81 2.06,1.271 0.426,0.468 0.642,1.124 0.642,1.965 0,1.036 -0.452,1.554 -1.353,1.554 -0.484,0 -0.84,-0.134 -1.071,-0.401 -0.232,-0.266 -0.345,-0.564 -0.345,-0.881 l 0,-1.908 -5.272,0 z m -7.898,6.6 5.762,0 -3.248,-9.194 3.392,-11.776 -5.838,0 -3.171,11.549 3.103,9.421 z m -8.951,5.236 5.658,0 0,-26.206 -5.658,0 0,26.206 z m -10.807,-9.99 0,-11.426 c 0,-0.898 0.433,-1.343 1.293,-1.343 0.859,0 1.287,0.445 1.287,1.343 l 0,11.36 c 0,0.938 -0.428,1.41 -1.287,1.41 -0.86,0 -1.293,-0.446 -1.293,-1.344 m -5.657,-0.693 c 0,1.283 0.298,2.365 0.89,3.252 0.598,0.887 1.416,1.545 2.456,1.969 1.04,0.426 2.198,0.642 3.475,0.642 1.38,0 2.6,-0.206 3.654,-0.611 1.056,-0.405 1.891,-1.062 2.503,-1.969 0.613,-0.908 0.917,-2.072 0.917,-3.492 l 0,-9.545 c 0,-1.419 -0.299,-2.6 -0.901,-3.537 -0.602,-0.945 -1.437,-1.627 -2.507,-2.052 -0.536,-0.216 -1.097,-0.374 -1.674,-0.482 -0.581,-0.108 -1.225,-0.159 -1.93,-0.159 -0.989,0 -1.905,0.123 -2.749,0.373 -0.85,0.252 -1.581,0.633 -2.199,1.14 -0.612,0.507 -1.091,1.138 -1.431,1.893 -0.335,0.747 -0.504,1.63 -0.504,2.631 l 0,9.947 z m -8.654,9.771 5.657,0 0,-4.534 1.416,0 0,-4.103 -1.416,0 0,-11.467 c 0,-0.466 0.041,-0.79 0.129,-0.958 0.098,-0.257 0.283,-0.386 0.561,-0.386 l 0.793,0 0,-4.307 -3.362,0 c -1.23,0 -2.177,0.332 -2.831,0.994 -0.634,0.566 -0.947,1.483 -0.947,2.754 l 0,13.37 -1.431,0 0,4.103 1.431,0 0,4.534 z m -9.23,-5.319 c 0,0.524 -0.129,0.985 -0.393,1.39 -0.261,0.405 -0.647,0.61 -1.153,0.61 l -0.205,0 c -0.494,0 -0.906,-0.163 -1.236,-0.497 -0.314,-0.328 -0.469,-0.81 -0.469,-1.441 l 0,-13.769 c 0,-0.514 0.14,-0.98 0.413,-1.406 0.272,-0.421 0.659,-0.63 1.164,-0.63 l 0.333,0 c 0.537,0 0.938,0.24 1.205,0.723 0.268,0.477 0.402,1.025 0.402,1.646 l -0.061,13.374 z m -9.519,-0.753 c 0,2.251 0.668,4.056 2.002,5.41 1.333,1.359 3.212,2.036 5.638,2.036 l 0.401,0 c 0.993,0 1.966,-0.164 2.919,-0.487 0.947,-0.328 1.775,-0.811 2.481,-1.452 0.675,-0.61 1.21,-1.4 1.606,-2.369 0.185,-0.462 0.33,-0.964 0.437,-1.513 0.109,-0.549 0.16,-1.113 0.16,-1.692 l 0,-12.17 c 0,-1.036 -0.17,-1.99 -0.514,-2.866 -0.345,-0.878 -0.845,-1.667 -1.514,-2.369 -0.664,-0.703 -1.467,-1.252 -2.409,-1.637 -0.942,-0.384 -1.998,-0.574 -3.166,-0.574 l -0.401,0 c -1.267,0 -2.415,0.216 -3.45,0.646 -1.035,0.435 -1.848,1.02 -2.44,1.753 -1.17,1.54 -1.75,3.221 -1.75,5.047 l 0,12.237 z"
         style="fill:#000000;fill-opacity:1;fill-rule:nonzero;stroke:none"
         id="path12864"
         inkscape:connector-curvature="0" />
    </g>
  </g>
</svg>
