<?xml version="1.0" encoding="UTF-8" standalone="no"?>
<!-- Created with Inkscape (http://www.inkscape.org/) -->
<svg
   xmlns:dc="http://purl.org/dc/elements/1.1/"
   xmlns:cc="http://creativecommons.org/ns#"
   xmlns:rdf="http://www.w3.org/1999/02/22-rdf-syntax-ns#"
   xmlns:svg="http://www.w3.org/2000/svg"
   xmlns="http://www.w3.org/2000/svg"
   xmlns:sodipodi="http://sodipodi.sourceforge.net/DTD/sodipodi-0.dtd"
   xmlns:inkscape="http://www.inkscape.org/namespaces/inkscape"
   width="139"
   height="127"
   id="svg2"
   sodipodi:version="0.32"
   inkscape:version="0.46"
   version="1.0"
   sodipodi:docname="drawing.svg"
   inkscape:output_extension="org.inkscape.output.svg.inkscape">
  <defs
     id="defs4"><inkscape:perspective
   sodipodi:type="inkscape:persp3d"
   inkscape:vp_x="0 : 526.18109 : 1"
   inkscape:vp_y="0 : 1000 : 0"
   inkscape:vp_z="744.09448 : 526.18109 : 1"
   inkscape:persp3d-origin="372.04724 : 350.78739 : 1"
   id="perspective10" />
<inkscape:perspective
   id="perspective2390"
   inkscape:persp3d-origin="372.04724 : 350.78739 : 1"
   inkscape:vp_z="744.09448 : 526.18109 : 1"
   inkscape:vp_y="0 : 1000 : 0"
   inkscape:vp_x="0 : 526.18109 : 1"
   sodipodi:type="inkscape:persp3d" />

 <style
   id="style2424"
   type="text/css">
   
    .fil0 {fill:#362D8A}
   
  </style>

  <inkscape:perspective
   id="perspective2449"
   inkscape:persp3d-origin="1050 : 700 : 1"
   inkscape:vp_z="2100 : 1050 : 1"
   inkscape:vp_y="0 : 1000 : 0"
   inkscape:vp_x="0 : 1050 : 1"
   sodipodi:type="inkscape:persp3d" />
</defs>
  <sodipodi:namedview
     id="base"
     pagecolor="#ffffff"
     bordercolor="#666666"
     borderopacity="1.0"
     gridtolerance="10000"
     guidetolerance="10"
     objecttolerance="10"
     inkscape:pageopacity="0.0"
     inkscape:pageshadow="2"
     inkscape:zoom="2.7253213"
     inkscape:cx="101.87289"
     inkscape:cy="49.242343"
     inkscape:document-units="px"
     inkscape:current-layer="layer1"
     showgrid="false"
     inkscape:snap-global="true"
     inkscape:window-width="1024"
     inkscape:window-height="712"
     inkscape:window-x="-4"
     inkscape:window-y="-4" />
  <metadata
     id="metadata7">
    <rdf:RDF>
      <cc:Work
         rdf:about="">
        <dc:format>image/svg+xml</dc:format>
        <dc:type
           rdf:resource="http://purl.org/dc/dcmitype/StillImage" />
      </cc:Work>
    </rdf:RDF>
  </metadata>
  <g
     inkscape:label="Layer 1"
     inkscape:groupmode="layer"
     id="layer1"
     transform="translate(-254.37962,-464.46291)">
    <g
       id="Layer_x0020_1"
       transform="matrix(6.4341709e-2,0,0,6.4344096e-2,254.37962,464.46291)">
  <metadata
   id="CorelCorpID_0Corel-Layer" />

  <path
   id="path2428"
   d="M 1144.72,430.662 C 1174.6333,487.0857 1204.5465,543.511 1234.4609,599.935 C 1082.7109,857.704 877.5049,1157.245 869.8769,1251.519 C 868.56623,1312.9827 885.2278,1339.9764 897.7004,1358.685 C 838.6271,1341.6557 790.1624,1319.3696 753.3254,1250.626 C 695.6617,1138.316 770.5621,1061.13 1144.7204,430.661 L 1144.72,430.662 z"
   class="fil0"
   style="fill:#362d8a" />

  <path
   id="path2430"
   d="M 1019.47,210.906 C 1049.3833,267.3297 1083.9746,323.162 1113.889,379.587 C 843.028,842.262 684.677,1069.858 686.172,1150.983 C 689.34024,1212.8168 698.344,1242.0676 711.5285,1259.059 C 652.4552,1242.0297 603.9905,1219.7436 567.1535,1151 C 494.9027,1015.522 605.2962,928.709 1019.4705,210.905 L 1019.47,210.906 z"
   class="fil0"
   style="fill:#362d8a" />

  <path
   id="path2432"
   d="M 893.971,0 C 923.8843,56.4237 954.1853,107.965 984.0997,164.39 C 728.9877,623.998 490.6987,967.76 503.3487,1050.601 C 508.9002,1120.1185 514.5106,1135.7675 526.8229,1151.121 C 467.7496,1134.0917 419.2849,1111.8056 382.4479,1043.062 C 312.7713,924.746 479.7971,717.803 893.9719,0.002 L 893.971,0 z"
   class="fil0"
   style="fill:#362d8a" />

  <path
   id="path2434"
   d="M 1659.94,1743.99 C 1596.1037,1743.2569 1534.653,1742.71 1470.407,1741.6586 C 1320.886,1482.5916 1159.372,1155.5836 1081.097,1102.4906 C 1028.26,1071.0628 996.5599,1072.2591 974.135,1073.8939 C 1018.0625,1030.8822 1061.3371,999.69241 1139.307,1001.5111 C 1265.45,1006.6784 1295.705,1107.7371 1659.941,1743.9901 L 1659.94,1743.99 z"
   class="fil0"
   style="fill:#362d8a" />

  <path
   id="path2436"
   d="M 1907.68,1746.75 C 1843.8661,1745.4994 1779.713,1746.3681 1715.901,1745.4806 C 1452.167,1278.7056 1331.841,1034.0346 1260.967,994.53458 C 1205.9247,966.18188 1176.114,959.25608 1154.797,962.10838 C 1199.2208,919.60938 1242.8536,888.92408 1320.797,891.64798 C 1474.232,897.31734 1495.479,1027.812 1907.68,1746.75 L 1907.68,1746.75 z"
   class="fil0"
   style="fill:#362d8a" />

  <path
   id="path2438"
   d="M 2160.34,1747.25 C 2094.7876,1747.4127 2043.266,1747.5953 1979.213,1746.5039 C 1705.844,1297.5139 1527.966,925.09991 1440.266,888.27191 C 1390.5442,854.65531 1360.7181,855.86581 1341.2855,858.97741 C 1385.2955,816.04941 1428.629,784.94101 1506.5955,786.90931 C 1643.8885,784.84312 1741.1855,1032.3423 2160.3405,1747.2493 L 2160.34,1747.25 z"
   class="fil0"
   style="fill:#362d8a" />

  <path
   id="path2440"
   d="M 250.111,1537.36 C 283.4329,1482.8799 316.7561,1428.399 350.0792,1373.917 C 649.1972,1373.2275 1011.4922,1397.2651 1096.5062,1355.8139 C 1150.0681,1325.6378 1164.8132,1297.5515 1174.5619,1277.2891 C 1189.9929,1336.7997 1195.4973,1389.8571 1155.0998,1456.5701 C 1087.8159,1563.3961 983.2438,1538.249 250.1108,1537.3591 L 250.111,1537.36 z"
   class="fil0"
   style="fill:#362d8a" />

  <path
   id="path2442"
   d="M 121.066,1756.22 C 154.3891,1701.7399 184.8186,1643.535 218.1417,1589.054 C 754.2637,1586.5081 1030.7797,1606.8648 1099.8337,1564.2609 C 1151.4331,1530.042 1172.0196,1507.3964 1179.9273,1487.3957 C 1195.3583,1546.9063 1200.8627,1599.9647 1160.4652,1666.6787 C 1080.6734,1797.8567 949.7392,1747.0681 121.0652,1756.2204 L 121.066,1756.22 z"
   class="fil0"
   style="fill:#362d8a" />

  <path
   id="path2444"
   d="M 0,1967.15 C 34.1364,1913.1767 59.1217,1865.027 93.2592,1811.052 C 618.8812,1804.4138 1037.9422,1830.052 1105.7292,1781.3945 C 1163.3257,1742.072 1172.4096,1722.9859 1179.6277,1704.6766 C 1194.163,1764.4123 1186.9884,1829.4276 1145.5927,1895.5266 C 1082.6121,2001.0006 828.7187,1970.4529 0.0027,1967.1503 L 0,1967.15 z"
   class="fil0"
   style="fill:#362d8a" />

 </g>
  </g>
</svg>
