<svg enable-background="new 0 0 175 15" height="92.58201" viewBox="0 0 175 15" width="1080.12345" xmlns="http://www.w3.org/2000/svg"><g clip-rule="evenodd" fill="#004fa2" fill-rule="evenodd"><path d="m118.81.843h-11.123c-2.227 0-4.047 1.875-4.047 4.166v4.982c0 2.291 1.82 4.166 4.047 4.166h11.123c2.225 0 4.045-1.875 4.045-4.166v-4.982c0-2.291-1.82-4.166-4.045-4.166m-.019 8.299c0 .764-.607 1.389-1.348 1.389h-8.391c-.74 0-1.348-.625-1.348-1.389v-3.283c0-.765.607-1.39 1.348-1.39h8.391c.74 0 1.348.625 1.348 1.39z"/><path d="m172.417.95-18.748-.001v.001c-.127 0-.23.105-.23.233v3.018c0 .129.104.234.23.234l7.086-.001v.002c.123 0 .225.101.225.225v9.062c0 .083.117.142.215.142h3.701c.094 0 .178-.059.215-.142v-9.054c0-.124.102-.224.225-.224v-.001l7.082-.009c.127 0 .234-.105.234-.234v-3.017c0-.128-.108-.234-.235-.234"/><path d="m73.878.982h-14.935l.004.002c-2.227 0-4.045 1.817-4.045 4.041v4.831c0 2.156 1.715 3.927 3.852 4.029l15.125-.002c.129 0 .236-.104.236-.232v-3.02c0-.129-.107-.233-.236-.233l-14.061.004c-1.178.053-1.184-1.303 0-1.303h10.791c.129 0 .232-.105.232-.234v-2.81c0-.13-.104-.234-.232-.234h-10.791c-1.184 0-1.178-1.355 0-1.355l14.061.002c.129 0 .236-.104.236-.233v-3.02c0-.128-.108-.233-.237-.233"/><path d="m171.933 12.043c0-.129-.053-.293-.199-.372-.131-.076-.279-.083-.422-.083h-.756v1.667h.262s0-.686 0-.74h.344c0 .023.453.727.453.727l.266.014h.059s-.463-.679-.512-.749c.327-.026.505-.183.505-.464m-.764.255h-.068s-.232 0-.283 0v-.505h.445c.209 0 .404.03.404.246 0 .076-.02.132-.061.173-.093.091-.282.089-.437.086z"/><path d="m171.132 13.892c.838 0 1.523-.655 1.523-1.464 0-.811-.686-1.471-1.523-1.471-.836 0-1.516.66-1.516 1.471.001.808.68 1.464 1.516 1.464m0-2.7c.707 0 1.281.555 1.281 1.235 0 .679-.574 1.23-1.281 1.23-.705 0-1.277-.552-1.277-1.23 0-.68.572-1.235 1.277-1.235z"/><path d="m17.464.977h-14.884c-.129 0-.234.104-.234.232v3.02c0 .128.105.233.234.233h14.156c1.127 0 1.24 1.354 0 1.354h-14.156c-.129 0-.234.104-.234.233v7.609c0 .129.105.234.234.234h3.814c.129 0 .232-.105.232-.234l.002.003.004-4.167c0-.422-.002-.436.449-.436h10.496c5.235.001 5.419-8.081-.113-8.081"/><path d="m43.062 9.361c-.037-.032-.062-.079-.062-.132 0-.097.078-.174.176-.174h.305c5.232 0 5.416-8.081-.111-8.081h-14.886c-.129 0-.234.104-.234.232v3.019c0 .128.105.233.234.233h14.152c1.129 0 1.24 1.354 0 1.354h-14.152c-.129 0-.234.104-.234.233v7.609c0 .128.105.233.234.233h3.814c.129 0 .232-.105.232-.233l.002.002.004-4.167c0-.421 0-.435.449-.435h2.773c.898 0 1.051.111 1.666.691l3.832 3.8c.488.399.645.348 1.057.348h4.723c.523 0 .527-.111.1-.537z"/><path d="m148.746 9.814c0-2.266-1.908-4.109-4.258-4.109h-10.936c-.35 0-.637-.273-.637-.612s.287-.613.637-.613l14.021-.002c.129 0 .234-.105.234-.234v-3.042c0-.129-.105-.234-.234-.234v-.001l-13.771-.001c-2.346 0-4.258 1.843-4.258 4.106 0 2.265 1.912 4.107 4.258 4.107l10.959-.004c.359 0 .641.263.641.597 0 .343-.293.632-.641.632l-14.977-.008c-.131 0-.234.104-.234.233v3.037c0 .13.104.234.234.234h15.126c2.15-.204 3.836-1.959 3.836-4.086"/><path d="m98.853 1.147c0-.093-.074-.169-.168-.169h-3.795v.001c-.117 0-.219.059-.281.148l-5.021 8.769c-.084.108-.211.181-.357.181-.174 0-.32-.096-.398-.237l-.003-.002-4.988-8.711h-.002c-.061-.09-.164-.148-.279-.148v-.001h-3.797v.001c-.094 0-.168.076-.168.169 0 .035.01.066.029.094l-.002.001 7.125 12.439c.08.126.219.21.379.21v.003h4.197l-.002-.003c.16 0 .301-.084.381-.21l7.123-12.439-.002-.001c.019-.028.029-.059.029-.095"/></g></svg>