<?xml version="1.0" encoding="UTF-8" standalone="no"?>
<!-- Created with Inkscape (http://www.inkscape.org/) -->

<svg
   xmlns:dc="http://purl.org/dc/elements/1.1/"
   xmlns:cc="http://creativecommons.org/ns#"
   xmlns:rdf="http://www.w3.org/1999/02/22-rdf-syntax-ns#"
   xmlns:svg="http://www.w3.org/2000/svg"
   xmlns="http://www.w3.org/2000/svg"
   xmlns:sodipodi="http://sodipodi.sourceforge.net/DTD/sodipodi-0.dtd"
   xmlns:inkscape="http://www.inkscape.org/namespaces/inkscape"
   width="45.36581mm"
   height="16.946388mm"
   viewBox="0 0 160.745 60.046257"
   id="svg8912"
   version="1.1"
   inkscape:version="0.91 r13725"
   sodipodi:docname="Proterra.svg">
  <defs
     id="defs8914">
    <clipPath
       clipPathUnits="userSpaceOnUse"
       id="clipPath88">
      <path
         d="M 0,0 612,0 612,1188 0,1188 0,0 Z"
         id="path90"
         inkscape:connector-curvature="0" />
    </clipPath>
  </defs>
  <sodipodi:namedview
     id="base"
     pagecolor="#ffffff"
     bordercolor="#666666"
     borderopacity="1.0"
     inkscape:pageopacity="0.0"
     inkscape:pageshadow="2"
     inkscape:zoom="5.6"
     inkscape:cx="126.94907"
     inkscape:cy="21.683972"
     inkscape:document-units="px"
     inkscape:current-layer="layer1"
     showgrid="false"
     fit-margin-top="0"
     fit-margin-left="0"
     fit-margin-right="0"
     fit-margin-bottom="0"
     inkscape:window-width="1920"
     inkscape:window-height="1017"
     inkscape:window-x="-8"
     inkscape:window-y="-8"
     inkscape:window-maximized="1" />
  <metadata
     id="metadata8917">
    <rdf:RDF>
      <cc:Work
         rdf:about="">
        <dc:format>image/svg+xml</dc:format>
        <dc:type
           rdf:resource="http://purl.org/dc/dcmitype/StillImage" />
        <dc:title></dc:title>
      </cc:Work>
    </rdf:RDF>
  </metadata>
  <g
     inkscape:label="Layer 1"
     inkscape:groupmode="layer"
     id="layer1"
     transform="translate(346.08679,223.37521)">
    <g
       id="g64"
       transform="matrix(1.25,0,0,-1.25,-329.40679,-171.02308)">
      <path
         d="m 0,0 c 0,-0.844 -0.275,-1.462 -0.825,-1.855 -0.55,-0.393 -1.246,-0.59 -2.088,-0.59 l -7.09,0 0,-3.71 -3.341,0 0,11.404 10.431,0 c 0.937,0 1.657,-0.211 2.159,-0.632 C -0.252,4.195 0,3.591 0,2.804 L 0,0 Z m -3.341,2.069 c 0,0.239 -0.055,0.419 -0.163,0.538 -0.109,0.12 -0.319,0.18 -0.632,0.18 l -5.867,0 0,-2.77 5.867,0 c 0.285,0 0.489,0.054 0.611,0.163 0.123,0.108 0.184,0.265 0.184,0.47 l 0,1.419 z"
         style="fill:#485153;fill-opacity:1;fill-rule:nonzero;stroke:none"
         id="path66"
         inkscape:connector-curvature="0" />
    </g>
    <g
       id="g68"
       transform="matrix(1.25,0,0,-1.25,-309.3318,-171.57896)">
      <path
         d="m 0,0 c 0,-0.844 -0.275,-1.462 -0.825,-1.855 -0.55,-0.394 -1.246,-0.59 -2.088,-0.59 l -0.938,0 5.338,-4.155 -4.319,0 -5.378,4.155 -1.793,0 0,-4.155 -3.341,0 0,11.405 10.431,0 c 0.937,0 1.657,-0.212 2.159,-0.633 C -0.252,3.75 0,3.146 0,2.359 L 0,0 Z m -3.341,1.641 c 0,0.24 -0.055,0.416 -0.163,0.53 -0.109,0.114 -0.319,0.171 -0.632,0.171 l -5.867,0 0,-2.325 5.867,0 c 0.285,0 0.489,0.057 0.611,0.171 0.123,0.114 0.184,0.273 0.184,0.479 l 0,0.974 z"
         style="fill:#485153;fill-opacity:1;fill-rule:nonzero;stroke:none"
         id="path70"
         inkscape:connector-curvature="0" />
    </g>
    <g
       id="g72"
       transform="matrix(1.25,0,0,-1.25,-287.49942,-166.68446)">
      <path
         d="m 0,0 c 0,-0.399 -0.078,-0.764 -0.234,-1.094 -0.157,-0.331 -0.377,-0.613 -0.662,-0.847 -0.286,-0.233 -0.625,-0.416 -1.019,-0.547 -0.394,-0.131 -0.822,-0.196 -1.284,-0.196 l -8.088,0 c -0.475,0 -0.91,0.065 -1.304,0.196 -0.394,0.131 -0.73,0.314 -1.008,0.547 -0.279,0.234 -0.496,0.516 -0.652,0.847 -0.156,0.33 -0.234,0.695 -0.234,1.094 l 0,6.036 c 0,0.82 0.288,1.473 0.866,1.957 0.577,0.485 1.354,0.727 2.332,0.727 l 8.088,0 c 0.462,0 0.89,-0.063 1.284,-0.188 C -1.521,8.406 -1.182,8.227 -0.896,7.993 -0.611,7.76 -0.391,7.477 -0.234,7.147 -0.078,6.816 0,6.446 0,6.036 L 0,0 Z m -3.341,6.258 -7.803,0 0,-6.48 7.803,0 0,6.48 z"
         style="fill:#485153;fill-opacity:1;fill-rule:nonzero;stroke:none"
         id="path74"
         inkscape:connector-curvature="0" />
    </g>
    <g
       id="g76"
       transform="matrix(1.25,0,0,-1.25,-274.15505,-174.50683)">
      <path
         d="m 0,0 0,-8.942 -3.341,0 0,8.942 -5.603,0 0,2.462 14.547,0 L 5.603,0 0,0 Z"
         style="fill:#485153;fill-opacity:1;fill-rule:nonzero;stroke:none"
         id="path78"
         inkscape:connector-curvature="0" />
    </g>
    <g
       id="g80"
       transform="matrix(1.25,0,0,-1.25,-264.53654,-163.32921)">
      <path
         d="m 0,0 0,11.404 12.509,0 0,-2.462 -9.168,0 0,-1.966 6.031,0 0,-2.411 -6.031,0 0,-2.103 9.311,0 L 12.652,0 0,0 Z"
         style="fill:#485153;fill-opacity:1;fill-rule:nonzero;stroke:none"
         id="path82"
         inkscape:connector-curvature="0" />
    </g>
    <g
       transform="matrix(1.25,0,0,-1.25,-906.76467,1231.6748)"
       id="g84">
      <g
         id="g86"
         clip-path="url(#clipPath88)">
        <g
           id="g92"
           transform="translate(542.0037,1122.603)">
          <path
             d="m 0,0 c 0,-0.844 -0.275,-1.462 -0.825,-1.855 -0.55,-0.394 -1.246,-0.59 -2.088,-0.59 l -0.938,0 5.338,-4.155 -4.319,0 -5.378,4.155 -1.793,0 0,-4.155 -3.341,0 0,11.405 10.431,0 c 0.937,0 1.657,-0.212 2.159,-0.633 C -0.252,3.75 0,3.146 0,2.359 L 0,0 Z m -3.341,1.641 c 0,0.24 -0.055,0.416 -0.163,0.53 -0.109,0.114 -0.319,0.171 -0.632,0.171 l -5.867,0 0,-2.325 5.867,0 c 0.285,0 0.489,0.057 0.611,0.171 0.123,0.114 0.184,0.273 0.184,0.479 l 0,0.974 z"
             style="fill:#485153;fill-opacity:1;fill-rule:nonzero;stroke:none"
             id="path94"
             inkscape:connector-curvature="0" />
        </g>
        <g
           id="g96"
           transform="translate(558.076,1122.603)">
          <path
             d="m 0,0 c 0,-0.844 -0.275,-1.462 -0.825,-1.855 -0.55,-0.394 -1.246,-0.59 -2.088,-0.59 l -0.938,0 5.338,-4.155 -4.319,0 -5.378,4.155 -1.793,0 0,-4.155 -3.341,0 0,11.405 10.431,0 c 0.937,0 1.657,-0.212 2.159,-0.633 C -0.252,3.75 0,3.146 0,2.359 L 0,0 Z m -3.341,1.641 c 0,0.24 -0.055,0.416 -0.163,0.53 -0.109,0.114 -0.319,0.171 -0.632,0.171 l -5.867,0 0,-2.325 5.867,0 c 0.285,0 0.489,0.057 0.612,0.171 0.122,0.114 0.183,0.273 0.183,0.479 l 0,0.974 z"
             style="fill:#485153;fill-opacity:1;fill-rule:nonzero;stroke:none"
             id="path98"
             inkscape:connector-curvature="0" />
        </g>
      </g>
    </g>
    <g
       id="g100"
       transform="matrix(1.25,0,0,-1.25,-189.90054,-163.32921)">
      <path
         d="m 0,0 -1.182,1.966 -7.395,0 L -9.759,0 l -3.565,0 7.07,11.404 2.954,0 L 3.647,0 0,0 Z m -4.889,8.566 -2.486,-4.24 4.951,0 -2.465,4.24 z"
         style="fill:#485153;fill-opacity:1;fill-rule:nonzero;stroke:none"
         id="path102"
         inkscape:connector-curvature="0" />
    </g>
    <g
       id="g104"
       transform="matrix(1.25,0,0,-1.25,-267.14404,-223.37521)">
      <path
         d="m 0,0 -13.78,-7.838 0,-15.675 3.2,-1.82 0,3.641 0,0.001 0,12.033 10.58,6.016 10.578,-6.016 0,-12.034 L 0,-27.709 l -4.174,2.375 0,3.643 4.174,-2.374 7.376,4.195 0,8.39 -7.376,4.195 -7.376,-4.195 0,-7.48 0,-0.91 0,-1.821 0,-1.823 0,-3.642 3.202,-1.819 4.174,-2.375 13.78,7.837 0,15.675 L 0,0 Z m -4.174,-13.301 4.174,2.375 4.174,-2.375 0,-4.749 -4.174,-2.374 -4.174,2.374 0,4.749 z"
         style="fill:#57ac35;fill-opacity:1;fill-rule:nonzero;stroke:none"
         id="path106"
         inkscape:connector-curvature="0" />
    </g>
    <g
       id="g108"
       transform="matrix(1.25,0,0,-1.25,-267.11005,-184.11058)">
      <path
         d="m 0,0 13.78,7.838 0,15.675 -3.2,1.82 0,-3.641 0,-0.001 0,-12.033 L 0,3.642 l -10.578,6.016 0,12.034 L 0,27.709 4.174,25.334 4.174,21.691 0,24.065 -7.376,19.87 l 0,-8.39 L 0,7.285 l 7.376,4.195 0,7.48 0,0.91 0,1.821 0,1.823 0,3.642 L 4.174,28.975 0,31.35 -13.78,23.513 -13.78,7.838 0,0 Z M 4.174,13.3 0,10.926 -4.174,13.3 l 0,4.75 4.174,2.374 4.174,-2.374 0,-4.75 z"
         style="fill:#57ac35;fill-opacity:1;fill-rule:nonzero;stroke:none"
         id="path110"
         inkscape:connector-curvature="0" />
    </g>
    <g
       id="g112"
       transform="matrix(1.25,0,0,-1.25,-249.2078,-213.55533)">
      <path
         d="m 0,0 0,-0.14 0.297,0 0,-0.783 0.164,0 0,0.783 0.297,0 0,0.14 L 0,0 Z"
         style="fill:#57ac35;fill-opacity:1;fill-rule:nonzero;stroke:none"
         id="path114"
         inkscape:connector-curvature="0" />
    </g>
    <g
       id="g116"
       transform="matrix(1.25,0,0,-1.25,-247.19742,-213.55533)">
      <path
         d="m 0,0 -0.252,-0.723 -0.003,0 -0.258,0.723 -0.231,0 0,-0.923 0.156,0 0,0.711 0.003,0 0.259,-0.711 0.136,0 0.259,0.711 0.003,0 0,-0.711 0.156,0 L 0.228,0 0,0 Z"
         style="fill:#57ac35;fill-opacity:1;fill-rule:nonzero;stroke:none"
         id="path118"
         inkscape:connector-curvature="0" />
    </g>
  </g>
</svg>
