<?xml version="1.0" encoding="UTF-8" standalone="no"?>
<!-- Creator: CorelDRAW X6 -->

<svg
   xmlns:dc="http://purl.org/dc/elements/1.1/"
   xmlns:cc="http://creativecommons.org/ns#"
   xmlns:rdf="http://www.w3.org/1999/02/22-rdf-syntax-ns#"
   xmlns:svg="http://www.w3.org/2000/svg"
   xmlns="http://www.w3.org/2000/svg"
   xmlns:sodipodi="http://sodipodi.sourceforge.net/DTD/sodipodi-0.dtd"
   xmlns:inkscape="http://www.inkscape.org/namespaces/inkscape"
   xml:space="preserve"
   width="10.416667in"
   height="2.5672641in"
   version="1.1"
   style="clip-rule:evenodd;fill-rule:evenodd;image-rendering:optimizeQuality;shape-rendering:geometricPrecision;text-rendering:geometricPrecision"
   viewBox="0 0 10416.03 2567.2641"
   id="svg48"
   sodipodi:docname="Logo AHM.svg"
   inkscape:version="0.92.4 (5da689c313, 2019-01-14)"><metadata
   id="metadata52"><rdf:RDF><cc:Work
       rdf:about=""><dc:format>image/svg+xml</dc:format><dc:type
         rdf:resource="http://purl.org/dc/dcmitype/StillImage" /><dc:title></dc:title></cc:Work></rdf:RDF></metadata><sodipodi:namedview
   pagecolor="#ffffff"
   bordercolor="#666666"
   borderopacity="1"
   objecttolerance="10"
   gridtolerance="10"
   guidetolerance="10"
   inkscape:pageopacity="0"
   inkscape:pageshadow="2"
   inkscape:window-width="1920"
   inkscape:window-height="1001"
   id="namedview50"
   showgrid="false"
   fit-margin-top="0"
   fit-margin-left="0"
   fit-margin-right="0"
   fit-margin-bottom="0"
   inkscape:zoom="0.98166085"
   inkscape:cx="172.65599"
   inkscape:cy="42.096001"
   inkscape:window-x="-9"
   inkscape:window-y="-9"
   inkscape:window-maximized="1"
   inkscape:current-layer="svg48" />
 <defs
   id="defs4">
  <style
   type="text/css"
   id="style2">
   <![CDATA[
    .fil1 {fill:#F05246;fill-rule:nonzero}
    .fil0 {fill:#333436;fill-rule:nonzero}
   ]]>
  </style>
 </defs>
 <g
   id="Layer_x0020_1"
   transform="matrix(2.8943225,0,0,2.8943225,-0.11005147,31.837548)">
  <metadata
   id="CorelCorpID_0Corel-Layer" />
  <path
   class="fil0"
   d="m 48,771 h 68 c 22,0 38,-3 48,-9 9,-6 14,-15 14,-26 0,-8 -3,-15 -8,-21 -6,-6 -13,-10 -22,-11 -6,-1 -17,-2 -32,-2 H 49 v 69 z M 13,872 V 679 h 99 c 17,0 31,1 40,2 13,2 24,5 32,9 9,4 16,11 21,19 5,8 8,17 8,26 0,16 -7,30 -21,42 -14,11 -40,17 -77,17 H 48 v 79 H 13 v 0 z"
   id="path7"
   inkscape:connector-curvature="0"
   style="fill:#333436;fill-rule:nonzero" />
  <polygon
   class="fil0"
   points="237,679 444,679 444,702 358,702 358,872 323,872 323,702 237,702 "
   id="polygon9"
   style="fill:#333436;fill-rule:nonzero" />
  <path
   class="fil0"
   d="m 604,793 h 89 l -27,-54 c -8,-16 -14,-30 -19,-40 -4,13 -8,25 -14,37 z m -75,79 100,-193 h 38 L 773,872 H 734 L 704,813 H 594 l -28,59 z"
   id="path11"
   inkscape:connector-curvature="0"
   style="fill:#333436;fill-rule:nonzero" />
  <path
   class="fil0"
   d="m 784,830 32,-4 c 2,9 7,17 15,22 8,5 20,8 34,8 15,0 26,-2 33,-7 7,-4 11,-10 11,-16 0,-5 -3,-10 -10,-13 -4,-2 -15,-5 -33,-8 -23,-4 -40,-8 -49,-11 -9,-3 -16,-8 -21,-13 -5,-6 -7,-12 -7,-19 0,-6 2,-12 6,-17 4,-5 9,-10 16,-13 5,-3 12,-5 20,-7 9,-2 18,-3 28,-3 15,0 28,2 39,5 11,3 19,7 25,13 5,5 9,13 11,22 l -31,3 c -1,-7 -6,-13 -12,-17 -7,-4 -16,-6 -29,-6 -15,0 -25,2 -31,5 -6,4 -9,8 -9,13 0,3 1,6 4,8 3,3 7,5 12,6 3,1 13,3 28,6 23,4 38,8 47,11 9,3 16,7 21,12 5,5 8,12 8,20 0,8 -3,15 -9,22 -6,7 -15,12 -27,16 -12,4 -25,6 -40,6 -25,0 -43,-4 -56,-11 -13,-8 -21,-19 -25,-33 v 0 z"
   id="path13"
   inkscape:connector-curvature="0"
   style="fill:#333436;fill-rule:nonzero" />
  <path
   class="fil0"
   d="m 1049,851 4,21 c -9,1 -17,2 -24,2 -12,0 -21,-1 -27,-4 -6,-3 -11,-6 -14,-11 -3,-4 -4,-14 -4,-28 v -81 h -24 v -18 h 24 v -35 l 32,-14 v 49 h 32 v 18 h -32 v 82 c 0,7 1,11 2,13 1,2 3,3 6,5 3,1 6,2 11,2 4,0 8,0 14,-1 z"
   id="path15"
   inkscape:connector-curvature="0"
   style="fill:#333436;fill-rule:nonzero" />
  <path
   class="fil0"
   d="M 1080,872 V 732 h 29 v 21 c 7,-10 14,-16 20,-20 6,-3 13,-5 21,-5 11,0 22,2 33,8 l -11,22 c -8,-3 -16,-5 -23,-5 -7,0 -13,2 -19,5 -6,3 -10,7 -12,13 -4,8 -5,18 -5,28 v 73 h -32 v 0 z"
   id="path17"
   inkscape:connector-curvature="0"
   style="fill:#333436;fill-rule:nonzero" />
  <path
   class="fil0"
   d="m 1323,802 c -12,4 -29,6 -53,9 -13,1 -23,3 -28,5 -5,2 -10,4 -13,8 -3,3 -4,7 -4,11 0,6 3,12 10,16 6,4 16,6 28,6 12,0 23,-2 33,-6 10,-4 17,-9 21,-16 3,-5 5,-13 5,-24 v -9 0 z m 3,53 c -12,7 -23,13 -34,16 -11,3 -23,5 -35,5 -21,0 -37,-4 -48,-11 -11,-7 -17,-17 -17,-29 0,-7 2,-13 6,-19 4,-6 10,-10 17,-14 7,-3 15,-6 23,-8 6,-1 16,-2 29,-4 26,-2 45,-5 57,-8 0,-3 0,-5 0,-6 0,-10 -3,-16 -9,-20 -8,-5 -20,-8 -37,-8 -15,0 -26,2 -34,6 -7,4 -13,11 -16,21 l -31,-3 c 3,-10 8,-18 14,-24 7,-6 16,-11 28,-14 12,-3 27,-5 43,-5 16,0 29,1 40,4 10,3 18,6 22,11 5,4 8,10 10,16 1,4 2,11 2,22 v 31 c 0,22 1,36 2,42 1,6 4,12 8,17 h -34 c -3,-5 -5,-11 -6,-18 z"
   id="path19"
   inkscape:connector-curvature="0"
   style="fill:#333436;fill-rule:nonzero" />
  <polygon
   class="fil0"
   points="1547,758 1682,758 1682,679 1716,679 1716,872 1682,872 1682,781 1547,781 1547,872 1512,872 1512,679 1547,679 "
   id="polygon21"
   style="fill:#333436;fill-rule:nonzero" />
  <path
   class="fil0"
   d="m 1791,802 c 0,18 5,31 16,40 11,9 24,13 40,13 16,0 29,-4 40,-13 11,-9 16,-23 16,-41 0,-17 -5,-30 -16,-39 -11,-9 -24,-13 -40,-13 -16,0 -29,4 -40,13 -11,9 -16,22 -16,40 z m -33,0 c 0,-26 10,-45 29,-57 16,-10 36,-16 60,-16 26,0 47,6 64,19 17,13 25,30 25,52 0,18 -4,32 -11,42 -7,10 -18,18 -32,24 -14,6 -29,9 -46,9 -27,0 -48,-6 -64,-19 -16,-13 -25,-31 -25,-54 z"
   id="path23"
   inkscape:connector-curvature="0"
   style="fill:#333436;fill-rule:nonzero" />
  <path
   class="fil0"
   d="M 1974,872 V 732 h 29 v 20 c 14,-15 34,-23 60,-23 11,0 22,2 31,5 10,3 17,7 21,12 5,5 8,11 10,18 1,4 2,12 2,23 v 86 h -32 v -85 c 0,-10 -1,-17 -4,-22 -2,-5 -7,-9 -13,-11 -6,-3 -14,-4 -22,-4 -14,0 -25,3 -35,10 -10,6 -15,19 -15,36 v 76 h -32 v 0 z"
   id="path25"
   inkscape:connector-curvature="0"
   style="fill:#333436;fill-rule:nonzero" />
  <path
   class="fil0"
   d="m 2198,802 c 0,18 5,31 15,40 10,9 22,13 36,13 14,0 26,-4 36,-13 10,-8 15,-21 15,-39 0,-19 -5,-33 -15,-42 -10,-9 -22,-13 -37,-13 -14,0 -26,4 -36,13 -10,9 -14,22 -14,41 z m 101,70 v -18 c -12,14 -30,21 -53,21 -15,0 -29,-3 -42,-9 -13,-6 -22,-15 -29,-26 -7,-11 -10,-24 -10,-38 0,-14 3,-27 9,-38 6,-11 16,-20 28,-26 13,-6 27,-9 42,-9 11,0 22,2 30,5 9,4 16,8 22,14 v -69 h 32 v 193 h -30 v 0 z"
   id="path27"
   inkscape:connector-curvature="0"
   style="fill:#333436;fill-rule:nonzero" />
  <path
   class="fil0"
   d="m 2501,802 c -12,4 -29,6 -53,9 -13,1 -23,3 -28,5 -5,2 -10,4 -13,8 -3,3 -4,7 -4,11 0,6 3,12 10,16 6,4 16,6 28,6 12,0 23,-2 33,-6 10,-4 17,-9 21,-16 3,-5 5,-13 5,-24 v -9 0 z m 3,53 c -12,7 -23,13 -34,16 -11,3 -23,5 -35,5 -21,0 -37,-4 -48,-11 -11,-7 -17,-17 -17,-29 0,-7 2,-13 6,-19 4,-6 10,-10 17,-14 7,-3 15,-6 23,-8 6,-1 16,-2 29,-4 26,-2 45,-5 57,-8 0,-3 0,-5 0,-6 0,-10 -3,-16 -9,-20 -8,-5 -20,-8 -37,-8 -15,0 -26,2 -34,6 -7,4 -13,11 -16,21 l -31,-3 c 3,-10 8,-18 14,-24 7,-6 16,-11 28,-14 12,-3 27,-5 43,-5 16,0 29,1 40,4 10,3 18,6 22,11 5,4 8,10 10,16 1,4 2,11 2,22 v 31 c 0,22 1,36 2,42 1,6 4,12 8,17 h -34 c -3,-5 -5,-11 -6,-18 z"
   id="path29"
   inkscape:connector-curvature="0"
   style="fill:#333436;fill-rule:nonzero" />
  <path
   class="fil0"
   d="M 2688,872 V 679 h 52 l 62,137 c 6,13 10,22 12,29 3,-7 8,-17 14,-31 l 63,-134 h 46 v 193 h -33 V 711 l -76,162 h -31 l -75,-165 v 165 h -33 v 0 z"
   id="path31"
   inkscape:connector-curvature="0"
   style="fill:#333436;fill-rule:nonzero" />
  <path
   class="fil0"
   d="m 3010,802 c 0,18 5,31 16,40 11,9 24,13 40,13 16,0 29,-4 40,-13 11,-9 16,-23 16,-41 0,-17 -5,-30 -16,-39 -11,-9 -24,-13 -40,-13 -16,0 -29,4 -40,13 -11,9 -16,22 -16,40 z m -33,0 c 0,-26 10,-45 29,-57 16,-10 36,-16 60,-16 26,0 47,6 64,19 17,13 25,30 25,52 0,18 -4,32 -11,42 -7,10 -18,18 -32,24 -14,6 -29,9 -46,9 -27,0 -48,-6 -64,-19 -16,-13 -25,-31 -25,-54 z"
   id="path33"
   inkscape:connector-curvature="0"
   style="fill:#333436;fill-rule:nonzero" />
  <path
   class="fil0"
   d="m 3262,851 4,21 c -9,1 -17,2 -24,2 -12,0 -21,-1 -27,-4 -6,-3 -11,-6 -14,-11 -3,-4 -4,-14 -4,-28 v -81 h -24 v -18 h 24 v -35 l 32,-14 v 49 h 32 v 18 h -32 v 82 c 0,7 1,11 2,13 1,2 3,3 6,5 3,1 6,2 11,2 4,0 8,0 14,-1 z"
   id="path35"
   inkscape:connector-curvature="0"
   style="fill:#333436;fill-rule:nonzero" />
  <path
   class="fil0"
   d="m 3314,802 c 0,18 5,31 16,40 11,9 24,13 40,13 16,0 29,-4 40,-13 11,-9 16,-23 16,-41 0,-17 -5,-30 -16,-39 -11,-9 -24,-13 -40,-13 -16,0 -29,4 -40,13 -11,9 -16,22 -16,40 z m -33,0 c 0,-26 10,-45 29,-57 16,-10 36,-16 60,-16 26,0 47,6 64,19 17,13 25,30 25,52 0,18 -4,32 -11,42 -7,10 -18,18 -32,24 -14,6 -29,9 -46,9 -27,0 -48,-6 -64,-19 -16,-13 -25,-31 -25,-54 z"
   id="path37"
   inkscape:connector-curvature="0"
   style="fill:#333436;fill-rule:nonzero" />
  <path
   class="fil0"
   d="M 3496,872 V 732 h 29 v 21 c 7,-10 14,-16 20,-20 6,-3 13,-5 21,-5 11,0 22,2 33,7 v 0 l -11,22 c -8,-3 -16,-5 -23,-5 -7,0 -13,2 -19,5 -6,3 -10,7 -12,13 -4,8 -5,18 -5,28 v 73 h -32 v 0 z"
   id="path39"
   inkscape:connector-curvature="0"
   style="fill:#333436;fill-rule:nonzero" />
  <polygon
   class="fil1"
   points="3016,412 3256,-10 3595,-10 3595,518 3383,518 3383,106 3132,518 2897,518 2641,106 2641,518 2436,518 2436,-10 2772,-10 "
   id="polygon41"
   style="fill:#f05246;fill-rule:nonzero" />
  <polygon
   class="fil1"
   points="1518,207 2020,207 2020,-10 2260,-10 2260,518 2020,518 2020,304 1518,304 1518,518 1272,518 1272,-10 1518,-10 "
   id="polygon43"
   style="fill:#f05246;fill-rule:nonzero" />
  <polygon
   class="fil1"
   points="1156,504 890,504 572,122 261,504 0,504 430,-11 727,-11 "
   id="polygon45"
   style="fill:#f05246;fill-rule:nonzero" />
 </g>
</svg>