<svg width="560" height="170" version="1.1" viewBox="0 0 560 170" xmlns="http://www.w3.org/2000/svg">
 <defs>
  <style>.fill-black{fill:#000;}</style>
 </defs>
 <g transform="translate(10.7 8.96)">
  <g>
   <path class="fill-black" d="m0 24.3a24.8 24.8 0 0 1 1.85-9.67 23.7 23.7 0 0 1 22-14.7h128a23.7 23.7 0 0 1 9.67 2 25 25 0 0 1 7.71 5.21 24 24 0 0 1 5.11 7.6 23.3 23.3 0 0 1 1.84 9.13v48.2a23.9 23.9 0 0 1-7.17 17.3 25.1 25.1 0 0 1-7.49 5 22.4 22.4 0 0 1-9 1.85h-19.6l43.7 55.8h-38.7l-44.8-55.8h-43.9v-30.8h94.7v-34.5h-112v121h-31.9z"/>
   <path class="fill-black" d="m375 24.3a25 25 0 0 1 1.85-9.67 23.6 23.6 0 0 1 5.1-7.66 23.9 23.9 0 0 1 7.61-5.1 23.6 23.6 0 0 1 9.34-1.9h139v30.8h-131v28h114v30.9h-114v31.5h131v30.8h-138a24.6 24.6 0 0 1-9.77-1.95 26.2 26.2 0 0 1-7.93-5.22 24.2 24.2 0 0 1-5.32-7.6 21.9 21.9 0 0 1-2-9.13z"/>
   <path class="fill-black" d="m357 128a22.1 22.1 0 0 1-1.95 9.13 24.5 24.5 0 0 1-5.32 7.6 26.3 26.3 0 0 1-7.93 5.22 24.6 24.6 0 0 1-9.78 1.95h-138v-30.8h131v-31.5h-114v-30.8h114v-28h-131v-30.9h139a23.6 23.6 0 0 1 22 14.7 25 25 0 0 1 1.83 9.67z"/>
  </g>
 </g>
</svg>
