<svg xmlns="http://www.w3.org/2000/svg" viewBox="1.87 25.59 145.72 100.88" width="380.3061508332227" height="262.9460495995329">
  <defs>
    <style>
      .cls-1 {
        fill: none;
      }
    </style>
  </defs>
      <path class="cls-1" d="M0,0H150V150H0V0Z"/>
  <path d="M143.7,28.05h0c-1.47-1.58-3.11-2.39-5.04-2.46-4.01-.14-9.35,3.04-16.79,10.02-12.13,11.38-29.29,30.1-40.93,43.6l-.12,.14,.13,.13c1.41,1.42,2.9,2.84,4.44,4.23l.14,.13,.14-.14c13.72-13.72,31.22-29.97,41.62-38.65,3.8-3.17,6.33-4.35,7.74-3.62,1.32,.68,1.79,3.06,1.45,7.26-.71,8.7-3.41,21.23-7.42,34.39-3.67,12.03-7.95,23.01-11.19,28.63-2.03,3.54-4.16,5.44-6.5,5.81-2.65,.42-5.7-1.01-9.61-4.51-6.5-5.83-16.48-16.5-32.63-34.15l-2.08-2.27c-14.24-15.56-27.68-30.27-39.47-40.98-5.62-5.1-9.85-8.05-13.32-9.26-3.51-1.22-6.31-.64-8.57,1.8-3.7,4-4.7,11.09-3.04,21.67,1.6,10.24,4.89,23.71,8.79,36.04,4.51,14.26,9.47,25.82,13.97,32.55,3.21,4.8,6.57,7.39,10.29,7.95,.5,.07,1,.11,1.51,.11,3.66,0,7.74-1.88,12.41-5.72,6.02-4.94,13.29-12.36,18.33-17.71l.13-.14-.13-.14c-1.39-1.48-2.82-2.96-4.26-4.38l-.14-.14-.14,.14c-5.72,5.81-13.66,13.26-18.77,16.74-3.05,2.08-5.27,2.81-7.17,2.37-2.01-.46-3.88-2.3-5.88-5.77-3.24-5.63-7.52-16.6-11.19-28.63-4.01-13.16-6.71-25.69-7.42-34.39-.34-4.15,.14-6.59,1.43-7.24,1.29-.66,3.57,.41,6.77,3.17,7.55,6.53,21.41,20.62,33.64,33.05,1.35,1.38,2.69,2.74,4.01,4.07,13.99,14.21,28.31,28.7,36.21,35.98,5.41,4.99,10.17,8.38,15.76,8.67,5.22,.27,9.44-2.26,13.26-7.99,4.5-6.73,9.46-18.29,13.97-32.55,3.9-12.33,7.19-25.81,8.79-36.04,1.66-10.59,.64-17.71-3.12-21.77h0Z"/>
</svg>