<?xml version="1.0" encoding="UTF-8" standalone="no"?>
<!-- Created with Inkscape (http://www.inkscape.org/) -->

<svg
   xmlns:dc="http://purl.org/dc/elements/1.1/"
   xmlns:cc="http://creativecommons.org/ns#"
   xmlns:rdf="http://www.w3.org/1999/02/22-rdf-syntax-ns#"
   xmlns:svg="http://www.w3.org/2000/svg"
   xmlns="http://www.w3.org/2000/svg"
   version="1.1"
   width="892.91339"
   height="135"
   id="svg3391">
  <defs
     id="defs3393" />
  <metadata
     id="metadata3396">
    <rdf:RDF>
      <cc:Work
         rdf:about="">
        <dc:format>image/svg+xml</dc:format>
        <dc:type
           rdf:resource="http://purl.org/dc/dcmitype/StillImage" />
        <dc:title></dc:title>
      </cc:Work>
    </rdf:RDF>
  </metadata>
  <g
     transform="translate(88.011278,-509.95652)"
     id="layer1">
    <g
       transform="matrix(5.9538871,0,0,5.9538871,-3785.5487,-2955.2615)"
       id="g3448">
      <g
         transform="matrix(1.25,0,0,-1.25,634.92177,593.07211)"
         id="g3009">
        <path
           d="m 0,0 8.817,-8.818 7.494,0 c 0,0 -3.205,3.176 -4.407,4.408 0,0 3.926,1.215 3.908,5.844 C 15.83,8.401 9.275,8.376 8.014,8.379 L -4.12,8.378 -10.392,0.9 c -0.153,-0.173 -0.246,-0.408 -0.246,-0.658 0,-0.263 0.104,-0.498 0.273,-0.675 0.012,-0.013 0.025,-0.028 0.038,-0.04 l 8.343,-8.344 7.495,-10e-4 -9.054,9.06 2.205,2.625 8.964,0 c 0.91,0 1.433,-0.643 1.433,-1.433 C 9.059,0.643 8.417,0 7.626,0 L 0,0"
           id="path3011"
           style="fill:#ed1c24;fill-opacity:1;fill-rule:nonzero;stroke:none" />
      </g>
      <g
         transform="matrix(1.25,0,0,-1.25,747.13552,601.61336)"
         id="g3013">
        <path
           d="m 0,0 -3.084,0 0,6.834 -2.646,0 0,-7.826 c 0,-0.548 0.445,-0.992 0.992,-0.992 l 7.384,0 0,8.818 L 0,6.834 0,0"
           id="path3015"
           style="fill:#231f20;fill-opacity:1;fill-rule:nonzero;stroke:none" />
      </g>
      <g
         transform="matrix(1.25,0,0,-1.25,761.25052,593.07211)"
         id="g3017">
        <path
           d="m 0,0 -7.383,0 0,-8.818 8.375,0 0,1.984 -5.73,0 0,1.433 5.73,0 0,4.41 C 0.992,-0.443 0.548,0 0,0 m -1.652,-3.41 -3.0862,0 0,1.4316 3.0862,0 0,-1.4316 z"
           id="path3019"
           style="fill:#231f20;fill-opacity:1;fill-rule:nonzero;stroke:none" />
      </g>
      <g
         transform="matrix(1.25,0,0,-1.25,660.19802,593.07211)"
         id="g3021">
        <path
           d="m 0,0 0,-8.818 2.646,0 0,6.834 2.424,0 L 5.069,0.001 0,0"
           id="path3023"
           style="fill:#231f20;fill-opacity:1;fill-rule:nonzero;stroke:none" />
      </g>
      <g
         transform="matrix(1.25,0,0,-1.25,701.01552,593.07211)"
         id="g3025">
        <path
           d="m 0,0 -7.384,0 0,-8.817 8.376,0 0,1.983 -5.73,0 0,1.433 5.73,0 0,4.41 C 0.992,-0.443 0.549,0 0,0 m -1.653,-3.41 -3.0851,0 0,1.4258 3.0851,0 0,-1.4258 z"
           id="path3027"
           style="fill:#231f20;fill-opacity:1;fill-rule:nonzero;stroke:none" />
      </g>
      <g
         transform="matrix(1.25,0,0,-1.25,676.92177,593.07211)"
         id="g3029">
        <path
           d="m 0,0 -7.384,0 0,-8.818 8.376,0 0,7.827 C 0.992,-0.443 0.549,0 0,0 m -4.738,-6.834 0,4.851 3.085,0 0.001,-4.851 -3.086,0"
           id="path3031"
           style="fill:#231f20;fill-opacity:1;fill-rule:nonzero;stroke:none" />
      </g>
      <g
         transform="matrix(1.25,0,0,-1.25,688.96927,593.07211)"
         id="g3033">
        <path
           d="m 0,0 -7.384,0 0,-5.401 5.73,0 0,-1.433 -5.73,0 0,-1.984 8.375,0 0,5.406 -5.73,0 0,1.428 5.73,0 c 0,0 0.001,0.773 0.001,0.993 C 0.992,-0.443 0.547,0 0,0"
           id="path3035"
           style="fill:#231f20;fill-opacity:1;fill-rule:nonzero;stroke:none" />
      </g>
      <g
         transform="matrix(1.25,0,0,-1.25,713.06177,593.07211)"
         id="g3037">
        <path
           d="m 0,0 -7.384,0 0,-8.818 2.645,0 0,6.835 3.085,0 0,-6.835 2.646,0 0,7.827 C 0.992,-0.443 0.548,0 0,0"
           id="path3039"
           style="fill:#231f20;fill-opacity:1;fill-rule:nonzero;stroke:none" />
      </g>
      <g
         transform="matrix(1.25,0,0,-1.25,725.09427,593.07211)"
         id="g3041">
        <path
           d="m 0,0 -4.724,0.001 0,4.409 -2.646,0 0,-13.228 8.375,0 0,7.827 C 1.011,-0.438 0.55,0.006 0,0 m -1.64,-6.834 -3.084,0 0,4.85 3.084,10e-4 0,-4.851"
           id="path3043"
           style="fill:#231f20;fill-opacity:1;fill-rule:nonzero;stroke:none" />
      </g>
      <g
         transform="matrix(1.25,0,0,-1.25,764.06802,593.07211)"
         id="g3045">
        <path
           d="m 0,0 0.001,-8.818 2.644,0 0,6.834 2.425,-0.001 0,1.986 L 0,0"
           id="path3047"
           style="fill:#231f20;fill-opacity:1;fill-rule:nonzero;stroke:none" />
      </g>
      <g
         transform="matrix(1.25,0,0,-1.25,737.15802,593.07211)"
         id="g3049">
        <path
           d="m 0,0 -7.384,0 0.001,-1.983 5.721,0 0,-1.433 -5.721,0 -0.001,-5.402 8.376,0 0,7.826 C 0.992,-0.443 0.547,0 0,0 m -1.662,-6.834 -3.0662,0 0,1.4326 3.0662,0 0,-1.4326 z"
           id="path3051"
           style="fill:#231f20;fill-opacity:1;fill-rule:nonzero;stroke:none" />
      </g>
    </g>
  </g>
</svg>
