<?xml version="1.0" encoding="utf-8"?>
<!-- Generator: Adobe Illustrator 25.2.3, SVG Export Plug-In . SVG Version: 6.00 Build 0)  -->
<svg version="1.1" id="图层_1" xmlns="http://www.w3.org/2000/svg" xmlns:xlink="http://www.w3.org/1999/xlink" x="0px" y="0px"
	 viewBox="0 0 154 46" style="enable-background:new 0 0 154 46;" xml:space="preserve">
<style type="text/css">
	.st0{fill:#0069C8;}
</style>
<g>
	<path class="st0" d="M68.6,17.5c0-2.1-2-2.5-3.4-3.2c-1.2-0.6-1.2-1-1.2-1.3c0-0.8,0.7-1.2,1.8-1.2c1,0,1.6,0.3,2.2,0.6v-1.6
		c-0.7-0.3-1.4-0.4-2.6-0.4c-2.3,0-3.6,1-3.6,2.7c0,2,1.7,2.6,2.3,2.9c1.7,0.8,2.2,1.1,2.2,1.7c0,0.6-0.7,1.1-1.9,1.1
		c-0.8,0-1.9-0.3-2.7-0.5v1.7c1.1,0.4,2.4,0.4,3.1,0.4C66.7,20.4,68.6,19.6,68.6,17.5z"/>
	<polygon class="st0" points="131,10.6 131,14.6 127.4,14.6 127.4,10.6 125.2,10.6 125.2,20.2 127.4,20.2 127.4,16.2 131,16.2 
		131,20.2 133.2,20.2 133.2,10.6 	"/>
	<path class="st0" d="M103,10.4c-1.2,0-2.3,0.4-3.1,1.1c-1.2,1-1.4,2.3-1.4,3.9c0,1.6,0.2,2.8,1.4,3.9c0.8,0.7,1.9,1.1,3.1,1.1
		c1.2,0,2.3-0.4,3.1-1.1c1.2-1,1.4-2.3,1.4-3.9c0-1.6-0.2-2.9-1.4-3.9C105.2,10.8,104.1,10.4,103,10.4z M104.5,18.1
		c-0.4,0.4-1,0.6-1.5,0.6c-0.5,0-1.1-0.2-1.5-0.6c-0.7-0.7-0.7-1.9-0.7-2.7c0-0.9,0-2.1,0.7-2.8c0.4-0.4,1-0.6,1.5-0.6
		c0.5,0,1.1,0.2,1.5,0.6c0.7,0.7,0.7,1.9,0.7,2.8C105.1,16.3,105.1,17.5,104.5,18.1z"/>
	<polygon class="st0" points="95.8,20.2 97.9,10.6 95.9,10.6 94.5,16.7 92.9,10.6 92.8,10.6 91.1,10.6 91.1,10.6 89.5,16.7 
		88.1,10.6 86,10.6 88.1,20.2 88.5,20.2 90.2,20.2 90.3,20.2 92,13.8 93.7,20.2 93.7,20.2 95.4,20.2 	"/>
	<polygon class="st0" points="80.4,20.2 82.7,20.2 82.7,16.2 85.9,10.6 83.8,10.6 81.7,14.7 79.7,10.6 77.5,10.6 80.4,16.3 	"/>
	<rect x="69.7" y="10.6" class="st0" width="2.2" height="9.5"/>
	<polygon class="st0" points="75.3,10.6 72.5,14.8 75,20.2 77.4,20.2 74.9,14.5 77.5,10.6 	"/>
	<path class="st0" d="M110.9,12h1.6c1,0,1.4,0.8,1.4,1.5c0,0.7-0.6,1.5-2.2,2l2.4,4.6h2.4l-2.1-4c1.3-0.6,1.8-1.6,1.8-2.6
		c0-1.7-1.5-2.9-3.2-2.9h-4.2v9.5h2.1V12z"/>
	<polygon class="st0" points="116.3,10.6 117,12.2 119.3,12.2 119.3,20.2 121.5,20.2 121.5,12.2 124.4,12.2 123.7,10.6 	"/>
	<rect x="70.3" y="23.7" class="st0" width="1.4" height="7"/>
	<path class="st0" d="M67.3,23.3L67.3,23.3L67.3,23.3l-1.2,0H65h-1.2h-0.5c-0.1,0-0.1,0-0.2,0.1l-1.4,2.7h1.9l0.9-1.7h2.4l0.9,1.7
		h1.9L68.3,24C68.1,23.6,67.8,23.3,67.3,23.3z"/>
	<path class="st0" d="M63.8,31.2v-3.4h3.7v1.7c0,0.1-0.1,0.2-0.2,0.2h-2.7l0.6,1.2h2.7c0.7,0,1.3-0.6,1.3-1.3v-2.7
		c0-0.1-0.1-0.2-0.2-0.2h-6.6c-0.1,0-0.2,0.1-0.2,0.2v4.5c0,1,0.8,1.9,1.9,1.9h5.4v-1.3h-4.9C64.1,31.9,63.8,31.6,63.8,31.2z"/>
	<rect x="78.5" y="31.8" class="st0" width="3.5" height="1.3"/>
	<path class="st0" d="M88.6,23.3h-1.7v1.2h-2.5l0.6-1.2h-1.8l-1.3,2.5h1v5.9c0,0.9,0.7,1.6,1.6,1.6H91v-1.3h-2.4v-1.3H91v-1.1h-2.4
		v-1.4H91V27h-2.4v-1.3H91v-1.1h-2.4V23.3z M86.9,31.9h-1.9c-0.3,0-0.5-0.2-0.5-0.5v-0.7h2.5V31.9z M86.9,29.5h-2.5v-1.4h2.5V29.5z
		 M86.9,27h-2.5v-1.3h2.5V27z"/>
	<path class="st0" d="M81.7,27C81.7,27,81.7,27,81.7,27c0.1-0.3-0.1-0.6-0.4-0.6h-1.5l1.6-3h-1.8l-1.5,2.8c-0.2,0.4-0.1,0.8,0.3,1
		c0.1,0.1,0.3,0.1,0.5,0.1h0.8l-1.2,2.2c-0.2,0.3-0.1,0.7,0.2,0.9c0.2,0.1,0.4,0.2,0.6,0.2H82v-1.2h-1.6L81.7,27z"/>
	<path class="st0" d="M72.9,31.3c0,0.3-0.3,0.6-0.6,0.6h-2.2l0.7,1.3h2c1,0,1.8-0.8,1.8-1.8v-8.2h-1.7V31.3z"/>
	<path class="st0" d="M96.8,28l-0.5-1.4h-1.6l0.6,2.2c0.1,0.5,0.5,0.7,1.2,0.6h1.6v-1.2h-0.7C97.2,28.3,96.9,28.3,96.8,28z"/>
	<path class="st0" d="M98.2,24.9h-0.7c-0.3,0-0.6,0-0.7-0.3l-0.5-1.4h-1.7l0.8,2.3c0.2,0.5,0.4,0.6,1.1,0.6h1.6V24.9z"/>
	<rect x="98.6" y="25.9" class="st0" width="7.4" height="1.1"/>
	<path class="st0" d="M102.1,23.2h-1.9l-0.4,0.6c-0.1,0.2-0.2,0.2-0.4,0.2h-0.8v1.2h1.8c0.3,0,0.5-0.1,0.8-0.3h4.9v-1.2h-4.3
		L102.1,23.2z"/>
	<path class="st0" d="M98.6,28.7h5.1l-4.8,3c-0.2,0.2-0.4,0.4-0.4,0.7c0,0.4,0.3,0.8,0.8,0.8h6.6V32h-4.7l4.7-3.1v-1.2h-7.4V28.7z"
		/>
	<path class="st0" d="M96.1,31.8c-0.1,0.2-0.2,0.3-0.3,0.3h-1.1v1.1h2c0.5,0,0.9-0.2,1-0.8l0.9-2.4h-1.9L96.1,31.8z"/>
	<path class="st0" d="M114.4,23.3h-2.2l-0.3,0.6h-2.1v1.5h1.3l-1.1,2.1c-0.2,0.4-0.2,0.6-0.2,0.8v0.1c0,0.6,0.5,0.9,1,0.9h4v1.2h-5
		V32h5v1.2l2,0.3V32h4.3v-1.4h-4.3v-1.2h4.4v-1.4h-4.4v-1.8h-2v1.8h-1.9c-0.7,0-0.8-0.3-0.6-0.6l0.9-1.8h7.9V24h-7L114.4,23.3z"/>
	<path class="st0" d="M44.8,26.2c0,4.4-4.1,8.1-9.2,8.1c-5.1,0-9.2-3.7-9.2-8.1V2.1c-2,0.4-3.9,0.8-5.7,1.4v23.8
		c0,3.9,1.9,7.4,5,9.7l9.9,7.6l9.9-7.6c3.1-2.4,5-5.9,5-9.7V3.5c-1.9-0.6-3.8-1-5.7-1.4V26.2z"/>
	<path class="st0" d="M35.7,28c1.6,0,2.9-1.1,2.9-2.5V1.4c-0.9-0.1-1.9-0.1-2.9-0.1c-1,0-1.9,0-2.9,0.1v24.1
		C32.8,26.8,34.1,28,35.7,28z"/>
</g>
</svg>
