<?xml version="1.0" encoding="utf-8"?>
<!-- Generator: Adobe Illustrator 13.0.1, SVG Export Plug-In . SVG Version: 6.00 Build 14948)  -->
<!DOCTYPE svg PUBLIC "-//W3C//DTD SVG 1.1//EN" "http://www.w3.org/Graphics/SVG/1.1/DTD/svg11.dtd">
<svg version="1.1" id="Layer_1" xmlns="http://www.w3.org/2000/svg" xmlns:xlink="http://www.w3.org/1999/xlink" x="0px" y="0px"
	 width="176.756px" height="46.538px" viewBox="0 0 176.756 46.538" enable-background="new 0 0 176.756 46.538"
	 xml:space="preserve">
<g>
	<path fill-rule="evenodd" clip-rule="evenodd" d="M22.538,35.85c6.787,0,12.169-5.564,12.169-12.581
		c0-6.775-5.382-12.582-12.169-12.582s-12.169,5.807-12.169,12.582C10.369,30.285,15.751,35.85,22.538,35.85L22.538,35.85z"/>
	<path fill="none" stroke="#000000" stroke-width="2.0166" stroke-miterlimit="2.6131" d="M22.538,45.529
		c11.935,0,21.53-9.922,21.53-22.261c0-12.34-9.595-22.26-21.53-22.26s-21.53,9.92-21.53,22.26
		C1.008,35.607,10.603,45.529,22.538,45.529L22.538,45.529z M22.538,41.898c9.829,0,18.02-8.469,18.02-18.63
		c0-10.163-8.19-18.389-18.02-18.389c-9.829,0-18.02,8.227-18.02,18.389C4.519,33.43,12.709,41.898,22.538,41.898L22.538,41.898z
		 M22.538,38.27c7.957,0,14.509-6.533,14.509-15.001c0-8.227-6.553-15.001-14.509-15.001S8.029,15.042,8.029,23.269
		C8.029,31.736,14.582,38.27,22.538,38.27L22.538,38.27z M22.538,0.766V11.17 M22.538,35.125v10.404 M1.008,23.269h10.297
		 M33.771,23.269h10.297"/>
	<path fill-rule="evenodd" clip-rule="evenodd" fill="#FFFFFF" d="M16.22,16.978v-1.936c0,0-2.34,1.936-2.34,4.598
		c0,0.968,1.17,3.871,1.17,3.871s0.702,2.177,0.936,2.904c0,0,0.234,1.209-0.468,1.209s-1.404-1.451-1.404-1.936
		c-0.234-0.484-0.234-1.451-0.234-1.451l-1.404-0.968c0,0,0.234,2.903,1.17,4.597c0.702,1.211,1.404,1.211,2.106,1.211
		c0.468,0,1.638-0.242,1.638-1.936c0-1.695-1.17-4.356-1.17-4.356s-0.936-2.178-0.936-2.904c0-0.726,0-1.452,0.468-1.936
		C15.985,17.219,16.22,16.978,16.22,16.978L16.22,16.978z"/>
	<path fill-rule="evenodd" clip-rule="evenodd" fill="#FFFFFF" d="M16.921,14.558c0,0,0.702-0.242,1.404-0.726
		c0.936-0.484,1.638-0.484,1.638-0.484V14.8c0,0-0.234,0-0.468,0c-0.234,0-0.468,0.242-0.468,0.242v17.906c0,0,0,0-0.468,0
		l-0.234-0.242c-0.468-0.242-0.468-0.242-0.468-0.242V15.768c0,0-0.234,0-0.468,0.242c-0.234,0-0.468,0.242-0.468,0.242V14.558
		L16.921,14.558z"/>
	<path fill-rule="evenodd" clip-rule="evenodd" fill="#FFFFFF" d="M20.198,33.43V13.106c0,0,0.702-0.242,1.638-0.242
		c0.702,0,1.404,0,1.404,0v1.452c0,0-0.234,0-0.702,0c-0.468,0-0.936,0-0.936,0v8.469h1.638v1.452h-1.638v7.984
		c0,0,0.234,0.242,0.702,0.242s0.702,0,0.702,0v1.209c0,0-0.702,0-1.404,0C20.666,33.672,20.198,33.43,20.198,33.43L20.198,33.43z"
		/>
	<path fill-rule="evenodd" clip-rule="evenodd" fill="#FFFFFF" d="M24.878,28.592l-1.17-0.727v3.871c0,0,0,1.693,1.872,1.693
		c1.638,0,1.638-1.693,1.638-1.693V14.074c0,0-0.234,0-0.468-0.242c-0.468-0.242-0.702-0.242-0.702-0.242s0,10.888,0,11.13
		c0,0,0,0.242-0.234,0.242c-0.234,0-0.936-0.242-0.936-0.727c0-0.726,0-11.13,0-11.13s-0.234,0-0.468,0s-0.702-0.242-0.702-0.242
		s0,11.372,0,12.099c0,0.725,0.468,1.209,1.404,1.209c0.702,0.242,0.936,0.484,0.936,0.484s0,4.113,0,4.838
		c0,0.727-1.17,0.727-1.17,0C24.878,30.77,24.878,28.592,24.878,28.592L24.878,28.592z"/>
	<path fill-rule="evenodd" clip-rule="evenodd" fill="#FFFFFF" d="M28.389,31.736V14.8c0,0,1.872,1.209,2.808,3.146
		c1.17,2.178,1.17,3.871,0.702,4.839c-0.234,1.209-1.17,1.452-1.17,1.452l1.404,2.178c0,0,0,0.242-0.234,0.727
		c0,0.24-0.234,0.725-0.234,0.725l-2.106-3.387v6.291c0,0,0,0-0.234,0.242C28.856,31.494,28.389,31.736,28.389,31.736L28.389,31.736
		z M30.027,23.269c0,0,0.468,0,0.702-0.726c0.468-0.484,0.468-1.21,0-2.178c-0.234-1.209-1.17-2.419-1.17-2.419v5.323
		C29.559,23.269,29.559,23.269,30.027,23.269L30.027,23.269z"/>
	<path fill-rule="evenodd" clip-rule="evenodd" d="M55.769,34.641c0,0,15.914,0,17.786,0s4.446-0.727,6.318-2.42
		c2.106-1.936,3.276-4.113,3.276-6.049s-0.234-3.146-1.404-4.355c-0.702-0.726-2.574-1.209-3.276-1.209c-0.936,0-10.765,0-11.935,0
		s-0.936-1.694,0.468-1.694c1.404,0,23.87,0,23.87,0l-3.744,15.728h7.956l3.745-15.728h7.488l-2.34,9.679
		c0,0-0.702,2.42,0.702,4.113c0.701,1.209,2.105,1.693,3.744,1.693h17.083l1.404-6.049c0,0-14.041,0-14.51,0
		c-0.468,0-0.233-0.969-0.233-0.969l0.233-0.967h7.255l1.639-5.807c0,0-7.255,0-7.723,0c0,0-0.234-1.694,1.403-1.694
		c1.17,0,13.808,0,13.808,0l6.318,8.71l-1.638,7.018h7.956l1.404-6.775l10.063-8.468l-3.51,15.244h7.488l3.744-16.211h7.021
		c0,0,0.937-0.242,0.469,1.452c-0.469,1.452-1.171,1.21-1.171,1.21h-5.616l-1.404,5.565l5.383,7.984h9.595l-5.383-8.227
		c0,0,3.511-0.727,5.383-3.629c1.872-2.662,1.872-4.113,1.872-5.807c0-2.662-1.872-5.081-3.744-5.081s-21.529,0-21.529,0
		l-10.999,9.194l-6.787-9.194c0,0-17.785,0-20.594,0c-2.808,0-5.382,3.629-5.382,3.629l0.702-3.629H68.171
		c0,0-7.021,1.209-8.424,5.565c-1.404,4.355-0.936,6.049,0.468,7.501c1.17,1.451,4.446,1.209,4.446,1.209s9.829,0,10.765,0
		s0.936,1.693-0.468,1.693c-1.638,0-17.552,0-17.552,0L55.769,34.641L55.769,34.641z"/>
</g>
</svg>
