<svg xmlns="http://www.w3.org/2000/svg" xmlns:xlink="http://www.w3.org/1999/xlink" id="Layer_1" x="0px" y="0px" viewBox="0 0 759.5 123.7" style="enable-background:new 0 0 759.5 123.7;" xml:space="preserve" width="759.5"  height="123.7" ><style type="text/css">	.st0{fill:#EC1C24;}	.st1{fill:#00ADEE;stroke:#FFFFFF;stroke-width:0.25;}	.st2{fill:#231F20;}</style><g id="Layer_2_00000083773827864120976820000011347934212469708676_">	<g id="Layer_1-2">		<path class="st0" d="M51,30.2l1.4-1.4l1.1-1.1c5.2,5.4,8.9,9,13.6,13.6c4.6,4.7,11,7.4,17.6,7.4c6.6,0,13-2.7,17.7-7.4    c4.7-4.6,8-8.1,13.5-13.8l1.2,1.2l1.6,1.6c-6.5,6.6-9.3,8.6-13.9,13.4c-4.7,4.9-7.3,11.3-7.3,18c0,6.7,2.6,13.1,7.2,17.9    c4.5,4.8,8.4,8.2,13.6,13.5l-1.4,1.4l-1,1.1c-6.2-6.3-9-9-13.6-13.5c-4.7-4.7-11-7.4-17.6-7.4c-6.6,0.1-12.8,2.7-17.5,7.3    c-4.7,4.5-8.7,9-13.3,13.7l-1.3-1.3l-0.9-0.9c6.5-6.7,8.7-9.2,13.1-14c4.5-4.8,7.1-11.1,7.1-17.7c0-6.7-2.6-13.1-7.2-17.9    C60.2,39,54.7,34,51,30.2z"/>		<path class="st1" d="M99.5,61.8c0.2-11.4,9.6-20.5,21-20.3s20.5,9.6,20.3,21c-0.2,11.2-9.4,20.3-20.6,20.3    C108.6,82.7,99.4,73.3,99.5,61.8z"/>		<path class="st1" d="M28.5,61.8c-0.1-11.5,9.1-20.9,20.6-21c11.6,0,21,9.4,21,21s-9.4,21-21,21C37.7,82.7,28.4,73.3,28.5,61.8z"/>		<path class="st1" d="M64.1,25.8c0-11.4,9.2-20.6,20.6-20.6c11.4,0,20.6,9.2,20.6,20.6c0,0,0,0,0,0c0,11.4-9.2,20.6-20.6,20.6    C73.3,46.4,64.1,37.2,64.1,25.8C64.1,25.8,64.1,25.8,64.1,25.8z"/>		<path class="st1" d="M64.1,97.9c0.2-11.4,9.6-20.5,21-20.3c11.4,0.2,20.5,9.6,20.3,21c-0.2,11.2-9.4,20.3-20.6,20.3    C73.2,118.8,64,109.4,64.1,97.9z"/>		<path class="st2" d="M184.6,56.8v16.8h-3.8V56.8h-5.4v-3.4h14.9v3.4H184.6z"/>		<path class="st2" d="M205,73.7l-1.2-4h-7.6l-1.2,4h-4.1l6.8-20.3h4.3l6.9,20.3H205z M200,57.1l-2.8,9.3h5.6L200,57.1z"/>		<path class="st2" d="M223.9,73.7L215,59.5l0.2,14.2h-3.7V53.4h3.4l9,14.2l-0.5-14.2h3.7v20.3H223.9z"/>		<path class="st2" d="M248.3,74.1c-6,0-9.4-4.9-9.4-10.5c0-1.5,0.2-3,0.6-4.4c1.3-3.8,4.9-6.4,9-6.2c2.6-0.1,5.2,1.1,6.8,3.2    c0.6,0.9,1.1,1.9,1.4,3l-3.8,1c-0.2-2.2-2.2-3.9-4.4-3.8c-3.8,0-5.6,3.6-5.6,6.9c0,2.6,0.7,5.5,3.2,6.7c0.7,0.4,1.5,0.5,2.3,0.6    c2.5,0,4.3-1.8,5-4.1l3.6,1.5C255.9,71.8,252.3,74.3,248.3,74.1z"/>		<path class="st2" d="M272.3,73.7v-9.2h-8.7v9.2h-3.8V53.4h3.8V61h8.7v-7.6h3.8v20.3H272.3z"/>		<path class="st2" d="M289.4,74.1c-5.8,0-9.6-4.9-9.6-10.5s3.7-10.7,9.8-10.7c1.9,0,3.7,0.6,5.3,1.6c3.1,2,4.3,5.5,4.3,9.1    C299.1,69.3,295.5,74.1,289.4,74.1z M295.4,63.8c0-3.6-1.9-7.4-5.9-7.4s-5.8,3.4-5.8,7c0,1.1,0.2,2.3,0.6,3.3    c0.8,2.3,2.9,3.9,5.4,3.9c2.4,0,4.4-1.5,5.3-3.7c0.4-0.9,0.6-1.9,0.6-3L295.4,63.8L295.4,63.8z"/>		<path class="st2" d="M315.2,73.7l-8.9-14.2l0.2,14.2h-3.7V53.4h3.4l9,14.2l-0.5-14.2h3.7v20.3H315.2z"/>		<path class="st2" d="M337.2,73.7v-1.8c-1.5,1.4-3.4,2.2-5.4,2.2c-6.1,0-9.6-4.6-9.6-10.5s3.7-10.7,9.8-10.7    c3.8-0.1,7.2,2.3,8.5,5.9l-3.6,1.4c-0.8-2.3-2.2-4-4.9-4c-4.1,0-5.7,3.7-5.7,7.3c0,2.6,0.8,5.2,3.2,6.4c0.7,0.4,1.6,0.6,2.4,0.6    c2.1,0.1,4-1.2,4.7-3.1c0.2-0.5,0.3-1,0.4-1.5h-5v-3.3h8.5v11.1H337.2z"/>		<path class="st2" d="M367.8,73.7l0.4-16.7l-4.3,16.7h-3.4L356,57l0.4,16.7h-3.7V53.4h5.5l4,15l3.9-15h5.5v20.3L367.8,73.7z"/>		<path class="st2" d="M384.7,74.1c-5.8,0-9.6-4.9-9.6-10.5s3.7-10.7,9.8-10.7c1.9,0,3.7,0.6,5.3,1.6c3.1,2,4.3,5.5,4.3,9.1    C394.5,69.3,390.9,74.1,384.7,74.1z M390.7,63.8c0-3.6-1.9-7.4-5.9-7.4c-4.1,0-5.8,3.4-5.8,7c0,1.1,0.2,2.3,0.6,3.3    c0.8,2.3,2.9,3.9,5.4,3.9c2.4,0,4.4-1.5,5.3-3.7c0.4-0.9,0.6-1.9,0.6-3L390.7,63.8L390.7,63.8z"/>		<path class="st2" d="M405.7,56.8v16.8h-3.8V56.8h-5.4v-3.4h14.9v3.4H405.7z"/>		<path class="st2" d="M422.9,74.1c-5.8,0-9.6-4.9-9.6-10.5s3.7-10.7,9.8-10.7c1.9,0,3.7,0.6,5.3,1.6c3.1,2,4.3,5.5,4.3,9.1    C432.7,69.3,429.1,74.1,422.9,74.1z M429,63.8c0-3.6-1.9-7.4-5.9-7.4c-4.1,0-5.8,3.4-5.8,7c0,1.1,0.2,2.3,0.6,3.3    c0.8,2.3,2.9,3.9,5.4,3.9c2.4,0,4.4-1.5,5.3-3.7c0.4-0.9,0.6-1.9,0.6-3L429,63.8L429,63.8z"/>		<path class="st2" d="M447.5,73.7l-4-7.5h-3.4v7.5h-3.8V53.4h7.5c2.5,0,4.6,0.4,6.3,2.5c0.8,1.1,1.2,2.5,1.2,3.9    c0.1,2.5-1.5,4.8-4,5.6l4.5,8.2L447.5,73.7L447.5,73.7z M443.6,56.7h-3.5V63h2.5c2.3,0,4.9-0.2,4.9-3.2    C447.5,57.5,445.7,56.7,443.6,56.7L443.6,56.7z"/>		<path class="st2" d="M475.6,73.7v-9.2h-8.7v9.2h-3.8V53.4h3.8V61h8.7v-7.6h3.8v20.3H475.6z"/>		<path class="st2" d="M492.7,74.1c-5.8,0-9.6-4.9-9.6-10.5s3.7-10.7,9.8-10.7c1.9,0,3.7,0.6,5.3,1.6c3.1,2,4.3,5.5,4.3,9.1    C502.5,69.3,498.8,74.1,492.7,74.1z M498.6,63.8c0-3.6-1.8-7.4-5.9-7.4c-4,0-5.8,3.4-5.8,7c0,1.1,0.2,2.3,0.5,3.3    c1,3,4.1,4.6,7.1,3.6c1.7-0.5,3-1.8,3.6-3.4c0.4-0.9,0.6-1.9,0.6-3L498.6,63.8L498.6,63.8z"/>		<path class="st2" d="M506.1,73.7V53.4h3.8v16.7h8v3.4L506.1,73.7L506.1,73.7z"/>		<path class="st2" d="M536.7,69.3c-2.1,3.9-5.4,4.3-9.4,4.3h-6.5V53.4h7.2c1.3,0,2.6,0.1,3.8,0.5c4.3,1.4,6,5.6,6,9.8    C537.9,65.6,537.5,67.6,536.7,69.3z M529.8,57.1c-1.1-0.2-2.2-0.3-3.2-0.2h-2v13.4h1.6c1.4,0.1,2.9,0,4.3-0.3    c3.1-0.8,3.5-3.8,3.5-6.6C533.9,60.4,532.8,57.9,529.8,57.1L529.8,57.1z"/>		<path class="st2" d="M541.3,73.7V53.4h3.7v20.3H541.3z"/>		<path class="st2" d="M562,73.7l-8.9-14.2l0.2,14.2h-3.7V53.4h3.4l9,14.2l-0.4-14.2h3.7v20.3H562z"/>		<path class="st2" d="M584,73.7v-1.8c-1.5,1.4-3.4,2.2-5.5,2.2c-6.1,0-9.6-4.6-9.6-10.5s3.7-10.7,9.8-10.7c3.8-0.1,7.2,2.3,8.5,5.9    l-3.6,1.4c-0.8-2.3-2.2-4-4.9-4c-4.1,0-5.7,3.7-5.7,7.3c0,2.6,0.8,5.2,3.2,6.4c0.7,0.4,1.6,0.6,2.4,0.6c2.1,0.1,4-1.2,4.7-3.1    c0.2-0.5,0.3-1,0.4-1.5h-5v-3.3h8.5v11.1H584z"/>		<path class="st2" d="M598.5,74.1c-2.7,0-5.3-0.9-7.3-2.6c-0.6-0.5-1-1.1-1.4-1.8l3.1-2.2c0.2,0.3,0.4,0.6,0.6,0.8    c1.5,1.5,3.5,2.3,5.6,2.2c1.7,0,4-0.6,4-2.6c0-2-2.4-2.3-3.9-2.6l-2.4-0.6c-0.6-0.2-1.3-0.3-1.9-0.5c-2.5-0.8-4.1-2.5-4.1-5.2    c0-4.4,4.2-6.3,8-6.3c2.8-0.1,5.6,1.1,7.4,3.2c0.2,0.3,0.5,0.5,0.6,0.8l-3.1,2.3c-1.3-1.9-2.8-3.1-5.2-3.1c-1.5,0-3.9,0.6-3.9,2.5    s2.4,2.1,3.7,2.4c3.8,0.8,8.6,1.5,8.6,6.5S602.6,74.1,598.5,74.1z"/>		<path class="st2" d="M633.9,71.4c-1.5,2-3.8,2.3-6.1,2.3h-9V53.4h8.7c2,0,3.9,0.2,5.3,1.9c0.7,0.9,1.1,1.9,1.1,3.1    c0.1,1.5-0.7,3-2,3.8c-0.4,0.2-0.8,0.4-1.3,0.5c2.6,0.5,4.4,2.8,4.2,5.4C634.9,69.2,634.6,70.4,633.9,71.4z M629.4,57.4    c-0.9-0.7-2-1-3.2-0.9h-3.7v5h1.7c1.4,0.1,2.9,0,4.3-0.3c1-0.3,1.6-1.2,1.6-2.2C630,58.3,629.8,57.8,629.4,57.4z M630.1,65.4    c-1-0.8-2.3-1.2-3.5-1h-4.1v6h4.8c1.9,0,3.7-0.5,3.7-2.9C631,66.7,630.7,66,630.1,65.4L630.1,65.4z"/>		<path class="st2" d="M638.4,73.7V53.4h14.3v3.4h-10.6v4.7h9.8v3.2h-9.8v5.5h11.4v3.4L638.4,73.7z"/>		<path class="st2" d="M667.6,73.7l-4-7.5h-3.4v7.5h-3.8V53.4h7.4c2.5,0,4.6,0.4,6.3,2.5c0.8,1.1,1.2,2.5,1.2,3.9    c0.1,2.6-1.5,4.9-4,5.6l4.5,8.2L667.6,73.7L667.6,73.7z M663.7,56.7h-3.5V63h2.5c2.3,0,4.9-0.2,4.9-3.2    C667.6,57.5,665.7,56.7,663.7,56.7z"/>		<path class="st2" d="M687.5,73.7v-9.2h-8.7v9.2H675V53.4h3.8V61h8.7v-7.6h3.8v20.3H687.5z"/>		<path class="st2" d="M707.7,73.7l-1.2-4h-7.6l-1.2,4h-4.1l6.8-20.3h4.3l6.9,20.3H707.7z M702.7,57.1l-2.8,9.3h5.6L702.7,57.1z"/>		<path class="st2" d="M729.9,69.3c-2.1,3.9-5.4,4.3-9.4,4.3H714V53.4h7.2c1.3,0,2.6,0.1,3.8,0.5c4.3,1.4,6,5.6,6,9.8    C731.2,65.6,730.8,67.6,729.9,69.3z M723.1,57.1c-1.1-0.2-2.2-0.3-3.2-0.2h-2v13.4h1.6c1.4,0.1,2.8,0,4.2-0.3    c3.2-0.8,3.5-3.8,3.5-6.6C727.2,60.4,726,57.9,723.1,57.1L723.1,57.1z"/>	</g></g></svg>