<?xml version="1.0" encoding="UTF-8" standalone="no"?>
<svg
   xmlns:dc="http://purl.org/dc/elements/1.1/"
   xmlns:cc="http://creativecommons.org/ns#"
   xmlns:rdf="http://www.w3.org/1999/02/22-rdf-syntax-ns#"
   xmlns:svg="http://www.w3.org/2000/svg"
   xmlns="http://www.w3.org/2000/svg"
   xmlns:sodipodi="http://sodipodi.sourceforge.net/DTD/sodipodi-0.dtd"
   xmlns:inkscape="http://www.inkscape.org/namespaces/inkscape"
   viewBox="0 0 95.38 121.38"
   version="1.1"
   id="svg18"
   sodipodi:docname="Tanke.svg"
   inkscape:version="1.0.1 (3bc2e813f5, 2020-09-07)">
  <metadata
     id="metadata22">
    <rdf:RDF>
      <cc:Work
         rdf:about="">
        <dc:format>image/svg+xml</dc:format>
        <dc:type
           rdf:resource="http://purl.org/dc/dcmitype/StillImage" />
      </cc:Work>
    </rdf:RDF>
  </metadata>
  <sodipodi:namedview
     pagecolor="#ffffff"
     bordercolor="#666666"
     borderopacity="1"
     objecttolerance="10"
     gridtolerance="10"
     guidetolerance="10"
     inkscape:pageopacity="0"
     inkscape:pageshadow="2"
     inkscape:window-width="1920"
     inkscape:window-height="1001"
     id="namedview20"
     showgrid="false"
     inkscape:zoom="6.8380295"
     inkscape:cx="47.689999"
     inkscape:cy="72.389275"
     inkscape:window-x="-9"
     inkscape:window-y="-9"
     inkscape:window-maximized="1"
     inkscape:current-layer="svg18" />
  <defs
     id="defs4">
    <style
       id="style2">.cls-1{fill:#fff;}</style>
  </defs>
  <g
     id="Layer_2"
     data-name="Layer 2">
    <g
       id="Layer_1-2"
       data-name="Layer 1"
       style="fill:#000000">
      <path
         class="cls-1"
         d="M64.31,108v7.81a.18.18,0,0,1-.3.14l-9.82-8a1.28,1.28,0,0,0-.8-.28H48.58a.35.35,0,0,0-.35.34V121a.35.35,0,0,0,.35.34H53.5a.34.34,0,0,0,.34-.34v-7.81a.18.18,0,0,1,.3-.14l9.81,8a1.28,1.28,0,0,0,.81.29h4.81a.35.35,0,0,0,.35-.34V108a.35.35,0,0,0-.35-.34H64.65a.34.34,0,0,0-.34.34"
         id="path6"
         style="fill:#000000" />
      <path
         class="cls-1"
         d="M44.5,121.07l-9.12-13.26a.46.46,0,0,0-.39-.2H31a.46.46,0,0,0-.39.2l-9.12,13.26a.2.2,0,0,0,.17.31h4.68a.5.5,0,0,0,.39-.2l2.08-3a.38.38,0,0,1,.29-.15h7.77a.38.38,0,0,1,.29.15l2.08,3a.5.5,0,0,0,.39.2h4.68a.2.2,0,0,0,.17-.31m-13.44-6.16,1.83-2.67a.14.14,0,0,1,.23,0L35,114.91a.14.14,0,0,1-.12.21H31.17a.13.13,0,0,1-.11-.21"
         id="path8"
         style="fill:#000000" />
      <path
         class="cls-1"
         d="M23.09,107.92a.2.2,0,0,0-.17-.31H.2a.19.19,0,0,0-.16.31l1.61,2.34a.47.47,0,0,0,.39.21H8.37a.33.33,0,0,1,.33.33V121a.34.34,0,0,0,.34.34h5a.34.34,0,0,0,.34-.34V110.8a.33.33,0,0,1,.33-.33h6.33a.47.47,0,0,0,.39-.21Z"
         id="path10"
         style="fill:#000000" />
      <path
         class="cls-1"
         d="M95.25,107.61H89.14a1.27,1.27,0,0,0-.63.17l-8.29,4.92a.16.16,0,0,1-.25-.14V108a.35.35,0,0,0-.35-.34H75.06a.35.35,0,0,0-.35.34V121a.35.35,0,0,0,.35.34h4.56A.35.35,0,0,0,80,121v-4a.22.22,0,0,1,.1-.18l1.74-1a.21.21,0,0,1,.24,0l7.06,5.25a1.31,1.31,0,0,0,.74.24h5.36a.17.17,0,0,0,.11-.31l-9.68-7.2a.17.17,0,0,1,0-.28l9.67-5.74a.13.13,0,0,0-.07-.24"
         id="path12"
         style="fill:#000000" />
      <path
         class="cls-1"
         d="M81.85,6.46a7.73,7.73,0,0,0-.5-2.92h0c-.53-1.11-1.66-1.9-4.2-2.15A243.24,243.24,0,0,0,47.71,0h0A243.36,243.36,0,0,0,18.23,1.38c-2.55.26-3.68,1.05-4.2,2.16a7.72,7.72,0,0,0-.49,2.91c-.65,13.38-.26,49.79,1.52,70.27.21,2.37.32,4.88.66,7,.53,3.16,1.84,4,4.34,4.57,4.37.9,12.94,1.63,27.62,1.63S71,89.16,75.32,88.25c2.51-.52,3.82-1.41,4.34-4.56.35-2.09.46-4.6.66-7,1.78-20.48,2.17-56.88,1.53-70.26M16.61,7.93c.08-1.64-.17-2.81,1.15-3.71L37.11,7.71c.66-.38,10.29-.38,10.59-.38h0c.3,0,9.92,0,10.59.38L77.47,4.2c1.34.89,1.11,2.09,1.19,3.74.2,4.14.29,10.56.28,18v.13L63.57,27.18c-3.81.35-4.26,1.33-4.27,3.09,0,0-.18,12-.28,16.28-.15,6-.66,15-.67,15.28A2.58,2.58,0,0,1,56,64.44s-4.9.17-8.25.14h-.15c-3.35,0-8.25-.14-8.25-.14a2.58,2.58,0,0,1-2.39-2.61c0-.3-.52-9.26-.67-15.28C36.14,42.31,36,30.27,36,30.27c0-1.76-.46-2.74-4.27-3.09L16.33,26c0-7.46.08-13.88.28-18m31,59.29h.08l7.65-.07c6,0,5.37-.49,6.17-5.74.2-1.31,3-30.87,3-30.87a1.07,1.07,0,0,1,1-1l13-1.71a.39.39,0,0,1,.45.4S77.87,77.12,76.5,83.06c-.29,1.29-.62,1.58-1.74,1.85,0,0-6.55,1.54-27.13,1.56s-27.12-1.56-27.12-1.56c-1.12-.27-1.45-.56-1.74-1.85-1.38-5.94-2.44-54.87-2.44-54.87a.39.39,0,0,1,.44-.4l13,1.71a1.07,1.07,0,0,1,1,1s2.76,29.56,3,30.87c.8,5.25.21,5.77,6.18,5.74l7.65.07h.07Z"
         id="path14"
         style="fill:#000000" />
    </g>
  </g>
</svg>
