<?xml version="1.0" encoding="UTF-8" standalone="no"?>
<!-- Created with Inkscape (http://www.inkscape.org/) -->

<svg
   xmlns:dc="http://purl.org/dc/elements/1.1/"
   xmlns:cc="http://creativecommons.org/ns#"
   xmlns:rdf="http://www.w3.org/1999/02/22-rdf-syntax-ns#"
   xmlns:svg="http://www.w3.org/2000/svg"
   xmlns="http://www.w3.org/2000/svg"
   xmlns:sodipodi="http://sodipodi.sourceforge.net/DTD/sodipodi-0.dtd"
   xmlns:inkscape="http://www.inkscape.org/namespaces/inkscape"
   width="328.02563"
   height="94.560272"
   viewBox="0 0 86.790114 25.019072"
   version="1.1"
   id="svg8"
   inkscape:version="0.92.3 (2405546, 2018-03-11)"
   sodipodi:docname="temsa.svg">
  <defs
     id="defs2" />
  <sodipodi:namedview
     id="base"
     pagecolor="#00ffff"
     bordercolor="#666666"
     borderopacity="1.0"
     inkscape:pageopacity="0"
     inkscape:pageshadow="2"
     inkscape:zoom="0.35"
     inkscape:cx="298.83334"
     inkscape:cy="48.70877"
     inkscape:document-units="px"
     inkscape:current-layer="layer1"
     showgrid="false"
     units="px"
     fit-margin-top="0.5"
     fit-margin-left="0.5"
     fit-margin-right="0.5"
     fit-margin-bottom="0.5"
     inkscape:window-width="1920"
     inkscape:window-height="1001"
     inkscape:window-x="-9"
     inkscape:window-y="-9"
     inkscape:window-maximized="1" />
  <metadata
     id="metadata5">
    <rdf:RDF>
      <cc:Work
         rdf:about="">
        <dc:format>image/svg+xml</dc:format>
        <dc:type
           rdf:resource="http://purl.org/dc/dcmitype/StillImage" />
        <dc:title></dc:title>
      </cc:Work>
    </rdf:RDF>
  </metadata>
  <g
     inkscape:label="Layer 1"
     inkscape:groupmode="layer"
     id="layer1"
     transform="translate(-26.767013,-136.70178)">
    <g
       id="surface18155"
       transform="matrix(0.19335314,0,0,0.19335314,21.769405,130.79556)">
      <path
         id="path10"
         d="m 227.14062,84.726563 h -58.04296 v 6.636718 h 20.51953 v 17.089849 c 0,4.57031 4.21875,8.27734 9.40625,8.27734 h 7.59375 V 91.363281 h 20.52343 z m 0,0"
         style="fill:#211e1e;fill-opacity:1;fill-rule:nonzero;stroke:none"
         inkscape:connector-curvature="0" />
      <path
         id="path12"
         d="m 280.84375,91.34375 v -6.617187 h -47.17188 c 0,0 0,20.355467 0,22.101567 0,5.36328 5.17188,9.90234 11.4375,9.90234 h 35.73438 v -6.84766 h -27.44922 c -1.69922,0 -2.72656,-1.35937 -2.72656,-2.58593 v -3.48438 h 28.40234 V 97.414063 H 250.66797 V 91.34375 Z m 0,0"
         style="fill:#211e1e;fill-opacity:1;fill-rule:nonzero;stroke:none"
         inkscape:connector-curvature="0" />
      <path
         id="path14"
         d="m 398.04687,116.73047 c 7.3086,0 11.24219,-4.5625 11.24219,-9.67188 0,-5.80859 -4.16406,-9.140621 -11.17187,-9.671871 -7.00391,-0.539063 -22.29297,-1.703125 -22.29297,-1.703125 -1.99219,-0.1875 -2.72656,-1.125 -2.72656,-2.308594 0,-1.183594 1.02734,-2.136719 2.72656,-2.144531 h 30.91797 v -6.503906 h -37.39453 c -7.4961,0 -11.75,3.992187 -11.75,8.984375 0,5.324218 3.89453,9.234372 11.16796,9.679692 0,0 20.09766,1.53515 22.10157,1.72265 2.0039,0.1875 3.07812,1.06641 3.07812,2.52344 0,1.34375 -1.24609,2.25 -3.21094,2.25 h -31.7539 v 6.84375 z m 0,0"
         style="fill:#211e1e;fill-opacity:1;fill-rule:nonzero;stroke:none"
         inkscape:connector-curvature="0" />
      <path
         id="path16"
         d="m 434.99219,103.77344 6.13672,-10.785159 c 0.60156,-1.105468 1.75,-1.105468 2.38671,0 l 6.05079,10.785159 z m 19.9375,-19.046877 h -16.47657 c -7.6914,0 -11.48046,4.636718 -13.43359,7.863281 -1.94922,3.230469 -14.49219,24.140626 -14.49219,24.140626 h 17.08203 l 3.78516,-6.63281 h 21.76953 l 3.78906,6.63281 h 17.07813 z m 0,0"
         style="fill:#211e1e;fill-opacity:1;fill-rule:nonzero;stroke:none"
         inkscape:connector-curvature="0" />
      <path
         id="path18"
         d="m 336.95312,84.734375 c -0.19921,0 -0.38671,0.01953 -0.57812,0.02734 -4.89453,0.207031 -9.37891,2.859375 -11.28516,7.074219 l -5.05859,10.484376 -5.02734,-10.484376 c -1.91016,-4.214844 -6.39454,-6.867188 -11.28516,-7.074219 -0.19141,-0.0078 -0.38281,-0.02734 -0.57422,-0.02734 -0.19531,0 -14.87109,-0.01172 -14.87109,-0.0078 v 32.003905 h 15.35547 V 92.945313 h 0.40234 c 0.98047,0 1.4375,0.328125 1.87109,1.226562 l 10.33594,22.558595 h 7.58594 l 10.33594,-22.558595 c 0.43359,-0.898437 0.89453,-1.226562 1.86328,-1.226562 h 0.41015 v 23.785157 h 15.35547 V 84.726563 c 0,-0.0039 -14.64062,0.0078 -14.83594,0.0078"
         style="fill:#211e1e;fill-opacity:1;fill-rule:nonzero;stroke:none"
         inkscape:connector-curvature="0" />
      <path
         id="path20"
         d="m 144.14844,84.707031 c -0.91407,1.84375 -1.96875,4.414063 -3.94532,5.691407 -2.11718,1.285156 -3.73046,1.597656 -6.88281,1.867187 -3.50781,0.300781 -10.17578,-0.183594 -12.84375,-0.0078 -1.89062,0.121093 -3.85156,0.359375 -5,0.78125 -1.16797,0.425781 -2.69531,1.226562 -3.84375,2.085937 -2.59765,1.941406 -4.57422,3.753906 -6.37109,6.441408 -0.82813,1.23437 -2.66797,5.57812 -2.70313,9.26953 -0.0508,5.68359 -0.0469,23.59375 -0.64062,37.80859 24.64062,-5.1875 43.14844,-27.07812 43.16797,-53.265622 0.004,-3.628906 -0.3086,-7.214843 -0.9375,-10.671875"
         style="fill:#211e1e;fill-opacity:1;fill-rule:nonzero;stroke:none"
         inkscape:connector-curvature="0" />
      <path
         id="path22"
         d="M 90.5,156.79687 C 56.503906,156.77344 28.96875,129.19141 28.996094,95.195313 29.023438,61.203125 56.601563,33.667969 90.59375,33.691406 124.58984,33.71875 152.12891,61.296875 152.09766,95.292969 152.07422,129.28516 124.49219,156.82422 90.5,156.79687 M 90.54687,31.230469 c -35.355469,0 -64.015625,28.660156 -64.015625,64.015625 0,35.351566 28.660156,64.011716 64.015625,64.011716 35.35546,0 64.01563,-28.66015 64.01563,-64.011716 0,-35.355469 -28.66016,-64.015625 -64.01563,-64.015625"
         style="fill:#211e1e;fill-opacity:1;fill-rule:nonzero;stroke:none"
         inkscape:connector-curvature="0" />
      <path
         id="path24"
         d="M 90.085938,92.867188 C 82.886719,92.859375 77.050781,87.046875 77.054688,79.875 77.0625,72.707031 82.90625,66.898438 90.105469,66.90625 c 7.199219,0.0039 13.035161,5.820313 13.031251,12.988281 -0.008,7.171875 -5.847657,12.976563 -13.050782,12.972657 m -32.257813,0 c -3.398437,0 -7.6875,-1.957032 -9.878906,-5.554688 -1.359375,-2.238281 -2.042969,-4.609375 -1.9375,-7.207031 0.300781,-7.195313 6.039062,-12.816406 12.894531,-12.816406 3.648438,0 7.820313,1.980468 10.089844,5.679687 1.242187,2.019531 1.910156,4.378906 1.832031,7.136719 -0.175781,6.015625 -5.054687,12.761719 -13,12.761719 M 90.679688,40.890625 c -30.066407,-0.02344 -54.464844,24.335938 -54.488282,54.40625 -0.01953,25.875005 18.070313,47.558595 42.257813,53.117185 -0.01172,-2.6289 -0.292969,-22.78125 -0.363281,-33.09375 -0.04297,-6.08593 0.933593,-9.64843 3.445312,-12.05859 3.527344,-3.394532 8.121094,-3.687501 11.097656,-4.281251 2.25,-0.449219 3.777344,-0.71875 6.507813,-2.089844 1.421871,-0.714844 3.605471,-2.15625 5.214841,-4.03125 3.14453,-3.65625 4.08203,-6.988281 4.84375,-12.609375 0.46875,-3.480469 1.4336,-6.046875 3.64063,-8.421875 1.98047,-2.125 4.42187,-3.226562 7.58594,-3.449219 5.67578,-0.398437 14.83984,0.390625 17.76953,0.425782 C 128.88672,52.164063 111.10156,40.90625 90.679688,40.890625"
         style="fill:#211e1e;fill-opacity:1;fill-rule:nonzero;stroke:none"
         inkscape:connector-curvature="0" />
    </g>
  </g>
</svg>
