<?xml version="1.0" encoding="UTF-8" standalone="no"?>
<svg
   xmlns:dc="http://purl.org/dc/elements/1.1/"
   xmlns:cc="http://creativecommons.org/ns#"
   xmlns:rdf="http://www.w3.org/1999/02/22-rdf-syntax-ns#"
   xmlns:svg="http://www.w3.org/2000/svg"
   xmlns="http://www.w3.org/2000/svg"
   viewBox="0 0 197.1125 38.6875"
   height="38.6875"
   width="197.1125"
   xml:space="preserve"
   version="1.1"
   id="svg2"><metadata
     id="metadata8"><rdf:RDF><cc:Work
         rdf:about=""><dc:format>image/svg+xml</dc:format><dc:type
           rdf:resource="http://purl.org/dc/dcmitype/StillImage" /><dc:title></dc:title></cc:Work></rdf:RDF></metadata><defs
     id="defs6" /><g
     transform="matrix(1.25,0,0,-1.25,0,38.6875)"
     id="g10"><g
       transform="scale(0.1,0.1)"
       id="g12"><path
         id="path14"
         style="fill:#231f20;fill-opacity:1;fill-rule:nonzero;stroke:none"
         d="m 1280.19,249.293 c 0,0 -23.67,0 -25.65,0 l 0,29.031 c 2,0 28.55,0 28.55,0 23.26,0 34.09,-4.703 34.09,-14.804 0,-13.129 -18.27,-14.227 -36.99,-14.227 z m 86.2,14.027 c 0,28.344 -26.47,42.715 -78.66,42.715 l -80.66,0 0,-139.258 47.47,0 c 0,0 0,52.735 0,54.801 l 21.28,0 c 0,0 0,0 0,-0.008 0,-0.644 42.15,-54.382 42.15,-54.382 l 55.17,-0.411 2.43,0 c 0,0 -50.4,55.801 -52.71,58.356 27.18,3.851 43.53,17.914 43.53,38.187 z m 125.36,-13.058 0,-30.039 c 0,0 34.86,0 36.89,0 l 0,-20.414 c -7.03,-2.524 -21.21,-6.485 -41.62,-6.485 -37,0 -62.84,17.719 -62.84,43.086 0,25.363 25.84,43.078 62.84,43.078 21.45,0 36.67,-3.941 49.35,-12.785 l 0.62,-0.433 33.87,24.625 -1.36,0.839 c -19.05,11.801 -46.8,17.786 -82.48,17.786 -67.03,0 -112.06,-29.379 -112.06,-73.11 0,-43.734 45.03,-73.109 112.06,-73.109 32.24,0 61.39,4.441 86.63,13.211 l 0.73,0.25 0,73.5 -82.63,0 z m -409.17,-27.707 c 2.1,0 89.2,0 89.2,0 l 0,30.027 c 0,0 -87.1,0 -89.2,0 l 0,23.422 c 2.1,0 94.41,0 94.41,0 l 0,30.031 -141.86,0 0,-139.258 147.1,0 0,30.028 c 0,0 -97.54,0 -99.65,0 l 0,25.75 z M 941.492,194.48 c 0,0 -37.547,0 -39.59,0 l 0,29.036 c 2.024,0 33.203,0 33.203,0 13.274,0 35.547,-1.821 35.547,-14.024 0,-11.066 -15.066,-15.012 -29.16,-15.012 z m -39.59,83.844 c 2.004,0 29.719,0 29.719,0 8.848,0 29.426,-1.293 29.426,-13.258 0,-10.199 -14.152,-13.832 -27.387,-13.832 0,0 -29.742,0 -31.758,0 l 0,27.09 z m 73.625,-38.453 c 20.821,5.234 32.993,16.004 32.993,30.227 0,32.211 -43.559,35.937 -76.313,35.937 l -77.766,0 0,-139.258 85.317,0 c 37.879,0 78.362,10.301 78.362,39.223 0,17.477 -17.12,30.621 -42.593,33.871 z M 551.016,222.555 c 2.097,0 89.179,0 89.179,0 l 0,30.027 c 0,0 -87.082,0 -89.179,0 l 0,23.422 c 2.097,0 94.414,0 94.414,0 l 0,30.031 -141.875,0 0,-139.258 147.109,0 0,30.028 c 0,0 -97.539,0 -99.648,0 l 0,25.75 z m 197.617,26.738 c 0,0 -23.692,0 -25.672,0 l 0,29.031 c 2,0 28.562,0 28.562,0 23.243,0 34.075,-4.703 34.075,-14.804 0,-13.129 -18.262,-14.227 -36.965,-14.227 z m 86.164,14.027 c 0,28.344 -26.445,42.715 -78.613,42.715 l -80.676,0 0,-139.258 47.453,0 c 0,0 0,52.735 0,54.801 l 21.297,0 c 0,0 0,0 0,-0.008 0,-0.644 42.148,-54.382 42.148,-54.382 l 55.157,-0.411 2.421,0 c 0,0 -50.379,55.801 -52.695,58.356 27.168,3.851 43.508,17.918 43.508,38.187 z m -525.473,15.836 -3.211,-1.988 c 0,0 75.957,0 78.047,0 0,-2.109 0,-110.391 0,-110.391 l 47.461,0 c 0,0 0,108.282 0,110.391 2.07,0 58.684,0 58.684,0 l 0,28.867 -137.278,0 c -0.566,-0.16 -43.703,-26.879 -43.703,-26.879" /><path
         id="path16"
         style="fill:#263d96;fill-opacity:1;fill-rule:nonzero;stroke:none"
         d="M 311.621,114.051 311.621,0 1576.9,0 l 0,114.051 -1265.279,0 z m -110.168,-8.203 0,-84.6371 -27.832,40.4375 0,84.6406 27.832,-40.441 z m -88.183,46.222 -30.8286,45.809 54.6486,0 30.832,-45.809 -54.652,0 z m 201.566,45.907 -138.441,0 0,-44.95 L 73.1563,306.289 0,306.289 206.523,1.44531 l 0,106.86369 -29.476,43.761 76.82,0 60.969,45.907" /><path
         id="path18"
         style="fill:#ffffff;fill-opacity:1;fill-rule:nonzero;stroke:none"
         d="m 1466.46,55.3008 c -5.08,3.039 -11.83,5.3242 -22.42,8.8203 -0.05,0.0078 -20.45,7.1094 -20.45,7.1094 -3.08,1.375 -6.73,3.8086 -6.73,7.6367 0,2.168 1.17,3.9453 3.47,5.2734 3.11,1.836 8.19,2.9688 13.28,2.9688 8.21,0 13.82,-2.5781 16.69,-7.6563 l 0.51,-0.8789 23.28,0.7305 -0.69,2.1406 c -3.79,11.5899 -18.03,18.2422 -39.08,18.2422 -13.2,0 -23.74,-2.1875 -31.33,-6.5039 -8.57,-4.5234 -10.37,-10.8008 -10.37,-15.2656 0,-6.6016 3.72,-12.168 11.05,-16.5508 4.96,-3.0664 11.31,-5.625 23.39,-9.3945 l 19.66,-7.168 c 3.85,-2.1016 5.68,-4.5313 5.68,-7.5977 0,-2.4922 -1.45,-4.8828 -3.98,-6.5625 -4.23,-2.7148 -9.49,-4.1015 -15.63,-4.1015 -11.87,0 -17.06,4.707 -19.32,8.6523 l -0.51,0.8867 -23.88,-1.082 0.76,-2.1289 c 3.06,-8.625 12.97,-18.9063 42.82,-18.9063 13.19,0 24.45,2.7422 33.47,8.1446 7.06,4.2578 10.95,10.2422 10.95,16.8554 0,6.3868 -3.57,11.8829 -10.62,16.336 z m -171.65,-3.582 c 3.11,0 44.11,0 44.11,0 l 0,12.8203 c 0,0 -41,0 -44.11,0 l 0,20.7539 c 3.18,0 58.53,0 58.53,0 l 0,12.832 -83.46,0 0,-82.5781 85.12,0 0,12.8125 c 0,0 -57.01,0 -60.19,0 l 0,23.3594 z M 1198.7,34.3164 c -9.48,12.4492 -27.24,33.9063 -52.41,63.2227 l -0.5,0.5859 -33.96,0 0,-82.5781 23.96,0 c 0,0 -0.72,56.5312 -0.82,63.8476 8.92,-11.6914 25.47,-31.6914 52.42,-63.2617 l 0.51,-0.5859 33.84,0 0,82.5781 -23.97,0 c 0,0 0.82,-56.4258 0.93,-63.8086 z M 1039,15.5469 l 24.79,0 0,82.5781 -24.79,0 0,-82.5781 z m -71.078,49.1094 -54.438,0 c 0,3.039 0,33.4687 0,33.4687 l -24.683,0 0,-82.5781 24.683,0 c 0,0 0,33.3008 0,36.3476 l 54.438,0 c 0,-3.0468 0,-36.3476 0,-36.3476 l 24.695,0 0,82.5781 -24.695,0 c 0,0 0,-30.4297 0,-33.4687 z M 825.359,42.0195 C 822.891,34.8828 814.813,26.543 800.176,26.543 c -11.172,0 -29.91,3.9258 -29.91,30.1758 0,26.414 18.945,30.3593 30.242,30.3593 12.097,0 19.543,-4.4336 23.437,-13.9531 l 0.457,-1.1328 24.614,1.7266 -0.786,2.1015 c -5.601,15.1641 -22.957,23.8672 -47.593,23.8672 -15.09,0 -28.293,-3.418 -38.188,-9.8828 -11.121,-7.5195 -16.98,-18.7891 -16.98,-32.6367 0,-15 5.781,-26.3672 17.176,-33.8086 9.093,-6.0547 22.484,-9.3946 37.687,-9.3946 23.074,0 42.981,10.0196 49.531,24.9102 l 0.938,2.1406 -25.008,2.2461 -0.434,-1.2422 z m -186.316,8.4961 c 1.797,3.711 9.031,18.6836 9.031,18.6836 0,0 5.754,12.7149 7.285,16.1016 1.457,-2.9688 7.18,-15.3399 7.18,-15.3399 0,0 7.59,-15.7421 9.375,-19.4453 l -32.871,0 z m 0.812,47.6094 -46.32,-82.5781 27.93,0 c 0,0 9.883,20.3398 10.73,22.0703 l 46.504,0 c 0.852,-1.7109 10.91,-22.0703 10.91,-22.0703 l 27.918,0 -46.375,82.5781 -31.297,0 z M 525.723,97.2656 C 509.719,68.6992 498.66,48.75 492.012,35 486.594,46.3086 477.969,61.9219 465.145,85.0391 l -7.254,13.0859 -34.922,0 0,-82.5781 22.566,0 c 0,0 -0.508,56.0039 -0.586,65.332 4.321,-7.7851 27.68,-49.9219 27.68,-49.9219 l 8.648,-15.4101 21.34,0 c 0,0 31.973,57.4219 36.426,65.4179 -0.078,-9.1992 -0.527,-65.4375 -0.527,-65.4375 l 22.578,0.0196 0,82.5781 -34.895,0 -0.476,-0.8594" /></g></g></svg>