<?xml version="1.0" encoding="UTF-8" standalone="no"?>
<!-- Created with Inkscape (http://www.inkscape.org/) -->

<svg
   xmlns:dc="http://purl.org/dc/elements/1.1/"
   xmlns:cc="http://creativecommons.org/ns#"
   xmlns:rdf="http://www.w3.org/1999/02/22-rdf-syntax-ns#"
   xmlns:svg="http://www.w3.org/2000/svg"
   xmlns="http://www.w3.org/2000/svg"
   version="1.1"
   width="892.91339"
   height="135"
   id="svg3860">
  <defs
     id="defs3862">
    <clipPath
       id="clipPath3794">
      <path
         d="m 36.223,373.101 257.166,0 0,36.406 -257.166,0 0,-36.406 z"
         id="path3796" />
    </clipPath>
  </defs>
  <metadata
     id="metadata3865">
    <rdf:RDF>
      <cc:Work
         rdf:about="">
        <dc:format>image/svg+xml</dc:format>
        <dc:type
           rdf:resource="http://purl.org/dc/dcmitype/StillImage" />
        <dc:title></dc:title>
      </cc:Work>
    </rdf:RDF>
  </metadata>
  <g
     transform="translate(34.521311,-402.97332)"
     id="layer1">
    <g
       transform="matrix(3.5179005,0,0,-3.5179005,-158.41268,1847.0419)"
       id="g3790">
      <g
         clip-path="url(#clipPath3794)"
         id="g3792">
        <g
           transform="matrix(0.5523529,0,0,-0.5952911,283.70303,404.0696)"
           id="g3798">
          <path
             d="m 0,0 1.227,0 c 1.039,0 1.988,-0.053 1.988,-1.246 0,-1.004 -0.865,-1.159 -1.66,-1.159 L 0,-2.405 0,0 z m -1.179,-3.357 2.924,0 c 1.8,0 2.65,0.709 2.65,2.162 0,1.367 -0.867,1.939 -1.992,2.06 l 2.164,3.338 -1.264,0 -2.058,-3.252 -1.245,0 0,3.252 -1.179,0 0,-7.56 z m 2.527,9.306 c 2.992,0 5.313,-2.386 5.313,-5.553 0,-3.095 -2.321,-5.484 -5.313,-5.484 -3.027,0 -5.346,2.389 -5.346,5.484 0,3.167 2.319,5.553 5.346,5.553 m 0,-11.987 c 3.529,0 6.486,2.785 6.486,6.434 0,3.72 -2.957,6.506 -6.486,6.506 -3.547,0 -6.521,-2.786 -6.521,-6.506 0,-3.649 2.974,-6.434 6.521,-6.434"
             id="path3800"
             style="fill:#231f20;fill-opacity:1;fill-rule:nonzero;stroke:none" />
        </g>
        <g
           transform="matrix(0.5523529,0,0,-0.5952911,187.29315,388.65656)"
           id="g3802">
          <path
             d="m 0,0 c -1.265,4.853 -3.617,7.465 -7.984,7.912 l 0,18.219 C 8.452,25.723 16.618,19.09 21.659,7.291 L 0,0 z m -44.312,-4.58 c 0,18.078 12.725,30.008 32.838,30.697 l 0,-18.285 c -5.57,-0.828 -8.307,-5.135 -8.307,-12.489 0,-7.595 3.063,-11.42 8.307,-12.074 l 0,-18.245 c -18.5,0.581 -32.838,11.666 -32.838,30.396 M -0.617,-8.85 21.11,-17.154 C 15.981,-28.828 6.786,-34.516 -7.984,-34.969 l 0,18.238 c 4.018,0.528 6.139,2.981 7.367,7.881"
             id="path3804"
             style="fill:#231f20;fill-opacity:1;fill-rule:nonzero;stroke:none" />
        </g>
        <g
           transform="matrix(0.5523529,0,0,-0.5952911,277.00023,377.43323)"
           id="g3806">
          <path
             d="m 0,0 c -0.627,-5.197 -0.237,-9.389 -1.869,-13.734 -1.084,-2.95 -3.801,-5.356 -8.069,-6.055 6.598,-2.25 10.553,-6.596 10.553,-15.596 0,-10.945 -6.359,-17.383 -23.201,-17.383 l -12.948,0 0,16.76 9.918,0 c 3.03,0 4.036,1.478 4.036,4.115 0,2.715 -1.475,4.19 -4.268,4.19 l -9.686,0 0,15.754 6.352,0 c 3.725,0 5.275,1.166 5.584,6.517 0.311,6.287 1.164,9.623 2.174,11.33 l 23.125,0 0,-0.851 C 1.082,4.504 0.304,2.564 0,0 m -62.399,5.898 23.362,0 0.011,-58.666 -23.373,0 0,58.666"
             id="path3808"
             style="fill:#231f20;fill-opacity:1;fill-rule:nonzero;stroke:none" />
        </g>
        <g
           transform="matrix(0.5523529,0,0,-0.5952911,36.22464,398.31259)"
           id="g3810">
          <path
             d="m 0,0 19.713,0 0,40.973 23.354,0 0.013,-58.666 -43.08,0 L 0,0 z"
             id="path3812"
             style="fill:#231f20;fill-opacity:1;fill-rule:nonzero;stroke:none" />
        </g>
        <g
           transform="matrix(0.5523529,0,0,-0.5952911,217.78635,394.50368)"
           id="g3814">
          <path
             d="m 0,0 -7.875,-24.092 -2.112,0 -23.904,58.666 21.324,0 L 0,0 z m 17.484,-24.092 -21.684,0 11.674,35.774 -7.967,0 -5.379,14.746 18.155,0 2.635,8.146 24.761,0 -22.195,-58.666 z"
             id="path3816"
             style="fill:#231f20;fill-opacity:1;fill-rule:nonzero;stroke:none" />
        </g>
        <g
           transform="matrix(0.5523529,0,0,-0.5952911,91.170822,383.68147)"
           id="g3818">
          <path
             d="m 0,0 c -6.008,0 -10.035,-4.037 -10.625,-11.175 l -24.023,0 c 0.826,17.607 13.904,28.945 34.186,28.945 20.058,0 33.884,-10.614 34.926,-28.945 l -23.996,0 C 9.88,-4.156 5.927,0 0,0 m -0.158,-25.921 c 5.931,0 10.107,4.046 10.645,11.253 l 24.018,0 c -0.623,-18.605 -15.219,-28.716 -34.586,-28.716 -18.295,0 -33.67,10.378 -34.567,28.716 l 24,0 c 0.52,-7.207 4.561,-11.253 10.49,-11.253"
             id="path3820"
             style="fill:#231f20;fill-opacity:1;fill-rule:nonzero;stroke:none" />
        </g>
        <g
           transform="matrix(0.5523529,0,0,-0.5952911,143.05411,408.8627)"
           id="g3822">
          <path
             d="m 0,0 -10.206,25.391 8.464,21.486 6.713,-16.295 0,28.092 23.357,0 L 28.328,0 0,0 z M -12.105,30.113 -24.058,0 -51.76,0 l 0,58.674 19.866,0 0,-28.092 11.41,28.092 13.891,0 2.937,-7.141 -8.449,-21.423 0,0.003 z"
             id="path3824"
             style="fill:#231f20;fill-opacity:1;fill-rule:nonzero;stroke:none" />
        </g>
        <g
           transform="matrix(0.5523529,0,0,-0.5952911,171.9136,391.30429)"
           id="g3826">
          <path
             d="m -199.085,-11.769 14.823,0 0,-17.694 -14.823,0 0,17.694 z"
             id="path3828"
             style="fill:#e51636;fill-opacity:1;fill-rule:nonzero;stroke:none" />
        </g>
      </g>
    </g>
  </g>
</svg>
