<?xml version="1.0" encoding="UTF-8" standalone="no"?>
<!DOCTYPE svg PUBLIC "-//W3C//DTD SVG 1.1//EN" "http://www.w3.org/Graphics/SVG/1.1/DTD/svg11.dtd">
<svg width="100%" height="100%" viewBox="0 0 5041 827" version="1.1" xmlns="http://www.w3.org/2000/svg" xmlns:xlink="http://www.w3.org/1999/xlink" xml:space="preserve" xmlns:serif="http://www.serif.com/" style="fill-rule:evenodd;clip-rule:evenodd;stroke-linejoin:round;stroke-miterlimit:2;">
    <g id="IFA-Trabant-Logo" serif:id="IFA Trabant Logo" transform="matrix(1,0,0,1,-5.54333,-8.7678)">
        <path d="M740.331,330.709L831.602,421.951C693.875,559.577 556.146,697.201 418.417,834.825C280.792,697.098 143.168,559.369 5.544,421.641L5.543,421.64C143.121,284.016 280.694,146.388 418.274,8.768L574.918,165.354L5046.48,165.354L5002.18,330.709L4833.83,330.709L4814.84,401.575L4880.91,401.575C4884.82,401.575 4888.58,403.13 4891.35,405.898C4894.11,408.667 4895.67,412.422 4895.67,416.337L4895.67,416.34C4895.67,420.255 4894.11,424.01 4891.35,426.779C4888.58,429.547 4884.82,431.102 4880.91,431.102L4806.93,431.102L4759.33,608.741C4759.33,608.741 4790.31,590.859 4806.91,581.275C4812.56,578.013 4819.78,579.949 4823.04,585.598C4826.65,591.846 4831.24,599.807 4834.85,606.055C4838.11,611.704 4836.18,618.928 4830.53,622.189C4808.44,634.943 4757.26,664.489 4744.87,671.646C4743.07,672.683 4741.03,673.228 4738.96,673.228C4727.45,673.228 4686.45,673.228 4647.83,673.228C4629.47,673.228 4612.15,664.689 4600.98,650.124C4589.8,635.558 4586.03,616.623 4590.78,598.889C4603.96,549.735 4618.81,494.309 4618.81,494.309C4618.81,494.309 4286.32,656.477 4254.42,672.033C4252.81,672.82 4251.04,673.228 4249.24,673.228C4230.44,673.228 4119.57,673.228 4078.39,673.228C4074.71,673.228 4071.25,671.521 4069.01,668.607C4066.78,665.694 4066.03,661.907 4066.98,658.36C4074.37,630.775 4089.46,574.448 4089.46,574.448L3984.68,612.584C3984.68,612.584 3975.28,647.68 3970.78,664.474C3969.39,669.638 3964.71,673.228 3959.37,673.228L3812.64,673.228C3808.97,673.228 3805.5,671.521 3803.27,668.607C3801.03,665.694 3800.28,661.907 3801.23,658.36C3811.37,620.502 3837.38,523.437 3837.38,523.437C3837.38,523.437 3660.45,647.323 3634.94,665.187C3632.95,666.577 3630.59,667.323 3628.17,667.323L3480.56,667.323C3477.43,667.323 3474.43,666.078 3472.21,663.863C3464.8,656.456 3448.08,639.729 3448.08,639.729C3448.08,639.729 3342.01,652.752 3262.14,662.558C3242.66,664.951 3223.26,657.504 3210.38,642.687C3197.5,627.871 3192.82,607.622 3197.9,588.659C3212,536.05 3227.46,478.346 3227.46,478.346L3072.16,478.346C3018.84,599.816 2893.97,672.878 2799.87,673.227L2799.21,673.228L2607.91,673.228C2604.24,673.228 2600.78,671.521 2598.54,668.607C2596.31,665.694 2595.55,661.907 2596.5,658.36C2604.09,630.053 2619.86,571.211 2619.86,571.211C2619.86,571.211 2471.01,653.716 2449.14,665.842C2447.38,666.813 2445.41,667.323 2443.41,667.323C2424.14,667.323 2319.45,667.323 2295.48,667.323C2292.35,667.323 2289.34,666.078 2287.12,663.863C2279.72,656.456 2262.99,639.729 2262.99,639.729C2262.99,639.729 2156.92,652.752 2077.06,662.558C2057.57,664.951 2038.17,657.504 2025.29,642.687C2012.41,627.871 2007.74,607.622 2012.82,588.659C2025.64,540.785 2039.15,490.393 2039.15,490.393C2039.15,490.393 1762.29,564.577 1685.12,585.256C1681.04,586.349 1676.69,585.183 1673.71,582.2C1670.72,579.216 1669.56,574.867 1670.65,570.791C1676.78,547.9 1686.06,513.29 1686.06,513.29L1620.85,530.762C1620.85,530.762 1593.33,633.474 1585.02,664.474C1583.64,669.638 1578.96,673.228 1573.61,673.228C1545.85,673.228 1461.74,673.228 1426.88,673.228C1423.21,673.228 1419.75,671.521 1417.51,668.607C1415.28,665.694 1414.52,661.907 1415.47,658.36C1429.08,607.57 1472.89,444.067 1472.89,444.067C1472.89,444.067 1193.26,647.231 1160.59,670.973C1158.57,672.439 1156.14,673.228 1153.64,673.228L1059.99,673.228C1041.63,673.228 1024.31,664.689 1013.14,650.124C1001.96,635.558 998.193,616.623 1002.95,598.889C1029.94,498.149 1074.8,330.709 1074.8,330.709L740.331,330.709ZM3926,403.711C3927.99,402.321 3930.35,401.575 3932.77,401.575C3947.14,401.575 3999.47,401.575 4025.83,401.575C4029.5,401.575 4032.96,403.283 4035.2,406.196C4037.43,409.109 4038.19,412.896 4037.24,416.443C4031.61,437.455 4022,473.311 4022,473.311L4126.78,435.175C4126.78,435.175 4130.77,420.284 4133.44,410.329C4134.82,405.165 4139.5,401.575 4144.84,401.575L4291.58,401.575C4295.25,401.575 4298.71,403.283 4300.95,406.196C4303.18,409.109 4303.94,412.896 4302.98,416.443C4290,464.903 4249.73,615.185 4249.73,615.185L4627.16,431.102L4562.01,431.102C4558.09,431.102 4554.34,429.547 4551.57,426.779C4548.8,424.01 4547.24,420.255 4547.24,416.34C4547.24,416.339 4547.24,416.338 4547.24,416.337C4547.24,412.422 4548.8,408.667 4551.57,405.898C4554.34,403.13 4558.09,401.575 4562.01,401.575L4643.65,401.575L4662.64,330.709L2855.49,330.709L2798.52,543.307C2789.64,576.733 2812.55,606.658 2843.18,611.898C2886.03,601.828 2939.68,536.149 2915.83,467.233C2914.27,462.761 2914.09,457.922 2915.31,453.345C2917.54,444.837 2921.38,430.512 2924.44,419.083C2927.21,408.756 2936.57,401.575 2947.26,401.575C2980.48,401.575 3050.46,401.575 3080.41,401.575C3083.95,401.575 3087.31,403.166 3089.55,405.909C3091.8,408.652 3092.69,412.258 3091.98,415.731C3091.34,418.912 3090.65,422.068 3089.92,425.197L3241.7,425.197C3241.7,425.197 3243.88,417.053 3245.69,410.329C3247.07,405.165 3251.75,401.575 3257.09,401.575C3313.41,401.575 3615.42,401.575 3687.36,401.575C3691.03,401.575 3694.5,403.283 3696.73,406.196C3698.97,409.109 3699.72,412.896 3698.77,416.443C3686.56,462.006 3650.49,596.622 3650.49,596.622C3650.49,596.622 3895.74,424.901 3926,403.711ZM2684.3,330.709L1245.99,330.709L1172.85,603.663C1172.85,603.663 1417.42,425.972 1447.9,403.831C1449.92,402.364 1452.35,401.575 1454.84,401.575C1477.77,401.575 1597.15,401.575 1640.07,401.575C1643.75,401.575 1647.21,403.283 1649.44,406.196C1651.68,409.109 1652.43,412.896 1651.48,416.443C1647.52,431.228 1642.03,451.721 1642.03,451.721L1707.24,434.249C1707.24,434.249 1711.05,420.007 1713.64,410.329C1715.03,405.165 1719.71,401.575 1725.05,401.575L1871.79,401.575C1875.46,401.575 1878.92,403.283 1881.16,406.196C1883.39,409.109 1884.14,412.896 1883.19,416.443C1876.98,439.649 1865.67,481.853 1865.67,481.853L2055.03,431.113C2055.03,431.113 2058.27,419.038 2060.6,410.329C2061.99,405.165 2066.66,401.575 2072.01,401.575L2502.28,401.575C2505.95,401.575 2509.41,403.283 2511.65,406.196C2513.88,409.109 2514.64,412.896 2513.69,416.443C2501.51,461.899 2465.59,595.954 2465.59,595.954L2638.98,499.842L2684.3,330.709ZM3414.04,466.535L3383.97,578.74L3471.87,578.74L3501.93,466.535L3414.04,466.535ZM2228.96,466.535L2198.89,578.74L2286.78,578.74L2316.85,466.535L2228.96,466.535ZM178.954,303.037L241.528,303.037L241.528,540.556L178.954,540.556L178.954,303.037ZM290.353,303.037L444.721,303.037L444.721,354.073L353.065,354.073L353.065,395.55L431.352,395.55L431.352,443.507L353.065,443.507L353.065,540.556L290.353,540.556L290.353,303.037ZM582.937,501.347L511.817,501.347L502.031,540.556L438.216,540.556L514.16,303.037L582.248,303.037L658.192,540.556L592.861,540.556L582.937,501.347ZM569.843,449.988L547.515,364.604L525.324,449.988L569.843,449.988Z"/>
    </g>
</svg>
