<?xml version="1.0" encoding="UTF-8" standalone="no"?>
<!-- Creator: CorelDRAW -->

<svg
   xmlns:dc="http://purl.org/dc/elements/1.1/"
   xmlns:cc="http://creativecommons.org/ns#"
   xmlns:rdf="http://www.w3.org/1999/02/22-rdf-syntax-ns#"
   xmlns:svg="http://www.w3.org/2000/svg"
   xmlns="http://www.w3.org/2000/svg"
   xmlns:sodipodi="http://sodipodi.sourceforge.net/DTD/sodipodi-0.dtd"
   xmlns:inkscape="http://www.inkscape.org/namespaces/inkscape"
   xml:space="preserve"
   x="-2.39513in"
   y="-1.77484in"
   width="4.58844in"
   height="0.740681in"
   style="shape-rendering:geometricPrecision; text-rendering:geometricPrecision; image-rendering:optimizeQuality"
   viewBox="-2395 0 4588 741"
   id="svg2985"
   version="1.1"
   inkscape:version="0.48.1 "
   sodipodi:docname="UMM_lpgo_rot.svg"><metadata
   id="metadata3002"><rdf:RDF><cc:Work
       rdf:about=""><dc:format>image/svg+xml</dc:format><dc:type
         rdf:resource="http://purl.org/dc/dcmitype/StillImage" /><dc:title></dc:title></cc:Work></rdf:RDF></metadata><sodipodi:namedview
   pagecolor="#ffffff"
   bordercolor="#666666"
   borderopacity="1"
   objecttolerance="10"
   gridtolerance="10"
   guidetolerance="10"
   inkscape:pageopacity="0"
   inkscape:pageshadow="2"
   inkscape:window-width="1920"
   inkscape:window-height="1024"
   id="namedview3000"
   showgrid="false"
   inkscape:zoom="1.1623413"
   inkscape:cx="206.4798"
   inkscape:cy="33.330647"
   inkscape:window-x="-4"
   inkscape:window-y="-4"
   inkscape:window-maximized="1"
   inkscape:current-layer="svg2985" />
 <defs
   id="defs2987">
  <style
   type="text/css"
   id="style2989">
   
    .str0 {stroke:#581D25;stroke-width:14}
    .fil0 {fill:url(#id0)}
   
  </style>
  <linearGradient
   id="id0"
   x1="-2442.8169"
   y1="733.9079"
   x2="2173.8733"
   y2="35.782173"
   gradientUnits="userSpaceOnUse">
   <stop
   offset="0"
   style="stop-color:#8B2523"
   id="stop2992" />
   <stop
   offset="0.28932184"
   style="stop-color:#EE4838"
   id="stop2994" />
   <stop
   offset="1"
   style="stop-color:#8B2523"
   id="stop2996" />
  </linearGradient>
 </defs>
 <g
   id="Ebene 1">
  <path
   id="36457296"
   class="fil0 str0"
   d="M-2388 10l538 0 0 235c0,259 389,259 389,-1l0 -234 499 0 0 616c0,59 -49,108 -108,108l-1210 0c-59,0 -108,-49 -108,-108l0 -616zm3019 721l-371 0 0 -332c0,-95 -158,-95 -158,0l0 332c-75,0 -135,0 -184,0 -49,0 -109,0 -184,0l0 -332c0,-95 -158,-95 -158,0l0 332c-73,0 -178,0 -371,0l0 -615c0,-58 46,-106 103,-108 1,0 2,-1 3,-1 0,0 0,0 0,0 1,0 1,0 2,0 0,0 0,0 0,0l1210 0 0 0c1,0 2,0 2,0 0,0 0,0 1,0 0,0 1,1 2,1 57,2 103,50 103,108l0 615zm1555 0l-371 0 0 -332c0,-95 -158,-95 -158,0l0 332c-75,0 -134,0 -184,0 -49,0 -109,0 -183,0l0 -332c0,-95 -159,-95 -159,0l0 332c-73,0 -178,0 -371,0l0 -615c0,-58 46,-106 103,-108 1,0 2,-1 3,-1 0,0 0,0 0,0 1,0 2,0 3,0 0,0 0,0 0,0l1209 0 0 0c1,0 2,0 3,0 0,0 0,0 0,0 1,0 1,1 2,1 57,2 103,50 103,108l0 615z"
   style="fill:url(#id0)" />
 </g>
</svg>