<?xml version="1.0" encoding="UTF-8" standalone="no"?>
<!-- Created with Inkscape (http://www.inkscape.org/) -->

<svg
   xmlns:dc="http://purl.org/dc/elements/1.1/"
   xmlns:cc="http://creativecommons.org/ns#"
   xmlns:rdf="http://www.w3.org/1999/02/22-rdf-syntax-ns#"
   xmlns:svg="http://www.w3.org/2000/svg"
   xmlns="http://www.w3.org/2000/svg"
   xmlns:sodipodi="http://sodipodi.sourceforge.net/DTD/sodipodi-0.dtd"
   xmlns:inkscape="http://www.inkscape.org/namespaces/inkscape"
   width="152.06128"
   height="64.85463"
   viewBox="0 0 40.232879 17.159454"
   version="1.1"
   id="svg2455"
   inkscape:version="0.92.0 r15299"
   sodipodi:docname="vdl bus n coach.svg">
  <defs
     id="defs2449">
    <linearGradient
       id="linearGradient1010"
       spreadMethod="pad"
       gradientTransform="matrix(39.96831,0,0,39.993357,-7.5109385,146.81561)"
       gradientUnits="userSpaceOnUse"
       y2="0"
       x2="1"
       y1="0"
       x1="0">
      <stop
         id="stop1004"
         offset="0"
         style="stop-opacity:1;stop-color:#918f90" />
      <stop
         id="stop1006"
         offset="0.742332"
         style="stop-opacity:1;stop-color:#7c797a" />
      <stop
         id="stop1008"
         offset="1"
         style="stop-opacity:1;stop-color:#656363" />
    </linearGradient>
    <linearGradient
       id="linearGradient990"
       spreadMethod="pad"
       gradientTransform="matrix(-29.834769,-13.914614,13.905794,-29.853466,23.776569,149.06034)"
       gradientUnits="userSpaceOnUse"
       y2="0"
       x2="1"
       y1="0"
       x1="0">
      <stop
         id="stop986"
         offset="0"
         style="stop-opacity:1;stop-color:#ffffff" />
      <stop
         id="stop988"
         offset="1"
         style="stop-opacity:1;stop-color:#d4d3d3" />
    </linearGradient>
    <linearGradient
       id="linearGradient972"
       spreadMethod="pad"
       gradientTransform="matrix(-3.5277777e-7,-10.897658,10.890955,-3.5277777e-7,12.473217,151.91114)"
       gradientUnits="userSpaceOnUse"
       y2="0"
       x2="1"
       y1="0"
       x1="0">
      <stop
         id="stop966"
         offset="0"
         style="stop-opacity:1;stop-color:#f5f4f5" />
      <stop
         id="stop968"
         offset="0.18405"
         style="stop-opacity:1;stop-color:#d4d3d3" />
      <stop
         id="stop970"
         offset="1"
         style="stop-opacity:1;stop-color:#a8a6a7" />
    </linearGradient>
    <linearGradient
       id="linearGradient952"
       spreadMethod="pad"
       gradientTransform="matrix(-3.5277777e-7,-6.1605582,6.1570304,-3.5277777e-7,20.075578,148.21508)"
       gradientUnits="userSpaceOnUse"
       y2="0"
       x2="1"
       y1="0"
       x1="0">
      <stop
         id="stop940"
         offset="0"
         style="stop-opacity:1;stop-color:#918f90" />
      <stop
         id="stop942"
         offset="0.188192"
         style="stop-opacity:1;stop-color:#a8a6a7" />
      <stop
         id="stop944"
         offset="0.450184"
         style="stop-opacity:1;stop-color:#a8a6a7" />
      <stop
         id="stop946"
         offset="0.638376"
         style="stop-opacity:1;stop-color:#918f90" />
      <stop
         id="stop948"
         offset="0.826568"
         style="stop-opacity:1;stop-color:#d4d3d3" />
      <stop
         id="stop950"
         offset="1"
         style="stop-opacity:1;stop-color:#bdbcbd" />
    </linearGradient>
    <linearGradient
       id="linearGradient926"
       spreadMethod="pad"
       gradientTransform="matrix(-3.5277777e-7,-6.2254693,6.2215888,-3.5277777e-7,11.625492,148.23766)"
       gradientUnits="userSpaceOnUse"
       y2="0"
       x2="1"
       y1="0"
       x1="0">
      <stop
         id="stop914"
         offset="0"
         style="stop-opacity:1;stop-color:#918f90" />
      <stop
         id="stop916"
         offset="0.188192"
         style="stop-opacity:1;stop-color:#a8a6a7" />
      <stop
         id="stop918"
         offset="0.450184"
         style="stop-opacity:1;stop-color:#a8a6a7" />
      <stop
         id="stop920"
         offset="0.638376"
         style="stop-opacity:1;stop-color:#918f90" />
      <stop
         id="stop922"
         offset="0.826568"
         style="stop-opacity:1;stop-color:#d4d3d3" />
      <stop
         id="stop924"
         offset="1"
         style="stop-opacity:1;stop-color:#bdbcbd" />
    </linearGradient>
    <linearGradient
       id="linearGradient900"
       spreadMethod="pad"
       gradientTransform="matrix(-3.5277777e-7,-6.0229749,6.0190943,-3.5277777e-7,4.0823974,148.04469)"
       gradientUnits="userSpaceOnUse"
       y2="0"
       x2="1"
       y1="0"
       x1="0">
      <stop
         id="stop888"
         offset="0"
         style="stop-opacity:1;stop-color:#918f90" />
      <stop
         id="stop890"
         offset="0.188192"
         style="stop-opacity:1;stop-color:#a8a6a7" />
      <stop
         id="stop892"
         offset="0.450184"
         style="stop-opacity:1;stop-color:#a8a6a7" />
      <stop
         id="stop894"
         offset="0.638376"
         style="stop-opacity:1;stop-color:#918f90" />
      <stop
         id="stop896"
         offset="0.826568"
         style="stop-opacity:1;stop-color:#d4d3d3" />
      <stop
         id="stop898"
         offset="1"
         style="stop-opacity:1;stop-color:#bdbcbd" />
    </linearGradient>
    <linearGradient
       id="linearGradient862"
       spreadMethod="pad"
       gradientTransform="matrix(-29.793847,-13.8938,13.885333,-29.812544,23.757166,149.05222)"
       gradientUnits="userSpaceOnUse"
       y2="0"
       x2="1"
       y1="0"
       x1="0">
      <stop
         id="stop858"
         offset="0"
         style="stop-opacity:1;stop-color:#ffffff" />
      <stop
         id="stop860"
         offset="1"
         style="stop-opacity:1;stop-color:#d4d3d3" />
    </linearGradient>
    <radialGradient
       id="radialGradient808"
       spreadMethod="pad"
       gradientTransform="matrix(15.75823,0,0,15.768108,12.684178,141.85556)"
       gradientUnits="userSpaceOnUse"
       r="1"
       cy="0"
       cx="0"
       fy="0"
       fx="0">
      <stop
         id="stop804"
         offset="0"
         style="stop-opacity:1;stop-color:#115fa2" />
      <stop
         id="stop806"
         offset="1"
         style="stop-opacity:1;stop-color:#072b4d" />
    </radialGradient>
  </defs>
  <sodipodi:namedview
     id="base"
     pagecolor="#ffffff"
     bordercolor="#666666"
     borderopacity="1.0"
     inkscape:pageopacity="0.0"
     inkscape:pageshadow="2"
     inkscape:zoom="5.9379856"
     inkscape:cx="75.530706"
     inkscape:cy="31.926037"
     inkscape:document-units="mm"
     inkscape:current-layer="layer1"
     showgrid="false"
     fit-margin-top="0"
     fit-margin-left="0"
     fit-margin-right="0"
     fit-margin-bottom="0"
     units="px"
     inkscape:window-width="1280"
     inkscape:window-height="744"
     inkscape:window-x="-4"
     inkscape:window-y="-4"
     inkscape:window-maximized="1" />
  <metadata
     id="metadata2452">
    <rdf:RDF>
      <cc:Work
         rdf:about="">
        <dc:format>image/svg+xml</dc:format>
        <dc:type
           rdf:resource="http://purl.org/dc/dcmitype/StillImage" />
        <dc:title></dc:title>
      </cc:Work>
    </rdf:RDF>
  </metadata>
  <g
     inkscape:label="Layer 1"
     inkscape:groupmode="layer"
     id="layer1"
     transform="translate(7.5109493,-140.12098)">
    <g
       id="g2729"
       transform="translate(0.13229292,-0.13228823)">
      <path
         d="m 12.803417,150.31552 c -0.127,0 -0.246239,-7e-4 -0.355953,-0.002 -2.045758,-0.025 -8.8772999,-0.16299 -10.428111,-0.48507 -1.54975276,-0.32138 -2.26906664,-0.65687 -3.8188194,-2.54247 -1.4880166,-1.81151 -3.9056027,-5.88469 -4.0975138,-6.20748 0,0 0.063147,-0.0321 0.1118306,-0.0356 4.0953971,-0.32808 9.9084692,-0.61771 16.7191966,-0.65334 0.449086,-0.002 0.896761,-0.004 1.34232,-0.004 6.289675,0 12.178947,0.22719 15.608299,0.45579 1.636184,0.10971 2.850797,0.20108 2.850797,0.20108 l 0.08855,0.0332 c -0.254353,0.44556 -2.59962,4.43089 -3.794478,5.85012 -1.264708,1.50177 -2.293761,2.82927 -4.786842,3.01448 -2.358672,0.17674 -7.193844,0.37465 -9.439274,0.37465"
         style="fill:url(#radialGradient808);stroke:none;stroke-width:0.35277778"
         id="path810"
         inkscape:connector-curvature="0" />
      <path
         d="M 0.63787185,156.94211 H 1.2569968 c 0.1298223,0 0.1799167,-0.0847 0.1799167,-0.18203 0,-0.12136 -0.075847,-0.18627 -0.2233083,-0.18627 H 0.63787185 Z m 0,-0.63712 H 1.2224246 c 0.097367,0 0.1580445,-0.0519 0.1580445,-0.16651 0,-0.0977 -0.043392,-0.16686 -0.2166056,-0.16686 H 0.63787185 Z M 0.21771353,155.68975 H 1.3783524 c 0.2250722,0 0.4353278,0.10407 0.4353278,0.39017 0,0.11924 -0.060678,0.26423 -0.2056695,0.30974 v 0.004 c 0.1795639,0.0303 0.2748139,0.20814 0.2748139,0.37501 0,0.20567 -0.09525,0.46778 -0.5630333,0.46778 H 0.21771353 v -1.54693"
         style="fill:#4f4c4d;fill-opacity:1;fill-rule:nonzero;stroke:none;stroke-width:0.35277778"
         id="path814"
         inkscape:connector-curvature="0" />
      <path
         d="m 2.7894626,155.68975 h 0.4201583 v 0.88829 c 0,0.1517 0.00635,0.40711 0.3919361,0.40711 0.3852334,0 0.3915834,-0.25541 0.3915834,-0.40711 v -0.88829 h 0.4201583 v 0.99236 c 0,0.17322 -0.02152,0.59796 -0.8117417,0.59796 -0.790575,0 -0.8120944,-0.42474 -0.8120944,-0.59796 v -0.99236"
         style="fill:#4f4c4d;fill-opacity:1;fill-rule:nonzero;stroke:none;stroke-width:0.35277778"
         id="path818"
         inkscape:connector-curvature="0" />
      <path
         d="m 6.4004956,156.13848 c -0.026106,-0.20144 -0.2187222,-0.22296 -0.3877028,-0.22296 -0.1728611,0 -0.28575,0.078 -0.28575,0.18169 0,0.0825 0.069497,0.12805 0.1778,0.14534 l 0.5259917,0.0843 c 0.2815166,0.0455 0.4956528,0.1517 0.4956528,0.43357 0,0.28786 -0.1947334,0.51964 -0.803275,0.51964 -0.3764139,0 -0.8660695,-0.0476 -0.8703028,-0.53058 h 0.4720167 c 0.00423,0.21237 0.2166055,0.24906 0.3982861,0.24906 0.1972027,0 0.3312583,-0.0586 0.3312583,-0.19297 0,-0.11888 -0.09525,-0.15134 -0.2617611,-0.17744 l -0.3834694,-0.0586 c -0.2684639,-0.0413 -0.5281084,-0.12135 -0.5281084,-0.43744 0,-0.34466 0.2815167,-0.48542 0.7665861,-0.48542 0.3182056,0 0.7902222,0.0543 0.8184445,0.49177 H 6.4004956"
         style="fill:#4f4c4d;fill-opacity:1;fill-rule:nonzero;stroke:none;stroke-width:0.35277778"
         id="path822"
         inkscape:connector-curvature="0" />
      <path
         d="m 9.6150086,156.23585 c 0.082197,-0.0346 0.1905,-0.091 0.1905,-0.19297 0,-0.0843 -0.093133,-0.1277 -0.1622778,-0.1277 -0.091017,0 -0.1668639,0.0367 -0.1668639,0.11923 0,0.0995 0.097367,0.1711 0.1386417,0.20144 z m -0.1559278,0.27093 c -0.099483,0.0367 -0.2099027,0.13194 -0.2099027,0.24483 0,0.18415 0.1710972,0.25965 0.3093861,0.25965 0.130175,0 0.2427111,-0.03 0.3358444,-0.10831 z m 0.6300612,0.58244 c -0.1820334,0.13229 -0.357364,0.19085 -0.5866695,0.19085 -0.37465,0 -0.6604,-0.15169 -0.6604,-0.48754 0,-0.24024 0.1753306,-0.38982 0.422275,-0.45261 -0.09525,-0.0825 -0.1559278,-0.14958 -0.1559278,-0.28187 0,-0.2794 0.2663472,-0.3683 0.5044722,-0.3683 0.2942167,0 0.5348111,0.11077 0.5348111,0.34466 0,0.19262 -0.1601611,0.29881 -0.3291416,0.3489 l 0.3333746,0.30762 c 0.06915,-0.0674 0.155928,-0.18873 0.188384,-0.2667 l 0.238125,0.11501 c -0.06068,0.13652 -0.112536,0.22507 -0.220839,0.32914 l 0.400403,0.3683 H 10.24507 l -0.155928,-0.14746"
         style="fill:#4f4c4d;fill-opacity:1;fill-rule:nonzero;stroke:none;stroke-width:0.35277778"
         id="path826"
         inkscape:connector-curvature="0" />
      <path
         d="m 13.92313,156.27501 c -0.03881,-0.22296 -0.222956,-0.33373 -0.441678,-0.33373 -0.398286,0 -0.482953,0.31221 -0.482953,0.52211 0,0.21026 0.08467,0.52211 0.482953,0.52211 0.203553,0 0.400403,-0.0974 0.441678,-0.34219 h 0.456847 c -0.05186,0.4505 -0.422275,0.63712 -0.913694,0.63712 -0.563034,0 -0.913695,-0.24271 -0.913695,-0.81704 0,-0.57397 0.350661,-0.81668 0.913695,-0.81668 0.372533,0 0.846666,0.0952 0.909461,0.6283 H 13.92313"
         style="fill:#4f4c4d;fill-opacity:1;fill-rule:nonzero;stroke:none;stroke-width:0.35277778"
         id="path830"
         inkscape:connector-curvature="0" />
      <path
         d="m 16.12023,156.9855 c 0.381,0 0.515408,-0.28152 0.515408,-0.52211 0,-0.2406 -0.134408,-0.52211 -0.515408,-0.52211 -0.381,0 -0.515408,0.28151 -0.515408,0.52211 0,0.24059 0.134408,0.52211 0.515408,0.52211 z m 0,-1.33879 c 0.831497,0 0.961319,0.49389 0.961319,0.81668 0,0.32279 -0.129822,0.81668 -0.961319,0.81668 -0.831497,0 -0.961319,-0.49389 -0.961319,-0.81668 0,-0.32279 0.129822,-0.81668 0.961319,-0.81668"
         style="fill:#4f4c4d;fill-opacity:1;fill-rule:nonzero;stroke:none;stroke-width:0.35277778"
         id="path834"
         inkscape:connector-curvature="0" />
      <path
         d="m 18.708913,156.02348 -0.242358,0.61313 h 0.484716 z m 0.355247,0.89464 h -0.710141 l -0.125942,0.31856 h -0.452261 l 0.679803,-1.54693 h 0.506588 l 0.679803,1.54693 h -0.452614 l -0.125236,-0.31856"
         style="fill:#4f4c4d;fill-opacity:1;fill-rule:nonzero;stroke:none;stroke-width:0.35277778"
         id="path838"
         inkscape:connector-curvature="0" />
      <path
         d="m 21.729043,156.27501 c -0.03916,-0.22296 -0.222956,-0.33373 -0.441678,-0.33373 -0.398286,0 -0.482953,0.31221 -0.482953,0.52211 0,0.21026 0.08467,0.52211 0.482953,0.52211 0.203553,0 0.400403,-0.0974 0.441678,-0.34219 h 0.456847 c -0.05186,0.4505 -0.422275,0.63712 -0.913694,0.63712 -0.563034,0 -0.913695,-0.24271 -0.913695,-0.81704 0,-0.57397 0.350661,-0.81668 0.913695,-0.81668 0.37218,0 0.846666,0.0952 0.909461,0.6283 h -0.452614"
         style="fill:#4f4c4d;fill-opacity:1;fill-rule:nonzero;stroke:none;stroke-width:0.35277778"
         id="path842"
         inkscape:connector-curvature="0" />
      <path
         d="m 23.051253,155.68975 h 0.420158 v 0.58067 h 0.870303 v -0.58067 h 0.419806 v 1.54693 h -0.419806 v -0.67169 h -0.870303 v 0.67169 h -0.420158 v -1.54693"
         style="fill:#4f4c4d;fill-opacity:1;fill-rule:nonzero;stroke:none;stroke-width:0.35277778"
         id="path846"
         inkscape:connector-curvature="0" />
      <path
         d="m -6.0017552,141.24349 c 0.3937,0.66005 2.657475,4.43653 4.0675277,6.15315 1.52823331,1.85878 2.28282496,2.26307 3.9186555,2.60279 1.5112999,0.31398 8.064147,0.45932 10.461272,0.48754 0.110067,10e-4 0.232128,0.002 0.362303,0.002 2.155472,0 7.012516,-0.19297 9.448094,-0.37465 2.476147,-0.18486 3.539772,-1.45168 4.772378,-2.91747 0.0448,-0.0522 0.08855,-0.10548 0.13335,-0.1584 0.663575,-0.78775 1.670402,-2.35268 2.398536,-3.52601 0.421216,-0.6791 0.786694,-1.28553 1.017764,-1.6757 0.190852,-0.32067 0.299861,-0.50377 0.36195,-0.61207 0,0 0.09807,-0.1845 -0.09137,-0.19226 0,0.013 -2.553758,4.39208 -3.819172,5.8935 -1.265061,1.50178 -2.294114,2.82963 -4.786842,3.01484 -2.35585,0.17604 -7.18573,0.37465 -9.434688,0.37465 -0.128059,0 -0.248709,-7e-4 -0.360186,-0.002 -2.046111,-0.025 -8.8780057,-0.16228 -10.428464,-0.48472 -1.54939999,-0.32103 -2.26906664,-0.65687 -3.8188194,-2.54212 -1.5504583,-1.88701 -4.1095082,-6.23041 -4.1095082,-6.23041 0,0 -0.1792111,0.0392 -0.092781,0.18733"
         style="fill:url(#linearGradient862);stroke:none;stroke-width:0.35277778"
         id="path864"
         inkscape:connector-curvature="0" />
      <path
         d="m 11.754605,144.36558 c 0.245181,-0.002 0.491419,0 0.738011,0 0.12312,0 0.246592,-0.001 0.370417,0.003 0.115711,0.004 0.232833,0.0194 0.3429,0.0579 0.173566,0.0607 0.293158,0.2353 0.315383,0.41416 0.02469,0.20391 -0.07444,0.41028 -0.201083,0.56374 -0.132997,0.15769 -0.315384,0.26811 -0.504825,0.34572 -0.214136,0.0882 -0.443442,0.13935 -0.674511,0.14817 -0.245886,0.0102 -0.492478,0.005 -0.738717,0.004 -0.247297,-10e-4 -0.4953,-0.004 -0.74295,-0.006 -0.493536,-0.004 -0.9867194,-0.004 -1.4809611,-0.018 -0.1210027,-0.004 -0.2423583,-0.01 -0.3647722,-0.0138 -0.1213555,-0.005 -0.2423583,-0.007 -0.3623027,0.0116 -0.2049639,0.0303 -0.3922889,0.12771 -0.549275,0.26282 -0.1375834,0.11783 -0.2518834,0.26106 -0.3471334,0.41522 -0.1333499,0.21802 -0.2614083,0.4191 -0.3922888,0.6283 -0.06597,0.10478 -0.1322917,0.20955 -0.19685,0.31433 -0.0635,0.10265 -0.1308806,0.2032 -0.1919111,0.30656 -0.072672,0.12594 -0.1626306,0.2092 -0.071614,0.26176 0.038453,0.0233 0.076906,0.0289 0.1202972,0.0293 0.059267,0.001 0.1252361,0.002 0.1859139,0.004 0.2451805,0.0123 0.4928305,0.0166 0.7394222,0.025 0.4942416,0.0166 0.9898944,0.0303 1.4844888,0.0434 0.4942417,0.0134 0.9870722,0.0272 1.4813142,0.0349 0.246591,0.004 0.493183,0.004 0.738716,0.004 0.245887,0 0.493537,-0.002 0.738717,-0.0113 0.473781,-0.0183 0.950383,-0.0632 1.404408,-0.20002 0.221898,-0.0663 0.436739,-0.15452 0.639234,-0.26565 0.203552,-0.11218 0.396522,-0.24235 0.579614,-0.38488 0.347486,-0.26987 0.656872,-0.58984 0.921102,-0.94227 0.140406,-0.18626 0.267053,-0.38382 0.382764,-0.58561 0.115711,-0.20108 0.21202,-0.41275 0.297392,-0.62759 0.167217,-0.4191 0.216958,-0.93133 0.131586,-1.40053 -0.07444,-0.40463 -0.256117,-0.79304 -0.543278,-1.09078 -0.150989,-0.15628 -0.326319,-0.28858 -0.517172,-0.38912 -0.200025,-0.10654 -0.4191,-0.17215 -0.642056,-0.20955 -0.242358,-0.0406 -0.48895,-0.0508 -0.73413,-0.0508 l -1.634419,-0.001 c -0.494948,0 -0.988484,0.003 -1.482725,0.001 -0.122062,0 -0.24377,-0.006 -0.366537,0.004 -0.110066,0.009 -0.211313,0.0416 -0.294569,0.11888 -0.07832,0.0727 -0.134761,0.16757 -0.190147,0.25718 -0.03246,0.0515 -0.06456,0.10195 -0.09631,0.15275 -0.01376,0.0236 -0.02963,0.0469 -0.0441,0.0705 -0.00529,0.0102 -0.010936,0.0233 -0.01905,0.0328 -0.00564,0.007 -0.011289,0.0212 -0.019403,0.0261 0,0.009 -0.013758,0.025 -0.018697,0.0332 -0.00741,0.012 -0.014464,0.0251 -0.022578,0.0363 -0.016581,0.0275 -0.033161,0.0547 -0.049742,0.0808 -0.031397,0.0512 -0.063147,0.10195 -0.096308,0.15346 -0.064558,0.10195 -0.1294695,0.20391 -0.1940278,0.30621 -0.1308805,0.20955 -0.26035,0.41945 -0.3922889,0.6283 -0.2564694,0.40852 -0.5122333,0.81562 -0.7687027,1.22555 -0.075495,0.12453 0.1763889,0.12982 0.2522361,0.13088 0.2451805,0.002 0.4914194,0.004 0.7369527,0.007 0.2472973,0.003 0.4953,0.006 0.7418916,0.009 0.122413,0.001 0.246238,0.002 0.367594,0.004 0.117122,0.001 0.235303,0.006 0.350308,-0.0102 0.09349,-0.0138 0.178506,-0.0392 0.263878,-0.10125 0.08396,-0.0593 0.122414,-0.14181 0.170745,-0.22119 0.11818,-0.19226 0.239536,-0.37818 0.359127,-0.57397 0.0028,-0.007 0.01164,-0.0176 0.01658,-0.0219 0.0042,-0.006 0.01588,-0.0138 0.02223,-0.018 0.006,-0.003 0.01905,-0.008 0.0261,-0.009 0.006,-7.1e-4 0.01905,-0.004 0.02611,-0.004"
         style="fill:#ffffff;fill-opacity:1;fill-rule:nonzero;stroke:none;stroke-width:0.35277778"
         id="path868"
         inkscape:connector-curvature="0" />
      <path
         d="m 6.1457926,142.14167 c -0.254,0.41734 -0.5122333,0.83291 -0.7711722,1.24707 -0.130175,0.20849 -0.2589389,0.41804 -0.3884083,0.62689 -0.1273528,0.20531 -0.2596445,0.40851 -0.3852334,0.617 -0.030339,0.0512 -0.061383,0.10196 -0.093839,0.1524 -0.030339,0.0469 -0.058561,0.0956 -0.094545,0.13829 -0.02928,0.0353 -0.070556,0.0713 -0.1202972,0.0649 -0.047625,-0.007 -0.086078,-0.0413 -0.1220611,-0.0737 -0.084314,-0.0751 -0.1541639,-0.16263 -0.2247195,-0.25012 -0.075142,-0.0942 -0.1516944,-0.19014 -0.2240138,-0.28504 -0.2973917,-0.3877 -0.581025,-0.78423 -0.8748889,-1.17405 -0.072319,-0.0977 -0.1411111,-0.19685 -0.2120194,-0.29598 -0.067028,-0.0945 -0.1329973,-0.19085 -0.2091973,-0.27904 -0.1329972,-0.15699 -0.3122083,-0.27235 -0.5041194,-0.34749 -0.1072444,-0.0413 -0.2183694,-0.0709 -0.3330222,-0.0832 -0.1192389,-0.0131 -0.2405944,-0.0102 -0.3615972,-0.007 -0.24729724,0.007 -0.49318335,0.0187 -0.74012779,0.0275 -0.39369999,0.0152 -0.78034442,0.0296 -1.17933608,0.0459 -0.0239889,7.1e-4 -0.05715,0.0106 -0.0691444,0.0272 -0.0218722,0.0254 0.001058,0.0582 0.0176389,0.0804 0.27975278,0.40181 0.57467499,0.79304 0.86924443,1.18427 0.29456944,0.39123 0.5919611,0.77858 0.89499724,1.16382 0.3058583,0.3877 0.6085417,0.7747 0.9179278,1.15922 0.1037166,0.12806 0.2084916,0.25718 0.31115,0.3863 0.2945694,0.36688 0.6215944,0.70908 0.9613194,1.0361 0.1615722,0.15382 0.32385,0.30868 0.5168194,0.42263 0.1908528,0.11289 0.4102806,0.17004 0.6279444,0.20567 0.2395361,0.0384 0.4826,0.055 0.7249584,0.0713 0.1072444,0.007 0.2091972,0.0233 0.3139722,-0.0236 0.09913,-0.0441 0.1837972,-0.11148 0.2423583,-0.19333 0.068792,-0.0942 0.1284111,-0.19508 0.1897944,-0.2928 0.066322,-0.10407 0.1315861,-0.20814 0.1957917,-0.3115 0.1319389,-0.20885 0.2642306,-0.41805 0.3958167,-0.6276 0.2614083,-0.4191 0.5245805,-0.83855 0.7845777,-1.25941 0.26035,-0.41946 0.5192889,-0.84067 0.7782278,-1.26189 0.1291166,-0.20884 0.2585861,-0.41839 0.3880555,-0.62794 0.1294695,-0.20497 0.2522361,-0.41452 0.3827639,-0.62054 0.057856,-0.091 0.127,-0.18168 0.1629833,-0.28434 0.035278,-0.0967 0.029986,-0.20355 -0.022225,-0.29245 -0.052564,-0.0892 -0.136525,-0.13335 -0.2370666,-0.14534 -0.1143,-0.0134 -0.2324806,-0.006 -0.3481917,-0.003 -0.4931833,0.007 -0.987425,0.009 -1.4802555,0.0152 -0.1273528,0.001 -0.2511778,0.002 -0.3760611,0.004 -0.059619,0 -0.1202972,-0.002 -0.1781528,0.003 -0.052211,0.004 -0.094544,0.007 -0.1266472,0.0607"
         style="fill:#ffffff;fill-opacity:1;fill-rule:nonzero;stroke:none;stroke-width:0.35277778"
         id="path872"
         inkscape:connector-curvature="0" />
      <path
         d="m 19.155177,142.14732 c -0.2667,0.41734 -0.523169,0.83573 -0.785636,1.25377 -0.261761,0.41734 -0.525639,0.83644 -0.787753,1.25448 -0.262819,0.41875 -0.525286,0.83714 -0.7874,1.25659 -0.261055,0.41805 -0.52458,0.83503 -0.786341,1.25307 -0.06421,0.10195 -0.130175,0.20391 -0.19297,0.30656 -0.05574,0.0903 -0.110772,0.18557 -0.11818,0.29281 -0.0063,0.1016 0.02187,0.20673 0.09066,0.28328 0.06526,0.0744 0.159809,0.11289 0.257528,0.12594 0.118534,0.0152 0.238478,0.006 0.356659,7.1e-4 0.123119,-0.005 0.246944,-0.009 0.369005,-0.0138 0.246592,-0.008 0.492125,-0.0173 0.738011,-0.0282 0.494947,-0.0208 0.988836,-0.0441 1.483078,-0.0702 0.493889,-0.025 0.987425,-0.0533 1.481667,-0.0727 0.245886,-0.0102 0.491419,-0.0162 0.738716,-0.0279 0.242359,-0.0113 0.484364,-0.0243 0.724253,-0.0635 0.222955,-0.0353 0.441678,-0.0991 0.641703,-0.20531 0.192616,-0.10055 0.363361,-0.24025 0.517525,-0.39265 0.166158,-0.16545 0.316794,-0.34678 0.46355,-0.53057 0.152047,-0.18768 0.295275,-0.38171 0.439561,-0.57644 0.117122,-0.16016 0.237772,-0.31891 0.356305,-0.47943 0.03563,-0.0476 0.07373,-0.0995 0.09419,-0.15698 0.0095,-0.0243 0.0042,-0.0497 -0.0085,-0.0691 -0.01729,-0.03 -0.05256,-0.03 -0.08361,-0.03 -0.119944,0.005 -0.237067,0.0138 -0.360186,0.0243 -0.12065,0.0109 -0.242711,0.0166 -0.364067,0.0243 -0.24518,0.0166 -0.492478,0.0328 -0.739775,0.0441 -0.244828,0.0116 -0.490714,0.0303 -0.736247,0.0445 -0.245533,0.0138 -0.490361,0.0279 -0.736953,0.0395 -0.458258,0.0215 -0.90805,0.0519 -1.374775,0.066 -0.01975,0.001 -0.04445,0.001 -0.05821,-0.0148 -0.01905,-0.0215 0,-0.049 0.0099,-0.0681 0.243416,-0.43074 0.526344,-0.8382 0.789516,-1.25765 0.131234,-0.20778 0.257881,-0.41733 0.390173,-0.62195 0.126647,-0.19896 0.250472,-0.40181 0.377119,-0.60078 0.06385,-0.10265 0.128058,-0.20602 0.193322,-0.30797 0.05503,-0.0868 0.115711,-0.17674 0.131939,-0.28152 0.01411,-0.0974 -0.006,-0.2039 -0.06668,-0.28328 -0.06032,-0.0773 -0.155928,-0.11359 -0.250119,-0.12664 -0.117828,-0.0148 -0.236361,-0.01 -0.354189,-0.0113 -0.12312,-0.001 -0.246239,-0.005 -0.369711,-0.009 -0.245534,-0.005 -0.492831,-0.0102 -0.738364,-0.0138 -0.171803,-0.002 -0.343958,-0.006 -0.515056,-0.008 -0.08537,0 -0.16898,-0.004 -0.254352,-0.006 -0.06315,-0.002 -0.12947,-0.0159 -0.175331,0.0579"
         style="fill:#ffffff;fill-opacity:1;fill-rule:nonzero;stroke:none;stroke-width:0.35277778"
         id="path876"
         inkscape:connector-curvature="0" />
      <path
         d="m 7.5657251,143.14002 c -0.063147,0.0861 -0.1636889,0.24589 -0.2561167,0.39123 -0.079728,0.12736 -1.2079111,1.94628 -1.2851694,2.0701 -0.4021667,0.65052 -0.8590139,1.37372 -0.9122833,1.42346 -0.04057,0.037 -0.088195,0.0607 -0.2056695,0.0607 -0.077258,0 -0.1816805,-0.0102 -0.3386666,-0.0328 -0.3912306,-0.055 -0.5323417,-0.13229 -0.790575,-0.3496 -0.2568222,-0.21837 -1.3162139,-1.4852 -1.6936861,-1.9618 -0.3503083,-0.44344 -1.0470444,-1.3776 -1.09396383,-1.44074 -0.041275,-0.0579 -0.19543889,-0.17075 -0.25258888,-0.20955 -0.0338667,-0.0247 -0.43250555,-0.2466 -1.18427498,-0.66111 0.31608888,-0.012 0.62723888,-0.0236 0.94121109,-0.036 l 0.24235833,-0.009 0.0225778,-3.6e-4 c 0.15733888,-0.007 0.31608887,-0.013 0.47307497,-0.018 0.052211,-10e-4 0.1026583,-0.004 0.1548694,-0.004 0.068086,0 0.1259417,0.003 0.1816806,0.009 0.095603,0.0102 0.1929694,0.0349 0.2885722,0.0727 0.1788583,0.0699 0.3305528,0.17392 0.4377972,0.29845 0.061383,0.0723 0.1164167,0.15134 0.1707445,0.2286 l 0.027517,0.0385 0.011995,0.0166 c 0.065264,0.0931 0.1340555,0.1898 0.2035527,0.28187 0.082903,0.11218 0.1654528,0.22472 0.2480028,0.3362 l 0.087136,0.11712 c 0.1707445,0.23213 0.3534833,0.47942 0.53975,0.72284 0.085372,0.11042 0.1569861,0.2032 0.2286,0.2914 0.074436,0.0917 0.1495778,0.1852 0.2451806,0.26987 0.044097,0.0399 0.1128888,0.10019 0.2120194,0.1136 0.011994,7e-4 0.022931,0.002 0.035983,0.002 0.0889,0 0.1686278,-0.0427 0.2402417,-0.12665 0.038805,-0.0462 0.068086,-0.0928 0.09278,-0.1337 l 0.014817,-0.0229 c 0.032808,-0.0519 0.065264,-0.10442 0.096308,-0.15663 0.074436,-0.12206 0.1513417,-0.24624 0.2275417,-0.36654 l 0.022931,-0.0353 0.01658,-0.0282 c 0.041275,-0.0635 0.080081,-0.12418 0.117475,-0.1845 0.036689,-0.061 0.075494,-0.12206 0.1128889,-0.18274 l 0.0635,-0.10336 0.031044,-0.0504 c 0.059972,-0.097 0.1185334,-0.19332 0.1792111,-0.28998 0.2963334,-0.47061 0.5369278,-0.86078 0.7591778,-1.22626 l 0.00353,-0.001 c 0.034925,-0.001 0.070908,-0.001 0.104775,-0.001 h 0.063147 l 0.2808111,-0.003 0.095603,-0.002 c 0.1143,-7e-4 0.2286,-0.002 0.3429,-0.003 l 0.1915583,-0.002 H 7.38828 l 0.1721555,-0.001 c 0.2451806,-0.002 0.4998861,-0.005 0.7503583,-0.01 l 0.071614,-7.1e-4 c 0.038453,-7e-4 0.078317,-0.002 0.1160639,-0.002 0.051858,0 0.095956,0.002 0.1358194,0.007 0.070203,0.008 0.09525,0.037 0.1075973,0.0593 l 0.00141,0.001 -0.042686,0.0275 c -0.1806223,0.12171 -0.4847167,0.32527 -0.6155972,0.40923 -0.2010834,0.12947 -0.4515556,0.31679 -0.5192889,0.4071 z m 1.3536083,-0.94862 c -0.053622,-0.0928 -0.1418167,-0.14746 -0.2610556,-0.16122 -0.04445,-0.006 -0.095603,-0.008 -0.1598083,-0.008 -0.040217,0 -0.080433,0.001 -0.1217083,0.002 l -0.070203,0.002 c -0.3150306,0.006 -0.6304139,0.008 -0.9457972,0.0109 -0.1792111,0.001 -0.3566583,0.003 -0.5358694,0.004 l -0.09525,0.002 -0.2790473,0.002 -0.037747,3.6e-4 h -0.024694 c -0.039511,0 -0.080081,0 -0.1185333,0.003 -0.04692,0.003 -0.1100667,0.006 -0.1513417,0.0765 -0.2233083,0.36654 -0.4684889,0.76341 -0.7711722,1.24636 -0.071614,0.1136 -0.1414639,0.2279 -0.2120195,0.34185 -0.038453,0.0624 -0.077258,0.12382 -0.1157111,0.18662 l -0.060678,0.0991 -0.049389,0.078 c -0.027517,0.0441 -0.055386,0.0889 -0.083608,0.133 l -0.038453,0.0624 c -0.070908,0.11254 -0.1453445,0.22825 -0.2141361,0.34396 l -0.022931,0.0385 c -0.023989,0.037 -0.046567,0.0751 -0.070556,0.11359 l -0.014817,0.0243 c -0.026458,0.0392 -0.049389,0.0776 -0.076906,0.11006 -0.029633,0.036 -0.057856,0.0533 -0.08255,0.0533 l -0.00847,-3.5e-4 c -0.037747,-0.005 -0.070556,-0.0349 -0.1037167,-0.0635 -0.083256,-0.0762 -0.1569861,-0.16581 -0.2204861,-0.24553 -0.068792,-0.0847 -0.1404056,-0.17604 -0.2257778,-0.28681 -0.187325,-0.24448 -0.3725333,-0.49742 -0.5376333,-0.72037 -0.1121833,-0.1517 -0.2233083,-0.30339 -0.3361972,-0.45473 -0.070556,-0.0938 -0.1375833,-0.18839 -0.200025,-0.27658 l -0.011995,-0.0169 -0.026458,-0.0374 c -0.053269,-0.0755 -0.1157111,-0.16369 -0.1848555,-0.24518 -0.1273528,-0.14993 -0.3062111,-0.2734 -0.517525,-0.35631 -0.1128889,-0.0437 -0.2264834,-0.072 -0.339725,-0.085 -0.063147,-0.006 -0.1312334,-0.0106 -0.2056695,-0.0106 -0.052917,0 -0.1072444,0.002 -0.1605138,0.004 -0.1622778,0.005 -0.32420282,0.0109 -0.48648059,0.0173 l -0.0119944,7.1e-4 -0.24235832,0.01 c -0.3937,0.0145 -0.78104999,0.0289 -1.18039442,0.0448 -0.0331611,0.002 -0.0744361,0.0145 -0.0938389,0.0392 -0.0356306,0.0455 0,0.0956 0.0165806,0.11995 0.27728332,0.39546 0.57220554,0.7881 0.85654442,1.16699 l 0.01375833,0.0166 c 0.31115,0.41557 0.6141861,0.8075 0.8967611,1.16557 l 0.14604998,0.18592 0.013758,0.018 c 0.2480027,0.31432 0.5020027,0.63888 0.7581194,0.95567 0.054328,0.0681 0.1075972,0.13512 0.1626305,0.20179 l 0.1485195,0.18451 c 0.2674055,0.33266 0.5831416,0.67239 0.9641416,1.03822 0.180975,0.17427 0.3351389,0.31715 0.5224639,0.42792 0.1686278,0.10054 0.3725333,0.16651 0.6395861,0.2092 0.2314222,0.0381 0.4709583,0.0547 0.7013222,0.0709 l 0.016581,10e-4 h 0.00917 l 0.044097,0.004 0.0127,7.1e-4 c 0.031397,0.003 0.061736,0.005 0.093839,0.005 0.068792,0 0.1248833,-0.0113 0.1799167,-0.0353 0.1016,-0.0466 0.1897944,-0.11606 0.2550583,-0.20425 0.053269,-0.0737 0.1026583,-0.15205 0.1495778,-0.2286 l 0.041275,-0.0663 c 0.027517,-0.0413 0.052211,-0.0833 0.080081,-0.12453 l 0.068792,-0.11148 0.046567,-0.0755 0.1266473,-0.20038 0.066322,-0.10442 c 0.068086,-0.1076 0.1347611,-0.21519 0.2010833,-0.32244 0.2945695,-0.46919 0.5510389,-0.88053 0.7852833,-1.25941 0.1816806,-0.28999 0.3608917,-0.58138 0.5383389,-0.87137 l 0.00423,-0.005 0.2367139,-0.38558 c 0.075847,-0.12171 0.1516945,-0.24307 0.2271889,-0.36513 l 0.085372,-0.13899 0.075847,-0.12277 c 0.033161,-0.0522 0.064558,-0.10442 0.096308,-0.15699 0.020814,-0.0325 0.039864,-0.0653 0.060678,-0.0977 l 0.024694,-0.0399 c 0.063853,-0.1076 0.1322917,-0.21766 0.1996722,-0.32526 0.010936,-0.018 0.022225,-0.0346 0.033161,-0.0512 l 0.00811,-0.0116 c 0.048331,-0.0737 0.096308,-0.14676 0.1266472,-0.22931 0.038806,-0.10971 0.028928,-0.22613 -0.026105,-0.31962"
         style="fill:url(#linearGradient900);stroke:none;stroke-width:0.35277778"
         id="path902"
         inkscape:connector-curvature="0" />
      <path
         d="m 13.580233,144.5783 c 0.0042,3.5e-4 0.01164,0 0.01799,-7.1e-4 l -0.01094,0.001 z m 1.3208,-0.67028 -0.01129,0.006 0.0074,0.0106 0.01376,0.0194 -3.53e-4,-0.001 0.0032,0.005 c 0.05045,0.0716 0.09031,0.13758 0.113947,0.18944 0.04128,0.0878 0.09807,0.33937 0.103012,0.48542 0.0042,0.12136 0.0042,0.26988 -0.03422,0.45509 -0.03598,0.17533 -0.0635,0.27799 -0.158397,0.46249 -0.08961,0.17321 -0.176389,0.3115 -0.290689,0.46284 -0.08114,0.1069 -0.371475,0.47096 -0.678744,0.66711 -0.306917,0.19649 -0.510823,0.30233 -0.727075,0.37676 -0.149931,0.0504 -0.601839,0.20461 -1.241778,0.20673 -0.589492,0.003 -2.8642028,0.006 -2.8874862,0.006 -0.00282,0 -0.2741083,0.006 -0.4268611,0.0564 -0.08008,0.0265 -0.6307666,0.20814 -1.1126611,0.36654 l -0.6526388,0.21484 0.00388,-0.006 c 0.038806,-0.0656 0.081492,-0.13335 0.1227667,-0.1965 l 0.030339,-0.0483 c 0.012347,-0.019 0.023283,-0.0385 0.03563,-0.0579 l 0.104775,-0.16793 0.090664,-0.14605 0.1322917,-0.20813 0.00564,-0.0102 0.035631,-0.0575 c 0.073025,-0.11359 0.1474611,-0.23213 0.2218972,-0.35383 0.090664,-0.14888 0.1954389,-0.27517 0.31115,-0.3736 0.1432278,-0.12241 0.3026833,-0.19967 0.4617861,-0.22366 0.061383,-0.008 0.1259416,-0.0134 0.2046111,-0.0134 0.042686,0 0.083961,0.001 0.1252361,0.003 l 0.1224139,0.005 c 0.081492,0.004 0.1640416,0.008 0.2451805,0.0102 0.3457222,0.009 0.6981472,0.012 1.0368139,0.0148 l 0.0388,3.5e-4 h 0.01235 l 0.123825,0.001 c 0.08961,7.1e-4 0.180269,0.001 0.271286,0.001 0.248002,0.002 0.496358,0.005 0.745066,0.006 h 0.12947 l 0.04374,0.001 c 0.07726,3.5e-4 0.153106,7e-4 0.230011,7e-4 0.132998,0 0.241653,-0.002 0.342195,-0.006 0.252589,-0.0102 0.49918,-0.0642 0.733425,-0.16052 0.242711,-0.0991 0.435328,-0.23283 0.572558,-0.39617 0.179564,-0.21695 0.267406,-0.46919 0.239889,-0.69497 -0.0085,-0.073 -0.02893,-0.14322 -0.06209,-0.21237 0.09772,-0.0131 0.288925,-0.0593 0.428272,-0.0977 0.159456,-0.0448 0.344664,-0.12665 0.468136,-0.17992 l 0.0053,-0.003 0.02822,-0.013 c 0.0035,-7.1e-4 0.343606,-0.16581 0.343606,-0.20743 v -0.008 c -0.05786,-0.16228 -0.154164,-0.23531 -0.24765,-0.2974 -0.09031,-0.0589 -0.289278,-0.11324 -0.4953,-0.13299 -0.144992,-0.0138 -0.289631,-0.0162 -0.362656,-0.0162 -0.03387,0 -0.05327,7e-4 -0.05327,7e-4 H 11.9885 c -0.06315,0 -0.618772,0 -0.681567,0.007 -0.07408,0.007 -0.167922,0.0649 -0.212725,0.11394 -0.03634,0.0406 -0.123119,0.17145 -0.152047,0.21485 -0.0056,0.008 -0.0085,0.013 -0.0095,0.0137 -0.0028,0.005 -0.358069,0.57009 -0.446264,0.6858 -0.07373,0.0988 -0.298803,0.12947 -0.324908,0.13265 l -1.5010695,0.29739 c 0.1227667,-0.19826 0.2480028,-0.39617 0.3718278,-0.59302 l 0.068792,-0.11007 0.027517,-0.0437 0.2081389,-0.33126 c 0.091017,-0.14499 0.1802694,-0.28928 0.2712861,-0.43462 l 0.1210028,-0.19509 c 0.027517,-0.0427 0.053622,-0.0854 0.080433,-0.12735 l 0.043744,-0.0688 c 0.076906,-0.12312 0.1573389,-0.24377 0.2310699,-0.36865 l 0.0085,-0.0123 c 0.0053,-0.01 0.01411,-0.0212 0.02187,-0.036 0.0042,-0.005 0.0085,-0.0127 0.01235,-0.0187 0.0071,-0.009 0.01376,-0.0219 0.02081,-0.0332 l 0.0028,-0.006 c 0.04692,-0.073 0.09172,-0.14711 0.138994,-0.22049 l 0.01376,-0.024 c 0.04798,-0.0769 0.09207,-0.14816 0.147108,-0.19826 0.04692,-0.0434 0.107597,-0.0663 0.190147,-0.0723 0.04727,-0.004 0.09913,-0.006 0.165453,-0.006 0.0321,0 0.06456,0 0.09525,7.1e-4 0.0314,0 0.06068,0 0.09172,0 l 0.208139,7e-4 c 0.173214,0 0.347486,-7e-4 0.521758,-7e-4 h 0.115711 c 0.21202,-7.1e-4 0.424039,-0.002 0.63747,-0.002 l 1.634419,0.002 c 0.286456,0 0.50412,0.0159 0.705203,0.0494 0.224367,0.0381 0.422628,0.10196 0.59055,0.19086 0.176389,0.0931 0.334786,0.21378 0.472369,0.3556 0.02893,0.0303 0.05503,0.06 0.08114,0.091 -0.04904,0.1069 -0.189441,0.36301 -0.474839,0.58703 -0.319616,0.25188 -0.510469,0.37112 -0.560563,0.40146 z m -4.9297163,-1.20826 c 0.00564,-0.007 0.00882,-0.0145 0.010936,-0.0166 -0.00247,0.005 -0.0067,0.0106 -0.010936,0.0166 z m -0.012347,0.0208 c -0.00423,0.007 -0.010936,0.0162 -0.014464,0.0219 0.00212,-0.004 0.00776,-0.013 0.014464,-0.0219 z m 6.6191693,1.0608 c -0.07726,-0.4258 -0.273403,-0.81844 -0.551745,-1.10772 -0.152047,-0.1591 -0.328083,-0.29175 -0.523875,-0.39546 -0.188383,-0.10019 -0.408869,-0.17181 -0.652639,-0.21273 -0.210608,-0.0353 -0.439208,-0.0505 -0.739422,-0.0505 l -1.634419,-0.003 c -0.213431,0 -0.42545,7.1e-4 -0.638528,10e-4 h -0.08573 c -0.183797,0 -0.367594,0.001 -0.550686,0.001 h -0.208139 c -0.02046,0 -0.04198,-0.001 -0.06315,-0.001 h -0.02434 l -0.0254,-7e-4 c -0.02469,0 -0.04939,0 -0.07408,0 -0.07056,0 -0.127,0.002 -0.181328,0.006 -0.130175,0.0102 -0.231775,0.0515 -0.314678,0.12665 -0.07267,0.0681 -0.125236,0.1524 -0.176036,0.23354 l -0.0056,0.008 -0.01376,0.0229 c -0.01658,0.0268 -0.03316,0.0529 -0.04939,0.0797 l -0.04692,0.0737 -0.01799,0.0286 c -0.00952,0.0137 -0.017991,0.0275 -0.026105,0.042 l -0.0067,0.0127 c -0.00423,0.008 -0.00706,0.012 -0.011289,0.0169 -0.0067,0.009 -0.034219,0.0543 -0.039864,0.0624 l -0.00776,0.0123 -0.014111,0.0243 -0.049742,0.0797 c -0.03175,0.0519 -0.063147,0.10195 -0.096308,0.1524 l -0.0635,0.0991 -0.026105,0.0427 c -0.034219,0.055 -0.070203,0.11007 -0.1044222,0.16581 l -0.1213556,0.19509 -0.073025,0.11677 c -0.065969,0.10512 -0.1322916,0.21131 -0.1982611,0.31608 L 8.95395,144.26085 c -0.1830917,0.29281 -0.3732389,0.59549 -0.5591528,0.895 -0.027517,0.0441 -0.020814,0.0776 -0.00953,0.097 0.028928,0.055 0.1210028,0.0804 0.2868084,0.0829 l 0.1552222,0.002 c 0.1940278,0.001 0.3894666,0.003 0.5824361,0.006 l 0.1326444,0.001 c 0.2032,0.003 0.4071056,0.005 0.6092477,0.008 l 0.122767,0.002 0.24518,0.003 h 0.04657 c 0.03175,3.6e-4 0.0635,7.1e-4 0.0956,7.1e-4 0.05891,0 0.135819,-7.1e-4 0.213078,-0.0131 0.112888,-0.0152 0.195791,-0.0476 0.277988,-0.10548 0.07303,-0.0526 0.112889,-0.12101 0.152753,-0.18662 l 0.01129,-0.0198 c 0.0053,-0.008 0.0095,-0.0162 0.01517,-0.0243 0.03845,-0.0639 0.07832,-0.127 0.11818,-0.18874 l 0.04339,-0.0691 0.02822,-0.0452 c 0.05644,-0.0892 0.112889,-0.17991 0.169333,-0.27164 l 0.01235,-0.0166 0.01376,-0.0102 0.01658,-0.006 c 0.0074,-0.002 0.01658,-0.002 0.02081,-0.002 0.08114,-10e-4 0.163689,-10e-4 0.245181,-10e-4 h 0.246239 l 0.246591,10e-4 0.06315,-10e-4 h 0.06279 c 0.07302,0 0.159103,10e-4 0.243064,0.004 0.129822,0.004 0.239536,0.0226 0.333728,0.0557 0.153811,0.0547 0.271991,0.21026 0.294216,0.38876 0.02046,0.16863 -0.05115,0.36442 -0.195086,0.53764 -0.113241,0.13687 -0.280105,0.25047 -0.492125,0.33796 -0.212019,0.0861 -0.434975,0.13546 -0.663222,0.14464 -0.102305,0.004 -0.205669,0.006 -0.333728,0.006 -0.07514,0 -0.14993,-7.1e-4 -0.225777,-0.001 -0.05927,-3.5e-4 -0.118181,-3.5e-4 -0.177095,-0.002 l -0.165805,-7.1e-4 c -0.192617,-7e-4 -0.385587,-0.002 -0.577498,-0.004 -0.131586,-0.002 -0.263877,-0.003 -0.395816,-0.004 -0.3841759,-0.002 -0.7313092,-0.005 -1.0837342,-0.0145 -0.081139,-0.003 -0.1612195,-0.006 -0.2423584,-0.009 l -0.1224138,-0.005 c -0.044097,-0.002 -0.089606,-0.003 -0.1337028,-0.003 -0.0889,0 -0.1654528,0.004 -0.2342445,0.0152 -0.1982611,0.0293 -0.3936999,0.12312 -0.5658555,0.26988 -0.13335,0.115 -0.2518833,0.25647 -0.3538361,0.42298 -0.074436,0.12135 -0.1471083,0.23707 -0.219075,0.35278 l -0.042686,0.0663 c -0.032808,0.0536 -0.067381,0.10724 -0.1001889,0.16087 l -0.030339,0.049 -0.092428,0.14605 -0.104775,0.16792 c -0.012347,0.0201 -0.026105,0.0413 -0.038453,0.0614 l -0.024695,0.0402 -0.012347,0.018 c -0.038805,0.0603 -0.078669,0.12523 -0.1164167,0.18732 -0.011642,0.0219 -0.0254,0.043 -0.038453,0.0624 l -0.00811,0.0131 c -0.044097,0.0649 -0.077964,0.11676 -0.066322,0.16827 0.00564,0.0254 0.025047,0.0473 0.052564,0.0632 0.048683,0.0279 0.096308,0.0318 0.1368778,0.0339 h 0.029986 c 0.051153,7.1e-4 0.104775,7.1e-4 0.1531056,0.004 0.1389944,0.005 0.2779889,0.0102 0.4173361,0.0138 l 0.070203,0.003 c 0.083961,0.002 0.1693333,0.005 0.2532944,0.008 0.4406194,0.0155 0.9405055,0.03 1.4848416,0.0437 l 0.180975,0.005 c 0.3802945,0.009 0.8512534,0.0226 1.2999864,0.0286 0.183092,0.003 0.377472,0.005 0.611364,0.005 h 0.128764 c 0.221191,-3.5e-4 0.4826,-0.002 0.740833,-0.0116 0.394406,-0.0148 0.911225,-0.0515 1.41217,-0.20108 0.228599,-0.0688 0.445911,-0.15911 0.645583,-0.26847 0.190147,-0.10477 0.381353,-0.23177 0.582436,-0.38735 0.344311,-0.2667 0.656167,-0.58596 0.928158,-0.94791 0.135467,-0.18168 0.265642,-0.3803 0.385939,-0.59126 0.106892,-0.18873 0.204611,-0.39476 0.29845,-0.63076 0.170745,-0.42863 0.219428,-0.94615 0.132292,-1.41782"
         style="fill:url(#linearGradient926);stroke:none;stroke-width:0.35277778"
         id="path928"
         inkscape:connector-curvature="0" />
      <path
         d="m 19.292764,142.2609 0.03104,0.002 0.06597,0.001 0.04269,0.002 c 0.05045,0.002 0.100541,0.003 0.151341,0.004 0.09243,0 0.185914,0.002 0.279048,0.003 l 0.06809,0.002 0.166511,0.003 c 0.21978,0.003 0.460375,0.007 0.737658,0.0145 l 0.104422,0.002 h 0.01164 c 0.08749,0.003 0.17145,0.006 0.255411,0.006 h 0.118533 c 0.0695,0 0.143934,0 0.213078,0.0102 0.0381,0.005 0.08819,0.0169 0.12065,0.0451 l -1.046339,0.66076 c -7.05e-4,3.5e-4 -0.12453,0.0832 -0.176389,0.17392 -0.02752,0.0483 -0.7874,1.26224 -2.141008,3.41947 l -0.05785,0.0928 -0.0056,0.007 0.006,0.007 0.02858,0.0303 0.0053,0.006 0.0085,-0.005 1.618544,-0.91087 c 0.03881,0.0254 0.08326,0.0385 0.136878,0.0385 h 0.01517 c 0.258939,-0.01 0.517525,-0.0219 0.765528,-0.0356 l 0.1016,-0.005 0.04939,-0.003 c 0.152753,-0.009 0.306917,-0.0169 0.460728,-0.0247 0.219428,-0.0102 0.439914,-0.0222 0.646289,-0.0339 l 0.09208,-0.005 c 0.0822,-0.005 0.164747,-0.0102 0.246944,-0.0159 l 0.04763,-0.003 c 0.156986,-0.0102 0.299156,-0.019 0.442031,-0.0254 0.240947,-0.0123 0.487539,-0.0275 0.739069,-0.0441 0.02681,-0.002 0.05221,-0.004 0.07761,-0.005 l 0.0441,-0.003 0.0127,-7e-4 c 0.06914,-0.005 0.152048,-0.01 0.236714,-0.0162 0.0508,-0.005 0.09701,-0.008 0.140053,-0.0127 -0.277283,0.21519 -1.081969,0.78211 -1.290461,0.92816 -0.247297,0.17286 -0.487186,0.29703 -0.691444,0.35877 -0.208492,0.0635 -0.507295,0.073 -0.512234,0.073 -0.0021,0 -0.0441,0.001 -0.112183,0.006 -1.262592,0.0536 -1.986845,0.0836 -2.15265,0.0868 -0.285045,0.006 -0.805744,0.0296 -1.086556,0.0441 -0.226483,0.0123 -0.780344,0.19156 -0.785636,0.19297 l -1.643239,0.52564 c -0.0071,-0.0268 -0.01129,-0.0543 -0.0085,-0.0808 0.0042,-0.0656 0.0441,-0.13617 0.09243,-0.21413 0.03316,-0.0543 0.06738,-0.1076 0.101952,-0.16193 l 0.01976,-0.0332 0.07091,-0.11112 c 0.119945,-0.19262 0.240947,-0.38524 0.362303,-0.57785 l 0.06809,-0.10831 c 0.119239,-0.18909 0.23742,-0.37747 0.355247,-0.56656 0.211314,-0.33761 0.423334,-0.67521 0.635353,-1.01212 l 0.152047,-0.24447 c 0.354895,-0.56268 0.708378,-1.12642 1.060803,-1.69051 l 0.07902,-0.127 c 0.138289,-0.22225 0.277989,-0.44556 0.419806,-0.66887 z m 5.175602,3.21028 c -0.02752,-0.0448 -0.07832,-0.0448 -0.09913,-0.0448 h -0.01235 c -0.104775,0.003 -0.216606,0.01 -0.362656,0.0236 -0.0635,0.005 -0.126647,0.01 -0.190147,0.0131 l -0.05151,0.003 c -0.03986,0.002 -0.08149,0.005 -0.122061,0.008 l -0.0635,0.004 c -0.220839,0.0152 -0.449439,0.0296 -0.674158,0.0402 -0.119592,0.006 -0.237772,0.0134 -0.357717,0.0201 l -0.08678,0.006 c -0.09807,0.007 -0.195439,0.0134 -0.293864,0.0187 l -0.09349,0.006 c -0.214842,0.0116 -0.427567,0.0243 -0.642056,0.0349 -0.171097,0.007 -0.339725,0.0166 -0.509764,0.0258 l -0.0081,3.5e-4 c -0.279048,0.0152 -0.566914,0.0303 -0.85725,0.0402 h -0.0085 c -0.01376,0 -0.02117,-0.002 -0.0247,-0.005 0,-7.1e-4 0.0014,-0.008 0.01235,-0.0268 0.164041,-0.29069 0.346427,-0.57186 0.523522,-0.84455 0.08643,-0.13371 0.178153,-0.27446 0.267405,-0.41558 l 0.07444,-0.11923 0.07867,-0.12524 c 0.09384,-0.1524 0.166511,-0.26882 0.235303,-0.37747 0.08114,-0.12453 0.159103,-0.25083 0.236714,-0.37571 l 0.01552,-0.024 c 0.04198,-0.067 0.08326,-0.1337 0.126294,-0.20108 0.0441,-0.0699 0.08819,-0.14076 0.132292,-0.21026 l 0.06103,-0.0984 0.01058,-0.0152 c 0.05503,-0.085 0.110419,-0.17286 0.126647,-0.27764 0.01658,-0.11359 -0.01094,-0.22613 -0.07408,-0.30797 -0.05821,-0.0748 -0.151695,-0.12242 -0.271992,-0.139 -0.08255,-0.0106 -0.162983,-0.0113 -0.240242,-0.0113 h -0.06809 l -0.04904,-0.001 c -0.08678,-7e-4 -0.174625,-0.003 -0.262819,-0.006 l -0.104775,-0.003 c -0.247297,-0.006 -0.493889,-0.01 -0.740128,-0.0145 l -0.166511,-0.002 c -0.115711,-0.002 -0.232833,-0.004 -0.34925,-0.004 -0.06244,-0.001 -0.124531,-0.002 -0.18662,-0.005 l -0.06668,-0.002 -0.02187,-7e-4 c -0.01094,-0.001 -0.02434,-0.002 -0.03669,-0.002 -0.04551,0 -0.103364,0.008 -0.144991,0.0762 -0.174273,0.2734 -0.34537,0.54715 -0.534459,0.8516 -0.08467,0.1337 -0.167216,0.26705 -0.251177,0.40076 -0.151695,0.24271 -0.304448,0.48507 -0.456848,0.72742 l -0.006,0.0113 -0.324908,0.51647 -0.152753,0.24271 -0.183092,0.29245 c -0.150988,0.23989 -0.301625,0.48049 -0.451908,0.72143 -0.140405,0.22472 -0.282222,0.4498 -0.423333,0.67381 l -0.07091,0.11289 c -0.09701,0.15593 -0.195438,0.3108 -0.291747,0.46566 l -0.06985,0.11042 -0.01164,0.0187 c -0.03775,0.0596 -0.0755,0.11853 -0.112184,0.17886 -0.05997,0.0984 -0.115005,0.19579 -0.121708,0.30797 -0.0078,0.1143 0.02752,0.22649 0.09772,0.30657 0.08396,0.0938 0.197556,0.12594 0.277989,0.13582 0.0441,0.006 0.09243,0.01 0.14605,0.01 0.04269,0 0.08467,-0.002 0.126647,-0.004 l 0.02752,-0.001 0.0628,-0.003 c 0.104422,-0.005 0.209197,-0.008 0.313619,-0.0113 l 0.05468,-0.002 c 0.290336,-0.0102 0.525991,-0.019 0.738363,-0.0282 0.423687,-0.0176 0.881592,-0.0399 1.482725,-0.0705 0.147109,-0.006 0.293159,-0.0141 0.439209,-0.0222 0.370416,-0.0201 0.70485,-0.0378 1.041752,-0.0505 0.04974,-0.002 0.09913,-0.004 0.148873,-0.005 0.04127,-0.002 0.08255,-0.004 0.123825,-0.005 0.155222,-0.005 0.310444,-0.0109 0.466019,-0.0187 0.246945,-0.0109 0.489303,-0.0247 0.729192,-0.0632 0.244828,-0.0392 0.46355,-0.10901 0.652286,-0.20743 0.173567,-0.0917 0.344664,-0.22261 0.523169,-0.39935 0.169334,-0.16757 0.324909,-0.35489 0.466373,-0.53234 0.142522,-0.17604 0.277988,-0.36019 0.41028,-0.53763 l 0.0056,-0.008 0.02399,-0.0328 c 0.05891,-0.0801 0.118534,-0.15981 0.179211,-0.23919 0.05539,-0.0758 0.112537,-0.15169 0.168275,-0.22683 l 0.01023,-0.0131 c 0.03598,-0.0483 0.07585,-0.10336 0.09913,-0.16545 0.01094,-0.0314 0.0064,-0.0674 -0.01235,-0.097"
         style="fill:url(#linearGradient952);stroke:none;stroke-width:0.35277778"
         id="path954"
         inkscape:connector-curvature="0" />
      <path
         d="m 32.448905,141.9501 c -0.01058,-0.0109 -0.249061,-0.26211 -0.348192,-0.34784 l -0.0095,-0.008 c -0.364066,-0.31997 -0.780697,-0.51506 -1.240366,-0.57926 l -0.01129,-10e-4 -0.0078,0.0138 c -0.06915,0.12382 -2.543528,4.37762 -3.814586,5.88715 l -0.134761,0.16052 c -1.203678,1.43227 -2.243667,2.66946 -4.640086,2.84726 -2.43452,0.18204 -7.284861,0.37465 -9.435747,0.37465 -0.128059,0 -0.248003,0 -0.35807,-0.002 -2.394655,-0.0279 -8.9326857,-0.17181 -10.4252885,-0.4826 -1.50918327,-0.31433 -2.22814436,-0.61419 -3.8089415,-2.53754 -1.5310556,-1.86372 -4.0837555,-6.18419 -4.1088027,-6.22793 l -0.00635,-0.01 -0.010936,7.1e-4 c -0.00176,7e-4 -0.1753306,0.0201 -0.2973917,0.0494 -0.1093611,0.0257 -0.2772833,0.0801 -0.4240389,0.15451 -0.1213555,0.0614 -0.2451805,0.14111 -0.3711222,0.23919 -0.088194,0.0688 -0.17145,0.15204 -0.2091972,0.18732 -0.00811,0.009 -0.013758,0.0141 -0.016581,0.0173 -0.01905,0.0169 -0.2264833,0.22507 -0.2751666,0.28151 l -0.00564,0.008 0.00459,0.0102 c 0.00564,0.0123 0.5764389,1.00012 0.6914445,1.19732 0.00882,0.018 1.0188222,1.74026 1.5786805,2.57775 0.5729111,0.85302 1.4368638,2.14277 2.4391055,3.27731 0.9814277,1.11125 1.7275527,1.55328 2.54458604,1.8743 0.84349165,0.33232 2.39324436,0.6283 3.60503606,0.69039 l 0.2924527,0.0148 c 1.5670389,0.0804 5.7344027,0.29457 8.389055,0.29457 0.14605,0 0.287161,-7.1e-4 0.423334,-0.002 2.448277,-0.025 5.654675,-0.0801 8.746772,-0.28928 2.691694,-0.18203 3.651955,-0.58526 3.968397,-0.71931 0.02716,-0.0109 0.04904,-0.0194 0.06562,-0.0258 l 0.01094,-0.005 c 0.862188,-0.32244 1.692275,-0.91793 2.339622,-1.67534 1.020233,-1.1938 1.8796,-2.28248 2.766483,-3.71228 0.882297,-1.42276 2.083153,-3.49074 2.095853,-3.51155 l 0.0063,-0.0109 -0.0085,-0.01"
         style="fill:url(#linearGradient972);stroke:none;stroke-width:0.35277778"
         id="path974"
         inkscape:connector-curvature="0" />
      <path
         d="m -5.9117968,141.03747 c 0,0 -0.1763889,0.0571 -0.088194,0.20461 0.3919361,0.66075 2.6557111,4.43653 4.0657638,6.15315 1.53034998,1.85949 2.28282496,2.26377 3.9186555,2.60385 1.5112999,0.31433 8.0641475,0.45791 10.4612715,0.48719 0.110773,0.001 0.232833,0.002 0.363714,0.002 2.154766,0 7.012164,-0.19261 9.447036,-0.37606 2.4765,-0.18309 3.54083,-1.44991 4.772025,-2.91606 0.0448,-0.0526 0.08925,-0.10548 0.134761,-0.1591 0.663576,-0.7867 1.669697,-2.35127 2.398536,-3.52531 0.421216,-0.6798 0.785636,-1.28658 1.017058,-1.67605 0.1905,-0.32102 0.299508,-0.50341 0.361245,-0.61312 0,0 0.07303,-0.13618 -0.03034,-0.17922 l -0.05891,-0.0289 -0.01129,-0.001 -0.0078,0.0138 c -0.06915,0.12382 -2.543527,4.37762 -3.814585,5.88715 l -0.134762,0.16052 c -1.203678,1.43227 -2.243666,2.66946 -4.640086,2.84726 -2.434519,0.18204 -7.28486,0.37465 -9.435746,0.37465 -0.128059,0 -0.248003,0 -0.35807,-0.002 -2.394655,-0.0279 -8.9326862,-0.17181 -10.425289,-0.4826 -1.50918327,-0.31433 -2.22814436,-0.61419 -3.8089415,-2.53754 -1.5310556,-1.86372 -4.0837555,-6.18419 -4.1088027,-6.22793 l -0.00635,-0.01 -0.010936,7.1e-4"
         style="fill:url(#linearGradient990);stroke:none;stroke-width:0.35277778"
         id="path992"
         inkscape:connector-curvature="0" />
      <path
         d="m 32.214308,141.73526 -0.162983,0.27411 c -0.324909,0.55668 -1.255537,2.14383 -1.973792,3.30129 -0.875595,1.41182 -1.727553,2.48885 -2.737203,3.67207 -0.6096,0.71367 -1.393472,1.27564 -2.205566,1.5815 l -0.01199,0.005 c -0.0194,0.008 -0.04445,0.0176 -0.07655,0.0314 -0.814564,0.34149 -2.11455,0.57574 -3.865738,0.69392 -3.07975,0.20708 -6.280856,0.26211 -8.726311,0.28681 -0.133703,0.003 -0.272345,0.003 -0.415925,0.003 -2.6535947,0 -6.8206058,-0.21343 -8.3883502,-0.29492 l -0.2808111,-0.0138 c -1.2971638,-0.066 -2.79999713,-0.39123 -3.50237767,-0.66746 -0.77187776,-0.30374 -1.47954993,-0.72425 -2.42076103,-1.78752 -0.9856611,-1.1169 -1.8429111,-2.39607 -2.4105305,-3.24344 -0.5552722,-0.82797 -1.5585722,-2.54212 -1.5688028,-2.55799 -0.1823861,-0.31609 -0.4321527,-0.74754 -0.5736166,-0.99448 0,0 -0.068792,-0.12136 -0.1672167,-0.16087 -0.014464,-0.007 -0.1026583,-0.0296 -0.1358194,0.001 l -0.021872,0.024 c -0.032103,0.0335 -0.059619,0.0614 -0.073378,0.078 l -0.00564,0.008 0.00459,0.0102 c 0.00564,0.0123 0.5764389,1.00012 0.6914445,1.19732 0.00882,0.018 1.0188222,1.74026 1.5786805,2.57775 0.5729111,0.85302 1.4368638,2.14277 2.4391055,3.27731 0.9814277,1.11125 1.7275527,1.55328 2.54458604,1.8743 0.84349165,0.33232 2.39324436,0.6283 3.60503606,0.69039 l 0.2924527,0.0148 c 1.5670389,0.0804 5.7344027,0.29457 8.3890547,0.29457 0.14605,0 0.287161,-7.1e-4 0.423334,-0.002 2.448277,-0.025 5.654675,-0.0801 8.746772,-0.28928 2.691694,-0.18203 3.651955,-0.58526 3.968397,-0.71931 0.02716,-0.0109 0.04904,-0.0194 0.06562,-0.0258 l 0.01094,-0.005 c 0.862188,-0.32244 1.692275,-0.91793 2.339622,-1.67534 1.020233,-1.1938 1.8796,-2.28248 2.766483,-3.71228 0.882297,-1.42276 2.083153,-3.49074 2.095853,-3.51155 l 0.0063,-0.0109 -0.0085,-0.01 c -0.006,-0.006 -0.132292,-0.13758 -0.225425,-0.23001 l -0.0092,0.0152"
         style="fill:url(#linearGradient1010);stroke:none;stroke-width:0.35277778"
         id="path1012"
         inkscape:connector-curvature="0" />
    </g>
  </g>
</svg>
