<?xml version="1.0" encoding="utf-8"?>
<!-- Generator: Adobe Illustrator 24.2.3, SVG Export Plug-In . SVG Version: 6.00 Build 0)  -->
<svg version="1.1" id="Layer_1" xmlns="http://www.w3.org/2000/svg" xmlns:xlink="http://www.w3.org/1999/xlink" x="0px" y="0px"
	 viewBox="0 0 1012.6 371.7" style="enable-background:new 0 0 1012.6 371.7;" xml:space="preserve">
<style type="text/css">
	.st0{clip-path:url(#SVGID_2_);}
	.st1{fill:#333F48;}
	.st2{fill:#A6B8C1;}
</style>
<g>
	<defs>
		<rect id="SVGID_1_" width="1012.6" height="371.7"/>
	</defs>
	<clipPath id="SVGID_2_">
		<use xlink:href="#SVGID_1_"  style="overflow:visible;"/>
	</clipPath>
	<g class="st0">
		<g>
			<polygon class="st1" points="136.1,88.2 157.6,149.3 158,149.3 176.5,85.1 199.2,85.1 199.2,88.2 164.7,185.9 151.3,185.9 
				131.7,132.3 131.2,132.3 112,185.9 98.5,185.9 63.6,88.2 63.6,85.1 86.2,85.1 105.6,149.3 106,149.3 126.4,88.2 			"/>
			<polygon class="st1" points="273.3,128.3 273.3,185.9 251.8,185.9 251.8,85.1 259,85.1 315.2,142.3 315.2,85.1 336.8,85.1 
				336.8,185.9 330,185.9 			"/>
			<polygon class="st1" points="377.2,128.3 377.2,185.9 355.8,185.9 355.8,85.1 362.9,85.1 419.1,142.3 419.1,85.1 440.7,85.1 
				440.7,185.9 434,185.9 			"/>
			<polygon class="st1" points="521.6,103.9 481.5,103.9 481.5,124.4 519,124.4 519,143.3 481.5,143.3 481.5,166.3 522.7,166.3 
				522.7,185.9 459.8,185.9 459.8,85.1 521.6,85.1 			"/>
			<path class="st1" d="M602.7,133.6c9.4,3.9,14.4,12.1,14.4,22.5c0,17.7-11.8,29.8-32,29.8h-46.8V85.1h42.8
				c18.4,0,31.7,11.1,31.7,30C612.8,122.4,609.1,129.7,602.7,133.6 M559.8,103.7v22.9h19.7c7.3,0,12-4,12.1-10.8
				c0.1-7.3-4.6-12.1-12.1-12.1H559.8z M559.8,144.1v23h23.9c7.3,0,11.7-4.3,12.1-11.1c0.1-4-1.4-7.8-4.5-9.9c-2.4-1.7-5.3-2-8.6-2
				H559.8z"/>
			<path class="st1" d="M649.8,169.2l-7.8,16.7h-22.5V183l45.9-97.9h10.7L722,183v2.9h-22.3l-7.9-16.7H649.8z M656.9,151h27.9
				l-14-33.3L656.9,151z"/>
			<rect x="211.1" y="85.1" class="st1" width="21.7" height="100.8"/>
			<path class="st1" d="M768.9,84.6c19.8,0,39.5,9.5,45.2,32.7h-20.9c-5-9.7-12.9-13.5-24.3-13.5c-18.6,0-29.1,14.1-29.1,31.8
				c0,18.9,11.4,31.7,29.1,31.7c13.6,0,23.6-4.1,27.9-19h-27.1v-17.9h46.6c0.6,9.5,0.3,18.8-3,27.9c-7.5,20-25.3,28.4-44.3,28.4
				c-26.3,0-50.7-18-50.7-51C718.2,102.7,742.8,84.6,768.9,84.6"/>
			<path class="st1" d="M877,186.5c-24.2,0-50.3-16-50.3-51.1c0-35,26.3-51,50.7-51c24.2,0,50.3,15.9,50.3,51
				C927.6,165.5,906.8,186.5,877,186.5 M877.4,105.2c-14,0-28.2,9.4-28.2,30.3c0,22.5,14.5,30.5,28,30.5c13,0,28.2-8,28.2-30.5
				C905.4,114.5,891.3,105.2,877.4,105.2"/>
		</g>
		<g>
			<path class="st2" d="M406.9,263c0,11.5-7.4,18.6-19.4,18.6c-12.1,0-19.6-7.1-19.6-18.6v-43.5h-5.8V263c0,14.6,10,24.1,25.4,24.1
				c15.3,0,25.1-9.4,25.1-24.1v-43.6h-5.7V263z"/>
			<path class="st2" d="M478.5,249.6l-1.3-0.2c-8.6-1-18.3-2.1-18.3-12.1c0-10,9.8-13.5,18.2-13.5c9,0,18.9,3.3,19.6,12.5l0,0.5h5.5
				l0-0.6c-0.7-11.1-10.1-17.8-25.1-17.8c-12,0-24.2,6.5-24.2,19c0,14.2,13.6,15.9,24.6,17.3l0.8,0.1c9.9,1.4,20.1,2.9,19.9,13.3
				c-0.3,9.8-10.6,14.3-20,14.3c-16.1,0-21-8.5-21.4-13.6l0-0.5h-5.3l0,0.6c0.8,13.8,15,18.7,26.9,18.7c12.6,0,25.4-6,25.7-19.4
				C504.4,254.4,492.2,251.5,478.5,249.6z"/>
			<polygon class="st2" points="534.5,224.9 556.3,224.9 556.3,286.7 562.1,286.7 562.1,224.9 583.8,224.9 583.8,219.5 534.5,219.5 
							"/>
			<path class="st2" d="M667,240.6c0-12.4-9.4-21.1-22.7-21.1h-26v67.2h5.9v-25.2h19.2l20,25l0.2,0.2h6.1v-1.5l-20.1-24.4
				C660.2,258.8,667,251,667,240.6z M624.1,224.8h20.1c10,0,17,6.5,17,15.7c0,9.2-7,15.7-17,15.7h-20.1V224.8z"/>
			<polygon class="st2" points="782.2,254.7 814.2,254.7 814.2,249.3 782.2,249.3 782.2,224.7 815.6,224.7 815.6,219.5 776.4,219.5 
				776.4,286.7 815.9,286.7 815.9,281.2 782.2,281.2 			"/>
			<path class="st2" d="M880.1,249.6l-1.3-0.2c-8.6-1-18.3-2.1-18.3-12.1c0-10,9.8-13.5,18.2-13.5c9,0,18.9,3.3,19.6,12.5l0,0.5h5.5
				l0-0.6c-0.7-11.1-10.1-17.8-25.1-17.8c-12,0-24.2,6.5-24.2,19c0,14.2,13.6,15.9,24.6,17.3l0.8,0.1c9.9,1.4,20.1,2.9,19.9,13.3
				c-0.3,9.8-10.6,14.3-20,14.3c-16.1,0-21-8.5-21.4-13.6l0-0.5h-5.3l0,0.6c0.8,13.8,15,18.7,26.9,18.7c12.6,0,25.4-6,25.7-19.4
				C906,254.4,893.8,251.5,880.1,249.6z"/>
			<polygon class="st2" points="98.4,224.4 110.1,224.4 110.1,281.7 98.4,281.7 98.4,286.7 127.7,286.7 127.7,281.7 116,281.7 
				116,224.4 127.7,224.4 127.7,219.5 98.4,219.5 			"/>
			<polygon class="st2" points="215.2,251.6 215.6,274 171.4,219.7 171.3,219.5 168.5,219.5 168.5,286.7 174.4,286.7 174.4,252.9 
				174,231.9 218.7,286.7 221.1,286.7 221.1,219.5 215.2,219.5 			"/>
			<path class="st2" d="M290.8,219.5h-23.3v67.2h23.3c19.2,0,32.6-13.8,32.6-33.6C323.3,233.6,309.6,219.5,290.8,219.5z M273.4,225
				h17.3c15.8,0,26.8,11.6,26.8,28.2c0,16.5-11.1,28-26.9,28h-17.2V225z"/>
			<polygon class="st2" points="704.6,224.4 716.4,224.4 716.4,281.7 704.6,281.7 704.6,286.7 733.9,286.7 733.9,281.7 722.2,281.7 
				722.2,224.4 733.9,224.4 733.9,219.5 704.6,219.5 			"/>
		</g>
	</g>
</g>
</svg>
