<?xml version="1.0" encoding="utf-8"?>
<!-- Generator: Adobe Illustrator 25.3.1, SVG Export Plug-In . SVG Version: 6.00 Build 0)  -->
<svg version="1.1" id="Layer_1" xmlns="http://www.w3.org/2000/svg" xmlns:xlink="http://www.w3.org/1999/xlink" x="0px" y="0px"
	 viewBox="0 0 308.5 103.2" style="enable-background:new 0 0 308.5 103.2;" xml:space="preserve">
<style type="text/css">
	.st0{fill:#101820;}
	.st1{fill:url(#SVGID_1_);}
	.st2{fill:url(#SVGID_2_);}
	.st3{fill:url(#SVGID_3_);}
	.st4{fill:url(#SVGID_4_);}
	.st5{fill:url(#SVGID_5_);}
	.st6{fill:url(#SVGID_6_);}
	.st7{fill:url(#SVGID_7_);}
	.st8{fill:url(#SVGID_8_);}
	.st9{fill:url(#SVGID_9_);}
</style>
<g>
	<g>
		
			<rect x="132.7" y="76.1" transform="matrix(1 -1.108283e-03 1.108283e-03 1 -9.856001e-02 0.1505)" class="st0" width="6" height="25.7"/>
		<polygon class="st0" points="228.6,82.1 218.5,82.1 218.5,76.1 244.6,76.1 244.6,82.1 234.6,82.1 234.6,101.9 228.6,101.9 		"/>
		<polygon class="st0" points="70,87.4 61.4,102.2 50.4,76.1 56.7,76.1 62.2,89.4 70,75.9 77.6,89.1 83,76.1 89.4,76.1 78.4,102.2 
					"/>
		<path class="st0" d="M97.5,76.1l17.2,0c4.5,0.1,8.2,3.8,8.2,8.4c0,4-2.9,7.5-6.8,8.2l8.1,9.1h-7.2l-7.9-8.9h-5.6l0,8.9l-6,0V76.1z
			 M103.4,87.6c1.6,0,10.6,0,10.6,0c1.6,0,3-1.3,3-3c0-1.6-1.3-3-3-3c0,0-10.6,0-10.6,0L103.4,87.6z"/>
		<polygon class="st0" points="204.1,91.7 190,91.7 190,101.9 184,101.9 184,76.2 190,76.1 190,86.3 204.1,86.3 204.1,76.2 
			210,76.1 210,101.9 204.1,101.9 		"/>
		<path class="st0" d="M162.3,102c-7.9,0-14.4-5.8-14.4-13c0-7.2,6.5-13,14.4-13c4.2,0,8.2,1.6,10.9,4.5l0.2,0.2l-4.9,3.4l-0.1-0.1
			c-1.6-1.5-3.7-2.4-6-2.4c-4.5,0-8.2,3.3-8.2,7.4c0,4.1,3.7,7.4,8.2,7.4c3.1,0,6-1.6,7.4-4.1l-8.6,0l0-5.3h15.4l0,0.2
			c0.1,0.7,0.2,1.3,0.2,1.9C176.7,96.2,170.2,102,162.3,102z"/>
	</g>
	<g>
		<linearGradient id="SVGID_1_" gradientUnits="userSpaceOnUse" x1="63.754" y1="9.6724" x2="64.4152" y2="51.6174">
			<stop  offset="0" style="stop-color:#000000"/>
			<stop  offset="0.362" style="stop-color:#878787"/>
			<stop  offset="0.6884" style="stop-color:#FFFFFF"/>
			<stop  offset="1" style="stop-color:#B2B2B2"/>
		</linearGradient>
		<path class="st1" d="M3.3,6.9l73.9,2.5c0,0,7.1,0.2,12,5.2c5.2,5.4,33.6,31.1,36.3,33.6c2.7,2.5,2.3,6.6-2.4,6.5
			c-4.8-0.2-40.7-0.1-67.5-1.8c-5.4-0.5-7.5-1.6-10.6-4.6C41.8,45.3,5.7,15,2.1,11.5C0.5,10.1,0.4,6.9,3.3,6.9z"/>
		<linearGradient id="SVGID_2_" gradientUnits="userSpaceOnUse" x1="63.7458" y1="14.4283" x2="62.8936" y2="47.7364">
			<stop  offset="0" style="stop-color:#FFFFFF"/>
			<stop  offset="0.7498" style="stop-color:#4A4D4C"/>
			<stop  offset="0.9267" style="stop-color:#B2B2B2"/>
			<stop  offset="1" style="stop-color:#DADADA"/>
		</linearGradient>
		<path class="st2" d="M5.1,8.9c0,0,53.4,2.5,72.6,3.1c0,0,4.3-0.2,9.2,4.6c4.9,4.8,31.8,29.8,34.3,32c2.5,2.2,3,3.8-1.5,3.7
			c-4.5-0.1-40.5-1-65.6-2.5c-1-0.1-4.3-0.3-7.2-2.9c-2.9-2.7-38.2-32-41.6-35.1C3.8,10.7,2.4,8.8,5.1,8.9z"/>
		<g>
			<linearGradient id="SVGID_3_" gradientUnits="userSpaceOnUse" x1="3.15" y1="30.5623" x2="123.5257" y2="30.5623">
				<stop  offset="0" style="stop-color:#FFFFFF"/>
				<stop  offset="0.7498" style="stop-color:#4A4D4C"/>
				<stop  offset="0.9267" style="stop-color:#B2B2B2"/>
				<stop  offset="1" style="stop-color:#DADADA"/>
			</linearGradient>
			<path class="st3" d="M120.3,52.7c-0.2,0-0.4,0-0.6,0c-0.7,0-2,0-4-0.1c-11-0.3-40.3-0.8-61.7-2.4c-3-0.2-5.5-1.2-7.5-3.1
				c-1.4-1.3-11-9.3-20.2-17.1C16.7,21.9,6.7,13.6,5,12c-0.2-0.1-2.1-1.6-1.8-2.7c0.2-0.6,0.8-0.9,2-0.8c0.5,0,53.6,2.5,72.6,3.1
				h0.1c1.5,0.2,4.8,0.2,9.4,4.7c4.8,4.6,31.6,29.6,34.3,32c1.7,1.5,2.3,2.5,2,3.3C123.2,52.3,122.1,52.7,120.3,52.7z M4.9,9.3
				C4.2,9.3,4.1,9.5,4,9.5C4,9.8,4.5,10.6,5.5,11.3c1.8,1.6,11.8,10,21.4,18.1c9.7,8.1,18.7,15.9,20.3,17.1c3.1,2.3,5.9,2.7,6.9,2.8
				c21.4,1.3,50.7,2.1,61.7,2.4c1.9,0,3.3,0.1,4,0.1c0.2,0,0.4,0,0.5,0c2,0,2.1-0.2,2.3-0.4c0.3-0.2,0.1-0.9-1.7-2.5
				c-2.7-2.4-29.5-27.4-34.3-32c-4.4-4.3-7.9-4.4-8.8-4.4h-0.1c-18.9-0.6-72-3.1-72.6-3.1C5,9.3,5,9.3,4.9,9.3z"/>
		</g>
	</g>
	<linearGradient id="SVGID_4_" gradientUnits="userSpaceOnUse" x1="147.3282" y1="10.2527" x2="148.0688" y2="54.8994">
		<stop  offset="0" style="stop-color:#000000"/>
		<stop  offset="0.362" style="stop-color:#878787"/>
		<stop  offset="0.6884" style="stop-color:#FFFFFF"/>
		<stop  offset="1" style="stop-color:#B2B2B2"/>
	</linearGradient>
	<path class="st4" d="M98.6,8.9c0,0,55.1,1.1,96.7,0c2.2-0.1,3.8,3.6,1.9,4.9c-2.9,1.8-35.9,31.9-43.1,39.1c-3.7,3.8-11.2,1.7-13,0
		c-1.8-1.7-41.8-38.4-43.3-39.7C96.1,11.9,96.3,8.9,98.6,8.9z"/>
	<linearGradient id="SVGID_5_" gradientUnits="userSpaceOnUse" x1="147.1004" y1="13.6824" x2="147.1004" y2="51.1903">
		<stop  offset="0" style="stop-color:#FFFFFF"/>
		<stop  offset="0.7498" style="stop-color:#4A4D4C"/>
		<stop  offset="0.9267" style="stop-color:#B2B2B2"/>
		<stop  offset="1" style="stop-color:#DADADA"/>
	</linearGradient>
	<path class="st5" d="M101.3,11.2c0,0,51.8,1,90.8,0c2.1-0.1,2.8,0.8,1.2,2.1c-1.7,1.4-34,30.3-40.8,36.8c-3.4,3.1-8.5,1.9-10.8,0
		c-1.7-1.5-39.3-35.7-40.7-36.9C99.5,12,99.8,11.2,101.3,11.2z"/>
	<linearGradient id="SVGID_6_" gradientUnits="userSpaceOnUse" x1="99.8086" y1="31.8609" x2="195.144" y2="31.8609">
		<stop  offset="0" style="stop-color:#FFFFFF"/>
		<stop  offset="0.7498" style="stop-color:#4A4D4C"/>
		<stop  offset="0.9267" style="stop-color:#B2B2B2"/>
		<stop  offset="1" style="stop-color:#DADADA"/>
	</linearGradient>
	<path class="st6" d="M147.5,53c-2,0-4-0.7-5.1-1.7c-1.6-1.5-40-36.3-41.4-37.5c-1.2-0.9-1.3-1.7-1.1-2.1c0.1-0.3,0.5-0.9,1.7-0.9
		c0.3,0,23.4,0.4,50,0.4c15.6,0,29.4-0.1,40.9-0.4c0.1,0,0.2,0,0.4,0c1.5,0,2.1,0.5,2.2,1c0.2,0.7-0.1,1.4-1,2.2
		c-1.3,1.1-33.9,30.1-40.8,36.7C151.3,52.6,149,53,147.5,53z M101.6,11.9c-0.5,0-0.7,0.1-0.7,0.1c0,0,0.1,0.3,0.7,0.8
		c1.5,1.2,39.8,36,41.5,37.5c0.8,0.7,2.4,1.4,4.4,1.4c1.3,0,3.3-0.3,4.9-2c7-6.6,39.6-35.7,40.9-36.8c0.6-0.5,0.7-0.8,0.7-0.9
		c0-0.1-0.3-0.2-1.2-0.2c-0.1,0-0.2,0-0.3,0c-11.5,0.3-25.3,0.4-41,0.4C125,12.4,101.9,11.9,101.6,11.9L101.6,11.9z"/>
	<g>
		
			<linearGradient id="SVGID_7_" gradientUnits="userSpaceOnUse" x1="-134.5962" y1="9.6723" x2="-133.9351" y2="51.6174" gradientTransform="matrix(-1 0 0 1 95.5599 0)">
			<stop  offset="0" style="stop-color:#000000"/>
			<stop  offset="0.362" style="stop-color:#878787"/>
			<stop  offset="0.6884" style="stop-color:#FFFFFF"/>
			<stop  offset="1" style="stop-color:#B2B2B2"/>
		</linearGradient>
		<path class="st7" d="M290.6,6.9l-74,2.5c0,0-7.1,0.2-12,5.2c-5.2,5.4-33.6,31.1-36.3,33.6c-2.7,2.5-2.3,6.6,2.4,6.5
			c4.8-0.2,40.7-0.1,67.5-1.8c5.4-0.5,7.5-1.6,10.6-4.6c3.1-3,39.2-33.3,42.9-36.8C293.4,10.1,293.5,6.9,290.6,6.9z"/>
		
			<linearGradient id="SVGID_8_" gradientUnits="userSpaceOnUse" x1="-134.6054" y1="14.4283" x2="-135.4577" y2="47.7364" gradientTransform="matrix(-1 0 0 1 95.5599 0)">
			<stop  offset="0" style="stop-color:#FFFFFF"/>
			<stop  offset="0.7498" style="stop-color:#4A4D4C"/>
			<stop  offset="0.9267" style="stop-color:#B2B2B2"/>
			<stop  offset="1" style="stop-color:#DADADA"/>
		</linearGradient>
		<path class="st8" d="M288.8,8.9c0,0-53.4,2.5-72.6,3.1c0,0-4.3-0.2-9.2,4.6c-4.9,4.8-31.8,29.8-34.3,32c-2.5,2.2-3,3.8,1.5,3.7
			c4.5-0.1,40.5-1,65.6-2.5c1-0.1,4.3-0.3,7.2-2.9c2.9-2.7,38.2-32,41.6-35.1C290.1,10.7,291.5,8.8,288.8,8.9z"/>
		<g>
			
				<linearGradient id="SVGID_9_" gradientUnits="userSpaceOnUse" x1="-195.2012" y1="30.5623" x2="-74.8273" y2="30.5623" gradientTransform="matrix(-1 0 0 1 95.5599 0)">
				<stop  offset="0" style="stop-color:#FFFFFF"/>
				<stop  offset="0.7498" style="stop-color:#4A4D4C"/>
				<stop  offset="0.9267" style="stop-color:#B2B2B2"/>
				<stop  offset="1" style="stop-color:#DADADA"/>
			</linearGradient>
			<path class="st9" d="M170.5,51.5c-0.3-0.8,0.3-1.9,2-3.3c2.7-2.4,29.5-27.3,34.3-32c4.6-4.5,7.9-4.5,9.4-4.7h0.1
				c18.9-0.6,72-3.1,72.6-3.1c1.1-0.1,1.8,0.2,2,0.8c0.4,1.2-1.6,2.6-1.8,2.7c-1.8,1.6-11.7,9.9-21.4,18
				c-9.2,7.8-18.8,15.8-20.2,17.1c-2,1.8-4.5,2.8-7.5,3.1c-21.4,1.6-50.7,2.1-61.7,2.4c-1.9,0.1-3.3,0.1-4,0.1c-0.2,0-0.4,0-0.6,0
				C171.8,52.7,170.8,52.3,170.5,51.5z M288.8,9.3c-0.5,0-53.7,2.5-72.6,3.1h-0.1c-0.9,0.1-4.4,0.1-8.8,4.4
				c-4.8,4.6-31.6,29.6-34.3,32c-1.8,1.6-2,2.3-1.7,2.5c0.3,0.2,0.3,0.4,2.3,0.4c0.2,0,0.3,0,0.5,0c0.7,0,2-0.1,4-0.1
				c11-0.3,40.2-1.1,61.7-2.4c1-0.1,3.9-0.5,6.9-2.8c1.6-1.2,10.6-9,20.3-17.1c9.6-8.1,19.6-16.5,21.4-18.1c1-0.7,1.6-1.5,1.5-1.8
				c0-0.1-0.2-0.2-0.9-0.2C288.9,9.3,288.9,9.3,288.8,9.3z"/>
		</g>
	</g>
	<path class="st0" d="M297.2,2.3h-1.6V1.4h4.1v0.9h-1.6v5.1h-1V2.3z M305,5c0-0.8-0.1-1.7-0.1-2.5h0c-0.2,0.7-0.4,1.6-0.6,2.3
		l-0.8,2.6h-0.8L302,4.8c-0.2-0.8-0.4-1.6-0.6-2.4h0c0,0.8-0.1,1.8-0.1,2.6l-0.1,2.4h-0.9l0.4-6.1h1.3l0.7,2.4
		c0.2,0.7,0.4,1.4,0.5,2.1h0c0.1-0.7,0.3-1.4,0.5-2.1l0.8-2.4h1.3l0.3,6.1h-1L305,5z"/>
</g>
</svg>
