<svg height="134.8674" viewBox="0 0 400 134.8674" width="400" xmlns="http://www.w3.org/2000/svg"><path d="m8.85596 2.76132h33.785747l24.914186 35.725413 24.935-35.725413h33.785757l-42.36609 58.720747 50.94644 70.624003h-33.49453l-33.790963-47.35827-34.342174 47.35827h-33.229333l51.237653-70.624003zm0 0"/><path d="m302.52209 34.0718c1.66927-19.1212 22.43891-34.0718 46.24547-34.0718 22.97971 0 45.4186 10.514827 47.08788 38.216333h-27.14509c-1.11284-9.6932-9.97919-13.84296-18.82996-13.84296-7.20227 0-15.51222 2.76652-18.27874 7.202294-2.20486 3.608933-2.49089 7.753466-1.10762 11.6328 1.64846 4.987066 8.86634 8.024 15.77742 9.9636l19.94279 4.987066c27.97192 6.931867 33.78576 24.648934 33.78576 37.665067 0 24.93507-21.88248 39.0432-51.50285 39.0432-24.09256 0-49.02756-15.22107-49.56839-42.366133h26.30265c1.38326 11.076533 10.52002 18.564803 25.47582 18.564803 13.01092 0 22.97452-5.81907 22.97452-15.51227 0-8.309867-8.58034-13.016133-18.00312-15.241867l-17.43111-4.144533c-27.41549-7.488267-37.39468-21.326-35.72543-42.0956"/><path d="m201.78888 106.3962c-17.56631-3.44253-31.01925-18.143467-31.01925-39.386267 0-19.2148 11.54968-32.839333 27.20749-37.374l-1.41447-28.45548c-30.4472 5.491427-54.05094 29.922014-54.05094 65.82948 0 38.491867 27.09308 64.503337 60.66041 67.555867zm0 0"/><path d="m223.61933 1.263653-1.41445 28.50748c15.59543 4.669867 26.94229 18.1904 26.94229 37.2388 0 21.0452-13.21893 35.657737-30.73322 39.266667l-1.39886 28.2216c33.58294-3.25533 60.65523-29.1992 60.65523-67.488267 0-35.741066-23.58295-60.098853-54.05097-65.74628"/></svg>